G04 #@! TF.GenerationSoftware,KiCad,Pcbnew,(6.0.8)*
G04 #@! TF.CreationDate,2022-11-19T15:58:00-06:00*
G04 #@! TF.ProjectId,BlackBox_Rev1,426c6163-6b42-46f7-985f-526576312e6b,rev?*
G04 #@! TF.SameCoordinates,Original*
G04 #@! TF.FileFunction,Copper,L2,Bot*
G04 #@! TF.FilePolarity,Positive*
%FSLAX46Y46*%
G04 Gerber Fmt 4.6, Leading zero omitted, Abs format (unit mm)*
G04 Created by KiCad (PCBNEW (6.0.8)) date 2022-11-19 15:58:00*
%MOMM*%
%LPD*%
G01*
G04 APERTURE LIST*
G04 Aperture macros list*
%AMRoundRect*
0 Rectangle with rounded corners*
0 $1 Rounding radius*
0 $2 $3 $4 $5 $6 $7 $8 $9 X,Y pos of 4 corners*
0 Add a 4 corners polygon primitive as box body*
4,1,4,$2,$3,$4,$5,$6,$7,$8,$9,$2,$3,0*
0 Add four circle primitives for the rounded corners*
1,1,$1+$1,$2,$3*
1,1,$1+$1,$4,$5*
1,1,$1+$1,$6,$7*
1,1,$1+$1,$8,$9*
0 Add four rect primitives between the rounded corners*
20,1,$1+$1,$2,$3,$4,$5,0*
20,1,$1+$1,$4,$5,$6,$7,0*
20,1,$1+$1,$6,$7,$8,$9,0*
20,1,$1+$1,$8,$9,$2,$3,0*%
G04 Aperture macros list end*
G04 #@! TA.AperFunction,ComponentPad*
%ADD10O,3.000000X5.100000*%
G04 #@! TD*
G04 #@! TA.AperFunction,ComponentPad*
%ADD11C,1.100000*%
G04 #@! TD*
G04 #@! TA.AperFunction,ComponentPad*
%ADD12C,1.400000*%
G04 #@! TD*
G04 #@! TA.AperFunction,ComponentPad*
%ADD13C,4.000000*%
G04 #@! TD*
G04 #@! TA.AperFunction,ComponentPad*
%ADD14C,2.000000*%
G04 #@! TD*
G04 #@! TA.AperFunction,ComponentPad*
%ADD15R,1.358000X1.358000*%
G04 #@! TD*
G04 #@! TA.AperFunction,ComponentPad*
%ADD16C,1.358000*%
G04 #@! TD*
G04 #@! TA.AperFunction,ComponentPad*
%ADD17C,1.200000*%
G04 #@! TD*
G04 #@! TA.AperFunction,ComponentPad*
%ADD18C,1.308000*%
G04 #@! TD*
G04 #@! TA.AperFunction,ComponentPad*
%ADD19C,1.258000*%
G04 #@! TD*
G04 #@! TA.AperFunction,ComponentPad*
%ADD20C,1.208000*%
G04 #@! TD*
G04 #@! TA.AperFunction,ComponentPad*
%ADD21R,1.350000X1.350000*%
G04 #@! TD*
G04 #@! TA.AperFunction,ComponentPad*
%ADD22O,1.350000X1.350000*%
G04 #@! TD*
G04 #@! TA.AperFunction,SMDPad,CuDef*
%ADD23RoundRect,0.237500X0.237500X-0.250000X0.237500X0.250000X-0.237500X0.250000X-0.237500X-0.250000X0*%
G04 #@! TD*
G04 #@! TA.AperFunction,ViaPad*
%ADD24C,0.800000*%
G04 #@! TD*
G04 #@! TA.AperFunction,Conductor*
%ADD25C,0.250000*%
G04 #@! TD*
G04 #@! TA.AperFunction,Conductor*
%ADD26C,0.254000*%
G04 #@! TD*
G04 APERTURE END LIST*
D10*
X71120000Y-76454000D03*
X71120000Y-84328000D03*
D11*
X75692000Y-57150000D03*
X78232000Y-58420000D03*
X75692000Y-59690000D03*
X78232000Y-60960000D03*
X75692000Y-62230000D03*
X78232000Y-63500000D03*
X75692000Y-64770000D03*
X78232000Y-66040000D03*
D12*
X64262000Y-55270000D03*
X66052000Y-57810000D03*
X64262000Y-65380000D03*
X66052000Y-67920000D03*
D13*
X69342000Y-55880000D03*
X69342000Y-67310000D03*
D14*
X72392000Y-53720000D03*
X72392000Y-69470000D03*
D15*
X71120000Y-94996000D03*
D16*
X71120000Y-97536000D03*
X71120000Y-100076000D03*
D17*
X89535000Y-102870000D03*
X91757500Y-102870000D03*
X93980000Y-102870000D03*
X96202500Y-102870000D03*
X98425000Y-102870000D03*
X100647500Y-102870000D03*
X102870000Y-102870000D03*
X105092500Y-102870000D03*
X105092500Y-92710000D03*
X102870000Y-92710000D03*
X100647500Y-92710000D03*
X98425000Y-92710000D03*
X96202500Y-92710000D03*
X93980000Y-92710000D03*
X91757500Y-92710000D03*
X89535000Y-92710000D03*
D18*
X81280000Y-88900000D03*
X83820000Y-88900000D03*
X86360000Y-88900000D03*
X88900000Y-88900000D03*
X114300000Y-88900000D03*
X83820000Y-73660000D03*
X124460000Y-83820000D03*
X91440000Y-88900000D03*
X93980000Y-88900000D03*
D19*
X85090000Y-85850000D03*
D18*
X96520000Y-88900000D03*
X99060000Y-88900000D03*
X101600000Y-88900000D03*
X104140000Y-88900000D03*
X106680000Y-88900000D03*
X109220000Y-88900000D03*
X111760000Y-88900000D03*
X111760000Y-73660000D03*
X109220000Y-73660000D03*
X106680000Y-73660000D03*
X104140000Y-73660000D03*
X101600000Y-73660000D03*
X99060000Y-73660000D03*
X96520000Y-73660000D03*
X93980000Y-73660000D03*
X91440000Y-73660000D03*
X88900000Y-73660000D03*
X86360000Y-73660000D03*
X116840000Y-88900000D03*
X119380000Y-88900000D03*
X121920000Y-88900000D03*
X124460000Y-88900000D03*
X127000000Y-88900000D03*
X129540000Y-88900000D03*
X132080000Y-88900000D03*
X134620000Y-88900000D03*
X137160000Y-88900000D03*
X137160000Y-73660000D03*
X134620000Y-73660000D03*
X132080000Y-73660000D03*
X129540000Y-73660000D03*
X127000000Y-73660000D03*
X124460000Y-73660000D03*
X121920000Y-73660000D03*
X119380000Y-73660000D03*
X116840000Y-73660000D03*
D19*
X90170000Y-85850000D03*
X87630000Y-85850000D03*
D18*
X78740000Y-88900000D03*
X114300000Y-73660000D03*
X81280000Y-73660000D03*
X124460000Y-81280000D03*
D20*
X93710000Y-78110000D03*
X91710000Y-78110000D03*
D18*
X124460000Y-76200000D03*
X124460000Y-78740000D03*
D20*
X91710000Y-76110000D03*
X93710000Y-76110000D03*
X93710000Y-80110000D03*
X91710000Y-80110000D03*
D19*
X92710000Y-85850000D03*
X95250000Y-85850000D03*
D18*
X124460000Y-86360000D03*
X78740000Y-73660000D03*
X81280000Y-76200000D03*
D21*
X83550000Y-55404000D03*
D22*
X81550000Y-55404000D03*
X83550000Y-57404000D03*
X81550000Y-57404000D03*
X83550000Y-59404000D03*
X81550000Y-59404000D03*
D23*
X84886800Y-97329000D03*
X84886800Y-95504000D03*
X109220000Y-97432500D03*
X109220000Y-95607500D03*
X106680000Y-97432500D03*
X106680000Y-95607500D03*
X87630000Y-97481400D03*
X87630000Y-95656400D03*
D24*
X58166000Y-94996000D03*
X58166000Y-103378000D03*
X73233000Y-59815000D03*
X73106000Y-63879000D03*
X69423000Y-61085000D03*
X84582000Y-61468000D03*
D25*
X84582000Y-61468000D02*
X84582000Y-65024000D01*
X83566000Y-66040000D02*
X78232000Y-66040000D01*
X84582000Y-65024000D02*
X83566000Y-66040000D01*
X76760500Y-59690000D02*
X77270500Y-59180000D01*
X75692000Y-59924500D02*
X75692000Y-59690000D01*
X77270500Y-56386000D02*
X78540500Y-55116000D01*
X75692000Y-59690000D02*
X76760500Y-59690000D01*
X81550000Y-55404000D02*
X79844500Y-55404000D01*
X77270500Y-59180000D02*
X77270500Y-56386000D01*
X79556500Y-55116000D02*
X78540500Y-55116000D01*
X75692000Y-59861000D02*
X75692000Y-59690000D01*
X75692000Y-60051500D02*
X75692000Y-59690000D01*
X79844500Y-55404000D02*
X79556500Y-55116000D01*
D26*
X106680000Y-95607500D02*
X106680000Y-88900000D01*
X83820000Y-88900000D02*
X87630000Y-92710000D01*
X87630000Y-92710000D02*
X87630000Y-95656400D01*
X109220000Y-88900000D02*
X109220000Y-95607500D01*
X81280000Y-91897200D02*
X84886800Y-95504000D01*
X81280000Y-88900000D02*
X81280000Y-91897200D01*
X84886800Y-97329000D02*
X84886800Y-98221800D01*
X84886800Y-98221800D02*
X89535000Y-102870000D01*
X87630000Y-98742500D02*
X91757500Y-102870000D01*
X87630000Y-97481400D02*
X87630000Y-98742500D01*
X106085000Y-97432500D02*
X100647500Y-102870000D01*
X106680000Y-97432500D02*
X106085000Y-97432500D01*
X109220000Y-98742500D02*
X105092500Y-102870000D01*
X109220000Y-97432500D02*
X109220000Y-98742500D01*
G04 #@! TA.AperFunction,Conductor*
G36*
X138908018Y-52834000D02*
G01*
X138922851Y-52836310D01*
X138922855Y-52836310D01*
X138931724Y-52837691D01*
X138946981Y-52835696D01*
X138972302Y-52834953D01*
X139120629Y-52845562D01*
X139145826Y-52847364D01*
X139163620Y-52849922D01*
X139358420Y-52892298D01*
X139375661Y-52897360D01*
X139562455Y-52967032D01*
X139578790Y-52974493D01*
X139753758Y-53070033D01*
X139768882Y-53079752D01*
X139928469Y-53199218D01*
X139942055Y-53210991D01*
X140083009Y-53351945D01*
X140094782Y-53365531D01*
X140214248Y-53525118D01*
X140223967Y-53540242D01*
X140319507Y-53715210D01*
X140326968Y-53731545D01*
X140396640Y-53918339D01*
X140401702Y-53935580D01*
X140444078Y-54130380D01*
X140446636Y-54148174D01*
X140458539Y-54314601D01*
X140457793Y-54332561D01*
X140457692Y-54340846D01*
X140456309Y-54349724D01*
X140458771Y-54368552D01*
X140460436Y-54381283D01*
X140461500Y-54397621D01*
X140461500Y-105538000D01*
X140441498Y-105606121D01*
X140387842Y-105652614D01*
X140335500Y-105664000D01*
X57530500Y-105664000D01*
X57462379Y-105643998D01*
X57415886Y-105590342D01*
X57404500Y-105538000D01*
X57404500Y-100044782D01*
X69927822Y-100044782D01*
X69942096Y-100262562D01*
X69995818Y-100474094D01*
X70087189Y-100672293D01*
X70213150Y-100850523D01*
X70369481Y-101002814D01*
X70374277Y-101006019D01*
X70374280Y-101006021D01*
X70523221Y-101105540D01*
X70550947Y-101124066D01*
X70556250Y-101126344D01*
X70556253Y-101126346D01*
X70651662Y-101167337D01*
X70751470Y-101210218D01*
X70828834Y-101227723D01*
X70958699Y-101257109D01*
X70958704Y-101257110D01*
X70964336Y-101258384D01*
X70970107Y-101258611D01*
X70970109Y-101258611D01*
X71034235Y-101261131D01*
X71182415Y-101266953D01*
X71309552Y-101248519D01*
X71392682Y-101236466D01*
X71392686Y-101236465D01*
X71398404Y-101235636D01*
X71403876Y-101233778D01*
X71403878Y-101233778D01*
X71599605Y-101167337D01*
X71599607Y-101167336D01*
X71605069Y-101165482D01*
X71795489Y-101058842D01*
X71963286Y-100919286D01*
X72102842Y-100751489D01*
X72209482Y-100561069D01*
X72239007Y-100474094D01*
X72277778Y-100359878D01*
X72277778Y-100359876D01*
X72279636Y-100354404D01*
X72292953Y-100262562D01*
X72310420Y-100142089D01*
X72310953Y-100138415D01*
X72312587Y-100076000D01*
X72292617Y-99858668D01*
X72233376Y-99648615D01*
X72136848Y-99452875D01*
X72006265Y-99278004D01*
X71846001Y-99129857D01*
X71841118Y-99126776D01*
X71841114Y-99126773D01*
X71666306Y-99016478D01*
X71661423Y-99013397D01*
X71554206Y-98970622D01*
X71464077Y-98934664D01*
X71458713Y-98932524D01*
X71453053Y-98931398D01*
X71453049Y-98931397D01*
X71250326Y-98891073D01*
X71250323Y-98891073D01*
X71244659Y-98889946D01*
X71238884Y-98889870D01*
X71238880Y-98889870D01*
X71129260Y-98888435D01*
X71026431Y-98887089D01*
X71020734Y-98888068D01*
X71020733Y-98888068D01*
X70817033Y-98923070D01*
X70811336Y-98924049D01*
X70606578Y-98999589D01*
X70601617Y-99002541D01*
X70601616Y-99002541D01*
X70435834Y-99101171D01*
X70419015Y-99111177D01*
X70254928Y-99255077D01*
X70119812Y-99426471D01*
X70117121Y-99431587D01*
X70117119Y-99431589D01*
X70105920Y-99452875D01*
X70018193Y-99619617D01*
X69953474Y-99828047D01*
X69927822Y-100044782D01*
X57404500Y-100044782D01*
X57404500Y-95723134D01*
X69932500Y-95723134D01*
X69939255Y-95785316D01*
X69990385Y-95921705D01*
X70077739Y-96038261D01*
X70194295Y-96125615D01*
X70330684Y-96176745D01*
X70392866Y-96183500D01*
X71847134Y-96183500D01*
X71909316Y-96176745D01*
X72045705Y-96125615D01*
X72162261Y-96038261D01*
X72249615Y-95921705D01*
X72300745Y-95785316D01*
X72307500Y-95723134D01*
X72307500Y-94268866D01*
X72300745Y-94206684D01*
X72249615Y-94070295D01*
X72162261Y-93953739D01*
X72045705Y-93866385D01*
X71909316Y-93815255D01*
X71847134Y-93808500D01*
X70392866Y-93808500D01*
X70330684Y-93815255D01*
X70194295Y-93866385D01*
X70077739Y-93953739D01*
X69990385Y-94070295D01*
X69939255Y-94206684D01*
X69932500Y-94268866D01*
X69932500Y-95723134D01*
X57404500Y-95723134D01*
X57404500Y-88869439D01*
X80112920Y-88869439D01*
X80126894Y-89082634D01*
X80179485Y-89289713D01*
X80268933Y-89483740D01*
X80392241Y-89658218D01*
X80545281Y-89807302D01*
X80588502Y-89836182D01*
X80634029Y-89890657D01*
X80644500Y-89940946D01*
X80644500Y-91818180D01*
X80643970Y-91829414D01*
X80642292Y-91836919D01*
X80643797Y-91884822D01*
X80644438Y-91905212D01*
X80644500Y-91909169D01*
X80644500Y-91937183D01*
X80644996Y-91941108D01*
X80644996Y-91941109D01*
X80645008Y-91941204D01*
X80645941Y-91953049D01*
X80647335Y-91997405D01*
X80649547Y-92005017D01*
X80653013Y-92016948D01*
X80657023Y-92036312D01*
X80659573Y-92056499D01*
X80662489Y-92063863D01*
X80662490Y-92063868D01*
X80675907Y-92097756D01*
X80679752Y-92108985D01*
X80692131Y-92151593D01*
X80696169Y-92158420D01*
X80696170Y-92158423D01*
X80702488Y-92169106D01*
X80711188Y-92186864D01*
X80715761Y-92198415D01*
X80715765Y-92198421D01*
X80718681Y-92205788D01*
X80743134Y-92239444D01*
X80744764Y-92241688D01*
X80751281Y-92251610D01*
X80769826Y-92282968D01*
X80769829Y-92282972D01*
X80773866Y-92289798D01*
X80788250Y-92304182D01*
X80801091Y-92319216D01*
X80813058Y-92335687D01*
X80819166Y-92340740D01*
X80847255Y-92363977D01*
X80856035Y-92371967D01*
X83866395Y-95382327D01*
X83900421Y-95444639D01*
X83903300Y-95471422D01*
X83903300Y-95803572D01*
X83914093Y-95907593D01*
X83916274Y-95914129D01*
X83916274Y-95914131D01*
X83931301Y-95959171D01*
X83969146Y-96072607D01*
X84060684Y-96220531D01*
X84065866Y-96225704D01*
X84167586Y-96327247D01*
X84201665Y-96389530D01*
X84196662Y-96460350D01*
X84167741Y-96505437D01*
X84065046Y-96608312D01*
X84065042Y-96608317D01*
X84059871Y-96613497D01*
X84056031Y-96619727D01*
X84056030Y-96619728D01*
X83973164Y-96754162D01*
X83968591Y-96761580D01*
X83913826Y-96926691D01*
X83913126Y-96933527D01*
X83913125Y-96933530D01*
X83910321Y-96960898D01*
X83903300Y-97029428D01*
X83903300Y-97628572D01*
X83914093Y-97732593D01*
X83916274Y-97739129D01*
X83916274Y-97739131D01*
X83931301Y-97784171D01*
X83969146Y-97897607D01*
X84060684Y-98045531D01*
X84065866Y-98050704D01*
X84178616Y-98163258D01*
X84178621Y-98163262D01*
X84183797Y-98168429D01*
X84190027Y-98172269D01*
X84190028Y-98172270D01*
X84192877Y-98174026D01*
X84194414Y-98175734D01*
X84195773Y-98176807D01*
X84195589Y-98177040D01*
X84240371Y-98226797D01*
X84251772Y-98265517D01*
X84251813Y-98265842D01*
X84252741Y-98277649D01*
X84253678Y-98307470D01*
X84253869Y-98313524D01*
X84254135Y-98322005D01*
X84258123Y-98335730D01*
X84259813Y-98341548D01*
X84263823Y-98360912D01*
X84264938Y-98369736D01*
X84266373Y-98381099D01*
X84269289Y-98388463D01*
X84269290Y-98388468D01*
X84282707Y-98422356D01*
X84286552Y-98433585D01*
X84298931Y-98476193D01*
X84302969Y-98483020D01*
X84302970Y-98483023D01*
X84309288Y-98493706D01*
X84317988Y-98511464D01*
X84322561Y-98523015D01*
X84322565Y-98523021D01*
X84325481Y-98530388D01*
X84330139Y-98536799D01*
X84330140Y-98536801D01*
X84351564Y-98566288D01*
X84358081Y-98576210D01*
X84376626Y-98607568D01*
X84376629Y-98607572D01*
X84380666Y-98614398D01*
X84395050Y-98628782D01*
X84407891Y-98643816D01*
X84419858Y-98660287D01*
X84425966Y-98665340D01*
X84454055Y-98688577D01*
X84462835Y-98696567D01*
X88398496Y-102632228D01*
X88432522Y-102694540D01*
X88434528Y-102736131D01*
X88422132Y-102840859D01*
X88435457Y-103044151D01*
X88485605Y-103241610D01*
X88570898Y-103426624D01*
X88688479Y-103592997D01*
X88834410Y-103735157D01*
X88839206Y-103738362D01*
X88839209Y-103738364D01*
X88907149Y-103783760D01*
X89003803Y-103848342D01*
X89009106Y-103850620D01*
X89009109Y-103850622D01*
X89098115Y-103888862D01*
X89190987Y-103928763D01*
X89263817Y-103945243D01*
X89384055Y-103972450D01*
X89384060Y-103972451D01*
X89389692Y-103973725D01*
X89395463Y-103973952D01*
X89395465Y-103973952D01*
X89458470Y-103976427D01*
X89593263Y-103981723D01*
X89794883Y-103952490D01*
X89800347Y-103950635D01*
X89800352Y-103950634D01*
X89982327Y-103888862D01*
X89982332Y-103888860D01*
X89987799Y-103887004D01*
X90165551Y-103787458D01*
X90322186Y-103657186D01*
X90452458Y-103500551D01*
X90455282Y-103495508D01*
X90455285Y-103495504D01*
X90537323Y-103349014D01*
X90588060Y-103299352D01*
X90657591Y-103285005D01*
X90723842Y-103310526D01*
X90761683Y-103357829D01*
X90793398Y-103426624D01*
X90910979Y-103592997D01*
X91056910Y-103735157D01*
X91061706Y-103738362D01*
X91061709Y-103738364D01*
X91129649Y-103783760D01*
X91226303Y-103848342D01*
X91231606Y-103850620D01*
X91231609Y-103850622D01*
X91320615Y-103888862D01*
X91413487Y-103928763D01*
X91486317Y-103945243D01*
X91606555Y-103972450D01*
X91606560Y-103972451D01*
X91612192Y-103973725D01*
X91617963Y-103973952D01*
X91617965Y-103973952D01*
X91680970Y-103976427D01*
X91815763Y-103981723D01*
X92017383Y-103952490D01*
X92022847Y-103950635D01*
X92022852Y-103950634D01*
X92204827Y-103888862D01*
X92204832Y-103888860D01*
X92210299Y-103887004D01*
X92388051Y-103787458D01*
X92544686Y-103657186D01*
X92674958Y-103500551D01*
X92677782Y-103495508D01*
X92677785Y-103495504D01*
X92759823Y-103349014D01*
X92810560Y-103299352D01*
X92880091Y-103285005D01*
X92946342Y-103310526D01*
X92984183Y-103357829D01*
X93015898Y-103426624D01*
X93133479Y-103592997D01*
X93279410Y-103735157D01*
X93284206Y-103738362D01*
X93284209Y-103738364D01*
X93352149Y-103783760D01*
X93448803Y-103848342D01*
X93454106Y-103850620D01*
X93454109Y-103850622D01*
X93543115Y-103888862D01*
X93635987Y-103928763D01*
X93708817Y-103945243D01*
X93829055Y-103972450D01*
X93829060Y-103972451D01*
X93834692Y-103973725D01*
X93840463Y-103973952D01*
X93840465Y-103973952D01*
X93903470Y-103976427D01*
X94038263Y-103981723D01*
X94239883Y-103952490D01*
X94245347Y-103950635D01*
X94245352Y-103950634D01*
X94427327Y-103888862D01*
X94427332Y-103888860D01*
X94432799Y-103887004D01*
X94610551Y-103787458D01*
X94767186Y-103657186D01*
X94897458Y-103500551D01*
X94997004Y-103322799D01*
X94998860Y-103317332D01*
X94998862Y-103317327D01*
X95060634Y-103135352D01*
X95060635Y-103135347D01*
X95062490Y-103129883D01*
X95091723Y-102928263D01*
X95093249Y-102870000D01*
X95074608Y-102667126D01*
X95066547Y-102638543D01*
X95020875Y-102476606D01*
X95020874Y-102476604D01*
X95019307Y-102471047D01*
X95012441Y-102457123D01*
X94931756Y-102293510D01*
X94931754Y-102293506D01*
X94929201Y-102288329D01*
X94910796Y-102263681D01*
X94810758Y-102129715D01*
X94810758Y-102129714D01*
X94807305Y-102125091D01*
X94657703Y-101986800D01*
X94611675Y-101957759D01*
X94490288Y-101881169D01*
X94490283Y-101881167D01*
X94485404Y-101878088D01*
X94296180Y-101802595D01*
X94096366Y-101762849D01*
X94090592Y-101762773D01*
X94090588Y-101762773D01*
X93987452Y-101761424D01*
X93892655Y-101760183D01*
X93886958Y-101761162D01*
X93886957Y-101761162D01*
X93732270Y-101787742D01*
X93691870Y-101794684D01*
X93500734Y-101865198D01*
X93325649Y-101969363D01*
X93172478Y-102103690D01*
X93168911Y-102108215D01*
X93168906Y-102108220D01*
X93082331Y-102218040D01*
X93046351Y-102263681D01*
X92979897Y-102389989D01*
X92930479Y-102440960D01*
X92861347Y-102457123D01*
X92794451Y-102433344D01*
X92755384Y-102387049D01*
X92706701Y-102288329D01*
X92688296Y-102263681D01*
X92588258Y-102129715D01*
X92588258Y-102129714D01*
X92584805Y-102125091D01*
X92435203Y-101986800D01*
X92389175Y-101957759D01*
X92267788Y-101881169D01*
X92267783Y-101881167D01*
X92262904Y-101878088D01*
X92073680Y-101802595D01*
X91873866Y-101762849D01*
X91868092Y-101762773D01*
X91868088Y-101762773D01*
X91763022Y-101761398D01*
X91670155Y-101760183D01*
X91628858Y-101767279D01*
X91558336Y-101759102D01*
X91518427Y-101732194D01*
X88305834Y-98519601D01*
X88271808Y-98457289D01*
X88276873Y-98386474D01*
X88319420Y-98329638D01*
X88327343Y-98324236D01*
X88327811Y-98323865D01*
X88334031Y-98320016D01*
X88373672Y-98280306D01*
X88451758Y-98202084D01*
X88451762Y-98202079D01*
X88456929Y-98196903D01*
X88469173Y-98177040D01*
X88544369Y-98055050D01*
X88544370Y-98055048D01*
X88548209Y-98048820D01*
X88602974Y-97883709D01*
X88607316Y-97841335D01*
X88613172Y-97784171D01*
X88613500Y-97780972D01*
X88613500Y-97181828D01*
X88608760Y-97136146D01*
X88603419Y-97084665D01*
X88603418Y-97084661D01*
X88602707Y-97077807D01*
X88586567Y-97029428D01*
X88549972Y-96919741D01*
X88547654Y-96912793D01*
X88456116Y-96764869D01*
X88414402Y-96723228D01*
X88349214Y-96658153D01*
X88315135Y-96595870D01*
X88320138Y-96525050D01*
X88349059Y-96479963D01*
X88451754Y-96377088D01*
X88451758Y-96377083D01*
X88456929Y-96371903D01*
X88483249Y-96329204D01*
X88544369Y-96230050D01*
X88544370Y-96230048D01*
X88548209Y-96223820D01*
X88602974Y-96058709D01*
X88607316Y-96016335D01*
X88613172Y-95959171D01*
X88613500Y-95955972D01*
X88613500Y-95356828D01*
X88608760Y-95311146D01*
X88603419Y-95259665D01*
X88603418Y-95259661D01*
X88602707Y-95252807D01*
X88586567Y-95204428D01*
X88549972Y-95094741D01*
X88547654Y-95087793D01*
X88456116Y-94939869D01*
X88333003Y-94816971D01*
X88326776Y-94813133D01*
X88326774Y-94813131D01*
X88326200Y-94812778D01*
X88325383Y-94812274D01*
X88324635Y-94811442D01*
X88321028Y-94808594D01*
X88321516Y-94807977D01*
X88277891Y-94759503D01*
X88265500Y-94705015D01*
X88265500Y-93178440D01*
X88285502Y-93110319D01*
X88339158Y-93063826D01*
X88409432Y-93053722D01*
X88474012Y-93083216D01*
X88505925Y-93125688D01*
X88570898Y-93266624D01*
X88688479Y-93432997D01*
X88834410Y-93575157D01*
X88839206Y-93578362D01*
X88839209Y-93578364D01*
X88907149Y-93623760D01*
X89003803Y-93688342D01*
X89009106Y-93690620D01*
X89009109Y-93690622D01*
X89098115Y-93728862D01*
X89190987Y-93768763D01*
X89263817Y-93785243D01*
X89384055Y-93812450D01*
X89384060Y-93812451D01*
X89389692Y-93813725D01*
X89395463Y-93813952D01*
X89395465Y-93813952D01*
X89458470Y-93816427D01*
X89593263Y-93821723D01*
X89794883Y-93792490D01*
X89800347Y-93790635D01*
X89800352Y-93790634D01*
X89982327Y-93728862D01*
X89982332Y-93728860D01*
X89987799Y-93727004D01*
X90165551Y-93627458D01*
X90322186Y-93497186D01*
X90452458Y-93340551D01*
X90455282Y-93335508D01*
X90455285Y-93335504D01*
X90537323Y-93189014D01*
X90588060Y-93139352D01*
X90657591Y-93125005D01*
X90723842Y-93150526D01*
X90761683Y-93197829D01*
X90793398Y-93266624D01*
X90910979Y-93432997D01*
X91056910Y-93575157D01*
X91061706Y-93578362D01*
X91061709Y-93578364D01*
X91129649Y-93623760D01*
X91226303Y-93688342D01*
X91231606Y-93690620D01*
X91231609Y-93690622D01*
X91320615Y-93728862D01*
X91413487Y-93768763D01*
X91486317Y-93785243D01*
X91606555Y-93812450D01*
X91606560Y-93812451D01*
X91612192Y-93813725D01*
X91617963Y-93813952D01*
X91617965Y-93813952D01*
X91680970Y-93816427D01*
X91815763Y-93821723D01*
X92017383Y-93792490D01*
X92022847Y-93790635D01*
X92022852Y-93790634D01*
X92204827Y-93728862D01*
X92204832Y-93728860D01*
X92210299Y-93727004D01*
X92388051Y-93627458D01*
X92544686Y-93497186D01*
X92674958Y-93340551D01*
X92677782Y-93335508D01*
X92677785Y-93335504D01*
X92759823Y-93189014D01*
X92810560Y-93139352D01*
X92880091Y-93125005D01*
X92946342Y-93150526D01*
X92984183Y-93197829D01*
X93015898Y-93266624D01*
X93133479Y-93432997D01*
X93279410Y-93575157D01*
X93284206Y-93578362D01*
X93284209Y-93578364D01*
X93352149Y-93623760D01*
X93448803Y-93688342D01*
X93454106Y-93690620D01*
X93454109Y-93690622D01*
X93543115Y-93728862D01*
X93635987Y-93768763D01*
X93708817Y-93785243D01*
X93829055Y-93812450D01*
X93829060Y-93812451D01*
X93834692Y-93813725D01*
X93840463Y-93813952D01*
X93840465Y-93813952D01*
X93903470Y-93816427D01*
X94038263Y-93821723D01*
X94239883Y-93792490D01*
X94245347Y-93790635D01*
X94245352Y-93790634D01*
X94427327Y-93728862D01*
X94427332Y-93728860D01*
X94432799Y-93727004D01*
X94610551Y-93627458D01*
X94767186Y-93497186D01*
X94897458Y-93340551D01*
X94900282Y-93335508D01*
X94900285Y-93335504D01*
X94982323Y-93189014D01*
X95033060Y-93139352D01*
X95102591Y-93125005D01*
X95168842Y-93150526D01*
X95206683Y-93197829D01*
X95238398Y-93266624D01*
X95355979Y-93432997D01*
X95501910Y-93575157D01*
X95506706Y-93578362D01*
X95506709Y-93578364D01*
X95574649Y-93623760D01*
X95671303Y-93688342D01*
X95676606Y-93690620D01*
X95676609Y-93690622D01*
X95765615Y-93728862D01*
X95858487Y-93768763D01*
X95931317Y-93785243D01*
X96051555Y-93812450D01*
X96051560Y-93812451D01*
X96057192Y-93813725D01*
X96062963Y-93813952D01*
X96062965Y-93813952D01*
X96125970Y-93816427D01*
X96260763Y-93821723D01*
X96462383Y-93792490D01*
X96467847Y-93790635D01*
X96467852Y-93790634D01*
X96649827Y-93728862D01*
X96649832Y-93728860D01*
X96655299Y-93727004D01*
X96833051Y-93627458D01*
X96989686Y-93497186D01*
X97119958Y-93340551D01*
X97122782Y-93335508D01*
X97122785Y-93335504D01*
X97204823Y-93189014D01*
X97255560Y-93139352D01*
X97325091Y-93125005D01*
X97391342Y-93150526D01*
X97429183Y-93197829D01*
X97460898Y-93266624D01*
X97578479Y-93432997D01*
X97724410Y-93575157D01*
X97729206Y-93578362D01*
X97729209Y-93578364D01*
X97797149Y-93623760D01*
X97893803Y-93688342D01*
X97899106Y-93690620D01*
X97899109Y-93690622D01*
X97988115Y-93728862D01*
X98080987Y-93768763D01*
X98153817Y-93785243D01*
X98274055Y-93812450D01*
X98274060Y-93812451D01*
X98279692Y-93813725D01*
X98285463Y-93813952D01*
X98285465Y-93813952D01*
X98348470Y-93816427D01*
X98483263Y-93821723D01*
X98684883Y-93792490D01*
X98690347Y-93790635D01*
X98690352Y-93790634D01*
X98872327Y-93728862D01*
X98872332Y-93728860D01*
X98877799Y-93727004D01*
X99055551Y-93627458D01*
X99212186Y-93497186D01*
X99342458Y-93340551D01*
X99345282Y-93335508D01*
X99345285Y-93335504D01*
X99427323Y-93189014D01*
X99478060Y-93139352D01*
X99547591Y-93125005D01*
X99613842Y-93150526D01*
X99651683Y-93197829D01*
X99683398Y-93266624D01*
X99800979Y-93432997D01*
X99946910Y-93575157D01*
X99951706Y-93578362D01*
X99951709Y-93578364D01*
X100019649Y-93623760D01*
X100116303Y-93688342D01*
X100121606Y-93690620D01*
X100121609Y-93690622D01*
X100210615Y-93728862D01*
X100303487Y-93768763D01*
X100376317Y-93785243D01*
X100496555Y-93812450D01*
X100496560Y-93812451D01*
X100502192Y-93813725D01*
X100507963Y-93813952D01*
X100507965Y-93813952D01*
X100570970Y-93816427D01*
X100705763Y-93821723D01*
X100907383Y-93792490D01*
X100912847Y-93790635D01*
X100912852Y-93790634D01*
X101094827Y-93728862D01*
X101094832Y-93728860D01*
X101100299Y-93727004D01*
X101278051Y-93627458D01*
X101434686Y-93497186D01*
X101564958Y-93340551D01*
X101567782Y-93335508D01*
X101567785Y-93335504D01*
X101649823Y-93189014D01*
X101700560Y-93139352D01*
X101770091Y-93125005D01*
X101836342Y-93150526D01*
X101874183Y-93197829D01*
X101905898Y-93266624D01*
X102023479Y-93432997D01*
X102169410Y-93575157D01*
X102174206Y-93578362D01*
X102174209Y-93578364D01*
X102242149Y-93623760D01*
X102338803Y-93688342D01*
X102344106Y-93690620D01*
X102344109Y-93690622D01*
X102433115Y-93728862D01*
X102525987Y-93768763D01*
X102598817Y-93785243D01*
X102719055Y-93812450D01*
X102719060Y-93812451D01*
X102724692Y-93813725D01*
X102730463Y-93813952D01*
X102730465Y-93813952D01*
X102793470Y-93816427D01*
X102928263Y-93821723D01*
X103129883Y-93792490D01*
X103135347Y-93790635D01*
X103135352Y-93790634D01*
X103317327Y-93728862D01*
X103317332Y-93728860D01*
X103322799Y-93727004D01*
X103500551Y-93627458D01*
X103657186Y-93497186D01*
X103787458Y-93340551D01*
X103790282Y-93335508D01*
X103790285Y-93335504D01*
X103872323Y-93189014D01*
X103923060Y-93139352D01*
X103992591Y-93125005D01*
X104058842Y-93150526D01*
X104096683Y-93197829D01*
X104128398Y-93266624D01*
X104245979Y-93432997D01*
X104391910Y-93575157D01*
X104396706Y-93578362D01*
X104396709Y-93578364D01*
X104464649Y-93623760D01*
X104561303Y-93688342D01*
X104566606Y-93690620D01*
X104566609Y-93690622D01*
X104655615Y-93728862D01*
X104748487Y-93768763D01*
X104821317Y-93785243D01*
X104941555Y-93812450D01*
X104941560Y-93812451D01*
X104947192Y-93813725D01*
X104952963Y-93813952D01*
X104952965Y-93813952D01*
X105015970Y-93816427D01*
X105150763Y-93821723D01*
X105352383Y-93792490D01*
X105357847Y-93790635D01*
X105357852Y-93790634D01*
X105539827Y-93728862D01*
X105539832Y-93728860D01*
X105545299Y-93727004D01*
X105723051Y-93627458D01*
X105837932Y-93531913D01*
X105903095Y-93503732D01*
X105973150Y-93515256D01*
X106025854Y-93562824D01*
X106044500Y-93628787D01*
X106044500Y-94656272D01*
X106024498Y-94724393D01*
X105987869Y-94760403D01*
X105987932Y-94760483D01*
X105987186Y-94761075D01*
X105984806Y-94763414D01*
X105982197Y-94765029D01*
X105982191Y-94765034D01*
X105975969Y-94768884D01*
X105970800Y-94774062D01*
X105858242Y-94886816D01*
X105858238Y-94886821D01*
X105853071Y-94891997D01*
X105849231Y-94898227D01*
X105849230Y-94898228D01*
X105766364Y-95032662D01*
X105761791Y-95040080D01*
X105707026Y-95205191D01*
X105706326Y-95212027D01*
X105706325Y-95212030D01*
X105702147Y-95252807D01*
X105696500Y-95307928D01*
X105696500Y-95907072D01*
X105696837Y-95910318D01*
X105696837Y-95910322D01*
X105701906Y-95959171D01*
X105707293Y-96011093D01*
X105709474Y-96017629D01*
X105709474Y-96017631D01*
X105746552Y-96128767D01*
X105762346Y-96176107D01*
X105853884Y-96324031D01*
X105859066Y-96329204D01*
X105960786Y-96430747D01*
X105994865Y-96493030D01*
X105989862Y-96563850D01*
X105960941Y-96608937D01*
X105858246Y-96711812D01*
X105858242Y-96711817D01*
X105853071Y-96716997D01*
X105849231Y-96723227D01*
X105849230Y-96723228D01*
X105823562Y-96764869D01*
X105761791Y-96865080D01*
X105760086Y-96864029D01*
X105716473Y-96912130D01*
X105692401Y-96926366D01*
X105678014Y-96940753D01*
X105662980Y-96953594D01*
X105646513Y-96965558D01*
X105641460Y-96971666D01*
X105618228Y-96999749D01*
X105610238Y-97008529D01*
X100888268Y-101730499D01*
X100825956Y-101764525D01*
X100774584Y-101764981D01*
X100769535Y-101763976D01*
X100769528Y-101763975D01*
X100763866Y-101762849D01*
X100758092Y-101762773D01*
X100758088Y-101762773D01*
X100654952Y-101761424D01*
X100560155Y-101760183D01*
X100554458Y-101761162D01*
X100554457Y-101761162D01*
X100399770Y-101787742D01*
X100359370Y-101794684D01*
X100168234Y-101865198D01*
X99993149Y-101969363D01*
X99839978Y-102103690D01*
X99836411Y-102108215D01*
X99836406Y-102108220D01*
X99749831Y-102218040D01*
X99713851Y-102263681D01*
X99647397Y-102389989D01*
X99597979Y-102440960D01*
X99528847Y-102457123D01*
X99461951Y-102433344D01*
X99422884Y-102387049D01*
X99374201Y-102288329D01*
X99355796Y-102263681D01*
X99255758Y-102129715D01*
X99255758Y-102129714D01*
X99252305Y-102125091D01*
X99102703Y-101986800D01*
X99056675Y-101957759D01*
X98935288Y-101881169D01*
X98935283Y-101881167D01*
X98930404Y-101878088D01*
X98741180Y-101802595D01*
X98541366Y-101762849D01*
X98535592Y-101762773D01*
X98535588Y-101762773D01*
X98432452Y-101761424D01*
X98337655Y-101760183D01*
X98331958Y-101761162D01*
X98331957Y-101761162D01*
X98177270Y-101787742D01*
X98136870Y-101794684D01*
X97945734Y-101865198D01*
X97770649Y-101969363D01*
X97617478Y-102103690D01*
X97613911Y-102108215D01*
X97613906Y-102108220D01*
X97527331Y-102218040D01*
X97491351Y-102263681D01*
X97396492Y-102443978D01*
X97336078Y-102638543D01*
X97312132Y-102840859D01*
X97325457Y-103044151D01*
X97375605Y-103241610D01*
X97460898Y-103426624D01*
X97578479Y-103592997D01*
X97724410Y-103735157D01*
X97729206Y-103738362D01*
X97729209Y-103738364D01*
X97797149Y-103783760D01*
X97893803Y-103848342D01*
X97899106Y-103850620D01*
X97899109Y-103850622D01*
X97988115Y-103888862D01*
X98080987Y-103928763D01*
X98153817Y-103945243D01*
X98274055Y-103972450D01*
X98274060Y-103972451D01*
X98279692Y-103973725D01*
X98285463Y-103973952D01*
X98285465Y-103973952D01*
X98348470Y-103976427D01*
X98483263Y-103981723D01*
X98684883Y-103952490D01*
X98690347Y-103950635D01*
X98690352Y-103950634D01*
X98872327Y-103888862D01*
X98872332Y-103888860D01*
X98877799Y-103887004D01*
X99055551Y-103787458D01*
X99212186Y-103657186D01*
X99342458Y-103500551D01*
X99345282Y-103495508D01*
X99345285Y-103495504D01*
X99427323Y-103349014D01*
X99478060Y-103299352D01*
X99547591Y-103285005D01*
X99613842Y-103310526D01*
X99651683Y-103357829D01*
X99683398Y-103426624D01*
X99800979Y-103592997D01*
X99946910Y-103735157D01*
X99951706Y-103738362D01*
X99951709Y-103738364D01*
X100019649Y-103783760D01*
X100116303Y-103848342D01*
X100121606Y-103850620D01*
X100121609Y-103850622D01*
X100210615Y-103888862D01*
X100303487Y-103928763D01*
X100376317Y-103945243D01*
X100496555Y-103972450D01*
X100496560Y-103972451D01*
X100502192Y-103973725D01*
X100507963Y-103973952D01*
X100507965Y-103973952D01*
X100570970Y-103976427D01*
X100705763Y-103981723D01*
X100907383Y-103952490D01*
X100912847Y-103950635D01*
X100912852Y-103950634D01*
X101094827Y-103888862D01*
X101094832Y-103888860D01*
X101100299Y-103887004D01*
X101278051Y-103787458D01*
X101434686Y-103657186D01*
X101564958Y-103500551D01*
X101567782Y-103495508D01*
X101567785Y-103495504D01*
X101649823Y-103349014D01*
X101700560Y-103299352D01*
X101770091Y-103285005D01*
X101836342Y-103310526D01*
X101874183Y-103357829D01*
X101905898Y-103426624D01*
X102023479Y-103592997D01*
X102169410Y-103735157D01*
X102174206Y-103738362D01*
X102174209Y-103738364D01*
X102242149Y-103783760D01*
X102338803Y-103848342D01*
X102344106Y-103850620D01*
X102344109Y-103850622D01*
X102433115Y-103888862D01*
X102525987Y-103928763D01*
X102598817Y-103945243D01*
X102719055Y-103972450D01*
X102719060Y-103972451D01*
X102724692Y-103973725D01*
X102730463Y-103973952D01*
X102730465Y-103973952D01*
X102793470Y-103976427D01*
X102928263Y-103981723D01*
X103129883Y-103952490D01*
X103135347Y-103950635D01*
X103135352Y-103950634D01*
X103317327Y-103888862D01*
X103317332Y-103888860D01*
X103322799Y-103887004D01*
X103500551Y-103787458D01*
X103657186Y-103657186D01*
X103787458Y-103500551D01*
X103790282Y-103495508D01*
X103790285Y-103495504D01*
X103872323Y-103349014D01*
X103923060Y-103299352D01*
X103992591Y-103285005D01*
X104058842Y-103310526D01*
X104096683Y-103357829D01*
X104128398Y-103426624D01*
X104245979Y-103592997D01*
X104391910Y-103735157D01*
X104396706Y-103738362D01*
X104396709Y-103738364D01*
X104464649Y-103783760D01*
X104561303Y-103848342D01*
X104566606Y-103850620D01*
X104566609Y-103850622D01*
X104655615Y-103888862D01*
X104748487Y-103928763D01*
X104821317Y-103945243D01*
X104941555Y-103972450D01*
X104941560Y-103972451D01*
X104947192Y-103973725D01*
X104952963Y-103973952D01*
X104952965Y-103973952D01*
X105015970Y-103976427D01*
X105150763Y-103981723D01*
X105352383Y-103952490D01*
X105357847Y-103950635D01*
X105357852Y-103950634D01*
X105539827Y-103888862D01*
X105539832Y-103888860D01*
X105545299Y-103887004D01*
X105723051Y-103787458D01*
X105879686Y-103657186D01*
X106009958Y-103500551D01*
X106109504Y-103322799D01*
X106111360Y-103317332D01*
X106111362Y-103317327D01*
X106173134Y-103135352D01*
X106173135Y-103135347D01*
X106174990Y-103129883D01*
X106204223Y-102928263D01*
X106205749Y-102870000D01*
X106193449Y-102736134D01*
X106193104Y-102732375D01*
X106206789Y-102662710D01*
X106229480Y-102631752D01*
X109613477Y-99247755D01*
X109621803Y-99240178D01*
X109628303Y-99236053D01*
X109675101Y-99186218D01*
X109677855Y-99183377D01*
X109697638Y-99163594D01*
X109700129Y-99160383D01*
X109707838Y-99151356D01*
X109732789Y-99124786D01*
X109738217Y-99119006D01*
X109748022Y-99101171D01*
X109758876Y-99084647D01*
X109766491Y-99074830D01*
X109766492Y-99074829D01*
X109771349Y-99068567D01*
X109788969Y-99027850D01*
X109794192Y-99017189D01*
X109811749Y-98985253D01*
X109811751Y-98985248D01*
X109815569Y-98978303D01*
X109817539Y-98970629D01*
X109817542Y-98970622D01*
X109820632Y-98958587D01*
X109827036Y-98939882D01*
X109831967Y-98928487D01*
X109835117Y-98921208D01*
X109839890Y-98891073D01*
X109842060Y-98877373D01*
X109844467Y-98865751D01*
X109855500Y-98822782D01*
X109855500Y-98802435D01*
X109857051Y-98782724D01*
X109858995Y-98770450D01*
X109860235Y-98762621D01*
X109856059Y-98718444D01*
X109855500Y-98706586D01*
X109855500Y-98383728D01*
X109875502Y-98315607D01*
X109912131Y-98279597D01*
X109912068Y-98279517D01*
X109912814Y-98278925D01*
X109915194Y-98276586D01*
X109917803Y-98274971D01*
X109917809Y-98274966D01*
X109924031Y-98271116D01*
X109933348Y-98261783D01*
X110041758Y-98153184D01*
X110041762Y-98153179D01*
X110046929Y-98148003D01*
X110065496Y-98117882D01*
X110134369Y-98006150D01*
X110134370Y-98006148D01*
X110138209Y-97999920D01*
X110192974Y-97834809D01*
X110203500Y-97732072D01*
X110203500Y-97132928D01*
X110198624Y-97085930D01*
X110193419Y-97035765D01*
X110193418Y-97035761D01*
X110192707Y-97028907D01*
X110185909Y-97008529D01*
X110139972Y-96870841D01*
X110137654Y-96863893D01*
X110046116Y-96715969D01*
X109988199Y-96658153D01*
X109939214Y-96609253D01*
X109905135Y-96546970D01*
X109910138Y-96476150D01*
X109939059Y-96431063D01*
X110041754Y-96328188D01*
X110041758Y-96328183D01*
X110046929Y-96323003D01*
X110107335Y-96225007D01*
X110134369Y-96181150D01*
X110134370Y-96181148D01*
X110138209Y-96174920D01*
X110192974Y-96009809D01*
X110203500Y-95907072D01*
X110203500Y-95307928D01*
X110198624Y-95260930D01*
X110193419Y-95210765D01*
X110193418Y-95210761D01*
X110192707Y-95203907D01*
X110151890Y-95081562D01*
X110139972Y-95045841D01*
X110137654Y-95038893D01*
X110046116Y-94890969D01*
X109923003Y-94768071D01*
X109916776Y-94764233D01*
X109916774Y-94764231D01*
X109916200Y-94763878D01*
X109915383Y-94763374D01*
X109914635Y-94762542D01*
X109911028Y-94759694D01*
X109911516Y-94759077D01*
X109867891Y-94710603D01*
X109855500Y-94656115D01*
X109855500Y-89942671D01*
X109875502Y-89874550D01*
X109900930Y-89845799D01*
X110045533Y-89725533D01*
X110182151Y-89561268D01*
X110286546Y-89374857D01*
X110355222Y-89172543D01*
X110364090Y-89111379D01*
X110393660Y-89046835D01*
X110453431Y-89008522D01*
X110524428Y-89008606D01*
X110584108Y-89047061D01*
X110610909Y-89098445D01*
X110629728Y-89172543D01*
X110659485Y-89289713D01*
X110748933Y-89483740D01*
X110872241Y-89658218D01*
X111025281Y-89807302D01*
X111202927Y-89926001D01*
X111208230Y-89928279D01*
X111208233Y-89928281D01*
X111393922Y-90008059D01*
X111399229Y-90010339D01*
X111500993Y-90033366D01*
X111601977Y-90056217D01*
X111601980Y-90056217D01*
X111607613Y-90057492D01*
X111613384Y-90057719D01*
X111613386Y-90057719D01*
X111678363Y-90060272D01*
X111821101Y-90065880D01*
X111938540Y-90048852D01*
X112026829Y-90036051D01*
X112026834Y-90036050D01*
X112032543Y-90035222D01*
X112038007Y-90033367D01*
X112038012Y-90033366D01*
X112229389Y-89968402D01*
X112234857Y-89966546D01*
X112421268Y-89862151D01*
X112585533Y-89725533D01*
X112722151Y-89561268D01*
X112826546Y-89374857D01*
X112895222Y-89172543D01*
X112904090Y-89111379D01*
X112933660Y-89046835D01*
X112993431Y-89008522D01*
X113064428Y-89008606D01*
X113124108Y-89047061D01*
X113150909Y-89098445D01*
X113169728Y-89172543D01*
X113199485Y-89289713D01*
X113288933Y-89483740D01*
X113412241Y-89658218D01*
X113565281Y-89807302D01*
X113742927Y-89926001D01*
X113748230Y-89928279D01*
X113748233Y-89928281D01*
X113933922Y-90008059D01*
X113939229Y-90010339D01*
X114040993Y-90033366D01*
X114141977Y-90056217D01*
X114141980Y-90056217D01*
X114147613Y-90057492D01*
X114153384Y-90057719D01*
X114153386Y-90057719D01*
X114218363Y-90060272D01*
X114361101Y-90065880D01*
X114478540Y-90048852D01*
X114566829Y-90036051D01*
X114566834Y-90036050D01*
X114572543Y-90035222D01*
X114578007Y-90033367D01*
X114578012Y-90033366D01*
X114769389Y-89968402D01*
X114774857Y-89966546D01*
X114961268Y-89862151D01*
X115125533Y-89725533D01*
X115262151Y-89561268D01*
X115366546Y-89374857D01*
X115435222Y-89172543D01*
X115444090Y-89111379D01*
X115473660Y-89046835D01*
X115533431Y-89008522D01*
X115604428Y-89008606D01*
X115664108Y-89047061D01*
X115690909Y-89098445D01*
X115709728Y-89172543D01*
X115739485Y-89289713D01*
X115828933Y-89483740D01*
X115952241Y-89658218D01*
X116105281Y-89807302D01*
X116282927Y-89926001D01*
X116288230Y-89928279D01*
X116288233Y-89928281D01*
X116473922Y-90008059D01*
X116479229Y-90010339D01*
X116580993Y-90033366D01*
X116681977Y-90056217D01*
X116681980Y-90056217D01*
X116687613Y-90057492D01*
X116693384Y-90057719D01*
X116693386Y-90057719D01*
X116758363Y-90060272D01*
X116901101Y-90065880D01*
X117018540Y-90048852D01*
X117106829Y-90036051D01*
X117106834Y-90036050D01*
X117112543Y-90035222D01*
X117118007Y-90033367D01*
X117118012Y-90033366D01*
X117309389Y-89968402D01*
X117314857Y-89966546D01*
X117501268Y-89862151D01*
X117665533Y-89725533D01*
X117802151Y-89561268D01*
X117906546Y-89374857D01*
X117975222Y-89172543D01*
X117984090Y-89111379D01*
X118013660Y-89046835D01*
X118073431Y-89008522D01*
X118144428Y-89008606D01*
X118204108Y-89047061D01*
X118230909Y-89098445D01*
X118249728Y-89172543D01*
X118279485Y-89289713D01*
X118368933Y-89483740D01*
X118492241Y-89658218D01*
X118645281Y-89807302D01*
X118822927Y-89926001D01*
X118828230Y-89928279D01*
X118828233Y-89928281D01*
X119013922Y-90008059D01*
X119019229Y-90010339D01*
X119120993Y-90033366D01*
X119221977Y-90056217D01*
X119221980Y-90056217D01*
X119227613Y-90057492D01*
X119233384Y-90057719D01*
X119233386Y-90057719D01*
X119298363Y-90060272D01*
X119441101Y-90065880D01*
X119558540Y-90048852D01*
X119646829Y-90036051D01*
X119646834Y-90036050D01*
X119652543Y-90035222D01*
X119658007Y-90033367D01*
X119658012Y-90033366D01*
X119849389Y-89968402D01*
X119854857Y-89966546D01*
X120041268Y-89862151D01*
X120205533Y-89725533D01*
X120342151Y-89561268D01*
X120446546Y-89374857D01*
X120515222Y-89172543D01*
X120524090Y-89111379D01*
X120553660Y-89046835D01*
X120613431Y-89008522D01*
X120684428Y-89008606D01*
X120744108Y-89047061D01*
X120770909Y-89098445D01*
X120789728Y-89172543D01*
X120819485Y-89289713D01*
X120908933Y-89483740D01*
X121032241Y-89658218D01*
X121185281Y-89807302D01*
X121362927Y-89926001D01*
X121368230Y-89928279D01*
X121368233Y-89928281D01*
X121553922Y-90008059D01*
X121559229Y-90010339D01*
X121660993Y-90033366D01*
X121761977Y-90056217D01*
X121761980Y-90056217D01*
X121767613Y-90057492D01*
X121773384Y-90057719D01*
X121773386Y-90057719D01*
X121838363Y-90060272D01*
X121981101Y-90065880D01*
X122098540Y-90048852D01*
X122186829Y-90036051D01*
X122186834Y-90036050D01*
X122192543Y-90035222D01*
X122198007Y-90033367D01*
X122198012Y-90033366D01*
X122389389Y-89968402D01*
X122394857Y-89966546D01*
X122581268Y-89862151D01*
X122745533Y-89725533D01*
X122882151Y-89561268D01*
X122986546Y-89374857D01*
X123055222Y-89172543D01*
X123064090Y-89111379D01*
X123093660Y-89046835D01*
X123153431Y-89008522D01*
X123224428Y-89008606D01*
X123284108Y-89047061D01*
X123310909Y-89098445D01*
X123329728Y-89172543D01*
X123359485Y-89289713D01*
X123448933Y-89483740D01*
X123572241Y-89658218D01*
X123725281Y-89807302D01*
X123902927Y-89926001D01*
X123908230Y-89928279D01*
X123908233Y-89928281D01*
X124093922Y-90008059D01*
X124099229Y-90010339D01*
X124200993Y-90033366D01*
X124301977Y-90056217D01*
X124301980Y-90056217D01*
X124307613Y-90057492D01*
X124313384Y-90057719D01*
X124313386Y-90057719D01*
X124378363Y-90060272D01*
X124521101Y-90065880D01*
X124638540Y-90048852D01*
X124726829Y-90036051D01*
X124726834Y-90036050D01*
X124732543Y-90035222D01*
X124738007Y-90033367D01*
X124738012Y-90033366D01*
X124929389Y-89968402D01*
X124934857Y-89966546D01*
X125121268Y-89862151D01*
X125285533Y-89725533D01*
X125422151Y-89561268D01*
X125526546Y-89374857D01*
X125595222Y-89172543D01*
X125604090Y-89111379D01*
X125633660Y-89046835D01*
X125693431Y-89008522D01*
X125764428Y-89008606D01*
X125824108Y-89047061D01*
X125850909Y-89098445D01*
X125869728Y-89172543D01*
X125899485Y-89289713D01*
X125988933Y-89483740D01*
X126112241Y-89658218D01*
X126265281Y-89807302D01*
X126442927Y-89926001D01*
X126448230Y-89928279D01*
X126448233Y-89928281D01*
X126633922Y-90008059D01*
X126639229Y-90010339D01*
X126740993Y-90033366D01*
X126841977Y-90056217D01*
X126841980Y-90056217D01*
X126847613Y-90057492D01*
X126853384Y-90057719D01*
X126853386Y-90057719D01*
X126918363Y-90060272D01*
X127061101Y-90065880D01*
X127178540Y-90048852D01*
X127266829Y-90036051D01*
X127266834Y-90036050D01*
X127272543Y-90035222D01*
X127278007Y-90033367D01*
X127278012Y-90033366D01*
X127469389Y-89968402D01*
X127474857Y-89966546D01*
X127661268Y-89862151D01*
X127825533Y-89725533D01*
X127962151Y-89561268D01*
X128066546Y-89374857D01*
X128135222Y-89172543D01*
X128144090Y-89111379D01*
X128173660Y-89046835D01*
X128233431Y-89008522D01*
X128304428Y-89008606D01*
X128364108Y-89047061D01*
X128390909Y-89098445D01*
X128409728Y-89172543D01*
X128439485Y-89289713D01*
X128528933Y-89483740D01*
X128652241Y-89658218D01*
X128805281Y-89807302D01*
X128982927Y-89926001D01*
X128988230Y-89928279D01*
X128988233Y-89928281D01*
X129173922Y-90008059D01*
X129179229Y-90010339D01*
X129280993Y-90033366D01*
X129381977Y-90056217D01*
X129381980Y-90056217D01*
X129387613Y-90057492D01*
X129393384Y-90057719D01*
X129393386Y-90057719D01*
X129458363Y-90060272D01*
X129601101Y-90065880D01*
X129718540Y-90048852D01*
X129806829Y-90036051D01*
X129806834Y-90036050D01*
X129812543Y-90035222D01*
X129818007Y-90033367D01*
X129818012Y-90033366D01*
X130009389Y-89968402D01*
X130014857Y-89966546D01*
X130201268Y-89862151D01*
X130365533Y-89725533D01*
X130502151Y-89561268D01*
X130606546Y-89374857D01*
X130675222Y-89172543D01*
X130684090Y-89111379D01*
X130713660Y-89046835D01*
X130773431Y-89008522D01*
X130844428Y-89008606D01*
X130904108Y-89047061D01*
X130930909Y-89098445D01*
X130949728Y-89172543D01*
X130979485Y-89289713D01*
X131068933Y-89483740D01*
X131192241Y-89658218D01*
X131345281Y-89807302D01*
X131522927Y-89926001D01*
X131528230Y-89928279D01*
X131528233Y-89928281D01*
X131713922Y-90008059D01*
X131719229Y-90010339D01*
X131820993Y-90033366D01*
X131921977Y-90056217D01*
X131921980Y-90056217D01*
X131927613Y-90057492D01*
X131933384Y-90057719D01*
X131933386Y-90057719D01*
X131998363Y-90060272D01*
X132141101Y-90065880D01*
X132258540Y-90048852D01*
X132346829Y-90036051D01*
X132346834Y-90036050D01*
X132352543Y-90035222D01*
X132358007Y-90033367D01*
X132358012Y-90033366D01*
X132549389Y-89968402D01*
X132554857Y-89966546D01*
X132741268Y-89862151D01*
X132905533Y-89725533D01*
X133042151Y-89561268D01*
X133146546Y-89374857D01*
X133215222Y-89172543D01*
X133224090Y-89111379D01*
X133253660Y-89046835D01*
X133313431Y-89008522D01*
X133384428Y-89008606D01*
X133444108Y-89047061D01*
X133470909Y-89098445D01*
X133489728Y-89172543D01*
X133519485Y-89289713D01*
X133608933Y-89483740D01*
X133732241Y-89658218D01*
X133885281Y-89807302D01*
X134062927Y-89926001D01*
X134068230Y-89928279D01*
X134068233Y-89928281D01*
X134253922Y-90008059D01*
X134259229Y-90010339D01*
X134360993Y-90033366D01*
X134461977Y-90056217D01*
X134461980Y-90056217D01*
X134467613Y-90057492D01*
X134473384Y-90057719D01*
X134473386Y-90057719D01*
X134538363Y-90060272D01*
X134681101Y-90065880D01*
X134798540Y-90048852D01*
X134886829Y-90036051D01*
X134886834Y-90036050D01*
X134892543Y-90035222D01*
X134898007Y-90033367D01*
X134898012Y-90033366D01*
X135089389Y-89968402D01*
X135094857Y-89966546D01*
X135281268Y-89862151D01*
X135445533Y-89725533D01*
X135582151Y-89561268D01*
X135686546Y-89374857D01*
X135755222Y-89172543D01*
X135764090Y-89111379D01*
X135793660Y-89046835D01*
X135853431Y-89008522D01*
X135924428Y-89008606D01*
X135984108Y-89047061D01*
X136010909Y-89098445D01*
X136029728Y-89172543D01*
X136059485Y-89289713D01*
X136148933Y-89483740D01*
X136272241Y-89658218D01*
X136425281Y-89807302D01*
X136602927Y-89926001D01*
X136608230Y-89928279D01*
X136608233Y-89928281D01*
X136793922Y-90008059D01*
X136799229Y-90010339D01*
X136900993Y-90033366D01*
X137001977Y-90056217D01*
X137001980Y-90056217D01*
X137007613Y-90057492D01*
X137013384Y-90057719D01*
X137013386Y-90057719D01*
X137078363Y-90060272D01*
X137221101Y-90065880D01*
X137338540Y-90048852D01*
X137426829Y-90036051D01*
X137426834Y-90036050D01*
X137432543Y-90035222D01*
X137438007Y-90033367D01*
X137438012Y-90033366D01*
X137629389Y-89968402D01*
X137634857Y-89966546D01*
X137821268Y-89862151D01*
X137985533Y-89725533D01*
X138122151Y-89561268D01*
X138226546Y-89374857D01*
X138295222Y-89172543D01*
X138304091Y-89111380D01*
X138325347Y-88964775D01*
X138325880Y-88961101D01*
X138327480Y-88900000D01*
X138307930Y-88687244D01*
X138301092Y-88662996D01*
X138251504Y-88487172D01*
X138251503Y-88487170D01*
X138249936Y-88481613D01*
X138238662Y-88458750D01*
X138157995Y-88295174D01*
X138155440Y-88289993D01*
X138136139Y-88264145D01*
X138031060Y-88123427D01*
X138031059Y-88123426D01*
X138027607Y-88118803D01*
X138023371Y-88114887D01*
X137874957Y-87977695D01*
X137874954Y-87977693D01*
X137870717Y-87973776D01*
X137690025Y-87859768D01*
X137491582Y-87780597D01*
X137485925Y-87779472D01*
X137485919Y-87779470D01*
X137287703Y-87740043D01*
X137287699Y-87740043D01*
X137282035Y-87738916D01*
X137276260Y-87738840D01*
X137276256Y-87738840D01*
X137168997Y-87737436D01*
X137068401Y-87736119D01*
X137062704Y-87737098D01*
X137062703Y-87737098D01*
X136863531Y-87771322D01*
X136857834Y-87772301D01*
X136657387Y-87846250D01*
X136652426Y-87849202D01*
X136652425Y-87849202D01*
X136478740Y-87952533D01*
X136478737Y-87952535D01*
X136473772Y-87955489D01*
X136469432Y-87959295D01*
X136469428Y-87959298D01*
X136317481Y-88092553D01*
X136313140Y-88096360D01*
X136180869Y-88264145D01*
X136178180Y-88269256D01*
X136178178Y-88269259D01*
X136164544Y-88295174D01*
X136081389Y-88453225D01*
X136079675Y-88458746D01*
X136079673Y-88458750D01*
X136074183Y-88476433D01*
X136018032Y-88657267D01*
X136017354Y-88662996D01*
X136017354Y-88662997D01*
X136015823Y-88675930D01*
X135987952Y-88741228D01*
X135929204Y-88781092D01*
X135858229Y-88782865D01*
X135797563Y-88745986D01*
X135768323Y-88687133D01*
X135767930Y-88687244D01*
X135761092Y-88662996D01*
X135711504Y-88487172D01*
X135711503Y-88487170D01*
X135709936Y-88481613D01*
X135698662Y-88458750D01*
X135617995Y-88295174D01*
X135615440Y-88289993D01*
X135596139Y-88264145D01*
X135491060Y-88123427D01*
X135491059Y-88123426D01*
X135487607Y-88118803D01*
X135483371Y-88114887D01*
X135334957Y-87977695D01*
X135334954Y-87977693D01*
X135330717Y-87973776D01*
X135150025Y-87859768D01*
X134951582Y-87780597D01*
X134945925Y-87779472D01*
X134945919Y-87779470D01*
X134747703Y-87740043D01*
X134747699Y-87740043D01*
X134742035Y-87738916D01*
X134736260Y-87738840D01*
X134736256Y-87738840D01*
X134628997Y-87737436D01*
X134528401Y-87736119D01*
X134522704Y-87737098D01*
X134522703Y-87737098D01*
X134323531Y-87771322D01*
X134317834Y-87772301D01*
X134117387Y-87846250D01*
X134112426Y-87849202D01*
X134112425Y-87849202D01*
X133938740Y-87952533D01*
X133938737Y-87952535D01*
X133933772Y-87955489D01*
X133929432Y-87959295D01*
X133929428Y-87959298D01*
X133777481Y-88092553D01*
X133773140Y-88096360D01*
X133640869Y-88264145D01*
X133638180Y-88269256D01*
X133638178Y-88269259D01*
X133624544Y-88295174D01*
X133541389Y-88453225D01*
X133539675Y-88458746D01*
X133539673Y-88458750D01*
X133534183Y-88476433D01*
X133478032Y-88657267D01*
X133477354Y-88662996D01*
X133477354Y-88662997D01*
X133475823Y-88675930D01*
X133447952Y-88741228D01*
X133389204Y-88781092D01*
X133318229Y-88782865D01*
X133257563Y-88745986D01*
X133228323Y-88687133D01*
X133227930Y-88687244D01*
X133221092Y-88662996D01*
X133171504Y-88487172D01*
X133171503Y-88487170D01*
X133169936Y-88481613D01*
X133158662Y-88458750D01*
X133077995Y-88295174D01*
X133075440Y-88289993D01*
X133056139Y-88264145D01*
X132951060Y-88123427D01*
X132951059Y-88123426D01*
X132947607Y-88118803D01*
X132943371Y-88114887D01*
X132794957Y-87977695D01*
X132794954Y-87977693D01*
X132790717Y-87973776D01*
X132610025Y-87859768D01*
X132411582Y-87780597D01*
X132405925Y-87779472D01*
X132405919Y-87779470D01*
X132207703Y-87740043D01*
X132207699Y-87740043D01*
X132202035Y-87738916D01*
X132196260Y-87738840D01*
X132196256Y-87738840D01*
X132088997Y-87737436D01*
X131988401Y-87736119D01*
X131982704Y-87737098D01*
X131982703Y-87737098D01*
X131783531Y-87771322D01*
X131777834Y-87772301D01*
X131577387Y-87846250D01*
X131572426Y-87849202D01*
X131572425Y-87849202D01*
X131398740Y-87952533D01*
X131398737Y-87952535D01*
X131393772Y-87955489D01*
X131389432Y-87959295D01*
X131389428Y-87959298D01*
X131237481Y-88092553D01*
X131233140Y-88096360D01*
X131100869Y-88264145D01*
X131098180Y-88269256D01*
X131098178Y-88269259D01*
X131084544Y-88295174D01*
X131001389Y-88453225D01*
X130999675Y-88458746D01*
X130999673Y-88458750D01*
X130994183Y-88476433D01*
X130938032Y-88657267D01*
X130937354Y-88662996D01*
X130937354Y-88662997D01*
X130935823Y-88675930D01*
X130907952Y-88741228D01*
X130849204Y-88781092D01*
X130778229Y-88782865D01*
X130717563Y-88745986D01*
X130688323Y-88687133D01*
X130687930Y-88687244D01*
X130681092Y-88662996D01*
X130631504Y-88487172D01*
X130631503Y-88487170D01*
X130629936Y-88481613D01*
X130618662Y-88458750D01*
X130537995Y-88295174D01*
X130535440Y-88289993D01*
X130516139Y-88264145D01*
X130411060Y-88123427D01*
X130411059Y-88123426D01*
X130407607Y-88118803D01*
X130403371Y-88114887D01*
X130254957Y-87977695D01*
X130254954Y-87977693D01*
X130250717Y-87973776D01*
X130070025Y-87859768D01*
X129871582Y-87780597D01*
X129865925Y-87779472D01*
X129865919Y-87779470D01*
X129667703Y-87740043D01*
X129667699Y-87740043D01*
X129662035Y-87738916D01*
X129656260Y-87738840D01*
X129656256Y-87738840D01*
X129548997Y-87737436D01*
X129448401Y-87736119D01*
X129442704Y-87737098D01*
X129442703Y-87737098D01*
X129243531Y-87771322D01*
X129237834Y-87772301D01*
X129037387Y-87846250D01*
X129032426Y-87849202D01*
X129032425Y-87849202D01*
X128858740Y-87952533D01*
X128858737Y-87952535D01*
X128853772Y-87955489D01*
X128849432Y-87959295D01*
X128849428Y-87959298D01*
X128697481Y-88092553D01*
X128693140Y-88096360D01*
X128560869Y-88264145D01*
X128558180Y-88269256D01*
X128558178Y-88269259D01*
X128544544Y-88295174D01*
X128461389Y-88453225D01*
X128459675Y-88458746D01*
X128459673Y-88458750D01*
X128454183Y-88476433D01*
X128398032Y-88657267D01*
X128397354Y-88662996D01*
X128397354Y-88662997D01*
X128395823Y-88675930D01*
X128367952Y-88741228D01*
X128309204Y-88781092D01*
X128238229Y-88782865D01*
X128177563Y-88745986D01*
X128148323Y-88687133D01*
X128147930Y-88687244D01*
X128141092Y-88662996D01*
X128091504Y-88487172D01*
X128091503Y-88487170D01*
X128089936Y-88481613D01*
X128078662Y-88458750D01*
X127997995Y-88295174D01*
X127995440Y-88289993D01*
X127976139Y-88264145D01*
X127871060Y-88123427D01*
X127871059Y-88123426D01*
X127867607Y-88118803D01*
X127863371Y-88114887D01*
X127714957Y-87977695D01*
X127714954Y-87977693D01*
X127710717Y-87973776D01*
X127530025Y-87859768D01*
X127331582Y-87780597D01*
X127325925Y-87779472D01*
X127325919Y-87779470D01*
X127127703Y-87740043D01*
X127127699Y-87740043D01*
X127122035Y-87738916D01*
X127116260Y-87738840D01*
X127116256Y-87738840D01*
X127008997Y-87737436D01*
X126908401Y-87736119D01*
X126902704Y-87737098D01*
X126902703Y-87737098D01*
X126703531Y-87771322D01*
X126697834Y-87772301D01*
X126497387Y-87846250D01*
X126492426Y-87849202D01*
X126492425Y-87849202D01*
X126318740Y-87952533D01*
X126318737Y-87952535D01*
X126313772Y-87955489D01*
X126309432Y-87959295D01*
X126309428Y-87959298D01*
X126157481Y-88092553D01*
X126153140Y-88096360D01*
X126020869Y-88264145D01*
X126018180Y-88269256D01*
X126018178Y-88269259D01*
X126004544Y-88295174D01*
X125921389Y-88453225D01*
X125919675Y-88458746D01*
X125919673Y-88458750D01*
X125914183Y-88476433D01*
X125858032Y-88657267D01*
X125857354Y-88662996D01*
X125857354Y-88662997D01*
X125855823Y-88675930D01*
X125827952Y-88741228D01*
X125769204Y-88781092D01*
X125698229Y-88782865D01*
X125637563Y-88745986D01*
X125608323Y-88687133D01*
X125607930Y-88687244D01*
X125601092Y-88662996D01*
X125551504Y-88487172D01*
X125551503Y-88487170D01*
X125549936Y-88481613D01*
X125538662Y-88458750D01*
X125457995Y-88295174D01*
X125455440Y-88289993D01*
X125436139Y-88264145D01*
X125331060Y-88123427D01*
X125331059Y-88123426D01*
X125327607Y-88118803D01*
X125323371Y-88114887D01*
X125174957Y-87977695D01*
X125174954Y-87977693D01*
X125170717Y-87973776D01*
X124990025Y-87859768D01*
X124791582Y-87780597D01*
X124730193Y-87768386D01*
X124656070Y-87753642D01*
X124593161Y-87720734D01*
X124558029Y-87659039D01*
X124561829Y-87588145D01*
X124603355Y-87530559D01*
X124662570Y-87505368D01*
X124732543Y-87495222D01*
X124738007Y-87493367D01*
X124738012Y-87493366D01*
X124929389Y-87428402D01*
X124934857Y-87426546D01*
X125121268Y-87322151D01*
X125285533Y-87185533D01*
X125422151Y-87021268D01*
X125526546Y-86834857D01*
X125582973Y-86668629D01*
X125593366Y-86638012D01*
X125593367Y-86638007D01*
X125595222Y-86632543D01*
X125600530Y-86595939D01*
X125622423Y-86444942D01*
X125625880Y-86421101D01*
X125627480Y-86360000D01*
X125607930Y-86147244D01*
X125601092Y-86122996D01*
X125551504Y-85947172D01*
X125551503Y-85947170D01*
X125549936Y-85941613D01*
X125543556Y-85928674D01*
X125457995Y-85755174D01*
X125455440Y-85749993D01*
X125436139Y-85724145D01*
X125331060Y-85583427D01*
X125331059Y-85583426D01*
X125327607Y-85578803D01*
X125323371Y-85574887D01*
X125174957Y-85437695D01*
X125174954Y-85437693D01*
X125170717Y-85433776D01*
X124990025Y-85319768D01*
X124791582Y-85240597D01*
X124704548Y-85223285D01*
X124656070Y-85213642D01*
X124593161Y-85180734D01*
X124558029Y-85119039D01*
X124561829Y-85048145D01*
X124603355Y-84990559D01*
X124662570Y-84965368D01*
X124732543Y-84955222D01*
X124738007Y-84953367D01*
X124738012Y-84953366D01*
X124929389Y-84888402D01*
X124934857Y-84886546D01*
X125121268Y-84782151D01*
X125285533Y-84645533D01*
X125422151Y-84481268D01*
X125526546Y-84294857D01*
X125595222Y-84092543D01*
X125608259Y-84002634D01*
X125625347Y-83884775D01*
X125625880Y-83881101D01*
X125627480Y-83820000D01*
X125607930Y-83607244D01*
X125601092Y-83582996D01*
X125551504Y-83407172D01*
X125551503Y-83407170D01*
X125549936Y-83401613D01*
X125538662Y-83378750D01*
X125457995Y-83215174D01*
X125455440Y-83209993D01*
X125436139Y-83184145D01*
X125331060Y-83043427D01*
X125331059Y-83043426D01*
X125327607Y-83038803D01*
X125323371Y-83034887D01*
X125174957Y-82897695D01*
X125174954Y-82897693D01*
X125170717Y-82893776D01*
X124990025Y-82779768D01*
X124791582Y-82700597D01*
X124785925Y-82699472D01*
X124785919Y-82699470D01*
X124587703Y-82660043D01*
X124587699Y-82660043D01*
X124582035Y-82658916D01*
X124576260Y-82658840D01*
X124576256Y-82658840D01*
X124468997Y-82657436D01*
X124368401Y-82656119D01*
X124362704Y-82657098D01*
X124362703Y-82657098D01*
X124163531Y-82691322D01*
X124157834Y-82692301D01*
X123957387Y-82766250D01*
X123952426Y-82769202D01*
X123952425Y-82769202D01*
X123778740Y-82872533D01*
X123778737Y-82872535D01*
X123773772Y-82875489D01*
X123769432Y-82879295D01*
X123769428Y-82879298D01*
X123639215Y-82993493D01*
X123613140Y-83016360D01*
X123480869Y-83184145D01*
X123478180Y-83189256D01*
X123478178Y-83189259D01*
X123467240Y-83210049D01*
X123381389Y-83373225D01*
X123379675Y-83378746D01*
X123379673Y-83378750D01*
X123374183Y-83396433D01*
X123318032Y-83577267D01*
X123292920Y-83789439D01*
X123306894Y-84002634D01*
X123359485Y-84209713D01*
X123448933Y-84403740D01*
X123572241Y-84578218D01*
X123725281Y-84727302D01*
X123730084Y-84730512D01*
X123730085Y-84730512D01*
X123766240Y-84754670D01*
X123902927Y-84846001D01*
X123908230Y-84848279D01*
X123908233Y-84848281D01*
X124093922Y-84928059D01*
X124099229Y-84930339D01*
X124170355Y-84946433D01*
X124265190Y-84967893D01*
X124327217Y-85002436D01*
X124360721Y-85065030D01*
X124355067Y-85135801D01*
X124312048Y-85192280D01*
X124258721Y-85214965D01*
X124157834Y-85232301D01*
X123957387Y-85306250D01*
X123952426Y-85309202D01*
X123952425Y-85309202D01*
X123778740Y-85412533D01*
X123778737Y-85412535D01*
X123773772Y-85415489D01*
X123769432Y-85419295D01*
X123769428Y-85419298D01*
X123661384Y-85514051D01*
X123613140Y-85556360D01*
X123480869Y-85724145D01*
X123478180Y-85729256D01*
X123478178Y-85729259D01*
X123464544Y-85755174D01*
X123381389Y-85913225D01*
X123379675Y-85918746D01*
X123379673Y-85918750D01*
X123319988Y-86110968D01*
X123318032Y-86117267D01*
X123292920Y-86329439D01*
X123306894Y-86542634D01*
X123359485Y-86749713D01*
X123448933Y-86943740D01*
X123572241Y-87118218D01*
X123725281Y-87267302D01*
X123902927Y-87386001D01*
X123908230Y-87388279D01*
X123908233Y-87388281D01*
X124093922Y-87468059D01*
X124099229Y-87470339D01*
X124170355Y-87486433D01*
X124265190Y-87507893D01*
X124327217Y-87542436D01*
X124360721Y-87605030D01*
X124355067Y-87675801D01*
X124312048Y-87732280D01*
X124258721Y-87754965D01*
X124157834Y-87772301D01*
X123957387Y-87846250D01*
X123952426Y-87849202D01*
X123952425Y-87849202D01*
X123778740Y-87952533D01*
X123778737Y-87952535D01*
X123773772Y-87955489D01*
X123769432Y-87959295D01*
X123769428Y-87959298D01*
X123617481Y-88092553D01*
X123613140Y-88096360D01*
X123480869Y-88264145D01*
X123478180Y-88269256D01*
X123478178Y-88269259D01*
X123464544Y-88295174D01*
X123381389Y-88453225D01*
X123379675Y-88458746D01*
X123379673Y-88458750D01*
X123374183Y-88476433D01*
X123318032Y-88657267D01*
X123317354Y-88662996D01*
X123317354Y-88662997D01*
X123315823Y-88675930D01*
X123287952Y-88741228D01*
X123229204Y-88781092D01*
X123158229Y-88782865D01*
X123097563Y-88745986D01*
X123068323Y-88687133D01*
X123067930Y-88687244D01*
X123061092Y-88662996D01*
X123011504Y-88487172D01*
X123011503Y-88487170D01*
X123009936Y-88481613D01*
X122998662Y-88458750D01*
X122917995Y-88295174D01*
X122915440Y-88289993D01*
X122896139Y-88264145D01*
X122791060Y-88123427D01*
X122791059Y-88123426D01*
X122787607Y-88118803D01*
X122783371Y-88114887D01*
X122634957Y-87977695D01*
X122634954Y-87977693D01*
X122630717Y-87973776D01*
X122450025Y-87859768D01*
X122251582Y-87780597D01*
X122245925Y-87779472D01*
X122245919Y-87779470D01*
X122047703Y-87740043D01*
X122047699Y-87740043D01*
X122042035Y-87738916D01*
X122036260Y-87738840D01*
X122036256Y-87738840D01*
X121928997Y-87737436D01*
X121828401Y-87736119D01*
X121822704Y-87737098D01*
X121822703Y-87737098D01*
X121623531Y-87771322D01*
X121617834Y-87772301D01*
X121417387Y-87846250D01*
X121412426Y-87849202D01*
X121412425Y-87849202D01*
X121238740Y-87952533D01*
X121238737Y-87952535D01*
X121233772Y-87955489D01*
X121229432Y-87959295D01*
X121229428Y-87959298D01*
X121077481Y-88092553D01*
X121073140Y-88096360D01*
X120940869Y-88264145D01*
X120938180Y-88269256D01*
X120938178Y-88269259D01*
X120924544Y-88295174D01*
X120841389Y-88453225D01*
X120839675Y-88458746D01*
X120839673Y-88458750D01*
X120834183Y-88476433D01*
X120778032Y-88657267D01*
X120777354Y-88662996D01*
X120777354Y-88662997D01*
X120775823Y-88675930D01*
X120747952Y-88741228D01*
X120689204Y-88781092D01*
X120618229Y-88782865D01*
X120557563Y-88745986D01*
X120528323Y-88687133D01*
X120527930Y-88687244D01*
X120521092Y-88662996D01*
X120471504Y-88487172D01*
X120471503Y-88487170D01*
X120469936Y-88481613D01*
X120458662Y-88458750D01*
X120377995Y-88295174D01*
X120375440Y-88289993D01*
X120356139Y-88264145D01*
X120251060Y-88123427D01*
X120251059Y-88123426D01*
X120247607Y-88118803D01*
X120243371Y-88114887D01*
X120094957Y-87977695D01*
X120094954Y-87977693D01*
X120090717Y-87973776D01*
X119910025Y-87859768D01*
X119711582Y-87780597D01*
X119705925Y-87779472D01*
X119705919Y-87779470D01*
X119507703Y-87740043D01*
X119507699Y-87740043D01*
X119502035Y-87738916D01*
X119496260Y-87738840D01*
X119496256Y-87738840D01*
X119388997Y-87737436D01*
X119288401Y-87736119D01*
X119282704Y-87737098D01*
X119282703Y-87737098D01*
X119083531Y-87771322D01*
X119077834Y-87772301D01*
X118877387Y-87846250D01*
X118872426Y-87849202D01*
X118872425Y-87849202D01*
X118698740Y-87952533D01*
X118698737Y-87952535D01*
X118693772Y-87955489D01*
X118689432Y-87959295D01*
X118689428Y-87959298D01*
X118537481Y-88092553D01*
X118533140Y-88096360D01*
X118400869Y-88264145D01*
X118398180Y-88269256D01*
X118398178Y-88269259D01*
X118384544Y-88295174D01*
X118301389Y-88453225D01*
X118299675Y-88458746D01*
X118299673Y-88458750D01*
X118294183Y-88476433D01*
X118238032Y-88657267D01*
X118237354Y-88662996D01*
X118237354Y-88662997D01*
X118235823Y-88675930D01*
X118207952Y-88741228D01*
X118149204Y-88781092D01*
X118078229Y-88782865D01*
X118017563Y-88745986D01*
X117988323Y-88687133D01*
X117987930Y-88687244D01*
X117981092Y-88662996D01*
X117931504Y-88487172D01*
X117931503Y-88487170D01*
X117929936Y-88481613D01*
X117918662Y-88458750D01*
X117837995Y-88295174D01*
X117835440Y-88289993D01*
X117816139Y-88264145D01*
X117711060Y-88123427D01*
X117711059Y-88123426D01*
X117707607Y-88118803D01*
X117703371Y-88114887D01*
X117554957Y-87977695D01*
X117554954Y-87977693D01*
X117550717Y-87973776D01*
X117370025Y-87859768D01*
X117171582Y-87780597D01*
X117165925Y-87779472D01*
X117165919Y-87779470D01*
X116967703Y-87740043D01*
X116967699Y-87740043D01*
X116962035Y-87738916D01*
X116956260Y-87738840D01*
X116956256Y-87738840D01*
X116848997Y-87737436D01*
X116748401Y-87736119D01*
X116742704Y-87737098D01*
X116742703Y-87737098D01*
X116543531Y-87771322D01*
X116537834Y-87772301D01*
X116337387Y-87846250D01*
X116332426Y-87849202D01*
X116332425Y-87849202D01*
X116158740Y-87952533D01*
X116158737Y-87952535D01*
X116153772Y-87955489D01*
X116149432Y-87959295D01*
X116149428Y-87959298D01*
X115997481Y-88092553D01*
X115993140Y-88096360D01*
X115860869Y-88264145D01*
X115858180Y-88269256D01*
X115858178Y-88269259D01*
X115844544Y-88295174D01*
X115761389Y-88453225D01*
X115759675Y-88458746D01*
X115759673Y-88458750D01*
X115754183Y-88476433D01*
X115698032Y-88657267D01*
X115697354Y-88662996D01*
X115697354Y-88662997D01*
X115695823Y-88675930D01*
X115667952Y-88741228D01*
X115609204Y-88781092D01*
X115538229Y-88782865D01*
X115477563Y-88745986D01*
X115448323Y-88687133D01*
X115447930Y-88687244D01*
X115441092Y-88662996D01*
X115391504Y-88487172D01*
X115391503Y-88487170D01*
X115389936Y-88481613D01*
X115378662Y-88458750D01*
X115297995Y-88295174D01*
X115295440Y-88289993D01*
X115276139Y-88264145D01*
X115171060Y-88123427D01*
X115171059Y-88123426D01*
X115167607Y-88118803D01*
X115163371Y-88114887D01*
X115014957Y-87977695D01*
X115014954Y-87977693D01*
X115010717Y-87973776D01*
X114830025Y-87859768D01*
X114631582Y-87780597D01*
X114625925Y-87779472D01*
X114625919Y-87779470D01*
X114427703Y-87740043D01*
X114427699Y-87740043D01*
X114422035Y-87738916D01*
X114416260Y-87738840D01*
X114416256Y-87738840D01*
X114308997Y-87737436D01*
X114208401Y-87736119D01*
X114202704Y-87737098D01*
X114202703Y-87737098D01*
X114003531Y-87771322D01*
X113997834Y-87772301D01*
X113797387Y-87846250D01*
X113792426Y-87849202D01*
X113792425Y-87849202D01*
X113618740Y-87952533D01*
X113618737Y-87952535D01*
X113613772Y-87955489D01*
X113609432Y-87959295D01*
X113609428Y-87959298D01*
X113457481Y-88092553D01*
X113453140Y-88096360D01*
X113320869Y-88264145D01*
X113318180Y-88269256D01*
X113318178Y-88269259D01*
X113304544Y-88295174D01*
X113221389Y-88453225D01*
X113219675Y-88458746D01*
X113219673Y-88458750D01*
X113214183Y-88476433D01*
X113158032Y-88657267D01*
X113157354Y-88662996D01*
X113157354Y-88662997D01*
X113155823Y-88675930D01*
X113127952Y-88741228D01*
X113069204Y-88781092D01*
X112998229Y-88782865D01*
X112937563Y-88745986D01*
X112908323Y-88687133D01*
X112907930Y-88687244D01*
X112901092Y-88662996D01*
X112851504Y-88487172D01*
X112851503Y-88487170D01*
X112849936Y-88481613D01*
X112838662Y-88458750D01*
X112757995Y-88295174D01*
X112755440Y-88289993D01*
X112736139Y-88264145D01*
X112631060Y-88123427D01*
X112631059Y-88123426D01*
X112627607Y-88118803D01*
X112623371Y-88114887D01*
X112474957Y-87977695D01*
X112474954Y-87977693D01*
X112470717Y-87973776D01*
X112290025Y-87859768D01*
X112091582Y-87780597D01*
X112085925Y-87779472D01*
X112085919Y-87779470D01*
X111887703Y-87740043D01*
X111887699Y-87740043D01*
X111882035Y-87738916D01*
X111876260Y-87738840D01*
X111876256Y-87738840D01*
X111768997Y-87737436D01*
X111668401Y-87736119D01*
X111662704Y-87737098D01*
X111662703Y-87737098D01*
X111463531Y-87771322D01*
X111457834Y-87772301D01*
X111257387Y-87846250D01*
X111252426Y-87849202D01*
X111252425Y-87849202D01*
X111078740Y-87952533D01*
X111078737Y-87952535D01*
X111073772Y-87955489D01*
X111069432Y-87959295D01*
X111069428Y-87959298D01*
X110917481Y-88092553D01*
X110913140Y-88096360D01*
X110780869Y-88264145D01*
X110778180Y-88269256D01*
X110778178Y-88269259D01*
X110764544Y-88295174D01*
X110681389Y-88453225D01*
X110679675Y-88458746D01*
X110679673Y-88458750D01*
X110674183Y-88476433D01*
X110618032Y-88657267D01*
X110617354Y-88662996D01*
X110617354Y-88662997D01*
X110615823Y-88675930D01*
X110587952Y-88741228D01*
X110529204Y-88781092D01*
X110458229Y-88782865D01*
X110397563Y-88745986D01*
X110368323Y-88687133D01*
X110367930Y-88687244D01*
X110361092Y-88662996D01*
X110311504Y-88487172D01*
X110311503Y-88487170D01*
X110309936Y-88481613D01*
X110298662Y-88458750D01*
X110217995Y-88295174D01*
X110215440Y-88289993D01*
X110196139Y-88264145D01*
X110091060Y-88123427D01*
X110091059Y-88123426D01*
X110087607Y-88118803D01*
X110083371Y-88114887D01*
X109934957Y-87977695D01*
X109934954Y-87977693D01*
X109930717Y-87973776D01*
X109750025Y-87859768D01*
X109551582Y-87780597D01*
X109545925Y-87779472D01*
X109545919Y-87779470D01*
X109347703Y-87740043D01*
X109347699Y-87740043D01*
X109342035Y-87738916D01*
X109336260Y-87738840D01*
X109336256Y-87738840D01*
X109228997Y-87737436D01*
X109128401Y-87736119D01*
X109122704Y-87737098D01*
X109122703Y-87737098D01*
X108923531Y-87771322D01*
X108917834Y-87772301D01*
X108717387Y-87846250D01*
X108712426Y-87849202D01*
X108712425Y-87849202D01*
X108538740Y-87952533D01*
X108538737Y-87952535D01*
X108533772Y-87955489D01*
X108529432Y-87959295D01*
X108529428Y-87959298D01*
X108377481Y-88092553D01*
X108373140Y-88096360D01*
X108240869Y-88264145D01*
X108238180Y-88269256D01*
X108238178Y-88269259D01*
X108224544Y-88295174D01*
X108141389Y-88453225D01*
X108139675Y-88458746D01*
X108139673Y-88458750D01*
X108134183Y-88476433D01*
X108078032Y-88657267D01*
X108077354Y-88662996D01*
X108077354Y-88662997D01*
X108075823Y-88675930D01*
X108047952Y-88741228D01*
X107989204Y-88781092D01*
X107918229Y-88782865D01*
X107857563Y-88745986D01*
X107828323Y-88687133D01*
X107827930Y-88687244D01*
X107821092Y-88662996D01*
X107771504Y-88487172D01*
X107771503Y-88487170D01*
X107769936Y-88481613D01*
X107758662Y-88458750D01*
X107677995Y-88295174D01*
X107675440Y-88289993D01*
X107656139Y-88264145D01*
X107551060Y-88123427D01*
X107551059Y-88123426D01*
X107547607Y-88118803D01*
X107543371Y-88114887D01*
X107394957Y-87977695D01*
X107394954Y-87977693D01*
X107390717Y-87973776D01*
X107210025Y-87859768D01*
X107011582Y-87780597D01*
X107005925Y-87779472D01*
X107005919Y-87779470D01*
X106807703Y-87740043D01*
X106807699Y-87740043D01*
X106802035Y-87738916D01*
X106796260Y-87738840D01*
X106796256Y-87738840D01*
X106688997Y-87737436D01*
X106588401Y-87736119D01*
X106582704Y-87737098D01*
X106582703Y-87737098D01*
X106383531Y-87771322D01*
X106377834Y-87772301D01*
X106177387Y-87846250D01*
X106172426Y-87849202D01*
X106172425Y-87849202D01*
X105998740Y-87952533D01*
X105998737Y-87952535D01*
X105993772Y-87955489D01*
X105989432Y-87959295D01*
X105989428Y-87959298D01*
X105837481Y-88092553D01*
X105833140Y-88096360D01*
X105700869Y-88264145D01*
X105698180Y-88269256D01*
X105698178Y-88269259D01*
X105684544Y-88295174D01*
X105601389Y-88453225D01*
X105599675Y-88458746D01*
X105599673Y-88458750D01*
X105594183Y-88476433D01*
X105538032Y-88657267D01*
X105537354Y-88662996D01*
X105537354Y-88662997D01*
X105535823Y-88675930D01*
X105507952Y-88741228D01*
X105449204Y-88781092D01*
X105378229Y-88782865D01*
X105317563Y-88745986D01*
X105288323Y-88687133D01*
X105287930Y-88687244D01*
X105281092Y-88662996D01*
X105231504Y-88487172D01*
X105231503Y-88487170D01*
X105229936Y-88481613D01*
X105218662Y-88458750D01*
X105137995Y-88295174D01*
X105135440Y-88289993D01*
X105116139Y-88264145D01*
X105011060Y-88123427D01*
X105011059Y-88123426D01*
X105007607Y-88118803D01*
X105003371Y-88114887D01*
X104854957Y-87977695D01*
X104854954Y-87977693D01*
X104850717Y-87973776D01*
X104670025Y-87859768D01*
X104471582Y-87780597D01*
X104465925Y-87779472D01*
X104465919Y-87779470D01*
X104267703Y-87740043D01*
X104267699Y-87740043D01*
X104262035Y-87738916D01*
X104256260Y-87738840D01*
X104256256Y-87738840D01*
X104148997Y-87737436D01*
X104048401Y-87736119D01*
X104042704Y-87737098D01*
X104042703Y-87737098D01*
X103843531Y-87771322D01*
X103837834Y-87772301D01*
X103637387Y-87846250D01*
X103632426Y-87849202D01*
X103632425Y-87849202D01*
X103458740Y-87952533D01*
X103458737Y-87952535D01*
X103453772Y-87955489D01*
X103449432Y-87959295D01*
X103449428Y-87959298D01*
X103297481Y-88092553D01*
X103293140Y-88096360D01*
X103160869Y-88264145D01*
X103158180Y-88269256D01*
X103158178Y-88269259D01*
X103144544Y-88295174D01*
X103061389Y-88453225D01*
X103059675Y-88458746D01*
X103059673Y-88458750D01*
X103054183Y-88476433D01*
X102998032Y-88657267D01*
X102997354Y-88662996D01*
X102997354Y-88662997D01*
X102995823Y-88675930D01*
X102967952Y-88741228D01*
X102909204Y-88781092D01*
X102838229Y-88782865D01*
X102777563Y-88745986D01*
X102748323Y-88687133D01*
X102747930Y-88687244D01*
X102741092Y-88662996D01*
X102691504Y-88487172D01*
X102691503Y-88487170D01*
X102689936Y-88481613D01*
X102678662Y-88458750D01*
X102597995Y-88295174D01*
X102595440Y-88289993D01*
X102576139Y-88264145D01*
X102471060Y-88123427D01*
X102471059Y-88123426D01*
X102467607Y-88118803D01*
X102463371Y-88114887D01*
X102314957Y-87977695D01*
X102314954Y-87977693D01*
X102310717Y-87973776D01*
X102130025Y-87859768D01*
X101931582Y-87780597D01*
X101925925Y-87779472D01*
X101925919Y-87779470D01*
X101727703Y-87740043D01*
X101727699Y-87740043D01*
X101722035Y-87738916D01*
X101716260Y-87738840D01*
X101716256Y-87738840D01*
X101608997Y-87737436D01*
X101508401Y-87736119D01*
X101502704Y-87737098D01*
X101502703Y-87737098D01*
X101303531Y-87771322D01*
X101297834Y-87772301D01*
X101097387Y-87846250D01*
X101092426Y-87849202D01*
X101092425Y-87849202D01*
X100918740Y-87952533D01*
X100918737Y-87952535D01*
X100913772Y-87955489D01*
X100909432Y-87959295D01*
X100909428Y-87959298D01*
X100757481Y-88092553D01*
X100753140Y-88096360D01*
X100620869Y-88264145D01*
X100618180Y-88269256D01*
X100618178Y-88269259D01*
X100604544Y-88295174D01*
X100521389Y-88453225D01*
X100519675Y-88458746D01*
X100519673Y-88458750D01*
X100514183Y-88476433D01*
X100458032Y-88657267D01*
X100457354Y-88662996D01*
X100457354Y-88662997D01*
X100455823Y-88675930D01*
X100427952Y-88741228D01*
X100369204Y-88781092D01*
X100298229Y-88782865D01*
X100237563Y-88745986D01*
X100208323Y-88687133D01*
X100207930Y-88687244D01*
X100201092Y-88662996D01*
X100151504Y-88487172D01*
X100151503Y-88487170D01*
X100149936Y-88481613D01*
X100138662Y-88458750D01*
X100057995Y-88295174D01*
X100055440Y-88289993D01*
X100036139Y-88264145D01*
X99931060Y-88123427D01*
X99931059Y-88123426D01*
X99927607Y-88118803D01*
X99923371Y-88114887D01*
X99774957Y-87977695D01*
X99774954Y-87977693D01*
X99770717Y-87973776D01*
X99590025Y-87859768D01*
X99391582Y-87780597D01*
X99385925Y-87779472D01*
X99385919Y-87779470D01*
X99187703Y-87740043D01*
X99187699Y-87740043D01*
X99182035Y-87738916D01*
X99176260Y-87738840D01*
X99176256Y-87738840D01*
X99068997Y-87737436D01*
X98968401Y-87736119D01*
X98962704Y-87737098D01*
X98962703Y-87737098D01*
X98763531Y-87771322D01*
X98757834Y-87772301D01*
X98557387Y-87846250D01*
X98552426Y-87849202D01*
X98552425Y-87849202D01*
X98378740Y-87952533D01*
X98378737Y-87952535D01*
X98373772Y-87955489D01*
X98369432Y-87959295D01*
X98369428Y-87959298D01*
X98217481Y-88092553D01*
X98213140Y-88096360D01*
X98080869Y-88264145D01*
X98078180Y-88269256D01*
X98078178Y-88269259D01*
X98064544Y-88295174D01*
X97981389Y-88453225D01*
X97979675Y-88458746D01*
X97979673Y-88458750D01*
X97974183Y-88476433D01*
X97918032Y-88657267D01*
X97917354Y-88662996D01*
X97917354Y-88662997D01*
X97915823Y-88675930D01*
X97887952Y-88741228D01*
X97829204Y-88781092D01*
X97758229Y-88782865D01*
X97697563Y-88745986D01*
X97668323Y-88687133D01*
X97667930Y-88687244D01*
X97661092Y-88662996D01*
X97611504Y-88487172D01*
X97611503Y-88487170D01*
X97609936Y-88481613D01*
X97598662Y-88458750D01*
X97517995Y-88295174D01*
X97515440Y-88289993D01*
X97496139Y-88264145D01*
X97391060Y-88123427D01*
X97391059Y-88123426D01*
X97387607Y-88118803D01*
X97383371Y-88114887D01*
X97234957Y-87977695D01*
X97234954Y-87977693D01*
X97230717Y-87973776D01*
X97050025Y-87859768D01*
X96851582Y-87780597D01*
X96845925Y-87779472D01*
X96845919Y-87779470D01*
X96647703Y-87740043D01*
X96647699Y-87740043D01*
X96642035Y-87738916D01*
X96636260Y-87738840D01*
X96636256Y-87738840D01*
X96528997Y-87737436D01*
X96428401Y-87736119D01*
X96422704Y-87737098D01*
X96422703Y-87737098D01*
X96223531Y-87771322D01*
X96217834Y-87772301D01*
X96017387Y-87846250D01*
X96012426Y-87849202D01*
X96012425Y-87849202D01*
X95838740Y-87952533D01*
X95838737Y-87952535D01*
X95833772Y-87955489D01*
X95829432Y-87959295D01*
X95829428Y-87959298D01*
X95677481Y-88092553D01*
X95673140Y-88096360D01*
X95540869Y-88264145D01*
X95538180Y-88269256D01*
X95538178Y-88269259D01*
X95524544Y-88295174D01*
X95441389Y-88453225D01*
X95439675Y-88458746D01*
X95439673Y-88458750D01*
X95434183Y-88476433D01*
X95378032Y-88657267D01*
X95377354Y-88662996D01*
X95377354Y-88662997D01*
X95375823Y-88675930D01*
X95347952Y-88741228D01*
X95289204Y-88781092D01*
X95218229Y-88782865D01*
X95157563Y-88745986D01*
X95128323Y-88687133D01*
X95127930Y-88687244D01*
X95121092Y-88662996D01*
X95071504Y-88487172D01*
X95071503Y-88487170D01*
X95069936Y-88481613D01*
X95058662Y-88458750D01*
X94977995Y-88295174D01*
X94975440Y-88289993D01*
X94956139Y-88264145D01*
X94851060Y-88123427D01*
X94851059Y-88123426D01*
X94847607Y-88118803D01*
X94843371Y-88114887D01*
X94694957Y-87977695D01*
X94694954Y-87977693D01*
X94690717Y-87973776D01*
X94510025Y-87859768D01*
X94311582Y-87780597D01*
X94305925Y-87779472D01*
X94305919Y-87779470D01*
X94107703Y-87740043D01*
X94107699Y-87740043D01*
X94102035Y-87738916D01*
X94096260Y-87738840D01*
X94096256Y-87738840D01*
X93988997Y-87737436D01*
X93888401Y-87736119D01*
X93882704Y-87737098D01*
X93882703Y-87737098D01*
X93683531Y-87771322D01*
X93677834Y-87772301D01*
X93477387Y-87846250D01*
X93472426Y-87849202D01*
X93472425Y-87849202D01*
X93298740Y-87952533D01*
X93298737Y-87952535D01*
X93293772Y-87955489D01*
X93289432Y-87959295D01*
X93289428Y-87959298D01*
X93137481Y-88092553D01*
X93133140Y-88096360D01*
X93000869Y-88264145D01*
X92998180Y-88269256D01*
X92998178Y-88269259D01*
X92984544Y-88295174D01*
X92901389Y-88453225D01*
X92899675Y-88458746D01*
X92899673Y-88458750D01*
X92894183Y-88476433D01*
X92838032Y-88657267D01*
X92837354Y-88662996D01*
X92837354Y-88662997D01*
X92835823Y-88675930D01*
X92807952Y-88741228D01*
X92749204Y-88781092D01*
X92678229Y-88782865D01*
X92617563Y-88745986D01*
X92588323Y-88687133D01*
X92587930Y-88687244D01*
X92581092Y-88662996D01*
X92531504Y-88487172D01*
X92531503Y-88487170D01*
X92529936Y-88481613D01*
X92518662Y-88458750D01*
X92437995Y-88295174D01*
X92435440Y-88289993D01*
X92416139Y-88264145D01*
X92311060Y-88123427D01*
X92311059Y-88123426D01*
X92307607Y-88118803D01*
X92303371Y-88114887D01*
X92154957Y-87977695D01*
X92154954Y-87977693D01*
X92150717Y-87973776D01*
X91970025Y-87859768D01*
X91771582Y-87780597D01*
X91765925Y-87779472D01*
X91765919Y-87779470D01*
X91567703Y-87740043D01*
X91567699Y-87740043D01*
X91562035Y-87738916D01*
X91556260Y-87738840D01*
X91556256Y-87738840D01*
X91448997Y-87737436D01*
X91348401Y-87736119D01*
X91342704Y-87737098D01*
X91342703Y-87737098D01*
X91143531Y-87771322D01*
X91137834Y-87772301D01*
X90937387Y-87846250D01*
X90932426Y-87849202D01*
X90932425Y-87849202D01*
X90758740Y-87952533D01*
X90758737Y-87952535D01*
X90753772Y-87955489D01*
X90749432Y-87959295D01*
X90749428Y-87959298D01*
X90597481Y-88092553D01*
X90593140Y-88096360D01*
X90460869Y-88264145D01*
X90458180Y-88269256D01*
X90458178Y-88269259D01*
X90444544Y-88295174D01*
X90361389Y-88453225D01*
X90359675Y-88458746D01*
X90359673Y-88458750D01*
X90354183Y-88476433D01*
X90298032Y-88657267D01*
X90297354Y-88662996D01*
X90297354Y-88662997D01*
X90295823Y-88675930D01*
X90267952Y-88741228D01*
X90209204Y-88781092D01*
X90138229Y-88782865D01*
X90077563Y-88745986D01*
X90048323Y-88687133D01*
X90047930Y-88687244D01*
X90041092Y-88662996D01*
X89991504Y-88487172D01*
X89991503Y-88487170D01*
X89989936Y-88481613D01*
X89978662Y-88458750D01*
X89897995Y-88295174D01*
X89895440Y-88289993D01*
X89876139Y-88264145D01*
X89771060Y-88123427D01*
X89771059Y-88123426D01*
X89767607Y-88118803D01*
X89763371Y-88114887D01*
X89614957Y-87977695D01*
X89614954Y-87977693D01*
X89610717Y-87973776D01*
X89430025Y-87859768D01*
X89231582Y-87780597D01*
X89225925Y-87779472D01*
X89225919Y-87779470D01*
X89027703Y-87740043D01*
X89027699Y-87740043D01*
X89022035Y-87738916D01*
X89016260Y-87738840D01*
X89016256Y-87738840D01*
X88908997Y-87737436D01*
X88808401Y-87736119D01*
X88802704Y-87737098D01*
X88802703Y-87737098D01*
X88603531Y-87771322D01*
X88597834Y-87772301D01*
X88397387Y-87846250D01*
X88392426Y-87849202D01*
X88392425Y-87849202D01*
X88218740Y-87952533D01*
X88218737Y-87952535D01*
X88213772Y-87955489D01*
X88209432Y-87959295D01*
X88209428Y-87959298D01*
X88057481Y-88092553D01*
X88053140Y-88096360D01*
X87920869Y-88264145D01*
X87918180Y-88269256D01*
X87918178Y-88269259D01*
X87904544Y-88295174D01*
X87821389Y-88453225D01*
X87819675Y-88458746D01*
X87819673Y-88458750D01*
X87814183Y-88476433D01*
X87758032Y-88657267D01*
X87757354Y-88662996D01*
X87757354Y-88662997D01*
X87755823Y-88675930D01*
X87727952Y-88741228D01*
X87669204Y-88781092D01*
X87598229Y-88782865D01*
X87537563Y-88745986D01*
X87508323Y-88687133D01*
X87507930Y-88687244D01*
X87501092Y-88662996D01*
X87451504Y-88487172D01*
X87451503Y-88487170D01*
X87449936Y-88481613D01*
X87438662Y-88458750D01*
X87357995Y-88295174D01*
X87355440Y-88289993D01*
X87336139Y-88264145D01*
X87231060Y-88123427D01*
X87231059Y-88123426D01*
X87227607Y-88118803D01*
X87223371Y-88114887D01*
X87074957Y-87977695D01*
X87074954Y-87977693D01*
X87070717Y-87973776D01*
X86890025Y-87859768D01*
X86691582Y-87780597D01*
X86685925Y-87779472D01*
X86685919Y-87779470D01*
X86487703Y-87740043D01*
X86487699Y-87740043D01*
X86482035Y-87738916D01*
X86476260Y-87738840D01*
X86476256Y-87738840D01*
X86368997Y-87737436D01*
X86268401Y-87736119D01*
X86262704Y-87737098D01*
X86262703Y-87737098D01*
X86063531Y-87771322D01*
X86057834Y-87772301D01*
X85857387Y-87846250D01*
X85852426Y-87849202D01*
X85852425Y-87849202D01*
X85678740Y-87952533D01*
X85678737Y-87952535D01*
X85673772Y-87955489D01*
X85669432Y-87959295D01*
X85669428Y-87959298D01*
X85517481Y-88092553D01*
X85513140Y-88096360D01*
X85380869Y-88264145D01*
X85378180Y-88269256D01*
X85378178Y-88269259D01*
X85364544Y-88295174D01*
X85281389Y-88453225D01*
X85279675Y-88458746D01*
X85279673Y-88458750D01*
X85274183Y-88476433D01*
X85218032Y-88657267D01*
X85217354Y-88662996D01*
X85217354Y-88662997D01*
X85215823Y-88675930D01*
X85187952Y-88741228D01*
X85129204Y-88781092D01*
X85058229Y-88782865D01*
X84997563Y-88745986D01*
X84968323Y-88687133D01*
X84967930Y-88687244D01*
X84961092Y-88662996D01*
X84911504Y-88487172D01*
X84911503Y-88487170D01*
X84909936Y-88481613D01*
X84898662Y-88458750D01*
X84817995Y-88295174D01*
X84815440Y-88289993D01*
X84796139Y-88264145D01*
X84691060Y-88123427D01*
X84691059Y-88123426D01*
X84687607Y-88118803D01*
X84683371Y-88114887D01*
X84534957Y-87977695D01*
X84534954Y-87977693D01*
X84530717Y-87973776D01*
X84350025Y-87859768D01*
X84151582Y-87780597D01*
X84145925Y-87779472D01*
X84145919Y-87779470D01*
X83947703Y-87740043D01*
X83947699Y-87740043D01*
X83942035Y-87738916D01*
X83936260Y-87738840D01*
X83936256Y-87738840D01*
X83828997Y-87737436D01*
X83728401Y-87736119D01*
X83722704Y-87737098D01*
X83722703Y-87737098D01*
X83523531Y-87771322D01*
X83517834Y-87772301D01*
X83317387Y-87846250D01*
X83312426Y-87849202D01*
X83312425Y-87849202D01*
X83138740Y-87952533D01*
X83138737Y-87952535D01*
X83133772Y-87955489D01*
X83129432Y-87959295D01*
X83129428Y-87959298D01*
X82977481Y-88092553D01*
X82973140Y-88096360D01*
X82840869Y-88264145D01*
X82838180Y-88269256D01*
X82838178Y-88269259D01*
X82824544Y-88295174D01*
X82741389Y-88453225D01*
X82739675Y-88458746D01*
X82739673Y-88458750D01*
X82734183Y-88476433D01*
X82678032Y-88657267D01*
X82677354Y-88662996D01*
X82677354Y-88662997D01*
X82675823Y-88675930D01*
X82647952Y-88741228D01*
X82589204Y-88781092D01*
X82518229Y-88782865D01*
X82457563Y-88745986D01*
X82428323Y-88687133D01*
X82427930Y-88687244D01*
X82421092Y-88662996D01*
X82371504Y-88487172D01*
X82371503Y-88487170D01*
X82369936Y-88481613D01*
X82358662Y-88458750D01*
X82277995Y-88295174D01*
X82275440Y-88289993D01*
X82256139Y-88264145D01*
X82151060Y-88123427D01*
X82151059Y-88123426D01*
X82147607Y-88118803D01*
X82143371Y-88114887D01*
X81994957Y-87977695D01*
X81994954Y-87977693D01*
X81990717Y-87973776D01*
X81810025Y-87859768D01*
X81611582Y-87780597D01*
X81605925Y-87779472D01*
X81605919Y-87779470D01*
X81407703Y-87740043D01*
X81407699Y-87740043D01*
X81402035Y-87738916D01*
X81396260Y-87738840D01*
X81396256Y-87738840D01*
X81288997Y-87737436D01*
X81188401Y-87736119D01*
X81182704Y-87737098D01*
X81182703Y-87737098D01*
X80983531Y-87771322D01*
X80977834Y-87772301D01*
X80777387Y-87846250D01*
X80772426Y-87849202D01*
X80772425Y-87849202D01*
X80598740Y-87952533D01*
X80598737Y-87952535D01*
X80593772Y-87955489D01*
X80589432Y-87959295D01*
X80589428Y-87959298D01*
X80437481Y-88092553D01*
X80433140Y-88096360D01*
X80300869Y-88264145D01*
X80298180Y-88269256D01*
X80298178Y-88269259D01*
X80284544Y-88295174D01*
X80201389Y-88453225D01*
X80199675Y-88458746D01*
X80199673Y-88458750D01*
X80194183Y-88476433D01*
X80138032Y-88657267D01*
X80112920Y-88869439D01*
X57404500Y-88869439D01*
X57404500Y-85448146D01*
X69111500Y-85448146D01*
X69111653Y-85450332D01*
X69111653Y-85450336D01*
X69125043Y-85641819D01*
X69126189Y-85658212D01*
X69184591Y-85932970D01*
X69186094Y-85937099D01*
X69186095Y-85937103D01*
X69264675Y-86152998D01*
X69280663Y-86196926D01*
X69412536Y-86444942D01*
X69415122Y-86448501D01*
X69415123Y-86448503D01*
X69569853Y-86661471D01*
X69577642Y-86672192D01*
X69772769Y-86874252D01*
X69994118Y-87047188D01*
X69997922Y-87049384D01*
X69997929Y-87049389D01*
X70195067Y-87163206D01*
X70237381Y-87187636D01*
X70497824Y-87292862D01*
X70502097Y-87293927D01*
X70502099Y-87293928D01*
X70766107Y-87359753D01*
X70766112Y-87359754D01*
X70770376Y-87360817D01*
X70774744Y-87361276D01*
X70774749Y-87361277D01*
X71045364Y-87389719D01*
X71045367Y-87389719D01*
X71049733Y-87390178D01*
X71054121Y-87390025D01*
X71054127Y-87390025D01*
X71326061Y-87380529D01*
X71326067Y-87380528D01*
X71330458Y-87380375D01*
X71334781Y-87379613D01*
X71334788Y-87379612D01*
X71510494Y-87348630D01*
X71607087Y-87331598D01*
X71874235Y-87244797D01*
X71878188Y-87242869D01*
X71878193Y-87242867D01*
X71995744Y-87185533D01*
X72126702Y-87121660D01*
X72130341Y-87119205D01*
X72130347Y-87119202D01*
X72268960Y-87025706D01*
X72359576Y-86964585D01*
X72568322Y-86776629D01*
X72748879Y-86561450D01*
X72897731Y-86323236D01*
X73011982Y-86066625D01*
X73082673Y-85820096D01*
X83948018Y-85820096D01*
X83961692Y-86028707D01*
X84013152Y-86231332D01*
X84100676Y-86421186D01*
X84221333Y-86591912D01*
X84371081Y-86737791D01*
X84375877Y-86740996D01*
X84375880Y-86740998D01*
X84433602Y-86779566D01*
X84544907Y-86853937D01*
X84550210Y-86856215D01*
X84550213Y-86856217D01*
X84637248Y-86893610D01*
X84736987Y-86936461D01*
X84940890Y-86982600D01*
X84946659Y-86982827D01*
X84946662Y-86982827D01*
X85025467Y-86985923D01*
X85149787Y-86990807D01*
X85356682Y-86960809D01*
X85362146Y-86958954D01*
X85362151Y-86958953D01*
X85549177Y-86895466D01*
X85554645Y-86893610D01*
X85737047Y-86791460D01*
X85897780Y-86657780D01*
X86031460Y-86497047D01*
X86133610Y-86314645D01*
X86163792Y-86225732D01*
X86198953Y-86122151D01*
X86198954Y-86122146D01*
X86200809Y-86116682D01*
X86230807Y-85909787D01*
X86232373Y-85850000D01*
X86229625Y-85820096D01*
X86488018Y-85820096D01*
X86501692Y-86028707D01*
X86553152Y-86231332D01*
X86640676Y-86421186D01*
X86761333Y-86591912D01*
X86911081Y-86737791D01*
X86915877Y-86740996D01*
X86915880Y-86740998D01*
X86973602Y-86779566D01*
X87084907Y-86853937D01*
X87090210Y-86856215D01*
X87090213Y-86856217D01*
X87177248Y-86893610D01*
X87276987Y-86936461D01*
X87480890Y-86982600D01*
X87486659Y-86982827D01*
X87486662Y-86982827D01*
X87565467Y-86985923D01*
X87689787Y-86990807D01*
X87896682Y-86960809D01*
X87902146Y-86958954D01*
X87902151Y-86958953D01*
X88089177Y-86895466D01*
X88094645Y-86893610D01*
X88277047Y-86791460D01*
X88437780Y-86657780D01*
X88571460Y-86497047D01*
X88673610Y-86314645D01*
X88703792Y-86225732D01*
X88738953Y-86122151D01*
X88738954Y-86122146D01*
X88740809Y-86116682D01*
X88770807Y-85909787D01*
X88772373Y-85850000D01*
X88769625Y-85820096D01*
X89028018Y-85820096D01*
X89041692Y-86028707D01*
X89093152Y-86231332D01*
X89180676Y-86421186D01*
X89301333Y-86591912D01*
X89451081Y-86737791D01*
X89455877Y-86740996D01*
X89455880Y-86740998D01*
X89513602Y-86779566D01*
X89624907Y-86853937D01*
X89630210Y-86856215D01*
X89630213Y-86856217D01*
X89717248Y-86893610D01*
X89816987Y-86936461D01*
X90020890Y-86982600D01*
X90026659Y-86982827D01*
X90026662Y-86982827D01*
X90105467Y-86985923D01*
X90229787Y-86990807D01*
X90436682Y-86960809D01*
X90442146Y-86958954D01*
X90442151Y-86958953D01*
X90629177Y-86895466D01*
X90634645Y-86893610D01*
X90817047Y-86791460D01*
X90977780Y-86657780D01*
X91111460Y-86497047D01*
X91213610Y-86314645D01*
X91243792Y-86225732D01*
X91278953Y-86122151D01*
X91278954Y-86122146D01*
X91280809Y-86116682D01*
X91310807Y-85909787D01*
X91312373Y-85850000D01*
X91295145Y-85662507D01*
X91293773Y-85647573D01*
X91293772Y-85647570D01*
X91293244Y-85641819D01*
X91286590Y-85618224D01*
X91238065Y-85446169D01*
X91238064Y-85446167D01*
X91236497Y-85440610D01*
X91225988Y-85419298D01*
X91146588Y-85258293D01*
X91144033Y-85253112D01*
X91140582Y-85248490D01*
X91140578Y-85248484D01*
X91022402Y-85090227D01*
X91022401Y-85090226D01*
X91018949Y-85085603D01*
X91014713Y-85081687D01*
X90869673Y-84947614D01*
X90869670Y-84947612D01*
X90865433Y-84943695D01*
X90688626Y-84832138D01*
X90494451Y-84754670D01*
X90488791Y-84753544D01*
X90488787Y-84753543D01*
X90295077Y-84715012D01*
X90295075Y-84715012D01*
X90289410Y-84713885D01*
X90283635Y-84713809D01*
X90283631Y-84713809D01*
X90179231Y-84712443D01*
X90080370Y-84711149D01*
X90074673Y-84712128D01*
X90074672Y-84712128D01*
X89880029Y-84745573D01*
X89880028Y-84745573D01*
X89874332Y-84746552D01*
X89678196Y-84818911D01*
X89498530Y-84925801D01*
X89341352Y-85063642D01*
X89337780Y-85068173D01*
X89222058Y-85214966D01*
X89211925Y-85227819D01*
X89114585Y-85412833D01*
X89052591Y-85612487D01*
X89028018Y-85820096D01*
X88769625Y-85820096D01*
X88755145Y-85662507D01*
X88753773Y-85647573D01*
X88753772Y-85647570D01*
X88753244Y-85641819D01*
X88746590Y-85618224D01*
X88698065Y-85446169D01*
X88698064Y-85446167D01*
X88696497Y-85440610D01*
X88685988Y-85419298D01*
X88606588Y-85258293D01*
X88604033Y-85253112D01*
X88600582Y-85248490D01*
X88600578Y-85248484D01*
X88482402Y-85090227D01*
X88482401Y-85090226D01*
X88478949Y-85085603D01*
X88474713Y-85081687D01*
X88329673Y-84947614D01*
X88329670Y-84947612D01*
X88325433Y-84943695D01*
X88148626Y-84832138D01*
X87954451Y-84754670D01*
X87948791Y-84753544D01*
X87948787Y-84753543D01*
X87755077Y-84715012D01*
X87755075Y-84715012D01*
X87749410Y-84713885D01*
X87743635Y-84713809D01*
X87743631Y-84713809D01*
X87639231Y-84712443D01*
X87540370Y-84711149D01*
X87534673Y-84712128D01*
X87534672Y-84712128D01*
X87340029Y-84745573D01*
X87340028Y-84745573D01*
X87334332Y-84746552D01*
X87138196Y-84818911D01*
X86958530Y-84925801D01*
X86801352Y-85063642D01*
X86797780Y-85068173D01*
X86682058Y-85214966D01*
X86671925Y-85227819D01*
X86574585Y-85412833D01*
X86512591Y-85612487D01*
X86488018Y-85820096D01*
X86229625Y-85820096D01*
X86215145Y-85662507D01*
X86213773Y-85647573D01*
X86213772Y-85647570D01*
X86213244Y-85641819D01*
X86206590Y-85618224D01*
X86158065Y-85446169D01*
X86158064Y-85446167D01*
X86156497Y-85440610D01*
X86145988Y-85419298D01*
X86066588Y-85258293D01*
X86064033Y-85253112D01*
X86060582Y-85248490D01*
X86060578Y-85248484D01*
X85942402Y-85090227D01*
X85942401Y-85090226D01*
X85938949Y-85085603D01*
X85934713Y-85081687D01*
X85789673Y-84947614D01*
X85789670Y-84947612D01*
X85785433Y-84943695D01*
X85608626Y-84832138D01*
X85414451Y-84754670D01*
X85408791Y-84753544D01*
X85408787Y-84753543D01*
X85215077Y-84715012D01*
X85215075Y-84715012D01*
X85209410Y-84713885D01*
X85203635Y-84713809D01*
X85203631Y-84713809D01*
X85099231Y-84712443D01*
X85000370Y-84711149D01*
X84994673Y-84712128D01*
X84994672Y-84712128D01*
X84800029Y-84745573D01*
X84800028Y-84745573D01*
X84794332Y-84746552D01*
X84598196Y-84818911D01*
X84418530Y-84925801D01*
X84261352Y-85063642D01*
X84257780Y-85068173D01*
X84142058Y-85214966D01*
X84131925Y-85227819D01*
X84034585Y-85412833D01*
X83972591Y-85612487D01*
X83948018Y-85820096D01*
X73082673Y-85820096D01*
X73089407Y-85796610D01*
X73095231Y-85755174D01*
X73108254Y-85662507D01*
X73128500Y-85518448D01*
X73128500Y-83207854D01*
X73123280Y-83133200D01*
X73114118Y-83002173D01*
X73114117Y-83002168D01*
X73113811Y-82997788D01*
X73055409Y-82723030D01*
X73044225Y-82692301D01*
X72960846Y-82463219D01*
X72960844Y-82463215D01*
X72959337Y-82459074D01*
X72827464Y-82211058D01*
X72745528Y-82098282D01*
X72664947Y-81987371D01*
X72664944Y-81987368D01*
X72662358Y-81983808D01*
X72467231Y-81781748D01*
X72245882Y-81608812D01*
X72242078Y-81606616D01*
X72242071Y-81606611D01*
X72006431Y-81470565D01*
X72002619Y-81468364D01*
X71742176Y-81363138D01*
X71737901Y-81362072D01*
X71473893Y-81296247D01*
X71473888Y-81296246D01*
X71469624Y-81295183D01*
X71465256Y-81294724D01*
X71465251Y-81294723D01*
X71194636Y-81266281D01*
X71194633Y-81266281D01*
X71190267Y-81265822D01*
X71185879Y-81265975D01*
X71185873Y-81265975D01*
X70913939Y-81275471D01*
X70913933Y-81275472D01*
X70909542Y-81275625D01*
X70905219Y-81276387D01*
X70905212Y-81276388D01*
X70729506Y-81307370D01*
X70632913Y-81324402D01*
X70365765Y-81411203D01*
X70361812Y-81413131D01*
X70361807Y-81413133D01*
X70251947Y-81466716D01*
X70113298Y-81534340D01*
X70109659Y-81536795D01*
X70109653Y-81536798D01*
X70006151Y-81606611D01*
X69880424Y-81691415D01*
X69671678Y-81879371D01*
X69491121Y-82094550D01*
X69342269Y-82332764D01*
X69228018Y-82589375D01*
X69150593Y-82859390D01*
X69149982Y-82863740D01*
X69149981Y-82863743D01*
X69135513Y-82966690D01*
X69111500Y-83137552D01*
X69111500Y-85448146D01*
X57404500Y-85448146D01*
X57404500Y-76169439D01*
X80112920Y-76169439D01*
X80126894Y-76382634D01*
X80179485Y-76589713D01*
X80268933Y-76783740D01*
X80392241Y-76958218D01*
X80545281Y-77107302D01*
X80550084Y-77110512D01*
X80550085Y-77110512D01*
X80580258Y-77130673D01*
X80722927Y-77226001D01*
X80728230Y-77228279D01*
X80728233Y-77228281D01*
X80913922Y-77308059D01*
X80919229Y-77310339D01*
X81020993Y-77333366D01*
X81121977Y-77356217D01*
X81121980Y-77356217D01*
X81127613Y-77357492D01*
X81133384Y-77357719D01*
X81133386Y-77357719D01*
X81198363Y-77360272D01*
X81341101Y-77365880D01*
X81465154Y-77347893D01*
X81546829Y-77336051D01*
X81546834Y-77336050D01*
X81552543Y-77335222D01*
X81558007Y-77333367D01*
X81558012Y-77333366D01*
X81749389Y-77268402D01*
X81754857Y-77266546D01*
X81941268Y-77162151D01*
X82105533Y-77025533D01*
X82173842Y-76943400D01*
X82238460Y-76865706D01*
X82242151Y-76861268D01*
X82346546Y-76674857D01*
X82385886Y-76558965D01*
X82413366Y-76478012D01*
X82413367Y-76478007D01*
X82415222Y-76472543D01*
X82428259Y-76382634D01*
X82445347Y-76264775D01*
X82445880Y-76261101D01*
X82447480Y-76200000D01*
X82427930Y-75987244D01*
X82421092Y-75962996D01*
X82371504Y-75787172D01*
X82371503Y-75787170D01*
X82369936Y-75781613D01*
X82358662Y-75758750D01*
X82277995Y-75595174D01*
X82275440Y-75589993D01*
X82256139Y-75564145D01*
X82151060Y-75423427D01*
X82151059Y-75423426D01*
X82147607Y-75418803D01*
X82143371Y-75414887D01*
X81994957Y-75277695D01*
X81994954Y-75277693D01*
X81990717Y-75273776D01*
X81810025Y-75159768D01*
X81611582Y-75080597D01*
X81605925Y-75079472D01*
X81605919Y-75079470D01*
X81407703Y-75040043D01*
X81407699Y-75040043D01*
X81402035Y-75038916D01*
X81396260Y-75038840D01*
X81396256Y-75038840D01*
X81288997Y-75037436D01*
X81188401Y-75036119D01*
X81182704Y-75037098D01*
X81182703Y-75037098D01*
X81059111Y-75058335D01*
X80977834Y-75072301D01*
X80777387Y-75146250D01*
X80772426Y-75149202D01*
X80772425Y-75149202D01*
X80598740Y-75252533D01*
X80598737Y-75252535D01*
X80593772Y-75255489D01*
X80589432Y-75259295D01*
X80589428Y-75259298D01*
X80476326Y-75358487D01*
X80433140Y-75396360D01*
X80300869Y-75564145D01*
X80298180Y-75569256D01*
X80298178Y-75569259D01*
X80284544Y-75595174D01*
X80201389Y-75753225D01*
X80199675Y-75758746D01*
X80199673Y-75758750D01*
X80152041Y-75912151D01*
X80138032Y-75957267D01*
X80112920Y-76169439D01*
X57404500Y-76169439D01*
X57404500Y-73629439D01*
X77572920Y-73629439D01*
X77586894Y-73842634D01*
X77639485Y-74049713D01*
X77728933Y-74243740D01*
X77852241Y-74418218D01*
X78005281Y-74567302D01*
X78182927Y-74686001D01*
X78188230Y-74688279D01*
X78188233Y-74688281D01*
X78350828Y-74758137D01*
X78379229Y-74770339D01*
X78480993Y-74793366D01*
X78581977Y-74816217D01*
X78581980Y-74816217D01*
X78587613Y-74817492D01*
X78593384Y-74817719D01*
X78593386Y-74817719D01*
X78658363Y-74820272D01*
X78801101Y-74825880D01*
X78925154Y-74807893D01*
X79006829Y-74796051D01*
X79006834Y-74796050D01*
X79012543Y-74795222D01*
X79018007Y-74793367D01*
X79018012Y-74793366D01*
X79209389Y-74728402D01*
X79214857Y-74726546D01*
X79401268Y-74622151D01*
X79565533Y-74485533D01*
X79702151Y-74321268D01*
X79806546Y-74134857D01*
X79875222Y-73932543D01*
X79884091Y-73871380D01*
X79905347Y-73724775D01*
X79905880Y-73721101D01*
X79907480Y-73660000D01*
X79904672Y-73629439D01*
X82652920Y-73629439D01*
X82666894Y-73842634D01*
X82719485Y-74049713D01*
X82808933Y-74243740D01*
X82932241Y-74418218D01*
X83085281Y-74567302D01*
X83262927Y-74686001D01*
X83268230Y-74688279D01*
X83268233Y-74688281D01*
X83430828Y-74758137D01*
X83459229Y-74770339D01*
X83560993Y-74793366D01*
X83661977Y-74816217D01*
X83661980Y-74816217D01*
X83667613Y-74817492D01*
X83673384Y-74817719D01*
X83673386Y-74817719D01*
X83738363Y-74820272D01*
X83881101Y-74825880D01*
X84005154Y-74807893D01*
X84086829Y-74796051D01*
X84086834Y-74796050D01*
X84092543Y-74795222D01*
X84098007Y-74793367D01*
X84098012Y-74793366D01*
X84289389Y-74728402D01*
X84294857Y-74726546D01*
X84481268Y-74622151D01*
X84645533Y-74485533D01*
X84782151Y-74321268D01*
X84886546Y-74134857D01*
X84955222Y-73932543D01*
X84964090Y-73871379D01*
X84993660Y-73806835D01*
X85053431Y-73768522D01*
X85124428Y-73768606D01*
X85184108Y-73807061D01*
X85210909Y-73858445D01*
X85229728Y-73932543D01*
X85259485Y-74049713D01*
X85348933Y-74243740D01*
X85472241Y-74418218D01*
X85625281Y-74567302D01*
X85802927Y-74686001D01*
X85808230Y-74688279D01*
X85808233Y-74688281D01*
X85970828Y-74758137D01*
X85999229Y-74770339D01*
X86100993Y-74793366D01*
X86201977Y-74816217D01*
X86201980Y-74816217D01*
X86207613Y-74817492D01*
X86213384Y-74817719D01*
X86213386Y-74817719D01*
X86278363Y-74820272D01*
X86421101Y-74825880D01*
X86545154Y-74807893D01*
X86626829Y-74796051D01*
X86626834Y-74796050D01*
X86632543Y-74795222D01*
X86638007Y-74793367D01*
X86638012Y-74793366D01*
X86829389Y-74728402D01*
X86834857Y-74726546D01*
X87021268Y-74622151D01*
X87185533Y-74485533D01*
X87322151Y-74321268D01*
X87426546Y-74134857D01*
X87495222Y-73932543D01*
X87504090Y-73871379D01*
X87533660Y-73806835D01*
X87593431Y-73768522D01*
X87664428Y-73768606D01*
X87724108Y-73807061D01*
X87750909Y-73858445D01*
X87769728Y-73932543D01*
X87799485Y-74049713D01*
X87888933Y-74243740D01*
X88012241Y-74418218D01*
X88165281Y-74567302D01*
X88342927Y-74686001D01*
X88348230Y-74688279D01*
X88348233Y-74688281D01*
X88510828Y-74758137D01*
X88539229Y-74770339D01*
X88640993Y-74793366D01*
X88741977Y-74816217D01*
X88741980Y-74816217D01*
X88747613Y-74817492D01*
X88753384Y-74817719D01*
X88753386Y-74817719D01*
X88818363Y-74820272D01*
X88961101Y-74825880D01*
X89085154Y-74807893D01*
X89166829Y-74796051D01*
X89166834Y-74796050D01*
X89172543Y-74795222D01*
X89178007Y-74793367D01*
X89178012Y-74793366D01*
X89369389Y-74728402D01*
X89374857Y-74726546D01*
X89561268Y-74622151D01*
X89725533Y-74485533D01*
X89862151Y-74321268D01*
X89966546Y-74134857D01*
X90035222Y-73932543D01*
X90044090Y-73871379D01*
X90073660Y-73806835D01*
X90133431Y-73768522D01*
X90204428Y-73768606D01*
X90264108Y-73807061D01*
X90290909Y-73858445D01*
X90309728Y-73932543D01*
X90339485Y-74049713D01*
X90428933Y-74243740D01*
X90552241Y-74418218D01*
X90705281Y-74567302D01*
X90882927Y-74686001D01*
X90888230Y-74688279D01*
X90888233Y-74688281D01*
X91050828Y-74758137D01*
X91079229Y-74770339D01*
X91180993Y-74793366D01*
X91281977Y-74816217D01*
X91281980Y-74816217D01*
X91287613Y-74817492D01*
X91293384Y-74817719D01*
X91293386Y-74817719D01*
X91297611Y-74817885D01*
X91364893Y-74840549D01*
X91409242Y-74895990D01*
X91416577Y-74966606D01*
X91384569Y-75029978D01*
X91336271Y-75062000D01*
X91229005Y-75101572D01*
X91224044Y-75104524D01*
X91224043Y-75104524D01*
X91131187Y-75159768D01*
X91053288Y-75206113D01*
X90899564Y-75340925D01*
X90895992Y-75345456D01*
X90801517Y-75465297D01*
X90772982Y-75501493D01*
X90770294Y-75506602D01*
X90680470Y-75677329D01*
X90680468Y-75677334D01*
X90677781Y-75682441D01*
X90617149Y-75877707D01*
X90593117Y-76080753D01*
X90606489Y-76284779D01*
X90656819Y-76482951D01*
X90742419Y-76668633D01*
X90860424Y-76835606D01*
X90864558Y-76839633D01*
X90981444Y-76953498D01*
X91006882Y-76978279D01*
X91011678Y-76981484D01*
X91011681Y-76981486D01*
X91044562Y-77003456D01*
X91090090Y-77057933D01*
X91098938Y-77128376D01*
X91068296Y-77192420D01*
X91053208Y-77206022D01*
X91053288Y-77206113D01*
X90899564Y-77340925D01*
X90895992Y-77345456D01*
X90880545Y-77365051D01*
X90772982Y-77501493D01*
X90770294Y-77506602D01*
X90680470Y-77677329D01*
X90680468Y-77677334D01*
X90677781Y-77682441D01*
X90617149Y-77877707D01*
X90593117Y-78080753D01*
X90606489Y-78284779D01*
X90656819Y-78482951D01*
X90742419Y-78668633D01*
X90860424Y-78835606D01*
X91006882Y-78978279D01*
X91011678Y-78981484D01*
X91011681Y-78981486D01*
X91044562Y-79003456D01*
X91090090Y-79057933D01*
X91098938Y-79128376D01*
X91068296Y-79192420D01*
X91053208Y-79206022D01*
X91053288Y-79206113D01*
X90899564Y-79340925D01*
X90895992Y-79345456D01*
X90779285Y-79493498D01*
X90772982Y-79501493D01*
X90770294Y-79506602D01*
X90680470Y-79677329D01*
X90680468Y-79677334D01*
X90677781Y-79682441D01*
X90617149Y-79877707D01*
X90593117Y-80080753D01*
X90606489Y-80284779D01*
X90656819Y-80482951D01*
X90742419Y-80668633D01*
X90860424Y-80835606D01*
X91006882Y-80978279D01*
X91011678Y-80981484D01*
X91011681Y-80981486D01*
X91079903Y-81027070D01*
X91176887Y-81091872D01*
X91182190Y-81094150D01*
X91182193Y-81094152D01*
X91267198Y-81130673D01*
X91364746Y-81172583D01*
X91461772Y-81194538D01*
X91558532Y-81216433D01*
X91558535Y-81216433D01*
X91564168Y-81217708D01*
X91569939Y-81217935D01*
X91569941Y-81217935D01*
X91632646Y-81220398D01*
X91768473Y-81225735D01*
X91887344Y-81208500D01*
X91965099Y-81197226D01*
X91965103Y-81197225D01*
X91970821Y-81196396D01*
X91976293Y-81194538D01*
X91976295Y-81194538D01*
X92158965Y-81132529D01*
X92164433Y-81130673D01*
X92342826Y-81030768D01*
X92500026Y-80900026D01*
X92614475Y-80762416D01*
X92673412Y-80722832D01*
X92744394Y-80721396D01*
X92804885Y-80758563D01*
X92814242Y-80770260D01*
X92836589Y-80801881D01*
X92857092Y-80830891D01*
X92860424Y-80835606D01*
X93006882Y-80978279D01*
X93011678Y-80981484D01*
X93011681Y-80981486D01*
X93079903Y-81027070D01*
X93176887Y-81091872D01*
X93182190Y-81094150D01*
X93182193Y-81094152D01*
X93267198Y-81130673D01*
X93364746Y-81172583D01*
X93461772Y-81194538D01*
X93558532Y-81216433D01*
X93558535Y-81216433D01*
X93564168Y-81217708D01*
X93569939Y-81217935D01*
X93569941Y-81217935D01*
X93632646Y-81220398D01*
X93768473Y-81225735D01*
X93887344Y-81208500D01*
X93965099Y-81197226D01*
X93965103Y-81197225D01*
X93970821Y-81196396D01*
X93976293Y-81194538D01*
X93976295Y-81194538D01*
X94158965Y-81132529D01*
X94164433Y-81130673D01*
X94342826Y-81030768D01*
X94500026Y-80900026D01*
X94630768Y-80742826D01*
X94730673Y-80564433D01*
X94796396Y-80370821D01*
X94808872Y-80284779D01*
X94825202Y-80172147D01*
X94825735Y-80168473D01*
X94827266Y-80110000D01*
X94808557Y-79906394D01*
X94806111Y-79897719D01*
X94754627Y-79715172D01*
X94753058Y-79709608D01*
X94662626Y-79526230D01*
X94644722Y-79502253D01*
X94543743Y-79367027D01*
X94543743Y-79367026D01*
X94540290Y-79362403D01*
X94390148Y-79223613D01*
X94217228Y-79114509D01*
X94203275Y-79108942D01*
X94158093Y-79090916D01*
X94027321Y-79038743D01*
X94021653Y-79037616D01*
X94021651Y-79037615D01*
X93832454Y-78999982D01*
X93832450Y-78999982D01*
X93826786Y-78998855D01*
X93821011Y-78998779D01*
X93821007Y-78998779D01*
X93718466Y-78997437D01*
X93622340Y-78996178D01*
X93616643Y-78997157D01*
X93616642Y-78997157D01*
X93426527Y-79029825D01*
X93420830Y-79030804D01*
X93229005Y-79101572D01*
X93053288Y-79206113D01*
X92899564Y-79340925D01*
X92895992Y-79345456D01*
X92808481Y-79456462D01*
X92750599Y-79497575D01*
X92679679Y-79500869D01*
X92618237Y-79465297D01*
X92608573Y-79453845D01*
X92543743Y-79367027D01*
X92543743Y-79367026D01*
X92540290Y-79362403D01*
X92390148Y-79223613D01*
X92378063Y-79215988D01*
X92331125Y-79162722D01*
X92320435Y-79092534D01*
X92349389Y-79027710D01*
X92364728Y-79012552D01*
X92381197Y-78998855D01*
X92500026Y-78900026D01*
X92630768Y-78742826D01*
X92730673Y-78564433D01*
X92796396Y-78370821D01*
X92808872Y-78284779D01*
X92825202Y-78172147D01*
X92825735Y-78168473D01*
X92827266Y-78110000D01*
X92808557Y-77906394D01*
X92800467Y-77877707D01*
X92754627Y-77715172D01*
X92753058Y-77709608D01*
X92662626Y-77526230D01*
X92642322Y-77499039D01*
X92543743Y-77367027D01*
X92543743Y-77367026D01*
X92540290Y-77362403D01*
X92450168Y-77279095D01*
X92394388Y-77227532D01*
X92394385Y-77227530D01*
X92390148Y-77223613D01*
X92378063Y-77215988D01*
X92331125Y-77162722D01*
X92320435Y-77092534D01*
X92349389Y-77027710D01*
X92364728Y-77012552D01*
X92405937Y-76978279D01*
X92500026Y-76900026D01*
X92614475Y-76762416D01*
X92673412Y-76722832D01*
X92744394Y-76721396D01*
X92804885Y-76758563D01*
X92814242Y-76770260D01*
X92820062Y-76778495D01*
X92857092Y-76830891D01*
X92860424Y-76835606D01*
X92864558Y-76839633D01*
X92981444Y-76953498D01*
X93006882Y-76978279D01*
X93011678Y-76981484D01*
X93011681Y-76981486D01*
X93044562Y-77003456D01*
X93176887Y-77091872D01*
X93182190Y-77094150D01*
X93182193Y-77094152D01*
X93267198Y-77130673D01*
X93364746Y-77172583D01*
X93452412Y-77192420D01*
X93558532Y-77216433D01*
X93558535Y-77216433D01*
X93564168Y-77217708D01*
X93569939Y-77217935D01*
X93569941Y-77217935D01*
X93632646Y-77220398D01*
X93768473Y-77225735D01*
X93903804Y-77206113D01*
X93965099Y-77197226D01*
X93965103Y-77197225D01*
X93970821Y-77196396D01*
X93976293Y-77194538D01*
X93976295Y-77194538D01*
X94158965Y-77132529D01*
X94164433Y-77130673D01*
X94342826Y-77030768D01*
X94500026Y-76900026D01*
X94630768Y-76742826D01*
X94730673Y-76564433D01*
X94763805Y-76466829D01*
X94794538Y-76376295D01*
X94794538Y-76376293D01*
X94796396Y-76370821D01*
X94808872Y-76284779D01*
X94821164Y-76200000D01*
X94825735Y-76168473D01*
X94827266Y-76110000D01*
X94808557Y-75906394D01*
X94800467Y-75877707D01*
X94754627Y-75715172D01*
X94753058Y-75709608D01*
X94662626Y-75526230D01*
X94540290Y-75362403D01*
X94424631Y-75255489D01*
X94394388Y-75227532D01*
X94394385Y-75227530D01*
X94390148Y-75223613D01*
X94217228Y-75114509D01*
X94192201Y-75104524D01*
X94076429Y-75058335D01*
X94020570Y-75014514D01*
X93997270Y-74947449D01*
X94013926Y-74878434D01*
X94065251Y-74829380D01*
X94105039Y-74816609D01*
X94165154Y-74807893D01*
X94246829Y-74796051D01*
X94246834Y-74796050D01*
X94252543Y-74795222D01*
X94258007Y-74793367D01*
X94258012Y-74793366D01*
X94449389Y-74728402D01*
X94454857Y-74726546D01*
X94641268Y-74622151D01*
X94805533Y-74485533D01*
X94942151Y-74321268D01*
X95046546Y-74134857D01*
X95115222Y-73932543D01*
X95124090Y-73871379D01*
X95153660Y-73806835D01*
X95213431Y-73768522D01*
X95284428Y-73768606D01*
X95344108Y-73807061D01*
X95370909Y-73858445D01*
X95389728Y-73932543D01*
X95419485Y-74049713D01*
X95508933Y-74243740D01*
X95632241Y-74418218D01*
X95785281Y-74567302D01*
X95962927Y-74686001D01*
X95968230Y-74688279D01*
X95968233Y-74688281D01*
X96130828Y-74758137D01*
X96159229Y-74770339D01*
X96260993Y-74793366D01*
X96361977Y-74816217D01*
X96361980Y-74816217D01*
X96367613Y-74817492D01*
X96373384Y-74817719D01*
X96373386Y-74817719D01*
X96438363Y-74820272D01*
X96581101Y-74825880D01*
X96705154Y-74807893D01*
X96786829Y-74796051D01*
X96786834Y-74796050D01*
X96792543Y-74795222D01*
X96798007Y-74793367D01*
X96798012Y-74793366D01*
X96989389Y-74728402D01*
X96994857Y-74726546D01*
X97181268Y-74622151D01*
X97345533Y-74485533D01*
X97482151Y-74321268D01*
X97586546Y-74134857D01*
X97655222Y-73932543D01*
X97664090Y-73871379D01*
X97693660Y-73806835D01*
X97753431Y-73768522D01*
X97824428Y-73768606D01*
X97884108Y-73807061D01*
X97910909Y-73858445D01*
X97929728Y-73932543D01*
X97959485Y-74049713D01*
X98048933Y-74243740D01*
X98172241Y-74418218D01*
X98325281Y-74567302D01*
X98502927Y-74686001D01*
X98508230Y-74688279D01*
X98508233Y-74688281D01*
X98670828Y-74758137D01*
X98699229Y-74770339D01*
X98800993Y-74793366D01*
X98901977Y-74816217D01*
X98901980Y-74816217D01*
X98907613Y-74817492D01*
X98913384Y-74817719D01*
X98913386Y-74817719D01*
X98978363Y-74820272D01*
X99121101Y-74825880D01*
X99245154Y-74807893D01*
X99326829Y-74796051D01*
X99326834Y-74796050D01*
X99332543Y-74795222D01*
X99338007Y-74793367D01*
X99338012Y-74793366D01*
X99529389Y-74728402D01*
X99534857Y-74726546D01*
X99721268Y-74622151D01*
X99885533Y-74485533D01*
X100022151Y-74321268D01*
X100126546Y-74134857D01*
X100195222Y-73932543D01*
X100204090Y-73871379D01*
X100233660Y-73806835D01*
X100293431Y-73768522D01*
X100364428Y-73768606D01*
X100424108Y-73807061D01*
X100450909Y-73858445D01*
X100469728Y-73932543D01*
X100499485Y-74049713D01*
X100588933Y-74243740D01*
X100712241Y-74418218D01*
X100865281Y-74567302D01*
X101042927Y-74686001D01*
X101048230Y-74688279D01*
X101048233Y-74688281D01*
X101210828Y-74758137D01*
X101239229Y-74770339D01*
X101340993Y-74793366D01*
X101441977Y-74816217D01*
X101441980Y-74816217D01*
X101447613Y-74817492D01*
X101453384Y-74817719D01*
X101453386Y-74817719D01*
X101518363Y-74820272D01*
X101661101Y-74825880D01*
X101785154Y-74807893D01*
X101866829Y-74796051D01*
X101866834Y-74796050D01*
X101872543Y-74795222D01*
X101878007Y-74793367D01*
X101878012Y-74793366D01*
X102069389Y-74728402D01*
X102074857Y-74726546D01*
X102261268Y-74622151D01*
X102425533Y-74485533D01*
X102562151Y-74321268D01*
X102666546Y-74134857D01*
X102735222Y-73932543D01*
X102744090Y-73871379D01*
X102773660Y-73806835D01*
X102833431Y-73768522D01*
X102904428Y-73768606D01*
X102964108Y-73807061D01*
X102990909Y-73858445D01*
X103009728Y-73932543D01*
X103039485Y-74049713D01*
X103128933Y-74243740D01*
X103252241Y-74418218D01*
X103405281Y-74567302D01*
X103582927Y-74686001D01*
X103588230Y-74688279D01*
X103588233Y-74688281D01*
X103750828Y-74758137D01*
X103779229Y-74770339D01*
X103880993Y-74793366D01*
X103981977Y-74816217D01*
X103981980Y-74816217D01*
X103987613Y-74817492D01*
X103993384Y-74817719D01*
X103993386Y-74817719D01*
X104058363Y-74820272D01*
X104201101Y-74825880D01*
X104325154Y-74807893D01*
X104406829Y-74796051D01*
X104406834Y-74796050D01*
X104412543Y-74795222D01*
X104418007Y-74793367D01*
X104418012Y-74793366D01*
X104609389Y-74728402D01*
X104614857Y-74726546D01*
X104801268Y-74622151D01*
X104965533Y-74485533D01*
X105102151Y-74321268D01*
X105206546Y-74134857D01*
X105275222Y-73932543D01*
X105284090Y-73871379D01*
X105313660Y-73806835D01*
X105373431Y-73768522D01*
X105444428Y-73768606D01*
X105504108Y-73807061D01*
X105530909Y-73858445D01*
X105549728Y-73932543D01*
X105579485Y-74049713D01*
X105668933Y-74243740D01*
X105792241Y-74418218D01*
X105945281Y-74567302D01*
X106122927Y-74686001D01*
X106128230Y-74688279D01*
X106128233Y-74688281D01*
X106290828Y-74758137D01*
X106319229Y-74770339D01*
X106420993Y-74793366D01*
X106521977Y-74816217D01*
X106521980Y-74816217D01*
X106527613Y-74817492D01*
X106533384Y-74817719D01*
X106533386Y-74817719D01*
X106598363Y-74820272D01*
X106741101Y-74825880D01*
X106865154Y-74807893D01*
X106946829Y-74796051D01*
X106946834Y-74796050D01*
X106952543Y-74795222D01*
X106958007Y-74793367D01*
X106958012Y-74793366D01*
X107149389Y-74728402D01*
X107154857Y-74726546D01*
X107341268Y-74622151D01*
X107505533Y-74485533D01*
X107642151Y-74321268D01*
X107746546Y-74134857D01*
X107815222Y-73932543D01*
X107824090Y-73871379D01*
X107853660Y-73806835D01*
X107913431Y-73768522D01*
X107984428Y-73768606D01*
X108044108Y-73807061D01*
X108070909Y-73858445D01*
X108089728Y-73932543D01*
X108119485Y-74049713D01*
X108208933Y-74243740D01*
X108332241Y-74418218D01*
X108485281Y-74567302D01*
X108662927Y-74686001D01*
X108668230Y-74688279D01*
X108668233Y-74688281D01*
X108830828Y-74758137D01*
X108859229Y-74770339D01*
X108960993Y-74793366D01*
X109061977Y-74816217D01*
X109061980Y-74816217D01*
X109067613Y-74817492D01*
X109073384Y-74817719D01*
X109073386Y-74817719D01*
X109138363Y-74820272D01*
X109281101Y-74825880D01*
X109405154Y-74807893D01*
X109486829Y-74796051D01*
X109486834Y-74796050D01*
X109492543Y-74795222D01*
X109498007Y-74793367D01*
X109498012Y-74793366D01*
X109689389Y-74728402D01*
X109694857Y-74726546D01*
X109881268Y-74622151D01*
X110045533Y-74485533D01*
X110182151Y-74321268D01*
X110286546Y-74134857D01*
X110355222Y-73932543D01*
X110364090Y-73871379D01*
X110393660Y-73806835D01*
X110453431Y-73768522D01*
X110524428Y-73768606D01*
X110584108Y-73807061D01*
X110610909Y-73858445D01*
X110629728Y-73932543D01*
X110659485Y-74049713D01*
X110748933Y-74243740D01*
X110872241Y-74418218D01*
X111025281Y-74567302D01*
X111202927Y-74686001D01*
X111208230Y-74688279D01*
X111208233Y-74688281D01*
X111370828Y-74758137D01*
X111399229Y-74770339D01*
X111500993Y-74793366D01*
X111601977Y-74816217D01*
X111601980Y-74816217D01*
X111607613Y-74817492D01*
X111613384Y-74817719D01*
X111613386Y-74817719D01*
X111678363Y-74820272D01*
X111821101Y-74825880D01*
X111945154Y-74807893D01*
X112026829Y-74796051D01*
X112026834Y-74796050D01*
X112032543Y-74795222D01*
X112038007Y-74793367D01*
X112038012Y-74793366D01*
X112229389Y-74728402D01*
X112234857Y-74726546D01*
X112421268Y-74622151D01*
X112585533Y-74485533D01*
X112722151Y-74321268D01*
X112826546Y-74134857D01*
X112895222Y-73932543D01*
X112904091Y-73871380D01*
X112925347Y-73724775D01*
X112925880Y-73721101D01*
X112927480Y-73660000D01*
X112924672Y-73629439D01*
X115672920Y-73629439D01*
X115686894Y-73842634D01*
X115739485Y-74049713D01*
X115828933Y-74243740D01*
X115952241Y-74418218D01*
X116105281Y-74567302D01*
X116282927Y-74686001D01*
X116288230Y-74688279D01*
X116288233Y-74688281D01*
X116450828Y-74758137D01*
X116479229Y-74770339D01*
X116580993Y-74793366D01*
X116681977Y-74816217D01*
X116681980Y-74816217D01*
X116687613Y-74817492D01*
X116693384Y-74817719D01*
X116693386Y-74817719D01*
X116758363Y-74820272D01*
X116901101Y-74825880D01*
X117025154Y-74807893D01*
X117106829Y-74796051D01*
X117106834Y-74796050D01*
X117112543Y-74795222D01*
X117118007Y-74793367D01*
X117118012Y-74793366D01*
X117309389Y-74728402D01*
X117314857Y-74726546D01*
X117501268Y-74622151D01*
X117665533Y-74485533D01*
X117802151Y-74321268D01*
X117906546Y-74134857D01*
X117975222Y-73932543D01*
X117984090Y-73871379D01*
X118013660Y-73806835D01*
X118073431Y-73768522D01*
X118144428Y-73768606D01*
X118204108Y-73807061D01*
X118230909Y-73858445D01*
X118249728Y-73932543D01*
X118279485Y-74049713D01*
X118368933Y-74243740D01*
X118492241Y-74418218D01*
X118645281Y-74567302D01*
X118822927Y-74686001D01*
X118828230Y-74688279D01*
X118828233Y-74688281D01*
X118990828Y-74758137D01*
X119019229Y-74770339D01*
X119120993Y-74793366D01*
X119221977Y-74816217D01*
X119221980Y-74816217D01*
X119227613Y-74817492D01*
X119233384Y-74817719D01*
X119233386Y-74817719D01*
X119298363Y-74820272D01*
X119441101Y-74825880D01*
X119565154Y-74807893D01*
X119646829Y-74796051D01*
X119646834Y-74796050D01*
X119652543Y-74795222D01*
X119658007Y-74793367D01*
X119658012Y-74793366D01*
X119849389Y-74728402D01*
X119854857Y-74726546D01*
X120041268Y-74622151D01*
X120205533Y-74485533D01*
X120342151Y-74321268D01*
X120446546Y-74134857D01*
X120515222Y-73932543D01*
X120524090Y-73871379D01*
X120553660Y-73806835D01*
X120613431Y-73768522D01*
X120684428Y-73768606D01*
X120744108Y-73807061D01*
X120770909Y-73858445D01*
X120789728Y-73932543D01*
X120819485Y-74049713D01*
X120908933Y-74243740D01*
X121032241Y-74418218D01*
X121185281Y-74567302D01*
X121362927Y-74686001D01*
X121368230Y-74688279D01*
X121368233Y-74688281D01*
X121530828Y-74758137D01*
X121559229Y-74770339D01*
X121660993Y-74793366D01*
X121761977Y-74816217D01*
X121761980Y-74816217D01*
X121767613Y-74817492D01*
X121773384Y-74817719D01*
X121773386Y-74817719D01*
X121838363Y-74820272D01*
X121981101Y-74825880D01*
X122105154Y-74807893D01*
X122186829Y-74796051D01*
X122186834Y-74796050D01*
X122192543Y-74795222D01*
X122198007Y-74793367D01*
X122198012Y-74793366D01*
X122389389Y-74728402D01*
X122394857Y-74726546D01*
X122581268Y-74622151D01*
X122745533Y-74485533D01*
X122882151Y-74321268D01*
X122986546Y-74134857D01*
X123055222Y-73932543D01*
X123064090Y-73871379D01*
X123093660Y-73806835D01*
X123153431Y-73768522D01*
X123224428Y-73768606D01*
X123284108Y-73807061D01*
X123310909Y-73858445D01*
X123329728Y-73932543D01*
X123359485Y-74049713D01*
X123448933Y-74243740D01*
X123572241Y-74418218D01*
X123725281Y-74567302D01*
X123902927Y-74686001D01*
X123908230Y-74688279D01*
X123908233Y-74688281D01*
X124070828Y-74758137D01*
X124099229Y-74770339D01*
X124170355Y-74786433D01*
X124265190Y-74807893D01*
X124327217Y-74842436D01*
X124360721Y-74905030D01*
X124355067Y-74975801D01*
X124312048Y-75032280D01*
X124258721Y-75054965D01*
X124157834Y-75072301D01*
X123957387Y-75146250D01*
X123952426Y-75149202D01*
X123952425Y-75149202D01*
X123778740Y-75252533D01*
X123778737Y-75252535D01*
X123773772Y-75255489D01*
X123769432Y-75259295D01*
X123769428Y-75259298D01*
X123656326Y-75358487D01*
X123613140Y-75396360D01*
X123480869Y-75564145D01*
X123478180Y-75569256D01*
X123478178Y-75569259D01*
X123464544Y-75595174D01*
X123381389Y-75753225D01*
X123379675Y-75758746D01*
X123379673Y-75758750D01*
X123332041Y-75912151D01*
X123318032Y-75957267D01*
X123292920Y-76169439D01*
X123306894Y-76382634D01*
X123359485Y-76589713D01*
X123448933Y-76783740D01*
X123572241Y-76958218D01*
X123725281Y-77107302D01*
X123730084Y-77110512D01*
X123730085Y-77110512D01*
X123760258Y-77130673D01*
X123902927Y-77226001D01*
X123908230Y-77228279D01*
X123908233Y-77228281D01*
X124093922Y-77308059D01*
X124099229Y-77310339D01*
X124170355Y-77326433D01*
X124265190Y-77347893D01*
X124327217Y-77382436D01*
X124360721Y-77445030D01*
X124355067Y-77515801D01*
X124312048Y-77572280D01*
X124258721Y-77594965D01*
X124157834Y-77612301D01*
X123957387Y-77686250D01*
X123952426Y-77689202D01*
X123952425Y-77689202D01*
X123778740Y-77792533D01*
X123778737Y-77792535D01*
X123773772Y-77795489D01*
X123769432Y-77799295D01*
X123769428Y-77799298D01*
X123640745Y-77912151D01*
X123613140Y-77936360D01*
X123480869Y-78104145D01*
X123478180Y-78109256D01*
X123478178Y-78109259D01*
X123464544Y-78135174D01*
X123381389Y-78293225D01*
X123379675Y-78298746D01*
X123379673Y-78298750D01*
X123324215Y-78477356D01*
X123318032Y-78497267D01*
X123292920Y-78709439D01*
X123306894Y-78922634D01*
X123359485Y-79129713D01*
X123448933Y-79323740D01*
X123572241Y-79498218D01*
X123576383Y-79502253D01*
X123600996Y-79526230D01*
X123725281Y-79647302D01*
X123902927Y-79766001D01*
X123908230Y-79768279D01*
X123908233Y-79768281D01*
X124093922Y-79848059D01*
X124099229Y-79850339D01*
X124195804Y-79872192D01*
X124301977Y-79896217D01*
X124301980Y-79896217D01*
X124307613Y-79897492D01*
X124313384Y-79897719D01*
X124313386Y-79897719D01*
X124378363Y-79900272D01*
X124521101Y-79905880D01*
X124626822Y-79890551D01*
X124726829Y-79876051D01*
X124726834Y-79876050D01*
X124732543Y-79875222D01*
X124738007Y-79873367D01*
X124738012Y-79873366D01*
X124929389Y-79808402D01*
X124934857Y-79806546D01*
X125121268Y-79702151D01*
X125285533Y-79565533D01*
X125422151Y-79401268D01*
X125526546Y-79214857D01*
X125559564Y-79117590D01*
X125593366Y-79018012D01*
X125593367Y-79018007D01*
X125595222Y-79012543D01*
X125597044Y-78999982D01*
X125620877Y-78835606D01*
X125625880Y-78801101D01*
X125627480Y-78740000D01*
X125615267Y-78607094D01*
X125608459Y-78532998D01*
X125608458Y-78532995D01*
X125607930Y-78527244D01*
X125601092Y-78502996D01*
X125551504Y-78327172D01*
X125551503Y-78327170D01*
X125549936Y-78321613D01*
X125538662Y-78298750D01*
X125457995Y-78135174D01*
X125455440Y-78129993D01*
X125443277Y-78113704D01*
X125331060Y-77963427D01*
X125331059Y-77963426D01*
X125327607Y-77958803D01*
X125323371Y-77954887D01*
X125174957Y-77817695D01*
X125174954Y-77817693D01*
X125170717Y-77813776D01*
X124990025Y-77699768D01*
X124791582Y-77620597D01*
X124730193Y-77608386D01*
X124656070Y-77593642D01*
X124593161Y-77560734D01*
X124558029Y-77499039D01*
X124561829Y-77428145D01*
X124603355Y-77370559D01*
X124662570Y-77345368D01*
X124732543Y-77335222D01*
X124738007Y-77333367D01*
X124738012Y-77333366D01*
X124929389Y-77268402D01*
X124934857Y-77266546D01*
X125121268Y-77162151D01*
X125285533Y-77025533D01*
X125353842Y-76943400D01*
X125418460Y-76865706D01*
X125422151Y-76861268D01*
X125526546Y-76674857D01*
X125565886Y-76558965D01*
X125593366Y-76478012D01*
X125593367Y-76478007D01*
X125595222Y-76472543D01*
X125608259Y-76382634D01*
X125625347Y-76264775D01*
X125625880Y-76261101D01*
X125627480Y-76200000D01*
X125607930Y-75987244D01*
X125601092Y-75962996D01*
X125551504Y-75787172D01*
X125551503Y-75787170D01*
X125549936Y-75781613D01*
X125538662Y-75758750D01*
X125457995Y-75595174D01*
X125455440Y-75589993D01*
X125436139Y-75564145D01*
X125331060Y-75423427D01*
X125331059Y-75423426D01*
X125327607Y-75418803D01*
X125323371Y-75414887D01*
X125174957Y-75277695D01*
X125174954Y-75277693D01*
X125170717Y-75273776D01*
X124990025Y-75159768D01*
X124791582Y-75080597D01*
X124730193Y-75068386D01*
X124656070Y-75053642D01*
X124593161Y-75020734D01*
X124558029Y-74959039D01*
X124561829Y-74888145D01*
X124603355Y-74830559D01*
X124662570Y-74805368D01*
X124732543Y-74795222D01*
X124738007Y-74793367D01*
X124738012Y-74793366D01*
X124929389Y-74728402D01*
X124934857Y-74726546D01*
X125121268Y-74622151D01*
X125285533Y-74485533D01*
X125422151Y-74321268D01*
X125526546Y-74134857D01*
X125595222Y-73932543D01*
X125604090Y-73871379D01*
X125633660Y-73806835D01*
X125693431Y-73768522D01*
X125764428Y-73768606D01*
X125824108Y-73807061D01*
X125850909Y-73858445D01*
X125869728Y-73932543D01*
X125899485Y-74049713D01*
X125988933Y-74243740D01*
X126112241Y-74418218D01*
X126265281Y-74567302D01*
X126442927Y-74686001D01*
X126448230Y-74688279D01*
X126448233Y-74688281D01*
X126610828Y-74758137D01*
X126639229Y-74770339D01*
X126740993Y-74793366D01*
X126841977Y-74816217D01*
X126841980Y-74816217D01*
X126847613Y-74817492D01*
X126853384Y-74817719D01*
X126853386Y-74817719D01*
X126918363Y-74820272D01*
X127061101Y-74825880D01*
X127185154Y-74807893D01*
X127266829Y-74796051D01*
X127266834Y-74796050D01*
X127272543Y-74795222D01*
X127278007Y-74793367D01*
X127278012Y-74793366D01*
X127469389Y-74728402D01*
X127474857Y-74726546D01*
X127661268Y-74622151D01*
X127825533Y-74485533D01*
X127962151Y-74321268D01*
X128066546Y-74134857D01*
X128135222Y-73932543D01*
X128144090Y-73871379D01*
X128173660Y-73806835D01*
X128233431Y-73768522D01*
X128304428Y-73768606D01*
X128364108Y-73807061D01*
X128390909Y-73858445D01*
X128409728Y-73932543D01*
X128439485Y-74049713D01*
X128528933Y-74243740D01*
X128652241Y-74418218D01*
X128805281Y-74567302D01*
X128982927Y-74686001D01*
X128988230Y-74688279D01*
X128988233Y-74688281D01*
X129150828Y-74758137D01*
X129179229Y-74770339D01*
X129280993Y-74793366D01*
X129381977Y-74816217D01*
X129381980Y-74816217D01*
X129387613Y-74817492D01*
X129393384Y-74817719D01*
X129393386Y-74817719D01*
X129458363Y-74820272D01*
X129601101Y-74825880D01*
X129725154Y-74807893D01*
X129806829Y-74796051D01*
X129806834Y-74796050D01*
X129812543Y-74795222D01*
X129818007Y-74793367D01*
X129818012Y-74793366D01*
X130009389Y-74728402D01*
X130014857Y-74726546D01*
X130201268Y-74622151D01*
X130365533Y-74485533D01*
X130502151Y-74321268D01*
X130606546Y-74134857D01*
X130675222Y-73932543D01*
X130684090Y-73871379D01*
X130713660Y-73806835D01*
X130773431Y-73768522D01*
X130844428Y-73768606D01*
X130904108Y-73807061D01*
X130930909Y-73858445D01*
X130949728Y-73932543D01*
X130979485Y-74049713D01*
X131068933Y-74243740D01*
X131192241Y-74418218D01*
X131345281Y-74567302D01*
X131522927Y-74686001D01*
X131528230Y-74688279D01*
X131528233Y-74688281D01*
X131690828Y-74758137D01*
X131719229Y-74770339D01*
X131820993Y-74793366D01*
X131921977Y-74816217D01*
X131921980Y-74816217D01*
X131927613Y-74817492D01*
X131933384Y-74817719D01*
X131933386Y-74817719D01*
X131998363Y-74820272D01*
X132141101Y-74825880D01*
X132265154Y-74807893D01*
X132346829Y-74796051D01*
X132346834Y-74796050D01*
X132352543Y-74795222D01*
X132358007Y-74793367D01*
X132358012Y-74793366D01*
X132549389Y-74728402D01*
X132554857Y-74726546D01*
X132741268Y-74622151D01*
X132905533Y-74485533D01*
X133042151Y-74321268D01*
X133146546Y-74134857D01*
X133215222Y-73932543D01*
X133224090Y-73871379D01*
X133253660Y-73806835D01*
X133313431Y-73768522D01*
X133384428Y-73768606D01*
X133444108Y-73807061D01*
X133470909Y-73858445D01*
X133489728Y-73932543D01*
X133519485Y-74049713D01*
X133608933Y-74243740D01*
X133732241Y-74418218D01*
X133885281Y-74567302D01*
X134062927Y-74686001D01*
X134068230Y-74688279D01*
X134068233Y-74688281D01*
X134230828Y-74758137D01*
X134259229Y-74770339D01*
X134360993Y-74793366D01*
X134461977Y-74816217D01*
X134461980Y-74816217D01*
X134467613Y-74817492D01*
X134473384Y-74817719D01*
X134473386Y-74817719D01*
X134538363Y-74820272D01*
X134681101Y-74825880D01*
X134805154Y-74807893D01*
X134886829Y-74796051D01*
X134886834Y-74796050D01*
X134892543Y-74795222D01*
X134898007Y-74793367D01*
X134898012Y-74793366D01*
X135089389Y-74728402D01*
X135094857Y-74726546D01*
X135281268Y-74622151D01*
X135445533Y-74485533D01*
X135582151Y-74321268D01*
X135686546Y-74134857D01*
X135755222Y-73932543D01*
X135764090Y-73871379D01*
X135793660Y-73806835D01*
X135853431Y-73768522D01*
X135924428Y-73768606D01*
X135984108Y-73807061D01*
X136010909Y-73858445D01*
X136029728Y-73932543D01*
X136059485Y-74049713D01*
X136148933Y-74243740D01*
X136272241Y-74418218D01*
X136425281Y-74567302D01*
X136602927Y-74686001D01*
X136608230Y-74688279D01*
X136608233Y-74688281D01*
X136770828Y-74758137D01*
X136799229Y-74770339D01*
X136900993Y-74793366D01*
X137001977Y-74816217D01*
X137001980Y-74816217D01*
X137007613Y-74817492D01*
X137013384Y-74817719D01*
X137013386Y-74817719D01*
X137078363Y-74820272D01*
X137221101Y-74825880D01*
X137345154Y-74807893D01*
X137426829Y-74796051D01*
X137426834Y-74796050D01*
X137432543Y-74795222D01*
X137438007Y-74793367D01*
X137438012Y-74793366D01*
X137629389Y-74728402D01*
X137634857Y-74726546D01*
X137821268Y-74622151D01*
X137985533Y-74485533D01*
X138122151Y-74321268D01*
X138226546Y-74134857D01*
X138295222Y-73932543D01*
X138304091Y-73871380D01*
X138325347Y-73724775D01*
X138325880Y-73721101D01*
X138327480Y-73660000D01*
X138307930Y-73447244D01*
X138301092Y-73422996D01*
X138251504Y-73247172D01*
X138251503Y-73247170D01*
X138249936Y-73241613D01*
X138238662Y-73218750D01*
X138157995Y-73055174D01*
X138155440Y-73049993D01*
X138136139Y-73024145D01*
X138031060Y-72883427D01*
X138031059Y-72883426D01*
X138027607Y-72878803D01*
X138023371Y-72874887D01*
X137874957Y-72737695D01*
X137874954Y-72737693D01*
X137870717Y-72733776D01*
X137690025Y-72619768D01*
X137491582Y-72540597D01*
X137485925Y-72539472D01*
X137485919Y-72539470D01*
X137287703Y-72500043D01*
X137287699Y-72500043D01*
X137282035Y-72498916D01*
X137276260Y-72498840D01*
X137276256Y-72498840D01*
X137168997Y-72497436D01*
X137068401Y-72496119D01*
X137062704Y-72497098D01*
X137062703Y-72497098D01*
X136863531Y-72531322D01*
X136857834Y-72532301D01*
X136657387Y-72606250D01*
X136652426Y-72609202D01*
X136652425Y-72609202D01*
X136478740Y-72712533D01*
X136478737Y-72712535D01*
X136473772Y-72715489D01*
X136469432Y-72719295D01*
X136469428Y-72719298D01*
X136317481Y-72852553D01*
X136313140Y-72856360D01*
X136180869Y-73024145D01*
X136178180Y-73029256D01*
X136178178Y-73029259D01*
X136164544Y-73055174D01*
X136081389Y-73213225D01*
X136079675Y-73218746D01*
X136079673Y-73218750D01*
X136074183Y-73236433D01*
X136018032Y-73417267D01*
X136017354Y-73422996D01*
X136017354Y-73422997D01*
X136015823Y-73435930D01*
X135987952Y-73501228D01*
X135929204Y-73541092D01*
X135858229Y-73542865D01*
X135797563Y-73505986D01*
X135768323Y-73447133D01*
X135767930Y-73447244D01*
X135761092Y-73422996D01*
X135711504Y-73247172D01*
X135711503Y-73247170D01*
X135709936Y-73241613D01*
X135698662Y-73218750D01*
X135617995Y-73055174D01*
X135615440Y-73049993D01*
X135596139Y-73024145D01*
X135491060Y-72883427D01*
X135491059Y-72883426D01*
X135487607Y-72878803D01*
X135483371Y-72874887D01*
X135334957Y-72737695D01*
X135334954Y-72737693D01*
X135330717Y-72733776D01*
X135150025Y-72619768D01*
X134951582Y-72540597D01*
X134945925Y-72539472D01*
X134945919Y-72539470D01*
X134747703Y-72500043D01*
X134747699Y-72500043D01*
X134742035Y-72498916D01*
X134736260Y-72498840D01*
X134736256Y-72498840D01*
X134628997Y-72497436D01*
X134528401Y-72496119D01*
X134522704Y-72497098D01*
X134522703Y-72497098D01*
X134323531Y-72531322D01*
X134317834Y-72532301D01*
X134117387Y-72606250D01*
X134112426Y-72609202D01*
X134112425Y-72609202D01*
X133938740Y-72712533D01*
X133938737Y-72712535D01*
X133933772Y-72715489D01*
X133929432Y-72719295D01*
X133929428Y-72719298D01*
X133777481Y-72852553D01*
X133773140Y-72856360D01*
X133640869Y-73024145D01*
X133638180Y-73029256D01*
X133638178Y-73029259D01*
X133624544Y-73055174D01*
X133541389Y-73213225D01*
X133539675Y-73218746D01*
X133539673Y-73218750D01*
X133534183Y-73236433D01*
X133478032Y-73417267D01*
X133477354Y-73422996D01*
X133477354Y-73422997D01*
X133475823Y-73435930D01*
X133447952Y-73501228D01*
X133389204Y-73541092D01*
X133318229Y-73542865D01*
X133257563Y-73505986D01*
X133228323Y-73447133D01*
X133227930Y-73447244D01*
X133221092Y-73422996D01*
X133171504Y-73247172D01*
X133171503Y-73247170D01*
X133169936Y-73241613D01*
X133158662Y-73218750D01*
X133077995Y-73055174D01*
X133075440Y-73049993D01*
X133056139Y-73024145D01*
X132951060Y-72883427D01*
X132951059Y-72883426D01*
X132947607Y-72878803D01*
X132943371Y-72874887D01*
X132794957Y-72737695D01*
X132794954Y-72737693D01*
X132790717Y-72733776D01*
X132610025Y-72619768D01*
X132411582Y-72540597D01*
X132405925Y-72539472D01*
X132405919Y-72539470D01*
X132207703Y-72500043D01*
X132207699Y-72500043D01*
X132202035Y-72498916D01*
X132196260Y-72498840D01*
X132196256Y-72498840D01*
X132088997Y-72497436D01*
X131988401Y-72496119D01*
X131982704Y-72497098D01*
X131982703Y-72497098D01*
X131783531Y-72531322D01*
X131777834Y-72532301D01*
X131577387Y-72606250D01*
X131572426Y-72609202D01*
X131572425Y-72609202D01*
X131398740Y-72712533D01*
X131398737Y-72712535D01*
X131393772Y-72715489D01*
X131389432Y-72719295D01*
X131389428Y-72719298D01*
X131237481Y-72852553D01*
X131233140Y-72856360D01*
X131100869Y-73024145D01*
X131098180Y-73029256D01*
X131098178Y-73029259D01*
X131084544Y-73055174D01*
X131001389Y-73213225D01*
X130999675Y-73218746D01*
X130999673Y-73218750D01*
X130994183Y-73236433D01*
X130938032Y-73417267D01*
X130937354Y-73422996D01*
X130937354Y-73422997D01*
X130935823Y-73435930D01*
X130907952Y-73501228D01*
X130849204Y-73541092D01*
X130778229Y-73542865D01*
X130717563Y-73505986D01*
X130688323Y-73447133D01*
X130687930Y-73447244D01*
X130681092Y-73422996D01*
X130631504Y-73247172D01*
X130631503Y-73247170D01*
X130629936Y-73241613D01*
X130618662Y-73218750D01*
X130537995Y-73055174D01*
X130535440Y-73049993D01*
X130516139Y-73024145D01*
X130411060Y-72883427D01*
X130411059Y-72883426D01*
X130407607Y-72878803D01*
X130403371Y-72874887D01*
X130254957Y-72737695D01*
X130254954Y-72737693D01*
X130250717Y-72733776D01*
X130070025Y-72619768D01*
X129871582Y-72540597D01*
X129865925Y-72539472D01*
X129865919Y-72539470D01*
X129667703Y-72500043D01*
X129667699Y-72500043D01*
X129662035Y-72498916D01*
X129656260Y-72498840D01*
X129656256Y-72498840D01*
X129548997Y-72497436D01*
X129448401Y-72496119D01*
X129442704Y-72497098D01*
X129442703Y-72497098D01*
X129243531Y-72531322D01*
X129237834Y-72532301D01*
X129037387Y-72606250D01*
X129032426Y-72609202D01*
X129032425Y-72609202D01*
X128858740Y-72712533D01*
X128858737Y-72712535D01*
X128853772Y-72715489D01*
X128849432Y-72719295D01*
X128849428Y-72719298D01*
X128697481Y-72852553D01*
X128693140Y-72856360D01*
X128560869Y-73024145D01*
X128558180Y-73029256D01*
X128558178Y-73029259D01*
X128544544Y-73055174D01*
X128461389Y-73213225D01*
X128459675Y-73218746D01*
X128459673Y-73218750D01*
X128454183Y-73236433D01*
X128398032Y-73417267D01*
X128397354Y-73422996D01*
X128397354Y-73422997D01*
X128395823Y-73435930D01*
X128367952Y-73501228D01*
X128309204Y-73541092D01*
X128238229Y-73542865D01*
X128177563Y-73505986D01*
X128148323Y-73447133D01*
X128147930Y-73447244D01*
X128141092Y-73422996D01*
X128091504Y-73247172D01*
X128091503Y-73247170D01*
X128089936Y-73241613D01*
X128078662Y-73218750D01*
X127997995Y-73055174D01*
X127995440Y-73049993D01*
X127976139Y-73024145D01*
X127871060Y-72883427D01*
X127871059Y-72883426D01*
X127867607Y-72878803D01*
X127863371Y-72874887D01*
X127714957Y-72737695D01*
X127714954Y-72737693D01*
X127710717Y-72733776D01*
X127530025Y-72619768D01*
X127331582Y-72540597D01*
X127325925Y-72539472D01*
X127325919Y-72539470D01*
X127127703Y-72500043D01*
X127127699Y-72500043D01*
X127122035Y-72498916D01*
X127116260Y-72498840D01*
X127116256Y-72498840D01*
X127008997Y-72497436D01*
X126908401Y-72496119D01*
X126902704Y-72497098D01*
X126902703Y-72497098D01*
X126703531Y-72531322D01*
X126697834Y-72532301D01*
X126497387Y-72606250D01*
X126492426Y-72609202D01*
X126492425Y-72609202D01*
X126318740Y-72712533D01*
X126318737Y-72712535D01*
X126313772Y-72715489D01*
X126309432Y-72719295D01*
X126309428Y-72719298D01*
X126157481Y-72852553D01*
X126153140Y-72856360D01*
X126020869Y-73024145D01*
X126018180Y-73029256D01*
X126018178Y-73029259D01*
X126004544Y-73055174D01*
X125921389Y-73213225D01*
X125919675Y-73218746D01*
X125919673Y-73218750D01*
X125914183Y-73236433D01*
X125858032Y-73417267D01*
X125857354Y-73422996D01*
X125857354Y-73422997D01*
X125855823Y-73435930D01*
X125827952Y-73501228D01*
X125769204Y-73541092D01*
X125698229Y-73542865D01*
X125637563Y-73505986D01*
X125608323Y-73447133D01*
X125607930Y-73447244D01*
X125601092Y-73422996D01*
X125551504Y-73247172D01*
X125551503Y-73247170D01*
X125549936Y-73241613D01*
X125538662Y-73218750D01*
X125457995Y-73055174D01*
X125455440Y-73049993D01*
X125436139Y-73024145D01*
X125331060Y-72883427D01*
X125331059Y-72883426D01*
X125327607Y-72878803D01*
X125323371Y-72874887D01*
X125174957Y-72737695D01*
X125174954Y-72737693D01*
X125170717Y-72733776D01*
X124990025Y-72619768D01*
X124791582Y-72540597D01*
X124785925Y-72539472D01*
X124785919Y-72539470D01*
X124587703Y-72500043D01*
X124587699Y-72500043D01*
X124582035Y-72498916D01*
X124576260Y-72498840D01*
X124576256Y-72498840D01*
X124468997Y-72497436D01*
X124368401Y-72496119D01*
X124362704Y-72497098D01*
X124362703Y-72497098D01*
X124163531Y-72531322D01*
X124157834Y-72532301D01*
X123957387Y-72606250D01*
X123952426Y-72609202D01*
X123952425Y-72609202D01*
X123778740Y-72712533D01*
X123778737Y-72712535D01*
X123773772Y-72715489D01*
X123769432Y-72719295D01*
X123769428Y-72719298D01*
X123617481Y-72852553D01*
X123613140Y-72856360D01*
X123480869Y-73024145D01*
X123478180Y-73029256D01*
X123478178Y-73029259D01*
X123464544Y-73055174D01*
X123381389Y-73213225D01*
X123379675Y-73218746D01*
X123379673Y-73218750D01*
X123374183Y-73236433D01*
X123318032Y-73417267D01*
X123317354Y-73422996D01*
X123317354Y-73422997D01*
X123315823Y-73435930D01*
X123287952Y-73501228D01*
X123229204Y-73541092D01*
X123158229Y-73542865D01*
X123097563Y-73505986D01*
X123068323Y-73447133D01*
X123067930Y-73447244D01*
X123061092Y-73422996D01*
X123011504Y-73247172D01*
X123011503Y-73247170D01*
X123009936Y-73241613D01*
X122998662Y-73218750D01*
X122917995Y-73055174D01*
X122915440Y-73049993D01*
X122896139Y-73024145D01*
X122791060Y-72883427D01*
X122791059Y-72883426D01*
X122787607Y-72878803D01*
X122783371Y-72874887D01*
X122634957Y-72737695D01*
X122634954Y-72737693D01*
X122630717Y-72733776D01*
X122450025Y-72619768D01*
X122251582Y-72540597D01*
X122245925Y-72539472D01*
X122245919Y-72539470D01*
X122047703Y-72500043D01*
X122047699Y-72500043D01*
X122042035Y-72498916D01*
X122036260Y-72498840D01*
X122036256Y-72498840D01*
X121928997Y-72497436D01*
X121828401Y-72496119D01*
X121822704Y-72497098D01*
X121822703Y-72497098D01*
X121623531Y-72531322D01*
X121617834Y-72532301D01*
X121417387Y-72606250D01*
X121412426Y-72609202D01*
X121412425Y-72609202D01*
X121238740Y-72712533D01*
X121238737Y-72712535D01*
X121233772Y-72715489D01*
X121229432Y-72719295D01*
X121229428Y-72719298D01*
X121077481Y-72852553D01*
X121073140Y-72856360D01*
X120940869Y-73024145D01*
X120938180Y-73029256D01*
X120938178Y-73029259D01*
X120924544Y-73055174D01*
X120841389Y-73213225D01*
X120839675Y-73218746D01*
X120839673Y-73218750D01*
X120834183Y-73236433D01*
X120778032Y-73417267D01*
X120777354Y-73422996D01*
X120777354Y-73422997D01*
X120775823Y-73435930D01*
X120747952Y-73501228D01*
X120689204Y-73541092D01*
X120618229Y-73542865D01*
X120557563Y-73505986D01*
X120528323Y-73447133D01*
X120527930Y-73447244D01*
X120521092Y-73422996D01*
X120471504Y-73247172D01*
X120471503Y-73247170D01*
X120469936Y-73241613D01*
X120458662Y-73218750D01*
X120377995Y-73055174D01*
X120375440Y-73049993D01*
X120356139Y-73024145D01*
X120251060Y-72883427D01*
X120251059Y-72883426D01*
X120247607Y-72878803D01*
X120243371Y-72874887D01*
X120094957Y-72737695D01*
X120094954Y-72737693D01*
X120090717Y-72733776D01*
X119910025Y-72619768D01*
X119711582Y-72540597D01*
X119705925Y-72539472D01*
X119705919Y-72539470D01*
X119507703Y-72500043D01*
X119507699Y-72500043D01*
X119502035Y-72498916D01*
X119496260Y-72498840D01*
X119496256Y-72498840D01*
X119388997Y-72497436D01*
X119288401Y-72496119D01*
X119282704Y-72497098D01*
X119282703Y-72497098D01*
X119083531Y-72531322D01*
X119077834Y-72532301D01*
X118877387Y-72606250D01*
X118872426Y-72609202D01*
X118872425Y-72609202D01*
X118698740Y-72712533D01*
X118698737Y-72712535D01*
X118693772Y-72715489D01*
X118689432Y-72719295D01*
X118689428Y-72719298D01*
X118537481Y-72852553D01*
X118533140Y-72856360D01*
X118400869Y-73024145D01*
X118398180Y-73029256D01*
X118398178Y-73029259D01*
X118384544Y-73055174D01*
X118301389Y-73213225D01*
X118299675Y-73218746D01*
X118299673Y-73218750D01*
X118294183Y-73236433D01*
X118238032Y-73417267D01*
X118237354Y-73422996D01*
X118237354Y-73422997D01*
X118235823Y-73435930D01*
X118207952Y-73501228D01*
X118149204Y-73541092D01*
X118078229Y-73542865D01*
X118017563Y-73505986D01*
X117988323Y-73447133D01*
X117987930Y-73447244D01*
X117981092Y-73422996D01*
X117931504Y-73247172D01*
X117931503Y-73247170D01*
X117929936Y-73241613D01*
X117918662Y-73218750D01*
X117837995Y-73055174D01*
X117835440Y-73049993D01*
X117816139Y-73024145D01*
X117711060Y-72883427D01*
X117711059Y-72883426D01*
X117707607Y-72878803D01*
X117703371Y-72874887D01*
X117554957Y-72737695D01*
X117554954Y-72737693D01*
X117550717Y-72733776D01*
X117370025Y-72619768D01*
X117171582Y-72540597D01*
X117165925Y-72539472D01*
X117165919Y-72539470D01*
X116967703Y-72500043D01*
X116967699Y-72500043D01*
X116962035Y-72498916D01*
X116956260Y-72498840D01*
X116956256Y-72498840D01*
X116848997Y-72497436D01*
X116748401Y-72496119D01*
X116742704Y-72497098D01*
X116742703Y-72497098D01*
X116543531Y-72531322D01*
X116537834Y-72532301D01*
X116337387Y-72606250D01*
X116332426Y-72609202D01*
X116332425Y-72609202D01*
X116158740Y-72712533D01*
X116158737Y-72712535D01*
X116153772Y-72715489D01*
X116149432Y-72719295D01*
X116149428Y-72719298D01*
X115997481Y-72852553D01*
X115993140Y-72856360D01*
X115860869Y-73024145D01*
X115858180Y-73029256D01*
X115858178Y-73029259D01*
X115844544Y-73055174D01*
X115761389Y-73213225D01*
X115759675Y-73218746D01*
X115759673Y-73218750D01*
X115754183Y-73236433D01*
X115698032Y-73417267D01*
X115672920Y-73629439D01*
X112924672Y-73629439D01*
X112907930Y-73447244D01*
X112901092Y-73422996D01*
X112851504Y-73247172D01*
X112851503Y-73247170D01*
X112849936Y-73241613D01*
X112838662Y-73218750D01*
X112757995Y-73055174D01*
X112755440Y-73049993D01*
X112736139Y-73024145D01*
X112631060Y-72883427D01*
X112631059Y-72883426D01*
X112627607Y-72878803D01*
X112623371Y-72874887D01*
X112474957Y-72737695D01*
X112474954Y-72737693D01*
X112470717Y-72733776D01*
X112290025Y-72619768D01*
X112091582Y-72540597D01*
X112085925Y-72539472D01*
X112085919Y-72539470D01*
X111887703Y-72500043D01*
X111887699Y-72500043D01*
X111882035Y-72498916D01*
X111876260Y-72498840D01*
X111876256Y-72498840D01*
X111768997Y-72497436D01*
X111668401Y-72496119D01*
X111662704Y-72497098D01*
X111662703Y-72497098D01*
X111463531Y-72531322D01*
X111457834Y-72532301D01*
X111257387Y-72606250D01*
X111252426Y-72609202D01*
X111252425Y-72609202D01*
X111078740Y-72712533D01*
X111078737Y-72712535D01*
X111073772Y-72715489D01*
X111069432Y-72719295D01*
X111069428Y-72719298D01*
X110917481Y-72852553D01*
X110913140Y-72856360D01*
X110780869Y-73024145D01*
X110778180Y-73029256D01*
X110778178Y-73029259D01*
X110764544Y-73055174D01*
X110681389Y-73213225D01*
X110679675Y-73218746D01*
X110679673Y-73218750D01*
X110674183Y-73236433D01*
X110618032Y-73417267D01*
X110617354Y-73422996D01*
X110617354Y-73422997D01*
X110615823Y-73435930D01*
X110587952Y-73501228D01*
X110529204Y-73541092D01*
X110458229Y-73542865D01*
X110397563Y-73505986D01*
X110368323Y-73447133D01*
X110367930Y-73447244D01*
X110361092Y-73422996D01*
X110311504Y-73247172D01*
X110311503Y-73247170D01*
X110309936Y-73241613D01*
X110298662Y-73218750D01*
X110217995Y-73055174D01*
X110215440Y-73049993D01*
X110196139Y-73024145D01*
X110091060Y-72883427D01*
X110091059Y-72883426D01*
X110087607Y-72878803D01*
X110083371Y-72874887D01*
X109934957Y-72737695D01*
X109934954Y-72737693D01*
X109930717Y-72733776D01*
X109750025Y-72619768D01*
X109551582Y-72540597D01*
X109545925Y-72539472D01*
X109545919Y-72539470D01*
X109347703Y-72500043D01*
X109347699Y-72500043D01*
X109342035Y-72498916D01*
X109336260Y-72498840D01*
X109336256Y-72498840D01*
X109228997Y-72497436D01*
X109128401Y-72496119D01*
X109122704Y-72497098D01*
X109122703Y-72497098D01*
X108923531Y-72531322D01*
X108917834Y-72532301D01*
X108717387Y-72606250D01*
X108712426Y-72609202D01*
X108712425Y-72609202D01*
X108538740Y-72712533D01*
X108538737Y-72712535D01*
X108533772Y-72715489D01*
X108529432Y-72719295D01*
X108529428Y-72719298D01*
X108377481Y-72852553D01*
X108373140Y-72856360D01*
X108240869Y-73024145D01*
X108238180Y-73029256D01*
X108238178Y-73029259D01*
X108224544Y-73055174D01*
X108141389Y-73213225D01*
X108139675Y-73218746D01*
X108139673Y-73218750D01*
X108134183Y-73236433D01*
X108078032Y-73417267D01*
X108077354Y-73422996D01*
X108077354Y-73422997D01*
X108075823Y-73435930D01*
X108047952Y-73501228D01*
X107989204Y-73541092D01*
X107918229Y-73542865D01*
X107857563Y-73505986D01*
X107828323Y-73447133D01*
X107827930Y-73447244D01*
X107821092Y-73422996D01*
X107771504Y-73247172D01*
X107771503Y-73247170D01*
X107769936Y-73241613D01*
X107758662Y-73218750D01*
X107677995Y-73055174D01*
X107675440Y-73049993D01*
X107656139Y-73024145D01*
X107551060Y-72883427D01*
X107551059Y-72883426D01*
X107547607Y-72878803D01*
X107543371Y-72874887D01*
X107394957Y-72737695D01*
X107394954Y-72737693D01*
X107390717Y-72733776D01*
X107210025Y-72619768D01*
X107011582Y-72540597D01*
X107005925Y-72539472D01*
X107005919Y-72539470D01*
X106807703Y-72500043D01*
X106807699Y-72500043D01*
X106802035Y-72498916D01*
X106796260Y-72498840D01*
X106796256Y-72498840D01*
X106688997Y-72497436D01*
X106588401Y-72496119D01*
X106582704Y-72497098D01*
X106582703Y-72497098D01*
X106383531Y-72531322D01*
X106377834Y-72532301D01*
X106177387Y-72606250D01*
X106172426Y-72609202D01*
X106172425Y-72609202D01*
X105998740Y-72712533D01*
X105998737Y-72712535D01*
X105993772Y-72715489D01*
X105989432Y-72719295D01*
X105989428Y-72719298D01*
X105837481Y-72852553D01*
X105833140Y-72856360D01*
X105700869Y-73024145D01*
X105698180Y-73029256D01*
X105698178Y-73029259D01*
X105684544Y-73055174D01*
X105601389Y-73213225D01*
X105599675Y-73218746D01*
X105599673Y-73218750D01*
X105594183Y-73236433D01*
X105538032Y-73417267D01*
X105537354Y-73422996D01*
X105537354Y-73422997D01*
X105535823Y-73435930D01*
X105507952Y-73501228D01*
X105449204Y-73541092D01*
X105378229Y-73542865D01*
X105317563Y-73505986D01*
X105288323Y-73447133D01*
X105287930Y-73447244D01*
X105281092Y-73422996D01*
X105231504Y-73247172D01*
X105231503Y-73247170D01*
X105229936Y-73241613D01*
X105218662Y-73218750D01*
X105137995Y-73055174D01*
X105135440Y-73049993D01*
X105116139Y-73024145D01*
X105011060Y-72883427D01*
X105011059Y-72883426D01*
X105007607Y-72878803D01*
X105003371Y-72874887D01*
X104854957Y-72737695D01*
X104854954Y-72737693D01*
X104850717Y-72733776D01*
X104670025Y-72619768D01*
X104471582Y-72540597D01*
X104465925Y-72539472D01*
X104465919Y-72539470D01*
X104267703Y-72500043D01*
X104267699Y-72500043D01*
X104262035Y-72498916D01*
X104256260Y-72498840D01*
X104256256Y-72498840D01*
X104148997Y-72497436D01*
X104048401Y-72496119D01*
X104042704Y-72497098D01*
X104042703Y-72497098D01*
X103843531Y-72531322D01*
X103837834Y-72532301D01*
X103637387Y-72606250D01*
X103632426Y-72609202D01*
X103632425Y-72609202D01*
X103458740Y-72712533D01*
X103458737Y-72712535D01*
X103453772Y-72715489D01*
X103449432Y-72719295D01*
X103449428Y-72719298D01*
X103297481Y-72852553D01*
X103293140Y-72856360D01*
X103160869Y-73024145D01*
X103158180Y-73029256D01*
X103158178Y-73029259D01*
X103144544Y-73055174D01*
X103061389Y-73213225D01*
X103059675Y-73218746D01*
X103059673Y-73218750D01*
X103054183Y-73236433D01*
X102998032Y-73417267D01*
X102997354Y-73422996D01*
X102997354Y-73422997D01*
X102995823Y-73435930D01*
X102967952Y-73501228D01*
X102909204Y-73541092D01*
X102838229Y-73542865D01*
X102777563Y-73505986D01*
X102748323Y-73447133D01*
X102747930Y-73447244D01*
X102741092Y-73422996D01*
X102691504Y-73247172D01*
X102691503Y-73247170D01*
X102689936Y-73241613D01*
X102678662Y-73218750D01*
X102597995Y-73055174D01*
X102595440Y-73049993D01*
X102576139Y-73024145D01*
X102471060Y-72883427D01*
X102471059Y-72883426D01*
X102467607Y-72878803D01*
X102463371Y-72874887D01*
X102314957Y-72737695D01*
X102314954Y-72737693D01*
X102310717Y-72733776D01*
X102130025Y-72619768D01*
X101931582Y-72540597D01*
X101925925Y-72539472D01*
X101925919Y-72539470D01*
X101727703Y-72500043D01*
X101727699Y-72500043D01*
X101722035Y-72498916D01*
X101716260Y-72498840D01*
X101716256Y-72498840D01*
X101608997Y-72497436D01*
X101508401Y-72496119D01*
X101502704Y-72497098D01*
X101502703Y-72497098D01*
X101303531Y-72531322D01*
X101297834Y-72532301D01*
X101097387Y-72606250D01*
X101092426Y-72609202D01*
X101092425Y-72609202D01*
X100918740Y-72712533D01*
X100918737Y-72712535D01*
X100913772Y-72715489D01*
X100909432Y-72719295D01*
X100909428Y-72719298D01*
X100757481Y-72852553D01*
X100753140Y-72856360D01*
X100620869Y-73024145D01*
X100618180Y-73029256D01*
X100618178Y-73029259D01*
X100604544Y-73055174D01*
X100521389Y-73213225D01*
X100519675Y-73218746D01*
X100519673Y-73218750D01*
X100514183Y-73236433D01*
X100458032Y-73417267D01*
X100457354Y-73422996D01*
X100457354Y-73422997D01*
X100455823Y-73435930D01*
X100427952Y-73501228D01*
X100369204Y-73541092D01*
X100298229Y-73542865D01*
X100237563Y-73505986D01*
X100208323Y-73447133D01*
X100207930Y-73447244D01*
X100201092Y-73422996D01*
X100151504Y-73247172D01*
X100151503Y-73247170D01*
X100149936Y-73241613D01*
X100138662Y-73218750D01*
X100057995Y-73055174D01*
X100055440Y-73049993D01*
X100036139Y-73024145D01*
X99931060Y-72883427D01*
X99931059Y-72883426D01*
X99927607Y-72878803D01*
X99923371Y-72874887D01*
X99774957Y-72737695D01*
X99774954Y-72737693D01*
X99770717Y-72733776D01*
X99590025Y-72619768D01*
X99391582Y-72540597D01*
X99385925Y-72539472D01*
X99385919Y-72539470D01*
X99187703Y-72500043D01*
X99187699Y-72500043D01*
X99182035Y-72498916D01*
X99176260Y-72498840D01*
X99176256Y-72498840D01*
X99068997Y-72497436D01*
X98968401Y-72496119D01*
X98962704Y-72497098D01*
X98962703Y-72497098D01*
X98763531Y-72531322D01*
X98757834Y-72532301D01*
X98557387Y-72606250D01*
X98552426Y-72609202D01*
X98552425Y-72609202D01*
X98378740Y-72712533D01*
X98378737Y-72712535D01*
X98373772Y-72715489D01*
X98369432Y-72719295D01*
X98369428Y-72719298D01*
X98217481Y-72852553D01*
X98213140Y-72856360D01*
X98080869Y-73024145D01*
X98078180Y-73029256D01*
X98078178Y-73029259D01*
X98064544Y-73055174D01*
X97981389Y-73213225D01*
X97979675Y-73218746D01*
X97979673Y-73218750D01*
X97974183Y-73236433D01*
X97918032Y-73417267D01*
X97917354Y-73422996D01*
X97917354Y-73422997D01*
X97915823Y-73435930D01*
X97887952Y-73501228D01*
X97829204Y-73541092D01*
X97758229Y-73542865D01*
X97697563Y-73505986D01*
X97668323Y-73447133D01*
X97667930Y-73447244D01*
X97661092Y-73422996D01*
X97611504Y-73247172D01*
X97611503Y-73247170D01*
X97609936Y-73241613D01*
X97598662Y-73218750D01*
X97517995Y-73055174D01*
X97515440Y-73049993D01*
X97496139Y-73024145D01*
X97391060Y-72883427D01*
X97391059Y-72883426D01*
X97387607Y-72878803D01*
X97383371Y-72874887D01*
X97234957Y-72737695D01*
X97234954Y-72737693D01*
X97230717Y-72733776D01*
X97050025Y-72619768D01*
X96851582Y-72540597D01*
X96845925Y-72539472D01*
X96845919Y-72539470D01*
X96647703Y-72500043D01*
X96647699Y-72500043D01*
X96642035Y-72498916D01*
X96636260Y-72498840D01*
X96636256Y-72498840D01*
X96528997Y-72497436D01*
X96428401Y-72496119D01*
X96422704Y-72497098D01*
X96422703Y-72497098D01*
X96223531Y-72531322D01*
X96217834Y-72532301D01*
X96017387Y-72606250D01*
X96012426Y-72609202D01*
X96012425Y-72609202D01*
X95838740Y-72712533D01*
X95838737Y-72712535D01*
X95833772Y-72715489D01*
X95829432Y-72719295D01*
X95829428Y-72719298D01*
X95677481Y-72852553D01*
X95673140Y-72856360D01*
X95540869Y-73024145D01*
X95538180Y-73029256D01*
X95538178Y-73029259D01*
X95524544Y-73055174D01*
X95441389Y-73213225D01*
X95439675Y-73218746D01*
X95439673Y-73218750D01*
X95434183Y-73236433D01*
X95378032Y-73417267D01*
X95377354Y-73422996D01*
X95377354Y-73422997D01*
X95375823Y-73435930D01*
X95347952Y-73501228D01*
X95289204Y-73541092D01*
X95218229Y-73542865D01*
X95157563Y-73505986D01*
X95128323Y-73447133D01*
X95127930Y-73447244D01*
X95121092Y-73422996D01*
X95071504Y-73247172D01*
X95071503Y-73247170D01*
X95069936Y-73241613D01*
X95058662Y-73218750D01*
X94977995Y-73055174D01*
X94975440Y-73049993D01*
X94956139Y-73024145D01*
X94851060Y-72883427D01*
X94851059Y-72883426D01*
X94847607Y-72878803D01*
X94843371Y-72874887D01*
X94694957Y-72737695D01*
X94694954Y-72737693D01*
X94690717Y-72733776D01*
X94510025Y-72619768D01*
X94311582Y-72540597D01*
X94305925Y-72539472D01*
X94305919Y-72539470D01*
X94107703Y-72500043D01*
X94107699Y-72500043D01*
X94102035Y-72498916D01*
X94096260Y-72498840D01*
X94096256Y-72498840D01*
X93988997Y-72497436D01*
X93888401Y-72496119D01*
X93882704Y-72497098D01*
X93882703Y-72497098D01*
X93683531Y-72531322D01*
X93677834Y-72532301D01*
X93477387Y-72606250D01*
X93472426Y-72609202D01*
X93472425Y-72609202D01*
X93298740Y-72712533D01*
X93298737Y-72712535D01*
X93293772Y-72715489D01*
X93289432Y-72719295D01*
X93289428Y-72719298D01*
X93137481Y-72852553D01*
X93133140Y-72856360D01*
X93000869Y-73024145D01*
X92998180Y-73029256D01*
X92998178Y-73029259D01*
X92984544Y-73055174D01*
X92901389Y-73213225D01*
X92899675Y-73218746D01*
X92899673Y-73218750D01*
X92894183Y-73236433D01*
X92838032Y-73417267D01*
X92837354Y-73422996D01*
X92837354Y-73422997D01*
X92835823Y-73435930D01*
X92807952Y-73501228D01*
X92749204Y-73541092D01*
X92678229Y-73542865D01*
X92617563Y-73505986D01*
X92588323Y-73447133D01*
X92587930Y-73447244D01*
X92581092Y-73422996D01*
X92531504Y-73247172D01*
X92531503Y-73247170D01*
X92529936Y-73241613D01*
X92518662Y-73218750D01*
X92437995Y-73055174D01*
X92435440Y-73049993D01*
X92416139Y-73024145D01*
X92311060Y-72883427D01*
X92311059Y-72883426D01*
X92307607Y-72878803D01*
X92303371Y-72874887D01*
X92154957Y-72737695D01*
X92154954Y-72737693D01*
X92150717Y-72733776D01*
X91970025Y-72619768D01*
X91771582Y-72540597D01*
X91765925Y-72539472D01*
X91765919Y-72539470D01*
X91567703Y-72500043D01*
X91567699Y-72500043D01*
X91562035Y-72498916D01*
X91556260Y-72498840D01*
X91556256Y-72498840D01*
X91448997Y-72497436D01*
X91348401Y-72496119D01*
X91342704Y-72497098D01*
X91342703Y-72497098D01*
X91143531Y-72531322D01*
X91137834Y-72532301D01*
X90937387Y-72606250D01*
X90932426Y-72609202D01*
X90932425Y-72609202D01*
X90758740Y-72712533D01*
X90758737Y-72712535D01*
X90753772Y-72715489D01*
X90749432Y-72719295D01*
X90749428Y-72719298D01*
X90597481Y-72852553D01*
X90593140Y-72856360D01*
X90460869Y-73024145D01*
X90458180Y-73029256D01*
X90458178Y-73029259D01*
X90444544Y-73055174D01*
X90361389Y-73213225D01*
X90359675Y-73218746D01*
X90359673Y-73218750D01*
X90354183Y-73236433D01*
X90298032Y-73417267D01*
X90297354Y-73422996D01*
X90297354Y-73422997D01*
X90295823Y-73435930D01*
X90267952Y-73501228D01*
X90209204Y-73541092D01*
X90138229Y-73542865D01*
X90077563Y-73505986D01*
X90048323Y-73447133D01*
X90047930Y-73447244D01*
X90041092Y-73422996D01*
X89991504Y-73247172D01*
X89991503Y-73247170D01*
X89989936Y-73241613D01*
X89978662Y-73218750D01*
X89897995Y-73055174D01*
X89895440Y-73049993D01*
X89876139Y-73024145D01*
X89771060Y-72883427D01*
X89771059Y-72883426D01*
X89767607Y-72878803D01*
X89763371Y-72874887D01*
X89614957Y-72737695D01*
X89614954Y-72737693D01*
X89610717Y-72733776D01*
X89430025Y-72619768D01*
X89231582Y-72540597D01*
X89225925Y-72539472D01*
X89225919Y-72539470D01*
X89027703Y-72500043D01*
X89027699Y-72500043D01*
X89022035Y-72498916D01*
X89016260Y-72498840D01*
X89016256Y-72498840D01*
X88908997Y-72497436D01*
X88808401Y-72496119D01*
X88802704Y-72497098D01*
X88802703Y-72497098D01*
X88603531Y-72531322D01*
X88597834Y-72532301D01*
X88397387Y-72606250D01*
X88392426Y-72609202D01*
X88392425Y-72609202D01*
X88218740Y-72712533D01*
X88218737Y-72712535D01*
X88213772Y-72715489D01*
X88209432Y-72719295D01*
X88209428Y-72719298D01*
X88057481Y-72852553D01*
X88053140Y-72856360D01*
X87920869Y-73024145D01*
X87918180Y-73029256D01*
X87918178Y-73029259D01*
X87904544Y-73055174D01*
X87821389Y-73213225D01*
X87819675Y-73218746D01*
X87819673Y-73218750D01*
X87814183Y-73236433D01*
X87758032Y-73417267D01*
X87757354Y-73422996D01*
X87757354Y-73422997D01*
X87755823Y-73435930D01*
X87727952Y-73501228D01*
X87669204Y-73541092D01*
X87598229Y-73542865D01*
X87537563Y-73505986D01*
X87508323Y-73447133D01*
X87507930Y-73447244D01*
X87501092Y-73422996D01*
X87451504Y-73247172D01*
X87451503Y-73247170D01*
X87449936Y-73241613D01*
X87438662Y-73218750D01*
X87357995Y-73055174D01*
X87355440Y-73049993D01*
X87336139Y-73024145D01*
X87231060Y-72883427D01*
X87231059Y-72883426D01*
X87227607Y-72878803D01*
X87223371Y-72874887D01*
X87074957Y-72737695D01*
X87074954Y-72737693D01*
X87070717Y-72733776D01*
X86890025Y-72619768D01*
X86691582Y-72540597D01*
X86685925Y-72539472D01*
X86685919Y-72539470D01*
X86487703Y-72500043D01*
X86487699Y-72500043D01*
X86482035Y-72498916D01*
X86476260Y-72498840D01*
X86476256Y-72498840D01*
X86368997Y-72497436D01*
X86268401Y-72496119D01*
X86262704Y-72497098D01*
X86262703Y-72497098D01*
X86063531Y-72531322D01*
X86057834Y-72532301D01*
X85857387Y-72606250D01*
X85852426Y-72609202D01*
X85852425Y-72609202D01*
X85678740Y-72712533D01*
X85678737Y-72712535D01*
X85673772Y-72715489D01*
X85669432Y-72719295D01*
X85669428Y-72719298D01*
X85517481Y-72852553D01*
X85513140Y-72856360D01*
X85380869Y-73024145D01*
X85378180Y-73029256D01*
X85378178Y-73029259D01*
X85364544Y-73055174D01*
X85281389Y-73213225D01*
X85279675Y-73218746D01*
X85279673Y-73218750D01*
X85274183Y-73236433D01*
X85218032Y-73417267D01*
X85217354Y-73422996D01*
X85217354Y-73422997D01*
X85215823Y-73435930D01*
X85187952Y-73501228D01*
X85129204Y-73541092D01*
X85058229Y-73542865D01*
X84997563Y-73505986D01*
X84968323Y-73447133D01*
X84967930Y-73447244D01*
X84961092Y-73422996D01*
X84911504Y-73247172D01*
X84911503Y-73247170D01*
X84909936Y-73241613D01*
X84898662Y-73218750D01*
X84817995Y-73055174D01*
X84815440Y-73049993D01*
X84796139Y-73024145D01*
X84691060Y-72883427D01*
X84691059Y-72883426D01*
X84687607Y-72878803D01*
X84683371Y-72874887D01*
X84534957Y-72737695D01*
X84534954Y-72737693D01*
X84530717Y-72733776D01*
X84350025Y-72619768D01*
X84151582Y-72540597D01*
X84145925Y-72539472D01*
X84145919Y-72539470D01*
X83947703Y-72500043D01*
X83947699Y-72500043D01*
X83942035Y-72498916D01*
X83936260Y-72498840D01*
X83936256Y-72498840D01*
X83828997Y-72497436D01*
X83728401Y-72496119D01*
X83722704Y-72497098D01*
X83722703Y-72497098D01*
X83523531Y-72531322D01*
X83517834Y-72532301D01*
X83317387Y-72606250D01*
X83312426Y-72609202D01*
X83312425Y-72609202D01*
X83138740Y-72712533D01*
X83138737Y-72712535D01*
X83133772Y-72715489D01*
X83129432Y-72719295D01*
X83129428Y-72719298D01*
X82977481Y-72852553D01*
X82973140Y-72856360D01*
X82840869Y-73024145D01*
X82838180Y-73029256D01*
X82838178Y-73029259D01*
X82824544Y-73055174D01*
X82741389Y-73213225D01*
X82739675Y-73218746D01*
X82739673Y-73218750D01*
X82734183Y-73236433D01*
X82678032Y-73417267D01*
X82652920Y-73629439D01*
X79904672Y-73629439D01*
X79887930Y-73447244D01*
X79881092Y-73422996D01*
X79831504Y-73247172D01*
X79831503Y-73247170D01*
X79829936Y-73241613D01*
X79818662Y-73218750D01*
X79737995Y-73055174D01*
X79735440Y-73049993D01*
X79716139Y-73024145D01*
X79611060Y-72883427D01*
X79611059Y-72883426D01*
X79607607Y-72878803D01*
X79603371Y-72874887D01*
X79454957Y-72737695D01*
X79454954Y-72737693D01*
X79450717Y-72733776D01*
X79270025Y-72619768D01*
X79071582Y-72540597D01*
X79065925Y-72539472D01*
X79065919Y-72539470D01*
X78867703Y-72500043D01*
X78867699Y-72500043D01*
X78862035Y-72498916D01*
X78856260Y-72498840D01*
X78856256Y-72498840D01*
X78748997Y-72497436D01*
X78648401Y-72496119D01*
X78642704Y-72497098D01*
X78642703Y-72497098D01*
X78443531Y-72531322D01*
X78437834Y-72532301D01*
X78237387Y-72606250D01*
X78232426Y-72609202D01*
X78232425Y-72609202D01*
X78058740Y-72712533D01*
X78058737Y-72712535D01*
X78053772Y-72715489D01*
X78049432Y-72719295D01*
X78049428Y-72719298D01*
X77897481Y-72852553D01*
X77893140Y-72856360D01*
X77760869Y-73024145D01*
X77758180Y-73029256D01*
X77758178Y-73029259D01*
X77744544Y-73055174D01*
X77661389Y-73213225D01*
X77659675Y-73218746D01*
X77659673Y-73218750D01*
X77654183Y-73236433D01*
X77598032Y-73417267D01*
X77572920Y-73629439D01*
X57404500Y-73629439D01*
X57404500Y-67920000D01*
X64838884Y-67920000D01*
X64857314Y-68130655D01*
X64912044Y-68334910D01*
X65001411Y-68526558D01*
X65122699Y-68699776D01*
X65272224Y-68849301D01*
X65445442Y-68970589D01*
X65450420Y-68972910D01*
X65450423Y-68972912D01*
X65632108Y-69057633D01*
X65637090Y-69059956D01*
X65642398Y-69061378D01*
X65642400Y-69061379D01*
X65836030Y-69113262D01*
X65836032Y-69113262D01*
X65841345Y-69114686D01*
X66052000Y-69133116D01*
X66262655Y-69114686D01*
X66267968Y-69113262D01*
X66267970Y-69113262D01*
X66461600Y-69061379D01*
X66461602Y-69061378D01*
X66466910Y-69059956D01*
X66471892Y-69057633D01*
X66653577Y-68972912D01*
X66653580Y-68972910D01*
X66658558Y-68970589D01*
X66831776Y-68849301D01*
X66981301Y-68699776D01*
X67015449Y-68651007D01*
X67070905Y-68606680D01*
X67141524Y-68599371D01*
X67204885Y-68631402D01*
X67225045Y-68655763D01*
X67308568Y-68787375D01*
X67509767Y-69030582D01*
X67739860Y-69246654D01*
X67995221Y-69432184D01*
X68271821Y-69584247D01*
X68275490Y-69585700D01*
X68275495Y-69585702D01*
X68561628Y-69698990D01*
X68565298Y-69700443D01*
X68871025Y-69778940D01*
X69184179Y-69818500D01*
X69499821Y-69818500D01*
X69812975Y-69778940D01*
X70118702Y-69700443D01*
X70122372Y-69698990D01*
X70408505Y-69585702D01*
X70408510Y-69585700D01*
X70412179Y-69584247D01*
X70688779Y-69432184D01*
X70944140Y-69246654D01*
X71174233Y-69030582D01*
X71375432Y-68787375D01*
X71544562Y-68520869D01*
X71546246Y-68517290D01*
X71546250Y-68517283D01*
X71677267Y-68238856D01*
X71677269Y-68238852D01*
X71678956Y-68235266D01*
X71776495Y-67935072D01*
X71835641Y-67625020D01*
X71855460Y-67310000D01*
X71835641Y-66994980D01*
X71776495Y-66684928D01*
X71678956Y-66384734D01*
X71643460Y-66309301D01*
X71546250Y-66102717D01*
X71546246Y-66102710D01*
X71544562Y-66099131D01*
X71375432Y-65832625D01*
X71215581Y-65639399D01*
X71176758Y-65592470D01*
X71176757Y-65592469D01*
X71174233Y-65589418D01*
X70944140Y-65373346D01*
X70932718Y-65365047D01*
X70840162Y-65297802D01*
X70688779Y-65187816D01*
X70650972Y-65167031D01*
X70415648Y-65037660D01*
X70415647Y-65037659D01*
X70412179Y-65035753D01*
X70408510Y-65034300D01*
X70408505Y-65034298D01*
X70122372Y-64921010D01*
X70122371Y-64921010D01*
X70118702Y-64919557D01*
X69812975Y-64841060D01*
X69499821Y-64801500D01*
X69184179Y-64801500D01*
X68871025Y-64841060D01*
X68565298Y-64919557D01*
X68561629Y-64921010D01*
X68561628Y-64921010D01*
X68275495Y-65034298D01*
X68275490Y-65034300D01*
X68271821Y-65035753D01*
X68268353Y-65037659D01*
X68268352Y-65037660D01*
X68033029Y-65167031D01*
X67995221Y-65187816D01*
X67843838Y-65297802D01*
X67751283Y-65365047D01*
X67739860Y-65373346D01*
X67509767Y-65589418D01*
X67507243Y-65592469D01*
X67507242Y-65592470D01*
X67468419Y-65639399D01*
X67308568Y-65832625D01*
X67139438Y-66099131D01*
X67137754Y-66102710D01*
X67137750Y-66102717D01*
X67040540Y-66309301D01*
X67005044Y-66384734D01*
X66907505Y-66684928D01*
X66899892Y-66724835D01*
X66883621Y-66810131D01*
X66851209Y-66873297D01*
X66789791Y-66908913D01*
X66718869Y-66905669D01*
X66687584Y-66889735D01*
X66684673Y-66887697D01*
X66658558Y-66869411D01*
X66653580Y-66867090D01*
X66653577Y-66867088D01*
X66471892Y-66782367D01*
X66471891Y-66782366D01*
X66466910Y-66780044D01*
X66461602Y-66778622D01*
X66461600Y-66778621D01*
X66267970Y-66726738D01*
X66267968Y-66726738D01*
X66262655Y-66725314D01*
X66052000Y-66706884D01*
X65841345Y-66725314D01*
X65836032Y-66726738D01*
X65836030Y-66726738D01*
X65642400Y-66778621D01*
X65642398Y-66778622D01*
X65637090Y-66780044D01*
X65632109Y-66782366D01*
X65632108Y-66782367D01*
X65450423Y-66867088D01*
X65450420Y-66867090D01*
X65445442Y-66869411D01*
X65272224Y-66990699D01*
X65122699Y-67140224D01*
X65001411Y-67313442D01*
X64912044Y-67505090D01*
X64857314Y-67709345D01*
X64838884Y-67920000D01*
X57404500Y-67920000D01*
X57404500Y-65380000D01*
X63048884Y-65380000D01*
X63067314Y-65590655D01*
X63068738Y-65595968D01*
X63068738Y-65595970D01*
X63108581Y-65744664D01*
X63122044Y-65794910D01*
X63124366Y-65799891D01*
X63124367Y-65799892D01*
X63138208Y-65829573D01*
X63211411Y-65986558D01*
X63332699Y-66159776D01*
X63482224Y-66309301D01*
X63655442Y-66430589D01*
X63660420Y-66432910D01*
X63660423Y-66432912D01*
X63842108Y-66517633D01*
X63847090Y-66519956D01*
X63852398Y-66521378D01*
X63852400Y-66521379D01*
X64046030Y-66573262D01*
X64046032Y-66573262D01*
X64051345Y-66574686D01*
X64262000Y-66593116D01*
X64472655Y-66574686D01*
X64477968Y-66573262D01*
X64477970Y-66573262D01*
X64671600Y-66521379D01*
X64671602Y-66521378D01*
X64676910Y-66519956D01*
X64681892Y-66517633D01*
X64863577Y-66432912D01*
X64863580Y-66432910D01*
X64868558Y-66430589D01*
X65041776Y-66309301D01*
X65191301Y-66159776D01*
X65312589Y-65986558D01*
X65385793Y-65829573D01*
X65399633Y-65799892D01*
X65399634Y-65799891D01*
X65401956Y-65794910D01*
X65415420Y-65744664D01*
X65455262Y-65595970D01*
X65455262Y-65595968D01*
X65456686Y-65590655D01*
X65475116Y-65380000D01*
X65456686Y-65169345D01*
X65428476Y-65064065D01*
X65403379Y-64970400D01*
X65403378Y-64970398D01*
X65401956Y-64965090D01*
X65399633Y-64960108D01*
X65314912Y-64778423D01*
X65314910Y-64778420D01*
X65312589Y-64773442D01*
X65299781Y-64755150D01*
X74628482Y-64755150D01*
X74628998Y-64761294D01*
X74642410Y-64921010D01*
X74645852Y-64962004D01*
X74703069Y-65161545D01*
X74705887Y-65167027D01*
X74705888Y-65167031D01*
X74749240Y-65251384D01*
X74797955Y-65346173D01*
X74926894Y-65508854D01*
X74931581Y-65512843D01*
X74931584Y-65512846D01*
X75065560Y-65626868D01*
X75084976Y-65643392D01*
X75266180Y-65744664D01*
X75463603Y-65808810D01*
X75669725Y-65833389D01*
X75675860Y-65832917D01*
X75675862Y-65832917D01*
X75870555Y-65817936D01*
X75870560Y-65817935D01*
X75876696Y-65817463D01*
X75882626Y-65815807D01*
X75882628Y-65815807D01*
X75976664Y-65789552D01*
X76076632Y-65761640D01*
X76261917Y-65668046D01*
X76425495Y-65540245D01*
X76561133Y-65383106D01*
X76565138Y-65376057D01*
X76606633Y-65303011D01*
X76663667Y-65202614D01*
X76729190Y-65005644D01*
X76755207Y-64799698D01*
X76755622Y-64770000D01*
X76745661Y-64668416D01*
X76735966Y-64569534D01*
X76735965Y-64569531D01*
X76735365Y-64563408D01*
X76675368Y-64364685D01*
X76658290Y-64332566D01*
X76580809Y-64186847D01*
X76580808Y-64186845D01*
X76577913Y-64181401D01*
X76496035Y-64081008D01*
X76450610Y-64025311D01*
X76450607Y-64025308D01*
X76446715Y-64020536D01*
X76439770Y-64014790D01*
X76291518Y-63892145D01*
X76291519Y-63892145D01*
X76286770Y-63888217D01*
X76281353Y-63885288D01*
X76281350Y-63885286D01*
X76109590Y-63792416D01*
X76109585Y-63792414D01*
X76104170Y-63789486D01*
X75905871Y-63728102D01*
X75899746Y-63727458D01*
X75899745Y-63727458D01*
X75705554Y-63707048D01*
X75705552Y-63707048D01*
X75699425Y-63706404D01*
X75613515Y-63714223D01*
X75498836Y-63724659D01*
X75498833Y-63724660D01*
X75492697Y-63725218D01*
X75486791Y-63726956D01*
X75486787Y-63726957D01*
X75338932Y-63770473D01*
X75293560Y-63783827D01*
X75109600Y-63879999D01*
X74947823Y-64010071D01*
X74943865Y-64014788D01*
X74943863Y-64014790D01*
X74939042Y-64020536D01*
X74814391Y-64169089D01*
X74811427Y-64174481D01*
X74811424Y-64174485D01*
X74761345Y-64265579D01*
X74714387Y-64350995D01*
X74651621Y-64548861D01*
X74650935Y-64554978D01*
X74650934Y-64554982D01*
X74633613Y-64709405D01*
X74628482Y-64755150D01*
X65299781Y-64755150D01*
X65191301Y-64600224D01*
X65041776Y-64450699D01*
X64868558Y-64329411D01*
X64863580Y-64327090D01*
X64863577Y-64327088D01*
X64681892Y-64242367D01*
X64681891Y-64242366D01*
X64676910Y-64240044D01*
X64671602Y-64238622D01*
X64671600Y-64238621D01*
X64477970Y-64186738D01*
X64477968Y-64186738D01*
X64472655Y-64185314D01*
X64262000Y-64166884D01*
X64051345Y-64185314D01*
X64046032Y-64186738D01*
X64046030Y-64186738D01*
X63852400Y-64238621D01*
X63852398Y-64238622D01*
X63847090Y-64240044D01*
X63842109Y-64242366D01*
X63842108Y-64242367D01*
X63660423Y-64327088D01*
X63660420Y-64327090D01*
X63655442Y-64329411D01*
X63482224Y-64450699D01*
X63332699Y-64600224D01*
X63211411Y-64773442D01*
X63209090Y-64778420D01*
X63209088Y-64778423D01*
X63124367Y-64960108D01*
X63122044Y-64965090D01*
X63120622Y-64970398D01*
X63120621Y-64970400D01*
X63095524Y-65064065D01*
X63067314Y-65169345D01*
X63048884Y-65380000D01*
X57404500Y-65380000D01*
X57404500Y-63485150D01*
X77168482Y-63485150D01*
X77185852Y-63692004D01*
X77243069Y-63891545D01*
X77245887Y-63897027D01*
X77245888Y-63897031D01*
X77302000Y-64006212D01*
X77337955Y-64076173D01*
X77466894Y-64238854D01*
X77471581Y-64242843D01*
X77471584Y-64242846D01*
X77605560Y-64356868D01*
X77624976Y-64373392D01*
X77806180Y-64474664D01*
X78003603Y-64538810D01*
X78209725Y-64563389D01*
X78215860Y-64562917D01*
X78215862Y-64562917D01*
X78410555Y-64547936D01*
X78410560Y-64547935D01*
X78416696Y-64547463D01*
X78422626Y-64545807D01*
X78422628Y-64545807D01*
X78516664Y-64519552D01*
X78616632Y-64491640D01*
X78697682Y-64450699D01*
X78796416Y-64400825D01*
X78796418Y-64400824D01*
X78801917Y-64398046D01*
X78965495Y-64270245D01*
X79101133Y-64113106D01*
X79203667Y-63932614D01*
X79269190Y-63735644D01*
X79295207Y-63529698D01*
X79295622Y-63500000D01*
X79275365Y-63293408D01*
X79215368Y-63094685D01*
X79162672Y-62995579D01*
X79120809Y-62916847D01*
X79120808Y-62916845D01*
X79117913Y-62911401D01*
X79036035Y-62811008D01*
X78990610Y-62755311D01*
X78990607Y-62755308D01*
X78986715Y-62750536D01*
X78979770Y-62744790D01*
X78831518Y-62622145D01*
X78831519Y-62622145D01*
X78826770Y-62618217D01*
X78821353Y-62615288D01*
X78821350Y-62615286D01*
X78649590Y-62522416D01*
X78649585Y-62522414D01*
X78644170Y-62519486D01*
X78445871Y-62458102D01*
X78439746Y-62457458D01*
X78439745Y-62457458D01*
X78245554Y-62437048D01*
X78245552Y-62437048D01*
X78239425Y-62436404D01*
X78153515Y-62444223D01*
X78038836Y-62454659D01*
X78038833Y-62454660D01*
X78032697Y-62455218D01*
X78026791Y-62456956D01*
X78026787Y-62456957D01*
X77878932Y-62500473D01*
X77833560Y-62513827D01*
X77649600Y-62609999D01*
X77487823Y-62740071D01*
X77483865Y-62744788D01*
X77483863Y-62744790D01*
X77479042Y-62750536D01*
X77354391Y-62899089D01*
X77351427Y-62904481D01*
X77351424Y-62904485D01*
X77301345Y-62995579D01*
X77254387Y-63080995D01*
X77191621Y-63278861D01*
X77190935Y-63284978D01*
X77190934Y-63284982D01*
X77190073Y-63292660D01*
X77168482Y-63485150D01*
X57404500Y-63485150D01*
X57404500Y-62215150D01*
X74628482Y-62215150D01*
X74645852Y-62422004D01*
X74703069Y-62621545D01*
X74705887Y-62627027D01*
X74705888Y-62627031D01*
X74762000Y-62736212D01*
X74797955Y-62806173D01*
X74926894Y-62968854D01*
X74931581Y-62972843D01*
X74931584Y-62972846D01*
X75065560Y-63086868D01*
X75084976Y-63103392D01*
X75266180Y-63204664D01*
X75463603Y-63268810D01*
X75669725Y-63293389D01*
X75675860Y-63292917D01*
X75675862Y-63292917D01*
X75870555Y-63277936D01*
X75870560Y-63277935D01*
X75876696Y-63277463D01*
X75882626Y-63275807D01*
X75882628Y-63275807D01*
X75976664Y-63249552D01*
X76076632Y-63221640D01*
X76261917Y-63128046D01*
X76425495Y-63000245D01*
X76561133Y-62843106D01*
X76663667Y-62662614D01*
X76729190Y-62465644D01*
X76755207Y-62259698D01*
X76755622Y-62230000D01*
X76735365Y-62023408D01*
X76677997Y-61833392D01*
X76677152Y-61830593D01*
X76677151Y-61830590D01*
X76675368Y-61824685D01*
X76622672Y-61725579D01*
X76580809Y-61646847D01*
X76580808Y-61646845D01*
X76577913Y-61641401D01*
X76496035Y-61541008D01*
X76450610Y-61485311D01*
X76450607Y-61485308D01*
X76446715Y-61480536D01*
X76439770Y-61474790D01*
X76291518Y-61352145D01*
X76291519Y-61352145D01*
X76286770Y-61348217D01*
X76281353Y-61345288D01*
X76281350Y-61345286D01*
X76109590Y-61252416D01*
X76109585Y-61252414D01*
X76104170Y-61249486D01*
X75905871Y-61188102D01*
X75899746Y-61187458D01*
X75899745Y-61187458D01*
X75705554Y-61167048D01*
X75705552Y-61167048D01*
X75699425Y-61166404D01*
X75613515Y-61174223D01*
X75498836Y-61184659D01*
X75498833Y-61184660D01*
X75492697Y-61185218D01*
X75486791Y-61186956D01*
X75486787Y-61186957D01*
X75338932Y-61230473D01*
X75293560Y-61243827D01*
X75109600Y-61339999D01*
X74947823Y-61470071D01*
X74943865Y-61474788D01*
X74943863Y-61474790D01*
X74939042Y-61480536D01*
X74814391Y-61629089D01*
X74811427Y-61634481D01*
X74811424Y-61634485D01*
X74761345Y-61725579D01*
X74714387Y-61810995D01*
X74651621Y-62008861D01*
X74650935Y-62014978D01*
X74650934Y-62014982D01*
X74629169Y-62209025D01*
X74628482Y-62215150D01*
X57404500Y-62215150D01*
X57404500Y-59675150D01*
X74628482Y-59675150D01*
X74645852Y-59882004D01*
X74703069Y-60081545D01*
X74705887Y-60087027D01*
X74705888Y-60087031D01*
X74763217Y-60198580D01*
X74797955Y-60266173D01*
X74801786Y-60271007D01*
X74801787Y-60271008D01*
X74829093Y-60305459D01*
X74926894Y-60428854D01*
X74931581Y-60432843D01*
X74931584Y-60432846D01*
X75065560Y-60546868D01*
X75084976Y-60563392D01*
X75266180Y-60664664D01*
X75463603Y-60728810D01*
X75669725Y-60753389D01*
X75675860Y-60752917D01*
X75675862Y-60752917D01*
X75870555Y-60737936D01*
X75870560Y-60737935D01*
X75876696Y-60737463D01*
X75882626Y-60735807D01*
X75882628Y-60735807D01*
X76006866Y-60701119D01*
X76076632Y-60681640D01*
X76082132Y-60678862D01*
X76256416Y-60590825D01*
X76256418Y-60590824D01*
X76261917Y-60588046D01*
X76425495Y-60460245D01*
X76429521Y-60455580D01*
X76429527Y-60455575D01*
X76505835Y-60367170D01*
X76565488Y-60328672D01*
X76601217Y-60323500D01*
X76681733Y-60323500D01*
X76692916Y-60324027D01*
X76700409Y-60325702D01*
X76708335Y-60325453D01*
X76708336Y-60325453D01*
X76768486Y-60323562D01*
X76772445Y-60323500D01*
X76800356Y-60323500D01*
X76804291Y-60323003D01*
X76804356Y-60322995D01*
X76816193Y-60322062D01*
X76848451Y-60321048D01*
X76852470Y-60320922D01*
X76860389Y-60320673D01*
X76879843Y-60315021D01*
X76899200Y-60311013D01*
X76911430Y-60309468D01*
X76911431Y-60309468D01*
X76919297Y-60308474D01*
X76926668Y-60305555D01*
X76926670Y-60305555D01*
X76960412Y-60292196D01*
X76971642Y-60288351D01*
X77006483Y-60278229D01*
X77006484Y-60278229D01*
X77014093Y-60276018D01*
X77020912Y-60271985D01*
X77020917Y-60271983D01*
X77031528Y-60265707D01*
X77049276Y-60257012D01*
X77068117Y-60249552D01*
X77081254Y-60240008D01*
X77103887Y-60223564D01*
X77113807Y-60217048D01*
X77145035Y-60198580D01*
X77145038Y-60198578D01*
X77151862Y-60194542D01*
X77166183Y-60180221D01*
X77181217Y-60167380D01*
X77191193Y-60160132D01*
X77197607Y-60155472D01*
X77202385Y-60149697D01*
X77265562Y-60117731D01*
X77336183Y-60125017D01*
X77391656Y-60169326D01*
X77414366Y-60236593D01*
X77397105Y-60305459D01*
X77384989Y-60322622D01*
X77358354Y-60354365D01*
X77358350Y-60354371D01*
X77354391Y-60359089D01*
X77351427Y-60364481D01*
X77351424Y-60364485D01*
X77281503Y-60491671D01*
X77254387Y-60540995D01*
X77191621Y-60738861D01*
X77190935Y-60744978D01*
X77190934Y-60744982D01*
X77169169Y-60939025D01*
X77168482Y-60945150D01*
X77168998Y-60951294D01*
X77181187Y-61096444D01*
X77185852Y-61152004D01*
X77243069Y-61351545D01*
X77245887Y-61357027D01*
X77245888Y-61357031D01*
X77299545Y-61461435D01*
X77337955Y-61536173D01*
X77466894Y-61698854D01*
X77471581Y-61702843D01*
X77471584Y-61702846D01*
X77605560Y-61816868D01*
X77624976Y-61833392D01*
X77806180Y-61934664D01*
X78003603Y-61998810D01*
X78209725Y-62023389D01*
X78215860Y-62022917D01*
X78215862Y-62022917D01*
X78410555Y-62007936D01*
X78410560Y-62007935D01*
X78416696Y-62007463D01*
X78422626Y-62005807D01*
X78422628Y-62005807D01*
X78516664Y-61979551D01*
X78616632Y-61951640D01*
X78801917Y-61858046D01*
X78965495Y-61730245D01*
X79101133Y-61573106D01*
X79203667Y-61392614D01*
X79269190Y-61195644D01*
X79295207Y-60989698D01*
X79295622Y-60960000D01*
X79278868Y-60789134D01*
X79275966Y-60759534D01*
X79275965Y-60759531D01*
X79275365Y-60753408D01*
X79229620Y-60601891D01*
X79217152Y-60560593D01*
X79217151Y-60560590D01*
X79215368Y-60554685D01*
X79204519Y-60534281D01*
X79120809Y-60376847D01*
X79120808Y-60376845D01*
X79117913Y-60371401D01*
X79036035Y-60271008D01*
X78990610Y-60215311D01*
X78990607Y-60215308D01*
X78986715Y-60210536D01*
X78949745Y-60179951D01*
X78831518Y-60082145D01*
X78831519Y-60082145D01*
X78826770Y-60078217D01*
X78821353Y-60075288D01*
X78821350Y-60075286D01*
X78649590Y-59982416D01*
X78649585Y-59982414D01*
X78644170Y-59979486D01*
X78445871Y-59918102D01*
X78439746Y-59917458D01*
X78439745Y-59917458D01*
X78245554Y-59897048D01*
X78245552Y-59897048D01*
X78239425Y-59896404D01*
X78153515Y-59904223D01*
X78038836Y-59914659D01*
X78038833Y-59914660D01*
X78032697Y-59915218D01*
X78026791Y-59916956D01*
X78026787Y-59916957D01*
X77894281Y-59955956D01*
X77833560Y-59973827D01*
X77649600Y-60069999D01*
X77644800Y-60073859D01*
X77644799Y-60073859D01*
X77558495Y-60143249D01*
X77492872Y-60170345D01*
X77423018Y-60157662D01*
X77371110Y-60109225D01*
X77353628Y-60040415D01*
X77376124Y-59973076D01*
X77390448Y-59955956D01*
X77449357Y-59897048D01*
X77662758Y-59683647D01*
X77671037Y-59676113D01*
X77677518Y-59672000D01*
X77724144Y-59622348D01*
X77726898Y-59619507D01*
X77746635Y-59599770D01*
X77749115Y-59596573D01*
X77756820Y-59587551D01*
X77781659Y-59561100D01*
X77787086Y-59555321D01*
X77790905Y-59548375D01*
X77790907Y-59548372D01*
X77796848Y-59537566D01*
X77807699Y-59521047D01*
X77815258Y-59511301D01*
X77820114Y-59505041D01*
X77821617Y-59501568D01*
X77872163Y-59454372D01*
X77942014Y-59441667D01*
X77967653Y-59447129D01*
X78003603Y-59458810D01*
X78209725Y-59483389D01*
X78215860Y-59482917D01*
X78215862Y-59482917D01*
X78410555Y-59467936D01*
X78410560Y-59467935D01*
X78416696Y-59467463D01*
X78422626Y-59465807D01*
X78422628Y-59465807D01*
X78516664Y-59439551D01*
X78616632Y-59411640D01*
X78639072Y-59400305D01*
X78796416Y-59320825D01*
X78796418Y-59320824D01*
X78801917Y-59318046D01*
X78965495Y-59190245D01*
X79101133Y-59033106D01*
X79203667Y-58852614D01*
X79269190Y-58655644D01*
X79295207Y-58449698D01*
X79295622Y-58420000D01*
X79281054Y-58271424D01*
X79275966Y-58219534D01*
X79275965Y-58219531D01*
X79275365Y-58213408D01*
X79217997Y-58023392D01*
X79217152Y-58020593D01*
X79217151Y-58020590D01*
X79215368Y-58014685D01*
X79209736Y-58004093D01*
X79120809Y-57836847D01*
X79120808Y-57836845D01*
X79117913Y-57831401D01*
X79036035Y-57731008D01*
X78990610Y-57675311D01*
X78990607Y-57675308D01*
X78986715Y-57670536D01*
X78826770Y-57538217D01*
X78821353Y-57535288D01*
X78821350Y-57535286D01*
X78649590Y-57442416D01*
X78649585Y-57442414D01*
X78644170Y-57439486D01*
X78445871Y-57378102D01*
X78439746Y-57377458D01*
X78439745Y-57377458D01*
X78245554Y-57357048D01*
X78245552Y-57357048D01*
X78239425Y-57356404D01*
X78121326Y-57367152D01*
X78041420Y-57374424D01*
X77971767Y-57360679D01*
X77920602Y-57311458D01*
X77904000Y-57248943D01*
X77904000Y-56700594D01*
X77924002Y-56632473D01*
X77940905Y-56611499D01*
X78765999Y-55786405D01*
X78828311Y-55752379D01*
X78855094Y-55749500D01*
X79241906Y-55749500D01*
X79310027Y-55769502D01*
X79331001Y-55786405D01*
X79340843Y-55796247D01*
X79348387Y-55804537D01*
X79352500Y-55811018D01*
X79358277Y-55816443D01*
X79402167Y-55857658D01*
X79405009Y-55860413D01*
X79424731Y-55880135D01*
X79427855Y-55882558D01*
X79427859Y-55882562D01*
X79427924Y-55882612D01*
X79436945Y-55890317D01*
X79469179Y-55920586D01*
X79476127Y-55924405D01*
X79476129Y-55924407D01*
X79486932Y-55930346D01*
X79503459Y-55941202D01*
X79513198Y-55948757D01*
X79513200Y-55948758D01*
X79519460Y-55953614D01*
X79560040Y-55971174D01*
X79570688Y-55976391D01*
X79574432Y-55978449D01*
X79609440Y-55997695D01*
X79617116Y-55999666D01*
X79617119Y-55999667D01*
X79629062Y-56002733D01*
X79647766Y-56009137D01*
X79651330Y-56010679D01*
X79666355Y-56017181D01*
X79674178Y-56018420D01*
X79674188Y-56018423D01*
X79710024Y-56024099D01*
X79721644Y-56026505D01*
X79756789Y-56035528D01*
X79764470Y-56037500D01*
X79784724Y-56037500D01*
X79804434Y-56039051D01*
X79824443Y-56042220D01*
X79832335Y-56041474D01*
X79868461Y-56038059D01*
X79880319Y-56037500D01*
X80483139Y-56037500D01*
X80551260Y-56057502D01*
X80586036Y-56090779D01*
X80642422Y-56170562D01*
X80646204Y-56175914D01*
X80781252Y-56307471D01*
X80789741Y-56315741D01*
X80824579Y-56377602D01*
X80820442Y-56448478D01*
X80784899Y-56500726D01*
X80687842Y-56585842D01*
X80684270Y-56590373D01*
X80619506Y-56672526D01*
X80553181Y-56756658D01*
X80451905Y-56949154D01*
X80450192Y-56954671D01*
X80406862Y-57094216D01*
X80387403Y-57156882D01*
X80361837Y-57372887D01*
X80376063Y-57589933D01*
X80377484Y-57595529D01*
X80377485Y-57595534D01*
X80409270Y-57720686D01*
X80429605Y-57800753D01*
X80520668Y-57998285D01*
X80524001Y-58003001D01*
X80631920Y-58155702D01*
X80646204Y-58175914D01*
X80650346Y-58179949D01*
X80789741Y-58315741D01*
X80824579Y-58377602D01*
X80820442Y-58448478D01*
X80784899Y-58500726D01*
X80687842Y-58585842D01*
X80684270Y-58590373D01*
X80569935Y-58735406D01*
X80553181Y-58756658D01*
X80451905Y-58949154D01*
X80450192Y-58954671D01*
X80408454Y-59089089D01*
X80387403Y-59156882D01*
X80361837Y-59372887D01*
X80376063Y-59589933D01*
X80377484Y-59595529D01*
X80377485Y-59595534D01*
X80428184Y-59795158D01*
X80429605Y-59800753D01*
X80520668Y-59998285D01*
X80524001Y-60003001D01*
X80623119Y-60143249D01*
X80646204Y-60175914D01*
X80802009Y-60327692D01*
X80982863Y-60448536D01*
X80988171Y-60450817D01*
X80988172Y-60450817D01*
X81177409Y-60532119D01*
X81177412Y-60532120D01*
X81182712Y-60534397D01*
X81188342Y-60535671D01*
X81299713Y-60560872D01*
X81394860Y-60582402D01*
X81400631Y-60582629D01*
X81400633Y-60582629D01*
X81473620Y-60585496D01*
X81612205Y-60590941D01*
X81827466Y-60559730D01*
X81832930Y-60557875D01*
X81832935Y-60557874D01*
X82027963Y-60491671D01*
X82027968Y-60491669D01*
X82033435Y-60489813D01*
X82223213Y-60383532D01*
X82390446Y-60244446D01*
X82450252Y-60172537D01*
X82509189Y-60132953D01*
X82580171Y-60131517D01*
X82642913Y-60171258D01*
X82646204Y-60175914D01*
X82650346Y-60179949D01*
X82650348Y-60179951D01*
X82733197Y-60260659D01*
X82802009Y-60327692D01*
X82982863Y-60448536D01*
X82988171Y-60450817D01*
X82988172Y-60450817D01*
X83177409Y-60532119D01*
X83177412Y-60532120D01*
X83182712Y-60534397D01*
X83188342Y-60535671D01*
X83299713Y-60560872D01*
X83394860Y-60582402D01*
X83400631Y-60582629D01*
X83400633Y-60582629D01*
X83473620Y-60585496D01*
X83612205Y-60590941D01*
X83827466Y-60559730D01*
X83832930Y-60557875D01*
X83832935Y-60557874D01*
X83902437Y-60534281D01*
X83973372Y-60531325D01*
X84034644Y-60567188D01*
X84066801Y-60630485D01*
X84059632Y-60701119D01*
X84016999Y-60755530D01*
X83970747Y-60789134D01*
X83842960Y-60931056D01*
X83747473Y-61096444D01*
X83688458Y-61278072D01*
X83687768Y-61284633D01*
X83687768Y-61284635D01*
X83680736Y-61351545D01*
X83668496Y-61468000D01*
X83669186Y-61474565D01*
X83686219Y-61636622D01*
X83688458Y-61657928D01*
X83747473Y-61839556D01*
X83750776Y-61845278D01*
X83750777Y-61845279D01*
X83758148Y-61858046D01*
X83842960Y-62004944D01*
X83916137Y-62086215D01*
X83946853Y-62150221D01*
X83948500Y-62170524D01*
X83948500Y-64709405D01*
X83928498Y-64777526D01*
X83911595Y-64798501D01*
X83340499Y-65369596D01*
X83278187Y-65403621D01*
X83251404Y-65406500D01*
X79141122Y-65406500D01*
X79073001Y-65386498D01*
X79043479Y-65360135D01*
X78990614Y-65295316D01*
X78990611Y-65295313D01*
X78986715Y-65290536D01*
X78979770Y-65284790D01*
X78831518Y-65162145D01*
X78831519Y-65162145D01*
X78826770Y-65158217D01*
X78821353Y-65155288D01*
X78821350Y-65155286D01*
X78649590Y-65062416D01*
X78649585Y-65062414D01*
X78644170Y-65059486D01*
X78445871Y-64998102D01*
X78439746Y-64997458D01*
X78439745Y-64997458D01*
X78245554Y-64977048D01*
X78245552Y-64977048D01*
X78239425Y-64976404D01*
X78153515Y-64984223D01*
X78038836Y-64994659D01*
X78038833Y-64994660D01*
X78032697Y-64995218D01*
X78026791Y-64996956D01*
X78026787Y-64996957D01*
X77888491Y-65037660D01*
X77833560Y-65053827D01*
X77649600Y-65149999D01*
X77487823Y-65280071D01*
X77483865Y-65284788D01*
X77483863Y-65284790D01*
X77398520Y-65386498D01*
X77354391Y-65439089D01*
X77351427Y-65444481D01*
X77351424Y-65444485D01*
X77301345Y-65535579D01*
X77254387Y-65620995D01*
X77191621Y-65818861D01*
X77168482Y-66025150D01*
X77185852Y-66232004D01*
X77243069Y-66431545D01*
X77245887Y-66437027D01*
X77245888Y-66437031D01*
X77316880Y-66575165D01*
X77337955Y-66616173D01*
X77341786Y-66621007D01*
X77341787Y-66621008D01*
X77369169Y-66655555D01*
X77466894Y-66778854D01*
X77471581Y-66782843D01*
X77471584Y-66782846D01*
X77573298Y-66869411D01*
X77624976Y-66913392D01*
X77806180Y-67014664D01*
X78003603Y-67078810D01*
X78209725Y-67103389D01*
X78215860Y-67102917D01*
X78215862Y-67102917D01*
X78410555Y-67087936D01*
X78410560Y-67087935D01*
X78416696Y-67087463D01*
X78422626Y-67085807D01*
X78422628Y-67085807D01*
X78516664Y-67059551D01*
X78616632Y-67031640D01*
X78666294Y-67006554D01*
X78796416Y-66940825D01*
X78796418Y-66940824D01*
X78801917Y-66938046D01*
X78965495Y-66810245D01*
X78969521Y-66805580D01*
X78969527Y-66805575D01*
X79045835Y-66717170D01*
X79105488Y-66678672D01*
X79141217Y-66673500D01*
X83487233Y-66673500D01*
X83498416Y-66674027D01*
X83505909Y-66675702D01*
X83513835Y-66675453D01*
X83513836Y-66675453D01*
X83573986Y-66673562D01*
X83577945Y-66673500D01*
X83605856Y-66673500D01*
X83609791Y-66673003D01*
X83609856Y-66672995D01*
X83621693Y-66672062D01*
X83653951Y-66671048D01*
X83657970Y-66670922D01*
X83665889Y-66670673D01*
X83685343Y-66665021D01*
X83704700Y-66661013D01*
X83716930Y-66659468D01*
X83716931Y-66659468D01*
X83724797Y-66658474D01*
X83732168Y-66655555D01*
X83732170Y-66655555D01*
X83765912Y-66642196D01*
X83777142Y-66638351D01*
X83811983Y-66628229D01*
X83811984Y-66628229D01*
X83819593Y-66626018D01*
X83826412Y-66621985D01*
X83826417Y-66621983D01*
X83837028Y-66615707D01*
X83854776Y-66607012D01*
X83873617Y-66599552D01*
X83909387Y-66573564D01*
X83919307Y-66567048D01*
X83950535Y-66548580D01*
X83950538Y-66548578D01*
X83957362Y-66544542D01*
X83971683Y-66530221D01*
X83986717Y-66517380D01*
X83996694Y-66510131D01*
X84003107Y-66505472D01*
X84008157Y-66499368D01*
X84008162Y-66499363D01*
X84031293Y-66471402D01*
X84039283Y-66462621D01*
X84974258Y-65527647D01*
X84982537Y-65520113D01*
X84989018Y-65516000D01*
X85035644Y-65466348D01*
X85038398Y-65463507D01*
X85058135Y-65443770D01*
X85060615Y-65440573D01*
X85068320Y-65431551D01*
X85098586Y-65399321D01*
X85102405Y-65392375D01*
X85102407Y-65392372D01*
X85108348Y-65381566D01*
X85119199Y-65365047D01*
X85126758Y-65355301D01*
X85131614Y-65349041D01*
X85134759Y-65341772D01*
X85134762Y-65341768D01*
X85149174Y-65308463D01*
X85154391Y-65297813D01*
X85175695Y-65259060D01*
X85180733Y-65239437D01*
X85187137Y-65220734D01*
X85192033Y-65209420D01*
X85192033Y-65209419D01*
X85195181Y-65202145D01*
X85196420Y-65194322D01*
X85196423Y-65194312D01*
X85202099Y-65158476D01*
X85204505Y-65146856D01*
X85213528Y-65111711D01*
X85213528Y-65111710D01*
X85215500Y-65104030D01*
X85215500Y-65083776D01*
X85217051Y-65064065D01*
X85218980Y-65051886D01*
X85220220Y-65044057D01*
X85219298Y-65034298D01*
X85216059Y-65000039D01*
X85215500Y-64988181D01*
X85215500Y-62170524D01*
X85235502Y-62102403D01*
X85247858Y-62086221D01*
X85321040Y-62004944D01*
X85405852Y-61858046D01*
X85413223Y-61845279D01*
X85413224Y-61845278D01*
X85416527Y-61839556D01*
X85475542Y-61657928D01*
X85477782Y-61636622D01*
X85494814Y-61474565D01*
X85495504Y-61468000D01*
X85483264Y-61351545D01*
X85476232Y-61284635D01*
X85476232Y-61284633D01*
X85475542Y-61278072D01*
X85416527Y-61096444D01*
X85321040Y-60931056D01*
X85193253Y-60789134D01*
X85038752Y-60676882D01*
X85032724Y-60674198D01*
X85032722Y-60674197D01*
X84870319Y-60601891D01*
X84870318Y-60601891D01*
X84864288Y-60599206D01*
X84770887Y-60579353D01*
X84683944Y-60560872D01*
X84683939Y-60560872D01*
X84677487Y-60559500D01*
X84486513Y-60559500D01*
X84480061Y-60560872D01*
X84480056Y-60560872D01*
X84347553Y-60589037D01*
X84276762Y-60583635D01*
X84220130Y-60540818D01*
X84195636Y-60474181D01*
X84211057Y-60404879D01*
X84240787Y-60368916D01*
X84386008Y-60248137D01*
X84390446Y-60244446D01*
X84529532Y-60077213D01*
X84620567Y-59914659D01*
X84632989Y-59892478D01*
X84632990Y-59892476D01*
X84635813Y-59887435D01*
X84637669Y-59881968D01*
X84637671Y-59881963D01*
X84703874Y-59686935D01*
X84703875Y-59686930D01*
X84705730Y-59681466D01*
X84736941Y-59466205D01*
X84738570Y-59404000D01*
X84718667Y-59187400D01*
X84659626Y-58978055D01*
X84586707Y-58830190D01*
X84565978Y-58788155D01*
X84563423Y-58782974D01*
X84507187Y-58707664D01*
X84436733Y-58613315D01*
X84436732Y-58613314D01*
X84433280Y-58608691D01*
X84417032Y-58593671D01*
X84311078Y-58495729D01*
X84274633Y-58434800D01*
X84276914Y-58363840D01*
X84316038Y-58306330D01*
X84386008Y-58248137D01*
X84390446Y-58244446D01*
X84529532Y-58077213D01*
X84606956Y-57938963D01*
X84632989Y-57892478D01*
X84632990Y-57892476D01*
X84635813Y-57887435D01*
X84637669Y-57881968D01*
X84637671Y-57881963D01*
X84703874Y-57686935D01*
X84703875Y-57686930D01*
X84705730Y-57681466D01*
X84736941Y-57466205D01*
X84738570Y-57404000D01*
X84718667Y-57187400D01*
X84659626Y-56978055D01*
X84563423Y-56782974D01*
X84555824Y-56772797D01*
X84484465Y-56677236D01*
X84459733Y-56610686D01*
X84474907Y-56541330D01*
X84509858Y-56501021D01*
X84581080Y-56447643D01*
X84581081Y-56447642D01*
X84588261Y-56442261D01*
X84675615Y-56325705D01*
X84726745Y-56189316D01*
X84733500Y-56127134D01*
X84733500Y-54680866D01*
X84726745Y-54618684D01*
X84675615Y-54482295D01*
X84588261Y-54365739D01*
X84471705Y-54278385D01*
X84335316Y-54227255D01*
X84273134Y-54220500D01*
X82826866Y-54220500D01*
X82764684Y-54227255D01*
X82628295Y-54278385D01*
X82511739Y-54365739D01*
X82456479Y-54439473D01*
X82455538Y-54440728D01*
X82398679Y-54483243D01*
X82327860Y-54488269D01*
X82278012Y-54465129D01*
X82277795Y-54464963D01*
X82273556Y-54461044D01*
X82089599Y-54344976D01*
X81887572Y-54264376D01*
X81674239Y-54221941D01*
X81668464Y-54221865D01*
X81668460Y-54221865D01*
X81559419Y-54220438D01*
X81456746Y-54219094D01*
X81451049Y-54220073D01*
X81451048Y-54220073D01*
X81248065Y-54254952D01*
X81248062Y-54254953D01*
X81242375Y-54255930D01*
X81038307Y-54331214D01*
X80851376Y-54442427D01*
X80687842Y-54585842D01*
X80684270Y-54590373D01*
X80580104Y-54722506D01*
X80522222Y-54763619D01*
X80481154Y-54770500D01*
X80159095Y-54770500D01*
X80090974Y-54750498D01*
X80070000Y-54733595D01*
X80060152Y-54723747D01*
X80052612Y-54715461D01*
X80048500Y-54708982D01*
X79998847Y-54662355D01*
X79996006Y-54659601D01*
X79976270Y-54639865D01*
X79973073Y-54637385D01*
X79964051Y-54629680D01*
X79959900Y-54625782D01*
X79931821Y-54599414D01*
X79924875Y-54595595D01*
X79924872Y-54595593D01*
X79914066Y-54589652D01*
X79897547Y-54578801D01*
X79897083Y-54578441D01*
X79881541Y-54566386D01*
X79874272Y-54563241D01*
X79874268Y-54563238D01*
X79840963Y-54548826D01*
X79830313Y-54543609D01*
X79791560Y-54522305D01*
X79771937Y-54517267D01*
X79753234Y-54510863D01*
X79741920Y-54505967D01*
X79741919Y-54505967D01*
X79734645Y-54502819D01*
X79726822Y-54501580D01*
X79726812Y-54501577D01*
X79690976Y-54495901D01*
X79679356Y-54493495D01*
X79644211Y-54484472D01*
X79644210Y-54484472D01*
X79636530Y-54482500D01*
X79616276Y-54482500D01*
X79596565Y-54480949D01*
X79584386Y-54479020D01*
X79576557Y-54477780D01*
X79547286Y-54480547D01*
X79532539Y-54481941D01*
X79520681Y-54482500D01*
X78619267Y-54482500D01*
X78608084Y-54481973D01*
X78600591Y-54480298D01*
X78592665Y-54480547D01*
X78592664Y-54480547D01*
X78532514Y-54482438D01*
X78528555Y-54482500D01*
X78500644Y-54482500D01*
X78496710Y-54482997D01*
X78496709Y-54482997D01*
X78496644Y-54483005D01*
X78484807Y-54483938D01*
X78452990Y-54484938D01*
X78448529Y-54485078D01*
X78440610Y-54485327D01*
X78423754Y-54490224D01*
X78421158Y-54490978D01*
X78401806Y-54494986D01*
X78394735Y-54495880D01*
X78381703Y-54497526D01*
X78374334Y-54500443D01*
X78374332Y-54500444D01*
X78340597Y-54513800D01*
X78329369Y-54517645D01*
X78286907Y-54529982D01*
X78280085Y-54534016D01*
X78280079Y-54534019D01*
X78269468Y-54540294D01*
X78251718Y-54548990D01*
X78240256Y-54553528D01*
X78240251Y-54553531D01*
X78232883Y-54556448D01*
X78215470Y-54569099D01*
X78197125Y-54582427D01*
X78187207Y-54588943D01*
X78175963Y-54595593D01*
X78149137Y-54611458D01*
X78134813Y-54625782D01*
X78119781Y-54638621D01*
X78103393Y-54650528D01*
X78078295Y-54680866D01*
X78075212Y-54684593D01*
X78067222Y-54693373D01*
X76878247Y-55882348D01*
X76869961Y-55889888D01*
X76863482Y-55894000D01*
X76858057Y-55899777D01*
X76816857Y-55943651D01*
X76814102Y-55946493D01*
X76794365Y-55966230D01*
X76791885Y-55969427D01*
X76784182Y-55978447D01*
X76753914Y-56010679D01*
X76750095Y-56017625D01*
X76750093Y-56017628D01*
X76744152Y-56028434D01*
X76733301Y-56044953D01*
X76720886Y-56060959D01*
X76717741Y-56068228D01*
X76717738Y-56068232D01*
X76703326Y-56101537D01*
X76698109Y-56112187D01*
X76676805Y-56150940D01*
X76674834Y-56158615D01*
X76674834Y-56158616D01*
X76671767Y-56170562D01*
X76665363Y-56189266D01*
X76661021Y-56199301D01*
X76657319Y-56207855D01*
X76656080Y-56215678D01*
X76656077Y-56215688D01*
X76650401Y-56251524D01*
X76647995Y-56263144D01*
X76647445Y-56265286D01*
X76637000Y-56305970D01*
X76637000Y-56309333D01*
X76609432Y-56372549D01*
X76550373Y-56411952D01*
X76479387Y-56413171D01*
X76432489Y-56388767D01*
X76291518Y-56272145D01*
X76291519Y-56272145D01*
X76286770Y-56268217D01*
X76281353Y-56265288D01*
X76281350Y-56265286D01*
X76109590Y-56172416D01*
X76109585Y-56172414D01*
X76104170Y-56169486D01*
X75905871Y-56108102D01*
X75899746Y-56107458D01*
X75899745Y-56107458D01*
X75705554Y-56087048D01*
X75705552Y-56087048D01*
X75699425Y-56086404D01*
X75613515Y-56094223D01*
X75498836Y-56104659D01*
X75498833Y-56104660D01*
X75492697Y-56105218D01*
X75486791Y-56106956D01*
X75486787Y-56106957D01*
X75360930Y-56143999D01*
X75293560Y-56163827D01*
X75109600Y-56259999D01*
X74947823Y-56390071D01*
X74943865Y-56394788D01*
X74943863Y-56394790D01*
X74884812Y-56465165D01*
X74814391Y-56549089D01*
X74811427Y-56554481D01*
X74811424Y-56554485D01*
X74747895Y-56670044D01*
X74714387Y-56730995D01*
X74651621Y-56928861D01*
X74650935Y-56934978D01*
X74650934Y-56934982D01*
X74648726Y-56954671D01*
X74628482Y-57135150D01*
X74645852Y-57342004D01*
X74703069Y-57541545D01*
X74705887Y-57547027D01*
X74705888Y-57547031D01*
X74767342Y-57666607D01*
X74797955Y-57726173D01*
X74926894Y-57888854D01*
X74931581Y-57892843D01*
X74931584Y-57892846D01*
X75068345Y-58009238D01*
X75084976Y-58023392D01*
X75266180Y-58124664D01*
X75463603Y-58188810D01*
X75669725Y-58213389D01*
X75675860Y-58212917D01*
X75675862Y-58212917D01*
X75870555Y-58197936D01*
X75870560Y-58197935D01*
X75876696Y-58197463D01*
X75882626Y-58195807D01*
X75882628Y-58195807D01*
X76026267Y-58155702D01*
X76076632Y-58141640D01*
X76082132Y-58138862D01*
X76256416Y-58050825D01*
X76256418Y-58050824D01*
X76261917Y-58048046D01*
X76425495Y-57920245D01*
X76425845Y-57919840D01*
X76487237Y-57888242D01*
X76557908Y-57895038D01*
X76613686Y-57938963D01*
X76637000Y-58011981D01*
X76637000Y-58830190D01*
X76616998Y-58898311D01*
X76563342Y-58944804D01*
X76493068Y-58954908D01*
X76430684Y-58927274D01*
X76418986Y-58917596D01*
X76286770Y-58808217D01*
X76281353Y-58805288D01*
X76281350Y-58805286D01*
X76109590Y-58712416D01*
X76109585Y-58712414D01*
X76104170Y-58709486D01*
X75905871Y-58648102D01*
X75899746Y-58647458D01*
X75899745Y-58647458D01*
X75705554Y-58627048D01*
X75705552Y-58627048D01*
X75699425Y-58626404D01*
X75617784Y-58633834D01*
X75498836Y-58644659D01*
X75498833Y-58644660D01*
X75492697Y-58645218D01*
X75486791Y-58646956D01*
X75486787Y-58646957D01*
X75338932Y-58690473D01*
X75293560Y-58703827D01*
X75109600Y-58799999D01*
X74947823Y-58930071D01*
X74943865Y-58934788D01*
X74943863Y-58934790D01*
X74884812Y-59005165D01*
X74814391Y-59089089D01*
X74811427Y-59094481D01*
X74811424Y-59094485D01*
X74761345Y-59185579D01*
X74714387Y-59270995D01*
X74651621Y-59468861D01*
X74650935Y-59474978D01*
X74650934Y-59474982D01*
X74629484Y-59666219D01*
X74628482Y-59675150D01*
X57404500Y-59675150D01*
X57404500Y-57810000D01*
X64838884Y-57810000D01*
X64857314Y-58020655D01*
X64858738Y-58025968D01*
X64858738Y-58025970D01*
X64910604Y-58219534D01*
X64912044Y-58224910D01*
X64914366Y-58229891D01*
X64914367Y-58229892D01*
X64988096Y-58388003D01*
X65001411Y-58416558D01*
X65122699Y-58589776D01*
X65272224Y-58739301D01*
X65445442Y-58860589D01*
X65450420Y-58862910D01*
X65450423Y-58862912D01*
X65632108Y-58947633D01*
X65637090Y-58949956D01*
X65642398Y-58951378D01*
X65642400Y-58951379D01*
X65836030Y-59003262D01*
X65836032Y-59003262D01*
X65841345Y-59004686D01*
X66052000Y-59023116D01*
X66262655Y-59004686D01*
X66267968Y-59003262D01*
X66267970Y-59003262D01*
X66461600Y-58951379D01*
X66461602Y-58951378D01*
X66466910Y-58949956D01*
X66471892Y-58947633D01*
X66653577Y-58862912D01*
X66653580Y-58862910D01*
X66658558Y-58860589D01*
X66831776Y-58739301D01*
X66981301Y-58589776D01*
X67102589Y-58416558D01*
X67115905Y-58388003D01*
X67189633Y-58229892D01*
X67189634Y-58229891D01*
X67191956Y-58224910D01*
X67193397Y-58219534D01*
X67245262Y-58025970D01*
X67245262Y-58025968D01*
X67246686Y-58020655D01*
X67265116Y-57810000D01*
X67264307Y-57800753D01*
X67250953Y-57648111D01*
X67264942Y-57578507D01*
X67314342Y-57527514D01*
X67383468Y-57511324D01*
X67450373Y-57535077D01*
X67473559Y-57556815D01*
X67507235Y-57597523D01*
X67507242Y-57597530D01*
X67509767Y-57600582D01*
X67739860Y-57816654D01*
X67743062Y-57818981D01*
X67743064Y-57818982D01*
X67767653Y-57836847D01*
X67995221Y-58002184D01*
X67998690Y-58004091D01*
X67998693Y-58004093D01*
X68243836Y-58138862D01*
X68271821Y-58154247D01*
X68275490Y-58155700D01*
X68275495Y-58155702D01*
X68561628Y-58268990D01*
X68565298Y-58270443D01*
X68871025Y-58348940D01*
X69184179Y-58388500D01*
X69499821Y-58388500D01*
X69812975Y-58348940D01*
X70118702Y-58270443D01*
X70122372Y-58268990D01*
X70408505Y-58155702D01*
X70408510Y-58155700D01*
X70412179Y-58154247D01*
X70440164Y-58138862D01*
X70685307Y-58004093D01*
X70685310Y-58004091D01*
X70688779Y-58002184D01*
X70916347Y-57836847D01*
X70940936Y-57818982D01*
X70940938Y-57818981D01*
X70944140Y-57816654D01*
X71174233Y-57600582D01*
X71187815Y-57584165D01*
X71336860Y-57404000D01*
X71375432Y-57357375D01*
X71544562Y-57090869D01*
X71546246Y-57087290D01*
X71546250Y-57087283D01*
X71677267Y-56808856D01*
X71677269Y-56808852D01*
X71678956Y-56805266D01*
X71776495Y-56505072D01*
X71835641Y-56195020D01*
X71855460Y-55880000D01*
X71835641Y-55564980D01*
X71776495Y-55254928D01*
X71678956Y-54954734D01*
X71634566Y-54860400D01*
X71546250Y-54672717D01*
X71546246Y-54672710D01*
X71544562Y-54669131D01*
X71540263Y-54662356D01*
X71511519Y-54617064D01*
X71375432Y-54402625D01*
X71223664Y-54219170D01*
X71176758Y-54162470D01*
X71176757Y-54162469D01*
X71174233Y-54159418D01*
X71162261Y-54148175D01*
X71080190Y-54071106D01*
X70944140Y-53943346D01*
X70688779Y-53757816D01*
X70641024Y-53731562D01*
X70415648Y-53607660D01*
X70415647Y-53607659D01*
X70412179Y-53605753D01*
X70408510Y-53604300D01*
X70408505Y-53604298D01*
X70122372Y-53491010D01*
X70122371Y-53491010D01*
X70118702Y-53489557D01*
X69812975Y-53411060D01*
X69499821Y-53371500D01*
X69184179Y-53371500D01*
X68871025Y-53411060D01*
X68565298Y-53489557D01*
X68561629Y-53491010D01*
X68561628Y-53491010D01*
X68275495Y-53604298D01*
X68275490Y-53604300D01*
X68271821Y-53605753D01*
X68268353Y-53607659D01*
X68268352Y-53607660D01*
X68042977Y-53731562D01*
X67995221Y-53757816D01*
X67739860Y-53943346D01*
X67603810Y-54071106D01*
X67521740Y-54148175D01*
X67509767Y-54159418D01*
X67507243Y-54162469D01*
X67507242Y-54162470D01*
X67460336Y-54219170D01*
X67308568Y-54402625D01*
X67172481Y-54617064D01*
X67143738Y-54662356D01*
X67139438Y-54669131D01*
X67137754Y-54672710D01*
X67137750Y-54672717D01*
X67049434Y-54860400D01*
X67005044Y-54954734D01*
X66907505Y-55254928D01*
X66848359Y-55564980D01*
X66828540Y-55880000D01*
X66848359Y-56195020D01*
X66907505Y-56505072D01*
X66908732Y-56508848D01*
X66971435Y-56701829D01*
X66973462Y-56772797D01*
X66936800Y-56833594D01*
X66873088Y-56864920D01*
X66802554Y-56856827D01*
X66779339Y-56843983D01*
X66658558Y-56759411D01*
X66653580Y-56757090D01*
X66653577Y-56757088D01*
X66471892Y-56672367D01*
X66471891Y-56672366D01*
X66466910Y-56670044D01*
X66461602Y-56668622D01*
X66461600Y-56668621D01*
X66267970Y-56616738D01*
X66267968Y-56616738D01*
X66262655Y-56615314D01*
X66052000Y-56596884D01*
X65841345Y-56615314D01*
X65836032Y-56616738D01*
X65836030Y-56616738D01*
X65642400Y-56668621D01*
X65642398Y-56668622D01*
X65637090Y-56670044D01*
X65632109Y-56672366D01*
X65632108Y-56672367D01*
X65450423Y-56757088D01*
X65450420Y-56757090D01*
X65445442Y-56759411D01*
X65272224Y-56880699D01*
X65122699Y-57030224D01*
X65001411Y-57203442D01*
X64999090Y-57208420D01*
X64999088Y-57208423D01*
X64919709Y-57378653D01*
X64912044Y-57395090D01*
X64910622Y-57400398D01*
X64910621Y-57400400D01*
X64861381Y-57584165D01*
X64857314Y-57599345D01*
X64838884Y-57810000D01*
X57404500Y-57810000D01*
X57404500Y-55270000D01*
X63048884Y-55270000D01*
X63067314Y-55480655D01*
X63122044Y-55684910D01*
X63124366Y-55689891D01*
X63124367Y-55689892D01*
X63202598Y-55857658D01*
X63211411Y-55876558D01*
X63332699Y-56049776D01*
X63482224Y-56199301D01*
X63655442Y-56320589D01*
X63660420Y-56322910D01*
X63660423Y-56322912D01*
X63834152Y-56403923D01*
X63847090Y-56409956D01*
X63852398Y-56411378D01*
X63852400Y-56411379D01*
X64046030Y-56463262D01*
X64046032Y-56463262D01*
X64051345Y-56464686D01*
X64262000Y-56483116D01*
X64472655Y-56464686D01*
X64477968Y-56463262D01*
X64477970Y-56463262D01*
X64671600Y-56411379D01*
X64671602Y-56411378D01*
X64676910Y-56409956D01*
X64689848Y-56403923D01*
X64863577Y-56322912D01*
X64863580Y-56322910D01*
X64868558Y-56320589D01*
X65041776Y-56199301D01*
X65191301Y-56049776D01*
X65312589Y-55876558D01*
X65321403Y-55857658D01*
X65399633Y-55689892D01*
X65399634Y-55689891D01*
X65401956Y-55684910D01*
X65456686Y-55480655D01*
X65475116Y-55270000D01*
X65456686Y-55059345D01*
X65401956Y-54855090D01*
X65362511Y-54770500D01*
X65314912Y-54668423D01*
X65314910Y-54668420D01*
X65312589Y-54663442D01*
X65191301Y-54490224D01*
X65041776Y-54340699D01*
X64868558Y-54219411D01*
X64863580Y-54217090D01*
X64863577Y-54217088D01*
X64681892Y-54132367D01*
X64681891Y-54132366D01*
X64676910Y-54130044D01*
X64671602Y-54128622D01*
X64671600Y-54128621D01*
X64477970Y-54076738D01*
X64477968Y-54076738D01*
X64472655Y-54075314D01*
X64262000Y-54056884D01*
X64051345Y-54075314D01*
X64046032Y-54076738D01*
X64046030Y-54076738D01*
X63852400Y-54128621D01*
X63852398Y-54128622D01*
X63847090Y-54130044D01*
X63842109Y-54132366D01*
X63842108Y-54132367D01*
X63660423Y-54217088D01*
X63660420Y-54217090D01*
X63655442Y-54219411D01*
X63482224Y-54340699D01*
X63332699Y-54490224D01*
X63211411Y-54663442D01*
X63209090Y-54668420D01*
X63209088Y-54668423D01*
X63161489Y-54770500D01*
X63122044Y-54855090D01*
X63067314Y-55059345D01*
X63048884Y-55270000D01*
X57404500Y-55270000D01*
X57404500Y-54409250D01*
X57406246Y-54388345D01*
X57408770Y-54373344D01*
X57408770Y-54373341D01*
X57409576Y-54368552D01*
X57409729Y-54356000D01*
X57409039Y-54351179D01*
X57408157Y-54345019D01*
X57407206Y-54318172D01*
X57419364Y-54148175D01*
X57421922Y-54130380D01*
X57464298Y-53935580D01*
X57469360Y-53918339D01*
X57539032Y-53731545D01*
X57546493Y-53715210D01*
X57642033Y-53540242D01*
X57651752Y-53525118D01*
X57771218Y-53365531D01*
X57782991Y-53351945D01*
X57923945Y-53210991D01*
X57937531Y-53199218D01*
X58097118Y-53079752D01*
X58112242Y-53070033D01*
X58287210Y-52974493D01*
X58303545Y-52967032D01*
X58490339Y-52897360D01*
X58507580Y-52892298D01*
X58702380Y-52849922D01*
X58720174Y-52847364D01*
X58886601Y-52835461D01*
X58904561Y-52836207D01*
X58912846Y-52836308D01*
X58921724Y-52837691D01*
X58953286Y-52833564D01*
X58969621Y-52832500D01*
X138888633Y-52832500D01*
X138908018Y-52834000D01*
G37*
G04 #@! TD.AperFunction*
M02*
