G04 #@! TF.GenerationSoftware,KiCad,Pcbnew,(6.0.8)*
G04 #@! TF.CreationDate,2022-11-19T15:58:00-06:00*
G04 #@! TF.ProjectId,BlackBox_Rev1,426c6163-6b42-46f7-985f-526576312e6b,rev?*
G04 #@! TF.SameCoordinates,Original*
G04 #@! TF.FileFunction,Soldermask,Top*
G04 #@! TF.FilePolarity,Negative*
%FSLAX46Y46*%
G04 Gerber Fmt 4.6, Leading zero omitted, Abs format (unit mm)*
G04 Created by KiCad (PCBNEW (6.0.8)) date 2022-11-19 15:58:00*
%MOMM*%
%LPD*%
G01*
G04 APERTURE LIST*
G04 Aperture macros list*
%AMRoundRect*
0 Rectangle with rounded corners*
0 $1 Rounding radius*
0 $2 $3 $4 $5 $6 $7 $8 $9 X,Y pos of 4 corners*
0 Add a 4 corners polygon primitive as box body*
4,1,4,$2,$3,$4,$5,$6,$7,$8,$9,$2,$3,0*
0 Add four circle primitives for the rounded corners*
1,1,$1+$1,$2,$3*
1,1,$1+$1,$4,$5*
1,1,$1+$1,$6,$7*
1,1,$1+$1,$8,$9*
0 Add four rect primitives between the rounded corners*
20,1,$1+$1,$2,$3,$4,$5,0*
20,1,$1+$1,$4,$5,$6,$7,0*
20,1,$1+$1,$6,$7,$8,$9,0*
20,1,$1+$1,$8,$9,$2,$3,0*%
G04 Aperture macros list end*
%ADD10RoundRect,0.237500X-0.287500X-0.237500X0.287500X-0.237500X0.287500X0.237500X-0.287500X0.237500X0*%
%ADD11RoundRect,0.237500X-0.250000X-0.237500X0.250000X-0.237500X0.250000X0.237500X-0.250000X0.237500X0*%
%ADD12R,1.600000X1.400000*%
%ADD13O,3.000000X5.100000*%
%ADD14RoundRect,0.237500X0.300000X0.237500X-0.300000X0.237500X-0.300000X-0.237500X0.300000X-0.237500X0*%
%ADD15C,1.100000*%
%ADD16C,1.400000*%
%ADD17C,4.000000*%
%ADD18C,2.000000*%
%ADD19R,1.358000X1.358000*%
%ADD20C,1.358000*%
%ADD21RoundRect,0.237500X0.250000X0.237500X-0.250000X0.237500X-0.250000X-0.237500X0.250000X-0.237500X0*%
%ADD22C,1.200000*%
%ADD23C,1.308000*%
%ADD24C,1.258000*%
%ADD25C,1.208000*%
%ADD26R,1.350000X1.350000*%
%ADD27O,1.350000X1.350000*%
%ADD28R,6.350000X2.540000*%
%ADD29C,10.160000*%
G04 APERTURE END LIST*
D10*
X59614500Y-103378000D03*
X61364500Y-103378000D03*
D11*
X130302000Y-100228400D03*
X132127000Y-100228400D03*
X64365500Y-103378000D03*
X66190500Y-103378000D03*
D12*
X127762000Y-96726000D03*
X120562000Y-96726000D03*
X120562000Y-93726000D03*
X127762000Y-93726000D03*
D13*
X71120000Y-76454000D03*
X71120000Y-84328000D03*
D14*
X83112500Y-67816000D03*
X81387500Y-67816000D03*
D15*
X75692000Y-57150000D03*
X78232000Y-58420000D03*
X75692000Y-59690000D03*
X78232000Y-60960000D03*
X75692000Y-62230000D03*
X78232000Y-63500000D03*
X75692000Y-64770000D03*
X78232000Y-66040000D03*
D16*
X64262000Y-55270000D03*
X66052000Y-57810000D03*
X64262000Y-65380000D03*
X66052000Y-67920000D03*
D17*
X69342000Y-55880000D03*
X69342000Y-67310000D03*
D18*
X72392000Y-53720000D03*
X72392000Y-69470000D03*
D10*
X59614500Y-94996000D03*
X61364500Y-94996000D03*
D19*
X71120000Y-94996000D03*
D20*
X71120000Y-97536000D03*
X71120000Y-100076000D03*
D11*
X64365500Y-94996000D03*
X66190500Y-94996000D03*
D21*
X127762000Y-100330000D03*
X125937000Y-100330000D03*
D12*
X137502000Y-96726000D03*
X130302000Y-96726000D03*
X137502000Y-93726000D03*
X130302000Y-93726000D03*
D22*
X89535000Y-102870000D03*
X91757500Y-102870000D03*
X93980000Y-102870000D03*
X96202500Y-102870000D03*
X98425000Y-102870000D03*
X100647500Y-102870000D03*
X102870000Y-102870000D03*
X105092500Y-102870000D03*
X105092500Y-92710000D03*
X102870000Y-92710000D03*
X100647500Y-92710000D03*
X98425000Y-92710000D03*
X96202500Y-92710000D03*
X93980000Y-92710000D03*
X91757500Y-92710000D03*
X89535000Y-92710000D03*
D23*
X81280000Y-88900000D03*
X83820000Y-88900000D03*
X86360000Y-88900000D03*
X88900000Y-88900000D03*
X114300000Y-88900000D03*
X83820000Y-73660000D03*
X124460000Y-83820000D03*
X91440000Y-88900000D03*
X93980000Y-88900000D03*
D24*
X85090000Y-85850000D03*
D23*
X96520000Y-88900000D03*
X99060000Y-88900000D03*
X101600000Y-88900000D03*
X104140000Y-88900000D03*
X106680000Y-88900000D03*
X109220000Y-88900000D03*
X111760000Y-88900000D03*
X111760000Y-73660000D03*
X109220000Y-73660000D03*
X106680000Y-73660000D03*
X104140000Y-73660000D03*
X101600000Y-73660000D03*
X99060000Y-73660000D03*
X96520000Y-73660000D03*
X93980000Y-73660000D03*
X91440000Y-73660000D03*
X88900000Y-73660000D03*
X86360000Y-73660000D03*
X116840000Y-88900000D03*
X119380000Y-88900000D03*
X121920000Y-88900000D03*
X124460000Y-88900000D03*
X127000000Y-88900000D03*
X129540000Y-88900000D03*
X132080000Y-88900000D03*
X134620000Y-88900000D03*
X137160000Y-88900000D03*
X137160000Y-73660000D03*
X134620000Y-73660000D03*
X132080000Y-73660000D03*
X129540000Y-73660000D03*
X127000000Y-73660000D03*
X124460000Y-73660000D03*
X121920000Y-73660000D03*
X119380000Y-73660000D03*
X116840000Y-73660000D03*
D24*
X90170000Y-85850000D03*
X87630000Y-85850000D03*
D23*
X78740000Y-88900000D03*
X114300000Y-73660000D03*
X81280000Y-73660000D03*
X124460000Y-81280000D03*
D25*
X93710000Y-78110000D03*
X91710000Y-78110000D03*
D23*
X124460000Y-76200000D03*
X124460000Y-78740000D03*
D25*
X91710000Y-76110000D03*
X93710000Y-76110000D03*
X93710000Y-80110000D03*
X91710000Y-80110000D03*
D24*
X92710000Y-85850000D03*
X95250000Y-85850000D03*
D23*
X124460000Y-86360000D03*
X78740000Y-73660000D03*
X81280000Y-76200000D03*
D26*
X83550000Y-55404000D03*
D27*
X81550000Y-55404000D03*
X83550000Y-57404000D03*
X81550000Y-57404000D03*
X83550000Y-59404000D03*
X81550000Y-59404000D03*
D28*
X129540000Y-54864000D03*
X129540000Y-70104000D03*
D29*
X129540000Y-62484000D03*
M02*
