M48
; DRILL file {KiCad (6.0.8)} date Sat Nov 19 15:58:05 2022
; FORMAT={-:-/ absolute / metric / decimal}
; #@! TF.CreationDate,2022-11-19T15:58:05-06:00
; #@! TF.GenerationSoftware,Kicad,Pcbnew,(6.0.8)
; #@! TF.FileFunction,Plated,1,2,PTH
FMAT,2
METRIC
; #@! TA.AperFunction,Plated,PTH,ViaDrill
T1C0.400
; #@! TA.AperFunction,Plated,PTH,ComponentDrill
T2C0.600
; #@! TA.AperFunction,Plated,PTH,ComponentDrill
T3C0.700
; #@! TA.AperFunction,Plated,PTH,ComponentDrill
T4C0.750
; #@! TA.AperFunction,Plated,PTH,ComponentDrill
T5C0.800
; #@! TA.AperFunction,Plated,PTH,ComponentDrill
T6C0.850
; #@! TA.AperFunction,Plated,PTH,ComponentDrill
T7C0.900
; #@! TA.AperFunction,Plated,PTH,ComponentDrill
T8C1.020
; #@! TA.AperFunction,Plated,PTH,ComponentDrill
T9C1.600
; #@! TA.AperFunction,Plated,PTH,ComponentDrill
T10C2.000
; #@! TA.AperFunction,Plated,PTH,ComponentDrill
T11C3.250
%
G90
G05
T1
X58.166Y-94.996
X58.166Y-103.378
X69.423Y-61.085
X73.106Y-63.879
X73.233Y-59.815
X84.582Y-61.468
T2
X89.535Y-92.71
X89.535Y-102.87
X91.757Y-92.71
X91.757Y-102.87
X93.98Y-92.71
X93.98Y-102.87
X96.203Y-92.71
X96.203Y-102.87
X98.425Y-92.71
X98.425Y-102.87
X100.647Y-92.71
X100.647Y-102.87
X102.87Y-92.71
X102.87Y-102.87
X105.093Y-92.71
X105.093Y-102.87
T3
X91.71Y-76.11
X91.71Y-78.11
X91.71Y-80.11
X93.71Y-76.11
X93.71Y-78.11
X93.71Y-80.11
T4
X85.09Y-85.85
X87.63Y-85.85
X90.17Y-85.85
X92.71Y-85.85
X95.25Y-85.85
T5
X78.74Y-73.66
X78.74Y-88.9
X81.28Y-73.66
X81.28Y-76.2
X81.28Y-88.9
X81.55Y-55.404
X81.55Y-57.404
X81.55Y-59.404
X83.55Y-55.404
X83.55Y-57.404
X83.55Y-59.404
X83.82Y-73.66
X83.82Y-88.9
X86.36Y-73.66
X86.36Y-88.9
X88.9Y-73.66
X88.9Y-88.9
X91.44Y-73.66
X91.44Y-88.9
X93.98Y-73.66
X93.98Y-88.9
X96.52Y-73.66
X96.52Y-88.9
X99.06Y-73.66
X99.06Y-88.9
X101.6Y-73.66
X101.6Y-88.9
X104.14Y-73.66
X104.14Y-88.9
X106.68Y-73.66
X106.68Y-88.9
X109.22Y-73.66
X109.22Y-88.9
X111.76Y-73.66
X111.76Y-88.9
X114.3Y-73.66
X114.3Y-88.9
X116.84Y-73.66
X116.84Y-88.9
X119.38Y-73.66
X119.38Y-88.9
X121.92Y-73.66
X121.92Y-88.9
X124.46Y-73.66
X124.46Y-76.2
X124.46Y-78.74
X124.46Y-81.28
X124.46Y-83.82
X124.46Y-86.36
X124.46Y-88.9
X127.0Y-73.66
X127.0Y-88.9
X129.54Y-73.66
X129.54Y-88.9
X132.08Y-73.66
X132.08Y-88.9
X134.62Y-73.66
X134.62Y-88.9
X137.16Y-73.66
X137.16Y-88.9
T6
X71.12Y-94.996
X71.12Y-97.536
X71.12Y-100.076
T7
X75.692Y-57.15
X75.692Y-59.69
X75.692Y-62.23
X75.692Y-64.77
X78.232Y-58.42
X78.232Y-60.96
X78.232Y-63.5
X78.232Y-66.04
T8
X64.262Y-55.27
X64.262Y-65.38
X66.052Y-57.81
X66.052Y-67.92
T9
X72.392Y-53.72
X72.392Y-69.47
T11
X69.342Y-55.88
X69.342Y-67.31
T10
X71.12Y-75.404G85X71.12Y-77.504
G05
X71.12Y-83.278G85X71.12Y-85.378
G05
T0
M30
