G04 #@! TF.GenerationSoftware,KiCad,Pcbnew,(6.0.8)*
G04 #@! TF.CreationDate,2022-11-19T15:58:00-06:00*
G04 #@! TF.ProjectId,BlackBox_Rev1,426c6163-6b42-46f7-985f-526576312e6b,rev?*
G04 #@! TF.SameCoordinates,Original*
G04 #@! TF.FileFunction,Legend,Bot*
G04 #@! TF.FilePolarity,Positive*
%FSLAX46Y46*%
G04 Gerber Fmt 4.6, Leading zero omitted, Abs format (unit mm)*
G04 Created by KiCad (PCBNEW (6.0.8)) date 2022-11-19 15:58:00*
%MOMM*%
%LPD*%
G01*
G04 APERTURE LIST*
G04 Aperture macros list*
%AMRoundRect*
0 Rectangle with rounded corners*
0 $1 Rounding radius*
0 $2 $3 $4 $5 $6 $7 $8 $9 X,Y pos of 4 corners*
0 Add a 4 corners polygon primitive as box body*
4,1,4,$2,$3,$4,$5,$6,$7,$8,$9,$2,$3,0*
0 Add four circle primitives for the rounded corners*
1,1,$1+$1,$2,$3*
1,1,$1+$1,$4,$5*
1,1,$1+$1,$6,$7*
1,1,$1+$1,$8,$9*
0 Add four rect primitives between the rounded corners*
20,1,$1+$1,$2,$3,$4,$5,0*
20,1,$1+$1,$4,$5,$6,$7,0*
20,1,$1+$1,$6,$7,$8,$9,0*
20,1,$1+$1,$8,$9,$2,$3,0*%
G04 Aperture macros list end*
%ADD10C,0.150000*%
%ADD11C,0.120000*%
%ADD12O,3.000000X5.100000*%
%ADD13C,1.100000*%
%ADD14C,1.400000*%
%ADD15C,4.000000*%
%ADD16C,2.000000*%
%ADD17R,1.358000X1.358000*%
%ADD18C,1.358000*%
%ADD19C,1.200000*%
%ADD20C,1.308000*%
%ADD21C,1.258000*%
%ADD22C,1.208000*%
%ADD23R,1.350000X1.350000*%
%ADD24O,1.350000X1.350000*%
%ADD25RoundRect,0.237500X0.237500X-0.250000X0.237500X0.250000X-0.237500X0.250000X-0.237500X-0.250000X0*%
G04 APERTURE END LIST*
D10*
X86769180Y-96249833D02*
X86292990Y-95916500D01*
X86769180Y-95678404D02*
X85769180Y-95678404D01*
X85769180Y-96059357D01*
X85816800Y-96154595D01*
X85864419Y-96202214D01*
X85959657Y-96249833D01*
X86102514Y-96249833D01*
X86197752Y-96202214D01*
X86245371Y-96154595D01*
X86292990Y-96059357D01*
X86292990Y-95678404D01*
X85769180Y-97154595D02*
X85769180Y-96678404D01*
X86245371Y-96630785D01*
X86197752Y-96678404D01*
X86150133Y-96773642D01*
X86150133Y-97011738D01*
X86197752Y-97106976D01*
X86245371Y-97154595D01*
X86340609Y-97202214D01*
X86578704Y-97202214D01*
X86673942Y-97154595D01*
X86721561Y-97106976D01*
X86769180Y-97011738D01*
X86769180Y-96773642D01*
X86721561Y-96678404D01*
X86673942Y-96630785D01*
X111102380Y-96353333D02*
X110626190Y-96020000D01*
X111102380Y-95781904D02*
X110102380Y-95781904D01*
X110102380Y-96162857D01*
X110150000Y-96258095D01*
X110197619Y-96305714D01*
X110292857Y-96353333D01*
X110435714Y-96353333D01*
X110530952Y-96305714D01*
X110578571Y-96258095D01*
X110626190Y-96162857D01*
X110626190Y-95781904D01*
X110530952Y-96924761D02*
X110483333Y-96829523D01*
X110435714Y-96781904D01*
X110340476Y-96734285D01*
X110292857Y-96734285D01*
X110197619Y-96781904D01*
X110150000Y-96829523D01*
X110102380Y-96924761D01*
X110102380Y-97115238D01*
X110150000Y-97210476D01*
X110197619Y-97258095D01*
X110292857Y-97305714D01*
X110340476Y-97305714D01*
X110435714Y-97258095D01*
X110483333Y-97210476D01*
X110530952Y-97115238D01*
X110530952Y-96924761D01*
X110578571Y-96829523D01*
X110626190Y-96781904D01*
X110721428Y-96734285D01*
X110911904Y-96734285D01*
X111007142Y-96781904D01*
X111054761Y-96829523D01*
X111102380Y-96924761D01*
X111102380Y-97115238D01*
X111054761Y-97210476D01*
X111007142Y-97258095D01*
X110911904Y-97305714D01*
X110721428Y-97305714D01*
X110626190Y-97258095D01*
X110578571Y-97210476D01*
X110530952Y-97115238D01*
X105760780Y-96456833D02*
X105284590Y-96123500D01*
X105760780Y-95885404D02*
X104760780Y-95885404D01*
X104760780Y-96266357D01*
X104808400Y-96361595D01*
X104856019Y-96409214D01*
X104951257Y-96456833D01*
X105094114Y-96456833D01*
X105189352Y-96409214D01*
X105236971Y-96361595D01*
X105284590Y-96266357D01*
X105284590Y-95885404D01*
X104760780Y-96790166D02*
X104760780Y-97456833D01*
X105760780Y-97028261D01*
X89512380Y-96402233D02*
X89036190Y-96068900D01*
X89512380Y-95830804D02*
X88512380Y-95830804D01*
X88512380Y-96211757D01*
X88560000Y-96306995D01*
X88607619Y-96354614D01*
X88702857Y-96402233D01*
X88845714Y-96402233D01*
X88940952Y-96354614D01*
X88988571Y-96306995D01*
X89036190Y-96211757D01*
X89036190Y-95830804D01*
X88512380Y-97259376D02*
X88512380Y-97068900D01*
X88560000Y-96973661D01*
X88607619Y-96926042D01*
X88750476Y-96830804D01*
X88940952Y-96783185D01*
X89321904Y-96783185D01*
X89417142Y-96830804D01*
X89464761Y-96878423D01*
X89512380Y-96973661D01*
X89512380Y-97164138D01*
X89464761Y-97259376D01*
X89417142Y-97306995D01*
X89321904Y-97354614D01*
X89083809Y-97354614D01*
X88988571Y-97306995D01*
X88940952Y-97259376D01*
X88893333Y-97164138D01*
X88893333Y-96973661D01*
X88940952Y-96878423D01*
X88988571Y-96830804D01*
X89083809Y-96783185D01*
D11*
X85409300Y-96671224D02*
X85409300Y-96161776D01*
X84364300Y-96671224D02*
X84364300Y-96161776D01*
X109742500Y-96774724D02*
X109742500Y-96265276D01*
X108697500Y-96774724D02*
X108697500Y-96265276D01*
X106157500Y-96774724D02*
X106157500Y-96265276D01*
X107202500Y-96774724D02*
X107202500Y-96265276D01*
X88152500Y-96823624D02*
X88152500Y-96314176D01*
X87107500Y-96823624D02*
X87107500Y-96314176D01*
%LPC*%
D12*
X71120000Y-76454000D03*
X71120000Y-84328000D03*
D13*
X75692000Y-57150000D03*
X78232000Y-58420000D03*
X75692000Y-59690000D03*
X78232000Y-60960000D03*
X75692000Y-62230000D03*
X78232000Y-63500000D03*
X75692000Y-64770000D03*
X78232000Y-66040000D03*
D14*
X64262000Y-55270000D03*
X66052000Y-57810000D03*
X64262000Y-65380000D03*
X66052000Y-67920000D03*
D15*
X69342000Y-55880000D03*
X69342000Y-67310000D03*
D16*
X72392000Y-53720000D03*
X72392000Y-69470000D03*
D17*
X71120000Y-94996000D03*
D18*
X71120000Y-97536000D03*
X71120000Y-100076000D03*
D19*
X89535000Y-102870000D03*
X91757500Y-102870000D03*
X93980000Y-102870000D03*
X96202500Y-102870000D03*
X98425000Y-102870000D03*
X100647500Y-102870000D03*
X102870000Y-102870000D03*
X105092500Y-102870000D03*
X105092500Y-92710000D03*
X102870000Y-92710000D03*
X100647500Y-92710000D03*
X98425000Y-92710000D03*
X96202500Y-92710000D03*
X93980000Y-92710000D03*
X91757500Y-92710000D03*
X89535000Y-92710000D03*
D20*
X81280000Y-88900000D03*
X83820000Y-88900000D03*
X86360000Y-88900000D03*
X88900000Y-88900000D03*
X114300000Y-88900000D03*
X83820000Y-73660000D03*
X124460000Y-83820000D03*
X91440000Y-88900000D03*
X93980000Y-88900000D03*
D21*
X85090000Y-85850000D03*
D20*
X96520000Y-88900000D03*
X99060000Y-88900000D03*
X101600000Y-88900000D03*
X104140000Y-88900000D03*
X106680000Y-88900000D03*
X109220000Y-88900000D03*
X111760000Y-88900000D03*
X111760000Y-73660000D03*
X109220000Y-73660000D03*
X106680000Y-73660000D03*
X104140000Y-73660000D03*
X101600000Y-73660000D03*
X99060000Y-73660000D03*
X96520000Y-73660000D03*
X93980000Y-73660000D03*
X91440000Y-73660000D03*
X88900000Y-73660000D03*
X86360000Y-73660000D03*
X116840000Y-88900000D03*
X119380000Y-88900000D03*
X121920000Y-88900000D03*
X124460000Y-88900000D03*
X127000000Y-88900000D03*
X129540000Y-88900000D03*
X132080000Y-88900000D03*
X134620000Y-88900000D03*
X137160000Y-88900000D03*
X137160000Y-73660000D03*
X134620000Y-73660000D03*
X132080000Y-73660000D03*
X129540000Y-73660000D03*
X127000000Y-73660000D03*
X124460000Y-73660000D03*
X121920000Y-73660000D03*
X119380000Y-73660000D03*
X116840000Y-73660000D03*
D21*
X90170000Y-85850000D03*
X87630000Y-85850000D03*
D20*
X78740000Y-88900000D03*
X114300000Y-73660000D03*
X81280000Y-73660000D03*
X124460000Y-81280000D03*
D22*
X93710000Y-78110000D03*
X91710000Y-78110000D03*
D20*
X124460000Y-76200000D03*
X124460000Y-78740000D03*
D22*
X91710000Y-76110000D03*
X93710000Y-76110000D03*
X93710000Y-80110000D03*
X91710000Y-80110000D03*
D21*
X92710000Y-85850000D03*
X95250000Y-85850000D03*
D20*
X124460000Y-86360000D03*
X78740000Y-73660000D03*
X81280000Y-76200000D03*
D23*
X83550000Y-55404000D03*
D24*
X81550000Y-55404000D03*
X83550000Y-57404000D03*
X81550000Y-57404000D03*
X83550000Y-59404000D03*
X81550000Y-59404000D03*
D25*
X84886800Y-97329000D03*
X84886800Y-95504000D03*
X109220000Y-97432500D03*
X109220000Y-95607500D03*
X106680000Y-97432500D03*
X106680000Y-95607500D03*
X87630000Y-97481400D03*
X87630000Y-95656400D03*
M02*
