M48
; DRILL file {KiCad (5.1.10)-1} date 11/21/21 15:32:59
; FORMAT={-:-/ absolute / inch / decimal}
; #@! TF.CreationDate,2021-11-21T15:32:59-06:00
; #@! TF.GenerationSoftware,Kicad,Pcbnew,(5.1.10)-1
; #@! TF.FileFunction,Plated,1,2,PTH
FMAT,2
INCH
T1C0.0157
T2C0.0276
T3C0.0295
T4C0.0315
T5C0.0350
T6C0.0354
T7C0.0402
T8C0.0630
T9C0.1280
T10C0.1598
%
G90
G05
T1
X1.05Y-0.362
X2.87Y-2.575
X4.345Y-2.185
T2
X3.9256Y-2.8011
X3.9256Y-2.8798
X3.9256Y-2.9585
X4.0044Y-2.8011
X4.0044Y-2.8798
X4.0044Y-2.9585
T3
X3.865Y-2.5751
X3.965Y-2.5751
X4.065Y-2.5751
X4.165Y-2.5751
X4.265Y-2.5751
T4
X2.215Y-2.455
X2.215Y-3.055
X2.315Y-2.455
X2.315Y-3.055
X2.415Y-2.455
X2.415Y-3.055
X2.515Y-2.455
X2.515Y-3.055
X2.615Y-2.455
X2.615Y-3.055
X2.715Y-2.455
X2.715Y-2.555
X2.715Y-2.655
X2.715Y-2.755
X2.715Y-2.855
X2.715Y-2.955
X2.715Y-3.055
X2.815Y-2.455
X2.815Y-3.055
X2.915Y-2.455
X2.915Y-3.055
X3.015Y-2.455
X3.015Y-3.055
X3.115Y-2.455
X3.115Y-3.055
X3.215Y-2.455
X3.215Y-3.055
X3.315Y-2.455
X3.315Y-3.055
X3.415Y-2.455
X3.415Y-3.055
X3.515Y-2.455
X3.515Y-3.055
X3.615Y-2.455
X3.615Y-3.055
X3.715Y-2.455
X3.715Y-3.055
X3.815Y-2.455
X3.815Y-3.055
X3.915Y-2.455
X3.915Y-3.055
X4.015Y-2.455
X4.015Y-3.055
X4.115Y-2.455
X4.115Y-3.055
X4.215Y-2.455
X4.215Y-3.055
X4.315Y-2.455
X4.315Y-3.055
X4.415Y-2.455
X4.415Y-2.955
X4.415Y-3.055
X4.515Y-2.455
X4.515Y-3.055
X4.5733Y-2.177
X4.5733Y-2.2557
X4.652Y-2.177
X4.652Y-2.2557
X4.7307Y-2.177
X4.7307Y-2.2557
T5
X3.715Y-1.385
X3.815Y-1.385
X3.915Y-1.385
T6
X4.3279Y-2.0568
X4.3779Y-1.9568
X4.4279Y-2.0568
X4.4779Y-1.9568
X4.5279Y-2.0568
X4.5779Y-1.9568
X4.6279Y-2.0568
X4.6779Y-1.9568
T7
X4.2539Y-1.5773
X4.3539Y-1.5068
X4.6519Y-1.5773
X4.7519Y-1.5068
T8
X4.1929Y-1.8269
X4.813Y-1.8269
T9
X4.2779Y-1.7068
X4.7279Y-1.7068
T10
X2.96Y-1.936
X3.27Y-1.936
T0
M30
