%TF.GenerationSoftware,KiCad,Pcbnew,(5.1.10)-1*%
%TF.CreationDate,2021-12-04T17:03:40-06:00*%
%TF.ProjectId,blackbox_rev1,626c6163-6b62-46f7-985f-726576312e6b,rev?*%
%TF.SameCoordinates,Original*%
%TF.FileFunction,Legend,Top*%
%TF.FilePolarity,Positive*%
%FSLAX46Y46*%
G04 Gerber Fmt 4.6, Leading zero omitted, Abs format (unit mm)*
G04 Created by KiCad (PCBNEW (5.1.10)-1) date 2021-12-04 17:03:40*
%MOMM*%
%LPD*%
G01*
G04 APERTURE LIST*
%ADD10C,0.150000*%
%ADD11C,0.127000*%
%ADD12C,0.200000*%
%ADD13C,0.120000*%
G04 APERTURE END LIST*
D10*
X61783214Y-81916785D02*
X61964642Y-81977261D01*
X62025119Y-82037738D01*
X62085595Y-82158690D01*
X62085595Y-82340119D01*
X62025119Y-82461071D01*
X61964642Y-82521547D01*
X61843690Y-82582023D01*
X61359880Y-82582023D01*
X61359880Y-81312023D01*
X61783214Y-81312023D01*
X61904166Y-81372500D01*
X61964642Y-81432976D01*
X62025119Y-81553928D01*
X62025119Y-81674880D01*
X61964642Y-81795833D01*
X61904166Y-81856309D01*
X61783214Y-81916785D01*
X61359880Y-81916785D01*
X62811309Y-82582023D02*
X62690357Y-82521547D01*
X62629880Y-82400595D01*
X62629880Y-81312023D01*
X63839404Y-82582023D02*
X63839404Y-81916785D01*
X63778928Y-81795833D01*
X63657976Y-81735357D01*
X63416071Y-81735357D01*
X63295119Y-81795833D01*
X63839404Y-82521547D02*
X63718452Y-82582023D01*
X63416071Y-82582023D01*
X63295119Y-82521547D01*
X63234642Y-82400595D01*
X63234642Y-82279642D01*
X63295119Y-82158690D01*
X63416071Y-82098214D01*
X63718452Y-82098214D01*
X63839404Y-82037738D01*
X64988452Y-82521547D02*
X64867500Y-82582023D01*
X64625595Y-82582023D01*
X64504642Y-82521547D01*
X64444166Y-82461071D01*
X64383690Y-82340119D01*
X64383690Y-81977261D01*
X64444166Y-81856309D01*
X64504642Y-81795833D01*
X64625595Y-81735357D01*
X64867500Y-81735357D01*
X64988452Y-81795833D01*
X65532738Y-82582023D02*
X65532738Y-81312023D01*
X65653690Y-82098214D02*
X66016547Y-82582023D01*
X66016547Y-81735357D02*
X65532738Y-82219166D01*
X66560833Y-82582023D02*
X66560833Y-81312023D01*
X66560833Y-81795833D02*
X66681785Y-81735357D01*
X66923690Y-81735357D01*
X67044642Y-81795833D01*
X67105119Y-81856309D01*
X67165595Y-81977261D01*
X67165595Y-82340119D01*
X67105119Y-82461071D01*
X67044642Y-82521547D01*
X66923690Y-82582023D01*
X66681785Y-82582023D01*
X66560833Y-82521547D01*
X67891309Y-82582023D02*
X67770357Y-82521547D01*
X67709880Y-82461071D01*
X67649404Y-82340119D01*
X67649404Y-81977261D01*
X67709880Y-81856309D01*
X67770357Y-81795833D01*
X67891309Y-81735357D01*
X68072738Y-81735357D01*
X68193690Y-81795833D01*
X68254166Y-81856309D01*
X68314642Y-81977261D01*
X68314642Y-82340119D01*
X68254166Y-82461071D01*
X68193690Y-82521547D01*
X68072738Y-82582023D01*
X67891309Y-82582023D01*
X68737976Y-82582023D02*
X69403214Y-81735357D01*
X68737976Y-81735357D02*
X69403214Y-82582023D01*
X71277976Y-81916785D02*
X71459404Y-81977261D01*
X71519880Y-82037738D01*
X71580357Y-82158690D01*
X71580357Y-82340119D01*
X71519880Y-82461071D01*
X71459404Y-82521547D01*
X71338452Y-82582023D01*
X70854642Y-82582023D01*
X70854642Y-81312023D01*
X71277976Y-81312023D01*
X71398928Y-81372500D01*
X71459404Y-81432976D01*
X71519880Y-81553928D01*
X71519880Y-81674880D01*
X71459404Y-81795833D01*
X71398928Y-81856309D01*
X71277976Y-81916785D01*
X70854642Y-81916785D01*
X72306071Y-82582023D02*
X72185119Y-82521547D01*
X72124642Y-82461071D01*
X72064166Y-82340119D01*
X72064166Y-81977261D01*
X72124642Y-81856309D01*
X72185119Y-81795833D01*
X72306071Y-81735357D01*
X72487500Y-81735357D01*
X72608452Y-81795833D01*
X72668928Y-81856309D01*
X72729404Y-81977261D01*
X72729404Y-82340119D01*
X72668928Y-82461071D01*
X72608452Y-82521547D01*
X72487500Y-82582023D01*
X72306071Y-82582023D01*
X73817976Y-82582023D02*
X73817976Y-81916785D01*
X73757500Y-81795833D01*
X73636547Y-81735357D01*
X73394642Y-81735357D01*
X73273690Y-81795833D01*
X73817976Y-82521547D02*
X73697023Y-82582023D01*
X73394642Y-82582023D01*
X73273690Y-82521547D01*
X73213214Y-82400595D01*
X73213214Y-82279642D01*
X73273690Y-82158690D01*
X73394642Y-82098214D01*
X73697023Y-82098214D01*
X73817976Y-82037738D01*
X74422738Y-82582023D02*
X74422738Y-81735357D01*
X74422738Y-81977261D02*
X74483214Y-81856309D01*
X74543690Y-81795833D01*
X74664642Y-81735357D01*
X74785595Y-81735357D01*
X75753214Y-82582023D02*
X75753214Y-81312023D01*
X75753214Y-82521547D02*
X75632261Y-82582023D01*
X75390357Y-82582023D01*
X75269404Y-82521547D01*
X75208928Y-82461071D01*
X75148452Y-82340119D01*
X75148452Y-81977261D01*
X75208928Y-81856309D01*
X75269404Y-81795833D01*
X75390357Y-81735357D01*
X75632261Y-81735357D01*
X75753214Y-81795833D01*
X76418452Y-82521547D02*
X76418452Y-82582023D01*
X76357976Y-82702976D01*
X76297500Y-82763452D01*
X78656071Y-82582023D02*
X78232738Y-81977261D01*
X77930357Y-82582023D02*
X77930357Y-81312023D01*
X78414166Y-81312023D01*
X78535119Y-81372500D01*
X78595595Y-81432976D01*
X78656071Y-81553928D01*
X78656071Y-81735357D01*
X78595595Y-81856309D01*
X78535119Y-81916785D01*
X78414166Y-81977261D01*
X77930357Y-81977261D01*
X79684166Y-82521547D02*
X79563214Y-82582023D01*
X79321309Y-82582023D01*
X79200357Y-82521547D01*
X79139880Y-82400595D01*
X79139880Y-81916785D01*
X79200357Y-81795833D01*
X79321309Y-81735357D01*
X79563214Y-81735357D01*
X79684166Y-81795833D01*
X79744642Y-81916785D01*
X79744642Y-82037738D01*
X79139880Y-82158690D01*
X80167976Y-81735357D02*
X80470357Y-82582023D01*
X80772738Y-81735357D01*
X82889404Y-82582023D02*
X82163690Y-82582023D01*
X82526547Y-82582023D02*
X82526547Y-81312023D01*
X82405595Y-81493452D01*
X82284642Y-81614404D01*
X82163690Y-81674880D01*
X83433690Y-82461071D02*
X83494166Y-82521547D01*
X83433690Y-82582023D01*
X83373214Y-82521547D01*
X83433690Y-82461071D01*
X83433690Y-82582023D01*
X84280357Y-81312023D02*
X84401309Y-81312023D01*
X84522261Y-81372500D01*
X84582738Y-81432976D01*
X84643214Y-81553928D01*
X84703690Y-81795833D01*
X84703690Y-82098214D01*
X84643214Y-82340119D01*
X84582738Y-82461071D01*
X84522261Y-82521547D01*
X84401309Y-82582023D01*
X84280357Y-82582023D01*
X84159404Y-82521547D01*
X84098928Y-82461071D01*
X84038452Y-82340119D01*
X83977976Y-82098214D01*
X83977976Y-81795833D01*
X84038452Y-81553928D01*
X84098928Y-81432976D01*
X84159404Y-81372500D01*
X84280357Y-81312023D01*
X61359880Y-84637023D02*
X61359880Y-83367023D01*
X61783214Y-84274166D01*
X62206547Y-83367023D01*
X62206547Y-84637023D01*
X63355595Y-84637023D02*
X63355595Y-83971785D01*
X63295119Y-83850833D01*
X63174166Y-83790357D01*
X62932261Y-83790357D01*
X62811309Y-83850833D01*
X63355595Y-84576547D02*
X63234642Y-84637023D01*
X62932261Y-84637023D01*
X62811309Y-84576547D01*
X62750833Y-84455595D01*
X62750833Y-84334642D01*
X62811309Y-84213690D01*
X62932261Y-84153214D01*
X63234642Y-84153214D01*
X63355595Y-84092738D01*
X63960357Y-84637023D02*
X63960357Y-83790357D01*
X63960357Y-84032261D02*
X64020833Y-83911309D01*
X64081309Y-83850833D01*
X64202261Y-83790357D01*
X64323214Y-83790357D01*
X64686071Y-84576547D02*
X64807023Y-84637023D01*
X65048928Y-84637023D01*
X65169880Y-84576547D01*
X65230357Y-84455595D01*
X65230357Y-84395119D01*
X65169880Y-84274166D01*
X65048928Y-84213690D01*
X64867500Y-84213690D01*
X64746547Y-84153214D01*
X64686071Y-84032261D01*
X64686071Y-83971785D01*
X64746547Y-83850833D01*
X64867500Y-83790357D01*
X65048928Y-83790357D01*
X65169880Y-83850833D01*
X67467976Y-84637023D02*
X67044642Y-84032261D01*
X66742261Y-84637023D02*
X66742261Y-83367023D01*
X67226071Y-83367023D01*
X67347023Y-83427500D01*
X67407500Y-83487976D01*
X67467976Y-83608928D01*
X67467976Y-83790357D01*
X67407500Y-83911309D01*
X67347023Y-83971785D01*
X67226071Y-84032261D01*
X66742261Y-84032261D01*
X68193690Y-84637023D02*
X68072738Y-84576547D01*
X68012261Y-84516071D01*
X67951785Y-84395119D01*
X67951785Y-84032261D01*
X68012261Y-83911309D01*
X68072738Y-83850833D01*
X68193690Y-83790357D01*
X68375119Y-83790357D01*
X68496071Y-83850833D01*
X68556547Y-83911309D01*
X68617023Y-84032261D01*
X68617023Y-84395119D01*
X68556547Y-84516071D01*
X68496071Y-84576547D01*
X68375119Y-84637023D01*
X68193690Y-84637023D01*
X69040357Y-83790357D02*
X69342738Y-84637023D01*
X69645119Y-83790357D01*
X70612738Y-84576547D02*
X70491785Y-84637023D01*
X70249880Y-84637023D01*
X70128928Y-84576547D01*
X70068452Y-84455595D01*
X70068452Y-83971785D01*
X70128928Y-83850833D01*
X70249880Y-83790357D01*
X70491785Y-83790357D01*
X70612738Y-83850833D01*
X70673214Y-83971785D01*
X70673214Y-84092738D01*
X70068452Y-84213690D01*
X71217500Y-84637023D02*
X71217500Y-83790357D01*
X71217500Y-84032261D02*
X71277976Y-83911309D01*
X71338452Y-83850833D01*
X71459404Y-83790357D01*
X71580357Y-83790357D01*
X72971309Y-84637023D02*
X72971309Y-83367023D01*
X73273690Y-83367023D01*
X73455119Y-83427500D01*
X73576071Y-83548452D01*
X73636547Y-83669404D01*
X73697023Y-83911309D01*
X73697023Y-84092738D01*
X73636547Y-84334642D01*
X73576071Y-84455595D01*
X73455119Y-84576547D01*
X73273690Y-84637023D01*
X72971309Y-84637023D01*
X74725119Y-84576547D02*
X74604166Y-84637023D01*
X74362261Y-84637023D01*
X74241309Y-84576547D01*
X74180833Y-84455595D01*
X74180833Y-83971785D01*
X74241309Y-83850833D01*
X74362261Y-83790357D01*
X74604166Y-83790357D01*
X74725119Y-83850833D01*
X74785595Y-83971785D01*
X74785595Y-84092738D01*
X74180833Y-84213690D01*
X75329880Y-84637023D02*
X75329880Y-83790357D01*
X75329880Y-83367023D02*
X75269404Y-83427500D01*
X75329880Y-83487976D01*
X75390357Y-83427500D01*
X75329880Y-83367023D01*
X75329880Y-83487976D01*
X75874166Y-84576547D02*
X75995119Y-84637023D01*
X76237023Y-84637023D01*
X76357976Y-84576547D01*
X76418452Y-84455595D01*
X76418452Y-84395119D01*
X76357976Y-84274166D01*
X76237023Y-84213690D01*
X76055595Y-84213690D01*
X75934642Y-84153214D01*
X75874166Y-84032261D01*
X75874166Y-83971785D01*
X75934642Y-83850833D01*
X76055595Y-83790357D01*
X76237023Y-83790357D01*
X76357976Y-83850833D01*
X77507023Y-83790357D02*
X77507023Y-84818452D01*
X77446547Y-84939404D01*
X77386071Y-84999880D01*
X77265119Y-85060357D01*
X77083690Y-85060357D01*
X76962738Y-84999880D01*
X77507023Y-84576547D02*
X77386071Y-84637023D01*
X77144166Y-84637023D01*
X77023214Y-84576547D01*
X76962738Y-84516071D01*
X76902261Y-84395119D01*
X76902261Y-84032261D01*
X76962738Y-83911309D01*
X77023214Y-83850833D01*
X77144166Y-83790357D01*
X77386071Y-83790357D01*
X77507023Y-83850833D01*
X78111785Y-83790357D02*
X78111785Y-84637023D01*
X78111785Y-83911309D02*
X78172261Y-83850833D01*
X78293214Y-83790357D01*
X78474642Y-83790357D01*
X78595595Y-83850833D01*
X78656071Y-83971785D01*
X78656071Y-84637023D01*
X80047023Y-83367023D02*
X80772738Y-83367023D01*
X80409880Y-84637023D02*
X80409880Y-83367023D01*
X81679880Y-84576547D02*
X81558928Y-84637023D01*
X81317023Y-84637023D01*
X81196071Y-84576547D01*
X81135595Y-84455595D01*
X81135595Y-83971785D01*
X81196071Y-83850833D01*
X81317023Y-83790357D01*
X81558928Y-83790357D01*
X81679880Y-83850833D01*
X81740357Y-83971785D01*
X81740357Y-84092738D01*
X81135595Y-84213690D01*
X82828928Y-84637023D02*
X82828928Y-83971785D01*
X82768452Y-83850833D01*
X82647500Y-83790357D01*
X82405595Y-83790357D01*
X82284642Y-83850833D01*
X82828928Y-84576547D02*
X82707976Y-84637023D01*
X82405595Y-84637023D01*
X82284642Y-84576547D01*
X82224166Y-84455595D01*
X82224166Y-84334642D01*
X82284642Y-84213690D01*
X82405595Y-84153214D01*
X82707976Y-84153214D01*
X82828928Y-84092738D01*
X83433690Y-84637023D02*
X83433690Y-83790357D01*
X83433690Y-83911309D02*
X83494166Y-83850833D01*
X83615119Y-83790357D01*
X83796547Y-83790357D01*
X83917500Y-83850833D01*
X83977976Y-83971785D01*
X83977976Y-84637023D01*
X83977976Y-83971785D02*
X84038452Y-83850833D01*
X84159404Y-83790357D01*
X84340833Y-83790357D01*
X84461785Y-83850833D01*
X84522261Y-83971785D01*
X84522261Y-84637023D01*
X61359880Y-86692023D02*
X61359880Y-85422023D01*
X61783214Y-86329166D01*
X62206547Y-85422023D01*
X62206547Y-86692023D01*
X62811309Y-86692023D02*
X62811309Y-85845357D01*
X62811309Y-85422023D02*
X62750833Y-85482500D01*
X62811309Y-85542976D01*
X62871785Y-85482500D01*
X62811309Y-85422023D01*
X62811309Y-85542976D01*
X63355595Y-86631547D02*
X63476547Y-86692023D01*
X63718452Y-86692023D01*
X63839404Y-86631547D01*
X63899880Y-86510595D01*
X63899880Y-86450119D01*
X63839404Y-86329166D01*
X63718452Y-86268690D01*
X63537023Y-86268690D01*
X63416071Y-86208214D01*
X63355595Y-86087261D01*
X63355595Y-86026785D01*
X63416071Y-85905833D01*
X63537023Y-85845357D01*
X63718452Y-85845357D01*
X63839404Y-85905833D01*
X64383690Y-86631547D02*
X64504642Y-86692023D01*
X64746547Y-86692023D01*
X64867500Y-86631547D01*
X64927976Y-86510595D01*
X64927976Y-86450119D01*
X64867500Y-86329166D01*
X64746547Y-86268690D01*
X64565119Y-86268690D01*
X64444166Y-86208214D01*
X64383690Y-86087261D01*
X64383690Y-86026785D01*
X64444166Y-85905833D01*
X64565119Y-85845357D01*
X64746547Y-85845357D01*
X64867500Y-85905833D01*
X65653690Y-86692023D02*
X65532738Y-86631547D01*
X65472261Y-86571071D01*
X65411785Y-86450119D01*
X65411785Y-86087261D01*
X65472261Y-85966309D01*
X65532738Y-85905833D01*
X65653690Y-85845357D01*
X65835119Y-85845357D01*
X65956071Y-85905833D01*
X66016547Y-85966309D01*
X66077023Y-86087261D01*
X66077023Y-86450119D01*
X66016547Y-86571071D01*
X65956071Y-86631547D01*
X65835119Y-86692023D01*
X65653690Y-86692023D01*
X67165595Y-85845357D02*
X67165595Y-86692023D01*
X66621309Y-85845357D02*
X66621309Y-86510595D01*
X66681785Y-86631547D01*
X66802738Y-86692023D01*
X66984166Y-86692023D01*
X67105119Y-86631547D01*
X67165595Y-86571071D01*
X67770357Y-86692023D02*
X67770357Y-85845357D01*
X67770357Y-86087261D02*
X67830833Y-85966309D01*
X67891309Y-85905833D01*
X68012261Y-85845357D01*
X68133214Y-85845357D01*
X68556547Y-86692023D02*
X68556547Y-85845357D01*
X68556547Y-85422023D02*
X68496071Y-85482500D01*
X68556547Y-85542976D01*
X68617023Y-85482500D01*
X68556547Y-85422023D01*
X68556547Y-85542976D01*
X70068452Y-86631547D02*
X70249880Y-86692023D01*
X70552261Y-86692023D01*
X70673214Y-86631547D01*
X70733690Y-86571071D01*
X70794166Y-86450119D01*
X70794166Y-86329166D01*
X70733690Y-86208214D01*
X70673214Y-86147738D01*
X70552261Y-86087261D01*
X70310357Y-86026785D01*
X70189404Y-85966309D01*
X70128928Y-85905833D01*
X70068452Y-85784880D01*
X70068452Y-85663928D01*
X70128928Y-85542976D01*
X70189404Y-85482500D01*
X70310357Y-85422023D01*
X70612738Y-85422023D01*
X70794166Y-85482500D01*
X72366547Y-86692023D02*
X72306071Y-86692023D01*
X72185119Y-86631547D01*
X72003690Y-86450119D01*
X71701309Y-86087261D01*
X71580357Y-85905833D01*
X71519880Y-85724404D01*
X71519880Y-85603452D01*
X71580357Y-85482500D01*
X71701309Y-85422023D01*
X71761785Y-85422023D01*
X71882738Y-85482500D01*
X71943214Y-85603452D01*
X71943214Y-85663928D01*
X71882738Y-85784880D01*
X71822261Y-85845357D01*
X71459404Y-86087261D01*
X71398928Y-86147738D01*
X71338452Y-86268690D01*
X71338452Y-86450119D01*
X71398928Y-86571071D01*
X71459404Y-86631547D01*
X71580357Y-86692023D01*
X71761785Y-86692023D01*
X71882738Y-86631547D01*
X71943214Y-86571071D01*
X72124642Y-86329166D01*
X72185119Y-86147738D01*
X72185119Y-86026785D01*
X72729404Y-85422023D02*
X73455119Y-85422023D01*
X73092261Y-86692023D02*
X73092261Y-85422023D01*
X73938928Y-86631547D02*
X73938928Y-86692023D01*
X73878452Y-86812976D01*
X73817976Y-86873452D01*
X75390357Y-85542976D02*
X75450833Y-85482500D01*
X75571785Y-85422023D01*
X75874166Y-85422023D01*
X75995119Y-85482500D01*
X76055595Y-85542976D01*
X76116071Y-85663928D01*
X76116071Y-85784880D01*
X76055595Y-85966309D01*
X75329880Y-86692023D01*
X76116071Y-86692023D01*
X76902261Y-85422023D02*
X77023214Y-85422023D01*
X77144166Y-85482500D01*
X77204642Y-85542976D01*
X77265119Y-85663928D01*
X77325595Y-85905833D01*
X77325595Y-86208214D01*
X77265119Y-86450119D01*
X77204642Y-86571071D01*
X77144166Y-86631547D01*
X77023214Y-86692023D01*
X76902261Y-86692023D01*
X76781309Y-86631547D01*
X76720833Y-86571071D01*
X76660357Y-86450119D01*
X76599880Y-86208214D01*
X76599880Y-85905833D01*
X76660357Y-85663928D01*
X76720833Y-85542976D01*
X76781309Y-85482500D01*
X76902261Y-85422023D01*
X77809404Y-85542976D02*
X77869880Y-85482500D01*
X77990833Y-85422023D01*
X78293214Y-85422023D01*
X78414166Y-85482500D01*
X78474642Y-85542976D01*
X78535119Y-85663928D01*
X78535119Y-85784880D01*
X78474642Y-85966309D01*
X77748928Y-86692023D01*
X78535119Y-86692023D01*
X79018928Y-85542976D02*
X79079404Y-85482500D01*
X79200357Y-85422023D01*
X79502738Y-85422023D01*
X79623690Y-85482500D01*
X79684166Y-85542976D01*
X79744642Y-85663928D01*
X79744642Y-85784880D01*
X79684166Y-85966309D01*
X78958452Y-86692023D01*
X79744642Y-86692023D01*
X61359880Y-88747023D02*
X61359880Y-87477023D01*
X61783214Y-88384166D01*
X62206547Y-87477023D01*
X62206547Y-88747023D01*
X63295119Y-88686547D02*
X63174166Y-88747023D01*
X62932261Y-88747023D01*
X62811309Y-88686547D01*
X62750833Y-88565595D01*
X62750833Y-88081785D01*
X62811309Y-87960833D01*
X62932261Y-87900357D01*
X63174166Y-87900357D01*
X63295119Y-87960833D01*
X63355595Y-88081785D01*
X63355595Y-88202738D01*
X62750833Y-88323690D01*
X64444166Y-87900357D02*
X64444166Y-88928452D01*
X64383690Y-89049404D01*
X64323214Y-89109880D01*
X64202261Y-89170357D01*
X64020833Y-89170357D01*
X63899880Y-89109880D01*
X64444166Y-88686547D02*
X64323214Y-88747023D01*
X64081309Y-88747023D01*
X63960357Y-88686547D01*
X63899880Y-88626071D01*
X63839404Y-88505119D01*
X63839404Y-88142261D01*
X63899880Y-88021309D01*
X63960357Y-87960833D01*
X64081309Y-87900357D01*
X64323214Y-87900357D01*
X64444166Y-87960833D01*
X65593214Y-88747023D02*
X65593214Y-88081785D01*
X65532738Y-87960833D01*
X65411785Y-87900357D01*
X65169880Y-87900357D01*
X65048928Y-87960833D01*
X65593214Y-88686547D02*
X65472261Y-88747023D01*
X65169880Y-88747023D01*
X65048928Y-88686547D01*
X64988452Y-88565595D01*
X64988452Y-88444642D01*
X65048928Y-88323690D01*
X65169880Y-88263214D01*
X65472261Y-88263214D01*
X65593214Y-88202738D01*
X66197976Y-87900357D02*
X66197976Y-88747023D01*
X66197976Y-88021309D02*
X66258452Y-87960833D01*
X66379404Y-87900357D01*
X66560833Y-87900357D01*
X66681785Y-87960833D01*
X66742261Y-88081785D01*
X66742261Y-88747023D01*
X68737976Y-88081785D02*
X68919404Y-88142261D01*
X68979880Y-88202738D01*
X69040357Y-88323690D01*
X69040357Y-88505119D01*
X68979880Y-88626071D01*
X68919404Y-88686547D01*
X68798452Y-88747023D01*
X68314642Y-88747023D01*
X68314642Y-87477023D01*
X68737976Y-87477023D01*
X68858928Y-87537500D01*
X68919404Y-87597976D01*
X68979880Y-87718928D01*
X68979880Y-87839880D01*
X68919404Y-87960833D01*
X68858928Y-88021309D01*
X68737976Y-88081785D01*
X68314642Y-88081785D01*
X70068452Y-88686547D02*
X69947500Y-88747023D01*
X69705595Y-88747023D01*
X69584642Y-88686547D01*
X69524166Y-88565595D01*
X69524166Y-88081785D01*
X69584642Y-87960833D01*
X69705595Y-87900357D01*
X69947500Y-87900357D01*
X70068452Y-87960833D01*
X70128928Y-88081785D01*
X70128928Y-88202738D01*
X69524166Y-88323690D01*
X70673214Y-87900357D02*
X70673214Y-88747023D01*
X70673214Y-88021309D02*
X70733690Y-87960833D01*
X70854642Y-87900357D01*
X71036071Y-87900357D01*
X71157023Y-87960833D01*
X71217500Y-88081785D01*
X71217500Y-88747023D01*
X71822261Y-88747023D02*
X71822261Y-87477023D01*
X71943214Y-88263214D02*
X72306071Y-88747023D01*
X72306071Y-87900357D02*
X71822261Y-88384166D01*
X73334166Y-88686547D02*
X73213214Y-88747023D01*
X72971309Y-88747023D01*
X72850357Y-88686547D01*
X72789880Y-88565595D01*
X72789880Y-88081785D01*
X72850357Y-87960833D01*
X72971309Y-87900357D01*
X73213214Y-87900357D01*
X73334166Y-87960833D01*
X73394642Y-88081785D01*
X73394642Y-88202738D01*
X72789880Y-88323690D01*
X73938928Y-87900357D02*
X73938928Y-88747023D01*
X73938928Y-88021309D02*
X73999404Y-87960833D01*
X74120357Y-87900357D01*
X74301785Y-87900357D01*
X74422738Y-87960833D01*
X74483214Y-88081785D01*
X74483214Y-88747023D01*
X75632261Y-88747023D02*
X75632261Y-87477023D01*
X75632261Y-88686547D02*
X75511309Y-88747023D01*
X75269404Y-88747023D01*
X75148452Y-88686547D01*
X75087976Y-88626071D01*
X75027500Y-88505119D01*
X75027500Y-88142261D01*
X75087976Y-88021309D01*
X75148452Y-87960833D01*
X75269404Y-87900357D01*
X75511309Y-87900357D01*
X75632261Y-87960833D01*
X76418452Y-88747023D02*
X76297500Y-88686547D01*
X76237023Y-88626071D01*
X76176547Y-88505119D01*
X76176547Y-88142261D01*
X76237023Y-88021309D01*
X76297500Y-87960833D01*
X76418452Y-87900357D01*
X76599880Y-87900357D01*
X76720833Y-87960833D01*
X76781309Y-88021309D01*
X76841785Y-88142261D01*
X76841785Y-88505119D01*
X76781309Y-88626071D01*
X76720833Y-88686547D01*
X76599880Y-88747023D01*
X76418452Y-88747023D01*
X77386071Y-88747023D02*
X77386071Y-87900357D01*
X77386071Y-88142261D02*
X77446547Y-88021309D01*
X77507023Y-87960833D01*
X77627976Y-87900357D01*
X77748928Y-87900357D01*
X77990833Y-87900357D02*
X78474642Y-87900357D01*
X78172261Y-88747023D02*
X78172261Y-87658452D01*
X78232738Y-87537500D01*
X78353690Y-87477023D01*
X78474642Y-87477023D01*
D11*
%TO.C,U1*%
X115951000Y-78867000D02*
X115951000Y-74007000D01*
X54991000Y-78867000D02*
X54991000Y-61087000D01*
D12*
X109701000Y-60477000D02*
G75*
G03*
X109701000Y-60477000I-100000J0D01*
G01*
D11*
X116651000Y-65947000D02*
X116651000Y-74007000D01*
X115951000Y-74007000D02*
X116651000Y-74007000D01*
X115951000Y-65947000D02*
X116651000Y-65947000D01*
X54991000Y-61087000D02*
X115951000Y-61087000D01*
X115951000Y-61087000D02*
X115951000Y-65947000D01*
X115951000Y-78867000D02*
X54991000Y-78867000D01*
D10*
%TO.C,REF\u002A\u002A*%
X59893200Y-26670000D02*
G75*
G03*
X59893200Y-26670000I-4013200J0D01*
G01*
X124155200Y-86360000D02*
G75*
G03*
X124155200Y-86360000I-4013200J0D01*
G01*
X59893200Y-86360000D02*
G75*
G03*
X59893200Y-86360000I-4013200J0D01*
G01*
D13*
%TO.C,Conn2*%
X121220800Y-54235800D02*
X121220800Y-56295800D01*
X121220800Y-54235800D02*
X115100800Y-54235800D01*
X115100800Y-54235800D02*
X115100800Y-58355800D01*
X119160800Y-58355800D02*
X115100800Y-58355800D01*
X119160800Y-56295800D02*
X119160800Y-58355800D01*
X121220800Y-56295800D02*
X119160800Y-56295800D01*
X121220800Y-58355800D02*
X120160800Y-58355800D01*
X121220800Y-57295800D02*
X121220800Y-58355800D01*
D10*
%TO.C,U2*%
X99441000Y-37719000D02*
X101981000Y-40259000D01*
X101981000Y-40259000D02*
X101981000Y-45339000D01*
X101981000Y-45339000D02*
X99441000Y-47879000D01*
X99441000Y-47879000D02*
X94361000Y-47879000D01*
X94361000Y-47879000D02*
X91821000Y-45339000D01*
X91821000Y-45339000D02*
X91821000Y-40259000D01*
X91821000Y-40259000D02*
X94361000Y-37719000D01*
X94361000Y-37719000D02*
X99441000Y-37719000D01*
X91821000Y-50419000D02*
X101981000Y-50419000D01*
X91821000Y-33909000D02*
X101981000Y-33909000D01*
X101981000Y-33909000D02*
X101981000Y-50419000D01*
X91821000Y-50419000D02*
X91821000Y-33909000D01*
D13*
%TO.C,J1*%
X122499200Y-32353000D02*
X106249200Y-32353000D01*
X106249200Y-32353000D02*
X106249200Y-53903000D01*
X122499200Y-53903000D02*
X106249200Y-53903000D01*
X122499200Y-32353000D02*
X122499200Y-53903000D01*
%TO.C,C3*%
X107795600Y-56559667D02*
X107795600Y-56267133D01*
X108815600Y-56559667D02*
X108815600Y-56267133D01*
%TO.C,C2*%
X101322600Y-54565333D02*
X101322600Y-54857867D01*
X100302600Y-54565333D02*
X100302600Y-54857867D01*
%TO.C,C1*%
X87864733Y-52576000D02*
X88157267Y-52576000D01*
X87864733Y-53596000D02*
X88157267Y-53596000D01*
D10*
%TO.C,BT1*%
X68580000Y-45847000D02*
X68580000Y-36195000D01*
X67056000Y-47371000D02*
X68580000Y-45847000D01*
X67056000Y-34671000D02*
X68580000Y-36195000D01*
X55880000Y-34671000D02*
X67056000Y-34671000D01*
X55880000Y-47371000D02*
X67056000Y-47371000D01*
%TO.C,U1*%
X84709095Y-71969380D02*
X84709095Y-72778904D01*
X84756714Y-72874142D01*
X84804333Y-72921761D01*
X84899571Y-72969380D01*
X85090047Y-72969380D01*
X85185285Y-72921761D01*
X85232904Y-72874142D01*
X85280523Y-72778904D01*
X85280523Y-71969380D01*
X86280523Y-72969380D02*
X85709095Y-72969380D01*
X85994809Y-72969380D02*
X85994809Y-71969380D01*
X85899571Y-72112238D01*
X85804333Y-72207476D01*
X85709095Y-72255095D01*
X111442666Y-80724380D02*
X111109333Y-80248190D01*
X110871238Y-80724380D02*
X110871238Y-79724380D01*
X111252190Y-79724380D01*
X111347428Y-79772000D01*
X111395047Y-79819619D01*
X111442666Y-79914857D01*
X111442666Y-80057714D01*
X111395047Y-80152952D01*
X111347428Y-80200571D01*
X111252190Y-80248190D01*
X110871238Y-80248190D01*
X111871238Y-80200571D02*
X112204571Y-80200571D01*
X112347428Y-80724380D02*
X111871238Y-80724380D01*
X111871238Y-79724380D01*
X112347428Y-79724380D01*
X113109333Y-80200571D02*
X112776000Y-80200571D01*
X112776000Y-80724380D02*
X112776000Y-79724380D01*
X113252190Y-79724380D01*
X113776000Y-79724380D02*
X113776000Y-79962476D01*
X113537904Y-79867238D02*
X113776000Y-79962476D01*
X114014095Y-79867238D01*
X113633142Y-80152952D02*
X113776000Y-79962476D01*
X113918857Y-80152952D01*
X114537904Y-79724380D02*
X114537904Y-79962476D01*
X114299809Y-79867238D02*
X114537904Y-79962476D01*
X114776000Y-79867238D01*
X114395047Y-80152952D02*
X114537904Y-79962476D01*
X114680761Y-80152952D01*
%TO.C,Conn2*%
X123017942Y-57819609D02*
X123065561Y-57867228D01*
X123113180Y-58010085D01*
X123113180Y-58105323D01*
X123065561Y-58248180D01*
X122970323Y-58343419D01*
X122875085Y-58391038D01*
X122684609Y-58438657D01*
X122541752Y-58438657D01*
X122351276Y-58391038D01*
X122256038Y-58343419D01*
X122160800Y-58248180D01*
X122113180Y-58105323D01*
X122113180Y-58010085D01*
X122160800Y-57867228D01*
X122208419Y-57819609D01*
X123113180Y-57248180D02*
X123065561Y-57343419D01*
X123017942Y-57391038D01*
X122922704Y-57438657D01*
X122636990Y-57438657D01*
X122541752Y-57391038D01*
X122494133Y-57343419D01*
X122446514Y-57248180D01*
X122446514Y-57105323D01*
X122494133Y-57010085D01*
X122541752Y-56962466D01*
X122636990Y-56914847D01*
X122922704Y-56914847D01*
X123017942Y-56962466D01*
X123065561Y-57010085D01*
X123113180Y-57105323D01*
X123113180Y-57248180D01*
X122446514Y-56486276D02*
X123113180Y-56486276D01*
X122541752Y-56486276D02*
X122494133Y-56438657D01*
X122446514Y-56343419D01*
X122446514Y-56200561D01*
X122494133Y-56105323D01*
X122589371Y-56057704D01*
X123113180Y-56057704D01*
X122446514Y-55581514D02*
X123113180Y-55581514D01*
X122541752Y-55581514D02*
X122494133Y-55533895D01*
X122446514Y-55438657D01*
X122446514Y-55295800D01*
X122494133Y-55200561D01*
X122589371Y-55152942D01*
X123113180Y-55152942D01*
X122208419Y-54724371D02*
X122160800Y-54676752D01*
X122113180Y-54581514D01*
X122113180Y-54343419D01*
X122160800Y-54248180D01*
X122208419Y-54200561D01*
X122303657Y-54152942D01*
X122398895Y-54152942D01*
X122541752Y-54200561D01*
X123113180Y-54771990D01*
X123113180Y-54152942D01*
%TO.C,U2*%
X97337666Y-32091380D02*
X97528142Y-32091380D01*
X97623380Y-32139000D01*
X97718619Y-32234238D01*
X97766238Y-32424714D01*
X97766238Y-32758047D01*
X97718619Y-32948523D01*
X97623380Y-33043761D01*
X97528142Y-33091380D01*
X97337666Y-33091380D01*
X97242428Y-33043761D01*
X97147190Y-32948523D01*
X97099571Y-32758047D01*
X97099571Y-32424714D01*
X97147190Y-32234238D01*
X97242428Y-32139000D01*
X97337666Y-32091380D01*
X98194809Y-33091380D02*
X98194809Y-32091380D01*
X98766238Y-33091380D02*
X98337666Y-32519952D01*
X98766238Y-32091380D02*
X98194809Y-32662809D01*
X99194809Y-33091380D02*
X99194809Y-32091380D01*
%TO.C,TP2*%
X64143095Y-52975380D02*
X64714523Y-52975380D01*
X64428809Y-53975380D02*
X64428809Y-52975380D01*
X65047857Y-53975380D02*
X65047857Y-52975380D01*
X65428809Y-52975380D01*
X65524047Y-53023000D01*
X65571666Y-53070619D01*
X65619285Y-53165857D01*
X65619285Y-53308714D01*
X65571666Y-53403952D01*
X65524047Y-53451571D01*
X65428809Y-53499190D01*
X65047857Y-53499190D01*
X66000238Y-53070619D02*
X66047857Y-53023000D01*
X66143095Y-52975380D01*
X66381190Y-52975380D01*
X66476428Y-53023000D01*
X66524047Y-53070619D01*
X66571666Y-53165857D01*
X66571666Y-53261095D01*
X66524047Y-53403952D01*
X65952619Y-53975380D01*
X66571666Y-53975380D01*
%TO.C,TP1*%
X72525095Y-53229380D02*
X73096523Y-53229380D01*
X72810809Y-54229380D02*
X72810809Y-53229380D01*
X73429857Y-54229380D02*
X73429857Y-53229380D01*
X73810809Y-53229380D01*
X73906047Y-53277000D01*
X73953666Y-53324619D01*
X74001285Y-53419857D01*
X74001285Y-53562714D01*
X73953666Y-53657952D01*
X73906047Y-53705571D01*
X73810809Y-53753190D01*
X73429857Y-53753190D01*
X74953666Y-54229380D02*
X74382238Y-54229380D01*
X74667952Y-54229380D02*
X74667952Y-53229380D01*
X74572714Y-53372238D01*
X74477476Y-53467476D01*
X74382238Y-53515095D01*
%TO.C,J1*%
X113915866Y-29305380D02*
X113915866Y-30019666D01*
X113868247Y-30162523D01*
X113773009Y-30257761D01*
X113630152Y-30305380D01*
X113534914Y-30305380D01*
X114915866Y-30305380D02*
X114344438Y-30305380D01*
X114630152Y-30305380D02*
X114630152Y-29305380D01*
X114534914Y-29448238D01*
X114439676Y-29543476D01*
X114344438Y-29591095D01*
%TO.C,C3*%
X107232742Y-56580066D02*
X107280361Y-56627685D01*
X107327980Y-56770542D01*
X107327980Y-56865780D01*
X107280361Y-57008638D01*
X107185123Y-57103876D01*
X107089885Y-57151495D01*
X106899409Y-57199114D01*
X106756552Y-57199114D01*
X106566076Y-57151495D01*
X106470838Y-57103876D01*
X106375600Y-57008638D01*
X106327980Y-56865780D01*
X106327980Y-56770542D01*
X106375600Y-56627685D01*
X106423219Y-56580066D01*
X106327980Y-56246733D02*
X106327980Y-55627685D01*
X106708933Y-55961019D01*
X106708933Y-55818161D01*
X106756552Y-55722923D01*
X106804171Y-55675304D01*
X106899409Y-55627685D01*
X107137504Y-55627685D01*
X107232742Y-55675304D01*
X107280361Y-55722923D01*
X107327980Y-55818161D01*
X107327980Y-56103876D01*
X107280361Y-56199114D01*
X107232742Y-56246733D01*
%TO.C,C2*%
X102599742Y-54878266D02*
X102647361Y-54925885D01*
X102694980Y-55068742D01*
X102694980Y-55163980D01*
X102647361Y-55306838D01*
X102552123Y-55402076D01*
X102456885Y-55449695D01*
X102266409Y-55497314D01*
X102123552Y-55497314D01*
X101933076Y-55449695D01*
X101837838Y-55402076D01*
X101742600Y-55306838D01*
X101694980Y-55163980D01*
X101694980Y-55068742D01*
X101742600Y-54925885D01*
X101790219Y-54878266D01*
X101790219Y-54497314D02*
X101742600Y-54449695D01*
X101694980Y-54354457D01*
X101694980Y-54116361D01*
X101742600Y-54021123D01*
X101790219Y-53973504D01*
X101885457Y-53925885D01*
X101980695Y-53925885D01*
X102123552Y-53973504D01*
X102694980Y-54544933D01*
X102694980Y-53925885D01*
%TO.C,C1*%
X87844333Y-52013142D02*
X87796714Y-52060761D01*
X87653857Y-52108380D01*
X87558619Y-52108380D01*
X87415761Y-52060761D01*
X87320523Y-51965523D01*
X87272904Y-51870285D01*
X87225285Y-51679809D01*
X87225285Y-51536952D01*
X87272904Y-51346476D01*
X87320523Y-51251238D01*
X87415761Y-51156000D01*
X87558619Y-51108380D01*
X87653857Y-51108380D01*
X87796714Y-51156000D01*
X87844333Y-51203619D01*
X88796714Y-52108380D02*
X88225285Y-52108380D01*
X88511000Y-52108380D02*
X88511000Y-51108380D01*
X88415761Y-51251238D01*
X88320523Y-51346476D01*
X88225285Y-51394095D01*
%TO.C,BT1*%
X54563971Y-46150114D02*
X54611590Y-46007257D01*
X54659209Y-45959638D01*
X54754447Y-45912019D01*
X54897304Y-45912019D01*
X54992542Y-45959638D01*
X55040161Y-46007257D01*
X55087780Y-46102495D01*
X55087780Y-46483447D01*
X54087780Y-46483447D01*
X54087780Y-46150114D01*
X54135400Y-46054876D01*
X54183019Y-46007257D01*
X54278257Y-45959638D01*
X54373495Y-45959638D01*
X54468733Y-46007257D01*
X54516352Y-46054876D01*
X54563971Y-46150114D01*
X54563971Y-46483447D01*
X54087780Y-45626304D02*
X54087780Y-45054876D01*
X55087780Y-45340590D02*
X54087780Y-45340590D01*
X55087780Y-44197733D02*
X55087780Y-44769161D01*
X55087780Y-44483447D02*
X54087780Y-44483447D01*
X54230638Y-44578685D01*
X54325876Y-44673923D01*
X54373495Y-44769161D01*
%TD*%
M02*
