%TF.GenerationSoftware,KiCad,Pcbnew,(5.1.10)-1*%
%TF.CreationDate,2021-12-04T17:03:40-06:00*%
%TF.ProjectId,blackbox_rev1,626c6163-6b62-46f7-985f-726576312e6b,rev?*%
%TF.SameCoordinates,Original*%
%TF.FileFunction,Legend,Bot*%
%TF.FilePolarity,Positive*%
%FSLAX46Y46*%
G04 Gerber Fmt 4.6, Leading zero omitted, Abs format (unit mm)*
G04 Created by KiCad (PCBNEW (5.1.10)-1) date 2021-12-04 17:03:40*
%MOMM*%
%LPD*%
G01*
G04 APERTURE LIST*
%ADD10C,0.010000*%
%ADD11C,0.150000*%
G04 APERTURE END LIST*
D10*
%TO.C,G\u002A\u002A\u002A*%
G36*
X106024269Y-59606685D02*
G01*
X106008547Y-59570497D01*
X105957416Y-59493518D01*
X105928081Y-59451982D01*
X105873205Y-59370979D01*
X105819438Y-59282069D01*
X105763406Y-59178140D01*
X105701736Y-59052082D01*
X105631053Y-58896787D01*
X105547984Y-58705143D01*
X105449155Y-58470041D01*
X105361169Y-58257294D01*
X105286340Y-58073597D01*
X105194050Y-57844001D01*
X105088301Y-57578691D01*
X104973093Y-57287848D01*
X104852429Y-56981657D01*
X104730309Y-56670299D01*
X104610734Y-56363959D01*
X104497706Y-56072818D01*
X104395226Y-55807060D01*
X104307294Y-55576868D01*
X104289798Y-55530684D01*
X104257389Y-55444976D01*
X104088985Y-55675575D01*
X104014527Y-55771984D01*
X103951654Y-55843160D01*
X103909066Y-55879781D01*
X103896950Y-55881378D01*
X103880149Y-55850726D01*
X103839539Y-55770526D01*
X103777351Y-55645339D01*
X103695816Y-55479725D01*
X103597165Y-55278243D01*
X103483628Y-55045454D01*
X103357437Y-54785918D01*
X103220822Y-54504195D01*
X103076014Y-54204844D01*
X103018226Y-54085187D01*
X102685527Y-53396374D01*
X102376801Y-52758058D01*
X102090227Y-52166512D01*
X101823981Y-51618009D01*
X101576240Y-51108822D01*
X101345183Y-50635225D01*
X101128986Y-50193491D01*
X100925827Y-49779893D01*
X100733883Y-49390703D01*
X100551330Y-49022196D01*
X100376347Y-48670645D01*
X100207111Y-48332322D01*
X100110778Y-48140506D01*
X99980215Y-47879366D01*
X99868725Y-47654876D01*
X99772344Y-47461882D01*
X99687107Y-47295230D01*
X99609047Y-47149763D01*
X99534201Y-47020328D01*
X99458603Y-46901771D01*
X99378288Y-46788936D01*
X99289290Y-46676669D01*
X99187645Y-46559815D01*
X99069388Y-46433220D01*
X98930552Y-46291728D01*
X98767175Y-46130186D01*
X98575289Y-45943439D01*
X98350930Y-45726332D01*
X98090133Y-45473710D01*
X97968340Y-45355351D01*
X97748659Y-45140396D01*
X97533736Y-44927847D01*
X97329178Y-44723403D01*
X97140595Y-44532766D01*
X96973592Y-44361635D01*
X96833780Y-44215713D01*
X96726764Y-44100698D01*
X96664472Y-44029936D01*
X96495057Y-43830740D01*
X96289623Y-43595200D01*
X96054177Y-43329861D01*
X95794729Y-43041266D01*
X95517285Y-42735959D01*
X95227856Y-42420484D01*
X94932449Y-42101384D01*
X94637072Y-41785204D01*
X94347734Y-41478488D01*
X94070443Y-41187779D01*
X93811207Y-40919621D01*
X93768788Y-40876158D01*
X93625321Y-40728969D01*
X93497222Y-40596746D01*
X93390028Y-40485270D01*
X93309274Y-40400322D01*
X93260498Y-40347682D01*
X93248252Y-40332676D01*
X93285155Y-40319528D01*
X93368766Y-40295473D01*
X93487379Y-40263495D01*
X93629282Y-40226580D01*
X93782768Y-40187711D01*
X93936127Y-40149874D01*
X94077650Y-40116052D01*
X94195628Y-40089232D01*
X94241208Y-40079567D01*
X94434030Y-40043209D01*
X94574163Y-40024060D01*
X94666337Y-40021770D01*
X94715285Y-40035987D01*
X94722533Y-40043871D01*
X94751218Y-40072171D01*
X94816123Y-40128417D01*
X94906356Y-40203323D01*
X94972000Y-40256476D01*
X95206165Y-40444321D01*
X94969224Y-40220845D01*
X94732283Y-39997368D01*
X94834118Y-39979143D01*
X95014617Y-39953036D01*
X95230959Y-39931887D01*
X95474944Y-39915639D01*
X95738377Y-39904229D01*
X96013061Y-39897599D01*
X96290797Y-39895688D01*
X96563389Y-39898437D01*
X96822640Y-39905784D01*
X97060352Y-39917671D01*
X97268328Y-39934038D01*
X97438372Y-39954823D01*
X97562285Y-39979968D01*
X97615975Y-39999507D01*
X97650306Y-40034930D01*
X97711069Y-40117254D01*
X97795027Y-40241174D01*
X97898940Y-40401387D01*
X98019573Y-40592589D01*
X98153687Y-40809474D01*
X98298044Y-41046739D01*
X98449407Y-41299080D01*
X98604537Y-41561192D01*
X98760197Y-41827771D01*
X98913149Y-42093513D01*
X99060155Y-42353113D01*
X99139913Y-42496062D01*
X99266475Y-42720394D01*
X99402403Y-42954604D01*
X99539773Y-43185499D01*
X99670662Y-43399885D01*
X99787143Y-43584569D01*
X99861201Y-43697007D01*
X99972003Y-43866194D01*
X100100683Y-44071748D01*
X100237111Y-44296921D01*
X100371155Y-44524965D01*
X100492686Y-44739133D01*
X100504845Y-44761107D01*
X100654054Y-45024712D01*
X100800780Y-45268345D01*
X100955576Y-45508384D01*
X101128999Y-45761207D01*
X101327161Y-46037112D01*
X101751509Y-46630004D01*
X102152504Y-47215779D01*
X102539470Y-47808884D01*
X102921728Y-48423764D01*
X103308600Y-49074868D01*
X103488372Y-49386487D01*
X103596246Y-49571854D01*
X103694409Y-49731859D01*
X103791710Y-49879041D01*
X103896996Y-50025938D01*
X104019116Y-50185087D01*
X104166918Y-50369026D01*
X104272315Y-50497362D01*
X104417778Y-50673808D01*
X104562467Y-50849808D01*
X104698180Y-51015346D01*
X104816711Y-51160404D01*
X104909856Y-51274967D01*
X104948628Y-51323012D01*
X105041939Y-51437960D01*
X105160081Y-51581693D01*
X105289018Y-51737224D01*
X105414716Y-51887566D01*
X105435498Y-51912272D01*
X105537843Y-52036195D01*
X105624685Y-52145905D01*
X105689242Y-52232468D01*
X105724729Y-52286951D01*
X105729451Y-52299342D01*
X105721442Y-52344428D01*
X105700831Y-52426365D01*
X105672748Y-52527507D01*
X105642320Y-52630206D01*
X105614676Y-52716815D01*
X105594945Y-52769685D01*
X105590563Y-52777286D01*
X105564348Y-52765129D01*
X105508014Y-52720513D01*
X105438150Y-52657191D01*
X105368862Y-52594753D01*
X105336426Y-52574064D01*
X105342715Y-52596286D01*
X105344369Y-52599017D01*
X105386345Y-52672004D01*
X105437985Y-52767864D01*
X105458359Y-52807262D01*
X105499331Y-52884276D01*
X105524459Y-52914181D01*
X105544244Y-52903827D01*
X105561481Y-52874538D01*
X105577639Y-52849972D01*
X105598047Y-52841554D01*
X105630422Y-52854108D01*
X105682480Y-52892462D01*
X105761941Y-52961439D01*
X105876522Y-53065866D01*
X105895787Y-53083572D01*
X106235604Y-53393387D01*
X106538338Y-53663587D01*
X106808463Y-53897902D01*
X107050450Y-54100062D01*
X107268771Y-54273799D01*
X107467901Y-54422841D01*
X107652310Y-54550920D01*
X107665976Y-54559986D01*
X107910396Y-54711331D01*
X108119546Y-54819064D01*
X108292386Y-54882819D01*
X108427875Y-54902224D01*
X108524974Y-54876913D01*
X108536662Y-54868855D01*
X108568713Y-54840781D01*
X108562746Y-54827071D01*
X108510065Y-54822380D01*
X108459975Y-54821721D01*
X108326123Y-54801869D01*
X108193317Y-54738341D01*
X108187403Y-54734621D01*
X108082244Y-54660320D01*
X107946045Y-54552882D01*
X107789871Y-54421982D01*
X107624788Y-54277292D01*
X107461862Y-54128488D01*
X107312160Y-53985243D01*
X107200610Y-53871955D01*
X107107967Y-53773203D01*
X106990607Y-53646595D01*
X106854691Y-53498919D01*
X106706380Y-53336963D01*
X106551834Y-53167513D01*
X106397213Y-52997356D01*
X106248678Y-52833280D01*
X106112390Y-52682072D01*
X105994509Y-52550518D01*
X105901195Y-52445407D01*
X105838609Y-52373525D01*
X105818078Y-52348800D01*
X105751904Y-52264673D01*
X105833109Y-51898925D01*
X105899815Y-51581245D01*
X105951683Y-51290507D01*
X105990675Y-51009740D01*
X106018754Y-50721968D01*
X106037883Y-50410219D01*
X106050024Y-50057518D01*
X106051050Y-50014067D01*
X106054813Y-49525971D01*
X106041729Y-49080416D01*
X106010242Y-48661878D01*
X105958797Y-48254829D01*
X105885836Y-47843744D01*
X105790795Y-47417182D01*
X105582967Y-46685332D01*
X105320230Y-45975184D01*
X105004700Y-45289623D01*
X104638491Y-44631533D01*
X104223717Y-44003800D01*
X103762493Y-43409307D01*
X103256933Y-42850939D01*
X102709152Y-42331582D01*
X102121264Y-41854119D01*
X101495384Y-41421435D01*
X101312819Y-41308217D01*
X100689742Y-40962324D01*
X100037962Y-40659751D01*
X99367466Y-40404259D01*
X98688240Y-40199612D01*
X98010273Y-40049572D01*
X97938317Y-40036925D01*
X97780490Y-40004800D01*
X97678655Y-39971666D01*
X97629537Y-39937325D01*
X97602301Y-39898487D01*
X97546193Y-39817590D01*
X97466345Y-39702066D01*
X97367891Y-39559346D01*
X97255963Y-39396863D01*
X97167651Y-39268520D01*
X96838166Y-38800752D01*
X96528214Y-38384728D01*
X96234415Y-38016688D01*
X95953387Y-37692875D01*
X95681750Y-37409527D01*
X95416124Y-37162887D01*
X95153127Y-36949194D01*
X94954645Y-36807662D01*
X94779714Y-36700854D01*
X94578332Y-36594997D01*
X94369602Y-36498934D01*
X94172626Y-36421505D01*
X94018698Y-36374449D01*
X93772482Y-36330735D01*
X93506053Y-36311295D01*
X93245582Y-36317028D01*
X93053675Y-36341356D01*
X92697882Y-36439288D01*
X92356889Y-36595304D01*
X92031154Y-36809179D01*
X91918399Y-36899715D01*
X91831367Y-36967490D01*
X91760522Y-37002670D01*
X91679977Y-37015502D01*
X91622731Y-37016747D01*
X91220378Y-37040328D01*
X90812119Y-37108428D01*
X90715025Y-37134780D01*
X92933850Y-37134780D01*
X92975415Y-37108709D01*
X93014440Y-37096522D01*
X93071385Y-37089971D01*
X93169881Y-37086760D01*
X93291499Y-37087367D01*
X93329688Y-37088363D01*
X93504825Y-37101008D01*
X93649340Y-37130099D01*
X93773401Y-37173491D01*
X93976348Y-37266155D01*
X94157971Y-37372270D01*
X94334463Y-37502960D01*
X94522015Y-37669347D01*
X94588506Y-37733409D01*
X94686629Y-37831158D01*
X94759561Y-37907222D01*
X94801899Y-37955665D01*
X94808240Y-37970554D01*
X94800846Y-37966669D01*
X94490525Y-37773934D01*
X94222390Y-37620237D01*
X93994156Y-37504271D01*
X93983233Y-37499200D01*
X93822111Y-37430140D01*
X93637580Y-37359567D01*
X93446331Y-37293092D01*
X93265057Y-37236329D01*
X93110449Y-37194892D01*
X93029078Y-37178335D01*
X92951847Y-37158604D01*
X92933850Y-37134780D01*
X90715025Y-37134780D01*
X90411783Y-37217082D01*
X90033204Y-37362323D01*
X89690213Y-37540189D01*
X89600826Y-37596354D01*
X89497439Y-37656509D01*
X89395815Y-37703264D01*
X89336544Y-37721975D01*
X89258368Y-37745200D01*
X89148493Y-37787152D01*
X89028769Y-37839392D01*
X89011307Y-37847595D01*
X88771131Y-37994357D01*
X88770741Y-37994723D01*
X91694525Y-37994723D01*
X91704484Y-37970920D01*
X91732548Y-37938736D01*
X91739171Y-37931685D01*
X91776732Y-37894646D01*
X91814060Y-37871747D01*
X91862766Y-37862637D01*
X91934460Y-37866966D01*
X92040752Y-37884384D01*
X92193254Y-37914540D01*
X92208002Y-37917534D01*
X92330694Y-37944891D01*
X92471255Y-37980083D01*
X92618819Y-38019897D01*
X92762519Y-38061118D01*
X92891488Y-38100533D01*
X92994861Y-38134928D01*
X93061770Y-38161089D01*
X93081350Y-38175802D01*
X93081327Y-38175825D01*
X93048854Y-38175949D01*
X92971671Y-38166835D01*
X92864090Y-38150298D01*
X92818268Y-38142455D01*
X92687286Y-38122527D01*
X92518430Y-38101276D01*
X92333748Y-38081279D01*
X92159804Y-38065477D01*
X91974882Y-38050385D01*
X91842850Y-38037976D01*
X91756751Y-38026038D01*
X91709628Y-38012358D01*
X91694525Y-37994723D01*
X88770741Y-37994723D01*
X88562879Y-38189779D01*
X88388563Y-38430457D01*
X88250191Y-38712985D01*
X88149774Y-39033961D01*
X88089320Y-39389977D01*
X88086877Y-39413691D01*
X88065752Y-39542796D01*
X88028650Y-39695886D01*
X87983232Y-39841747D01*
X87978805Y-39853981D01*
X87861286Y-40215691D01*
X87846165Y-40274312D01*
X88431228Y-40274312D01*
X88444325Y-40059562D01*
X88457595Y-39928788D01*
X88484619Y-39821570D01*
X88534036Y-39709390D01*
X88571670Y-39639231D01*
X88827150Y-39225996D01*
X89104533Y-38867022D01*
X89405729Y-38559952D01*
X89531697Y-38452427D01*
X89711839Y-38306492D01*
X89906993Y-38325101D01*
X90008648Y-38336334D01*
X90083651Y-38347512D01*
X90114656Y-38355760D01*
X90121089Y-38363844D01*
X90115358Y-38374504D01*
X90088026Y-38394423D01*
X90029654Y-38430284D01*
X89930803Y-38488772D01*
X89906993Y-38502802D01*
X89578854Y-38723906D01*
X89284212Y-38982450D01*
X89018268Y-39283785D01*
X88776228Y-39633258D01*
X88580462Y-39982387D01*
X88431228Y-40274312D01*
X87846165Y-40274312D01*
X87754480Y-40629754D01*
X87659832Y-41089199D01*
X87578786Y-41587052D01*
X87515544Y-42090742D01*
X87501749Y-42247943D01*
X87490175Y-42439209D01*
X87480885Y-42655433D01*
X87473943Y-42887505D01*
X87469413Y-43126317D01*
X87467358Y-43362761D01*
X87467842Y-43587728D01*
X87470929Y-43792110D01*
X87476683Y-43966798D01*
X87485167Y-44102684D01*
X87496446Y-44190659D01*
X87500722Y-44207409D01*
X87517271Y-44252828D01*
X87526465Y-44255128D01*
X87530890Y-44208245D01*
X87532715Y-44132350D01*
X87542463Y-43893813D01*
X87563472Y-43610545D01*
X87593966Y-43296431D01*
X87632172Y-42965356D01*
X87676312Y-42631204D01*
X87724613Y-42307860D01*
X87775297Y-42009207D01*
X87826590Y-41749132D01*
X87851425Y-41639916D01*
X87897298Y-41457062D01*
X87945919Y-41276721D01*
X87994511Y-41107817D01*
X88040297Y-40959276D01*
X88080500Y-40840022D01*
X88112342Y-40758982D01*
X88133048Y-40725079D01*
X88136102Y-40724978D01*
X88163680Y-40773580D01*
X88177466Y-40869054D01*
X88177479Y-40999835D01*
X88163744Y-41154359D01*
X88136282Y-41321060D01*
X88134948Y-41327580D01*
X88091457Y-41551354D01*
X88056118Y-41765536D01*
X88028092Y-41980321D01*
X88006545Y-42205901D01*
X87990640Y-42452471D01*
X87979542Y-42730223D01*
X87972413Y-43049350D01*
X87968922Y-43351735D01*
X87964243Y-43936441D01*
X88137067Y-43936441D01*
X88139951Y-43819778D01*
X88145907Y-43674517D01*
X88154412Y-43511081D01*
X88164946Y-43339894D01*
X88176984Y-43171377D01*
X88190006Y-43015955D01*
X88198274Y-42931404D01*
X88214953Y-42790479D01*
X88237113Y-42628883D01*
X88262783Y-42458404D01*
X88289993Y-42290830D01*
X88316771Y-42137949D01*
X88341145Y-42011549D01*
X88361144Y-41923418D01*
X88372702Y-41888328D01*
X88388913Y-41900521D01*
X88418648Y-41960658D01*
X88457844Y-42059265D01*
X88502438Y-42186872D01*
X88507924Y-42203576D01*
X88575469Y-42405004D01*
X88635873Y-42574151D01*
X88686850Y-42705266D01*
X88726114Y-42792597D01*
X88751382Y-42830392D01*
X88756963Y-42830449D01*
X88755954Y-42797941D01*
X88743994Y-42718420D01*
X88723067Y-42603511D01*
X88695154Y-42464839D01*
X88692340Y-42451465D01*
X88654005Y-42262174D01*
X88613176Y-42047983D01*
X88575790Y-41840582D01*
X88556556Y-41726924D01*
X88498107Y-41368655D01*
X88589341Y-41106708D01*
X88665683Y-40905839D01*
X88760085Y-40685571D01*
X88864595Y-40462447D01*
X88971264Y-40253012D01*
X89072141Y-40073809D01*
X89128457Y-39984893D01*
X89271629Y-39795276D01*
X89445371Y-39599940D01*
X89631480Y-39417788D01*
X89811753Y-39267722D01*
X89836729Y-39249459D01*
X89927598Y-39189708D01*
X90039498Y-39123875D01*
X90160438Y-39058025D01*
X90278428Y-38998221D01*
X90381477Y-38950527D01*
X90457595Y-38921007D01*
X90494791Y-38915724D01*
X90495520Y-38916307D01*
X90489993Y-38947520D01*
X90464031Y-39018783D01*
X90422917Y-39115884D01*
X90413783Y-39136181D01*
X90325142Y-39340169D01*
X90225428Y-39584343D01*
X90121170Y-39851477D01*
X90018894Y-40124349D01*
X89925129Y-40385734D01*
X89846402Y-40618407D01*
X89817466Y-40709655D01*
X89767432Y-40876899D01*
X89713448Y-41065921D01*
X89657943Y-41267283D01*
X89603348Y-41471549D01*
X89552091Y-41669283D01*
X89506601Y-41851046D01*
X89469310Y-42007403D01*
X89442645Y-42128916D01*
X89429036Y-42206150D01*
X89427800Y-42223264D01*
X89438747Y-42211761D01*
X89469282Y-42150391D01*
X89516825Y-42045095D01*
X89578795Y-41901811D01*
X89652610Y-41726477D01*
X89735689Y-41525033D01*
X89798576Y-41370175D01*
X89930424Y-41046141D01*
X90046349Y-40767940D01*
X90151246Y-40525084D01*
X90250013Y-40307085D01*
X90347547Y-40103453D01*
X90448744Y-39903701D01*
X90558501Y-39697339D01*
X90681716Y-39473879D01*
X90695029Y-39450078D01*
X90814779Y-39237763D01*
X90910296Y-39072787D01*
X90985550Y-38949479D01*
X91044511Y-38862164D01*
X91091149Y-38805171D01*
X91129435Y-38772827D01*
X91163339Y-38759460D01*
X91179339Y-38758118D01*
X91233753Y-38774111D01*
X91323414Y-38817276D01*
X91434346Y-38880391D01*
X91517728Y-38932943D01*
X91640112Y-39017148D01*
X91791678Y-39127217D01*
X91955496Y-39250552D01*
X92114633Y-39374557D01*
X92159016Y-39410074D01*
X92187797Y-39433650D01*
X93930161Y-39433650D01*
X93945172Y-39418638D01*
X93960184Y-39433650D01*
X93945172Y-39448662D01*
X93930161Y-39433650D01*
X92187797Y-39433650D01*
X92218784Y-39459033D01*
X93990208Y-39459033D01*
X94013159Y-39464720D01*
X94081761Y-39508709D01*
X94195642Y-39590735D01*
X94354427Y-39710535D01*
X94434951Y-39772465D01*
X94536062Y-39852780D01*
X94614726Y-39919512D01*
X94661708Y-39964549D01*
X94670488Y-39979335D01*
X94644043Y-39966614D01*
X94581163Y-39924180D01*
X94492201Y-39859955D01*
X94387515Y-39781859D01*
X94277459Y-39697812D01*
X94172390Y-39615734D01*
X94082663Y-39543546D01*
X94018634Y-39489169D01*
X93990658Y-39460522D01*
X93990208Y-39459033D01*
X92218784Y-39459033D01*
X92288243Y-39515930D01*
X92430126Y-39635007D01*
X92577789Y-39761216D01*
X92724359Y-39888470D01*
X92862961Y-40010681D01*
X92986719Y-40121762D01*
X93088760Y-40215624D01*
X93162209Y-40286179D01*
X93200191Y-40327340D01*
X93203625Y-40335124D01*
X93173592Y-40348285D01*
X93098325Y-40377698D01*
X92989015Y-40419076D01*
X92856853Y-40468130D01*
X92850100Y-40470614D01*
X92150814Y-40758383D01*
X91475776Y-41097602D01*
X90829041Y-41485272D01*
X90214663Y-41918398D01*
X89636697Y-42393984D01*
X89099198Y-42909031D01*
X88606219Y-43460545D01*
X88332081Y-43809596D01*
X88256266Y-43909098D01*
X88193738Y-43987362D01*
X88153022Y-44033919D01*
X88142605Y-44042279D01*
X88137778Y-44014082D01*
X88137067Y-43936441D01*
X87964243Y-43936441D01*
X87961112Y-44327504D01*
X87760369Y-44657764D01*
X87393959Y-45317884D01*
X87081122Y-46004571D01*
X86821748Y-46718158D01*
X86615726Y-47458980D01*
X86462944Y-48227369D01*
X86390511Y-48755991D01*
X86376514Y-48923193D01*
X86366135Y-49136613D01*
X86359374Y-49382530D01*
X86356231Y-49647224D01*
X86356707Y-49916974D01*
X86360801Y-50178060D01*
X86368513Y-50416761D01*
X86379844Y-50619357D01*
X86390511Y-50737551D01*
X86508324Y-51526028D01*
X86680164Y-52288321D01*
X86906088Y-53024566D01*
X87186150Y-53734899D01*
X87520408Y-54419457D01*
X87908917Y-55078377D01*
X88351734Y-55711794D01*
X88522879Y-55931641D01*
X88675727Y-56113735D01*
X88861911Y-56321430D01*
X89068805Y-56541685D01*
X89283783Y-56761461D01*
X89494218Y-56967715D01*
X89687485Y-57147409D01*
X89771886Y-57221634D01*
X90375723Y-57700954D01*
X91010617Y-58129337D01*
X91674291Y-58505790D01*
X92364466Y-58829321D01*
X93078866Y-59098937D01*
X93815212Y-59313646D01*
X94571227Y-59472456D01*
X95116094Y-59550432D01*
X95339529Y-59570649D01*
X95605860Y-59585582D01*
X95899505Y-59595109D01*
X96204877Y-59599112D01*
X96506392Y-59597469D01*
X96788466Y-59590059D01*
X97035513Y-59576764D01*
X97157702Y-59566196D01*
X97935227Y-59457325D01*
X98688583Y-59293559D01*
X99418410Y-59074633D01*
X100125349Y-58800283D01*
X100810039Y-58470244D01*
X101473120Y-58084253D01*
X102115232Y-57642044D01*
X102456875Y-57377043D01*
X102587927Y-57266056D01*
X102744242Y-57125405D01*
X102916709Y-56964075D01*
X103096217Y-56791056D01*
X103273656Y-56615336D01*
X103439915Y-56445902D01*
X103585884Y-56291742D01*
X103702452Y-56161845D01*
X103762903Y-56088591D01*
X103826422Y-56009463D01*
X103875266Y-55953432D01*
X103898009Y-55933178D01*
X103914615Y-55958771D01*
X103954793Y-56031795D01*
X104015268Y-56145970D01*
X104092767Y-56295015D01*
X104184014Y-56472651D01*
X104285737Y-56672596D01*
X104355226Y-56810165D01*
X104570684Y-57233484D01*
X104777895Y-57631929D01*
X104975065Y-58002394D01*
X105160398Y-58341770D01*
X105332098Y-58646952D01*
X105488372Y-58914832D01*
X105627422Y-59142304D01*
X105747454Y-59326261D01*
X105846673Y-59463595D01*
X105923283Y-59551201D01*
X105953434Y-59575970D01*
X106005570Y-59606902D01*
X106024269Y-59606685D01*
G37*
X106024269Y-59606685D02*
X106008547Y-59570497D01*
X105957416Y-59493518D01*
X105928081Y-59451982D01*
X105873205Y-59370979D01*
X105819438Y-59282069D01*
X105763406Y-59178140D01*
X105701736Y-59052082D01*
X105631053Y-58896787D01*
X105547984Y-58705143D01*
X105449155Y-58470041D01*
X105361169Y-58257294D01*
X105286340Y-58073597D01*
X105194050Y-57844001D01*
X105088301Y-57578691D01*
X104973093Y-57287848D01*
X104852429Y-56981657D01*
X104730309Y-56670299D01*
X104610734Y-56363959D01*
X104497706Y-56072818D01*
X104395226Y-55807060D01*
X104307294Y-55576868D01*
X104289798Y-55530684D01*
X104257389Y-55444976D01*
X104088985Y-55675575D01*
X104014527Y-55771984D01*
X103951654Y-55843160D01*
X103909066Y-55879781D01*
X103896950Y-55881378D01*
X103880149Y-55850726D01*
X103839539Y-55770526D01*
X103777351Y-55645339D01*
X103695816Y-55479725D01*
X103597165Y-55278243D01*
X103483628Y-55045454D01*
X103357437Y-54785918D01*
X103220822Y-54504195D01*
X103076014Y-54204844D01*
X103018226Y-54085187D01*
X102685527Y-53396374D01*
X102376801Y-52758058D01*
X102090227Y-52166512D01*
X101823981Y-51618009D01*
X101576240Y-51108822D01*
X101345183Y-50635225D01*
X101128986Y-50193491D01*
X100925827Y-49779893D01*
X100733883Y-49390703D01*
X100551330Y-49022196D01*
X100376347Y-48670645D01*
X100207111Y-48332322D01*
X100110778Y-48140506D01*
X99980215Y-47879366D01*
X99868725Y-47654876D01*
X99772344Y-47461882D01*
X99687107Y-47295230D01*
X99609047Y-47149763D01*
X99534201Y-47020328D01*
X99458603Y-46901771D01*
X99378288Y-46788936D01*
X99289290Y-46676669D01*
X99187645Y-46559815D01*
X99069388Y-46433220D01*
X98930552Y-46291728D01*
X98767175Y-46130186D01*
X98575289Y-45943439D01*
X98350930Y-45726332D01*
X98090133Y-45473710D01*
X97968340Y-45355351D01*
X97748659Y-45140396D01*
X97533736Y-44927847D01*
X97329178Y-44723403D01*
X97140595Y-44532766D01*
X96973592Y-44361635D01*
X96833780Y-44215713D01*
X96726764Y-44100698D01*
X96664472Y-44029936D01*
X96495057Y-43830740D01*
X96289623Y-43595200D01*
X96054177Y-43329861D01*
X95794729Y-43041266D01*
X95517285Y-42735959D01*
X95227856Y-42420484D01*
X94932449Y-42101384D01*
X94637072Y-41785204D01*
X94347734Y-41478488D01*
X94070443Y-41187779D01*
X93811207Y-40919621D01*
X93768788Y-40876158D01*
X93625321Y-40728969D01*
X93497222Y-40596746D01*
X93390028Y-40485270D01*
X93309274Y-40400322D01*
X93260498Y-40347682D01*
X93248252Y-40332676D01*
X93285155Y-40319528D01*
X93368766Y-40295473D01*
X93487379Y-40263495D01*
X93629282Y-40226580D01*
X93782768Y-40187711D01*
X93936127Y-40149874D01*
X94077650Y-40116052D01*
X94195628Y-40089232D01*
X94241208Y-40079567D01*
X94434030Y-40043209D01*
X94574163Y-40024060D01*
X94666337Y-40021770D01*
X94715285Y-40035987D01*
X94722533Y-40043871D01*
X94751218Y-40072171D01*
X94816123Y-40128417D01*
X94906356Y-40203323D01*
X94972000Y-40256476D01*
X95206165Y-40444321D01*
X94969224Y-40220845D01*
X94732283Y-39997368D01*
X94834118Y-39979143D01*
X95014617Y-39953036D01*
X95230959Y-39931887D01*
X95474944Y-39915639D01*
X95738377Y-39904229D01*
X96013061Y-39897599D01*
X96290797Y-39895688D01*
X96563389Y-39898437D01*
X96822640Y-39905784D01*
X97060352Y-39917671D01*
X97268328Y-39934038D01*
X97438372Y-39954823D01*
X97562285Y-39979968D01*
X97615975Y-39999507D01*
X97650306Y-40034930D01*
X97711069Y-40117254D01*
X97795027Y-40241174D01*
X97898940Y-40401387D01*
X98019573Y-40592589D01*
X98153687Y-40809474D01*
X98298044Y-41046739D01*
X98449407Y-41299080D01*
X98604537Y-41561192D01*
X98760197Y-41827771D01*
X98913149Y-42093513D01*
X99060155Y-42353113D01*
X99139913Y-42496062D01*
X99266475Y-42720394D01*
X99402403Y-42954604D01*
X99539773Y-43185499D01*
X99670662Y-43399885D01*
X99787143Y-43584569D01*
X99861201Y-43697007D01*
X99972003Y-43866194D01*
X100100683Y-44071748D01*
X100237111Y-44296921D01*
X100371155Y-44524965D01*
X100492686Y-44739133D01*
X100504845Y-44761107D01*
X100654054Y-45024712D01*
X100800780Y-45268345D01*
X100955576Y-45508384D01*
X101128999Y-45761207D01*
X101327161Y-46037112D01*
X101751509Y-46630004D01*
X102152504Y-47215779D01*
X102539470Y-47808884D01*
X102921728Y-48423764D01*
X103308600Y-49074868D01*
X103488372Y-49386487D01*
X103596246Y-49571854D01*
X103694409Y-49731859D01*
X103791710Y-49879041D01*
X103896996Y-50025938D01*
X104019116Y-50185087D01*
X104166918Y-50369026D01*
X104272315Y-50497362D01*
X104417778Y-50673808D01*
X104562467Y-50849808D01*
X104698180Y-51015346D01*
X104816711Y-51160404D01*
X104909856Y-51274967D01*
X104948628Y-51323012D01*
X105041939Y-51437960D01*
X105160081Y-51581693D01*
X105289018Y-51737224D01*
X105414716Y-51887566D01*
X105435498Y-51912272D01*
X105537843Y-52036195D01*
X105624685Y-52145905D01*
X105689242Y-52232468D01*
X105724729Y-52286951D01*
X105729451Y-52299342D01*
X105721442Y-52344428D01*
X105700831Y-52426365D01*
X105672748Y-52527507D01*
X105642320Y-52630206D01*
X105614676Y-52716815D01*
X105594945Y-52769685D01*
X105590563Y-52777286D01*
X105564348Y-52765129D01*
X105508014Y-52720513D01*
X105438150Y-52657191D01*
X105368862Y-52594753D01*
X105336426Y-52574064D01*
X105342715Y-52596286D01*
X105344369Y-52599017D01*
X105386345Y-52672004D01*
X105437985Y-52767864D01*
X105458359Y-52807262D01*
X105499331Y-52884276D01*
X105524459Y-52914181D01*
X105544244Y-52903827D01*
X105561481Y-52874538D01*
X105577639Y-52849972D01*
X105598047Y-52841554D01*
X105630422Y-52854108D01*
X105682480Y-52892462D01*
X105761941Y-52961439D01*
X105876522Y-53065866D01*
X105895787Y-53083572D01*
X106235604Y-53393387D01*
X106538338Y-53663587D01*
X106808463Y-53897902D01*
X107050450Y-54100062D01*
X107268771Y-54273799D01*
X107467901Y-54422841D01*
X107652310Y-54550920D01*
X107665976Y-54559986D01*
X107910396Y-54711331D01*
X108119546Y-54819064D01*
X108292386Y-54882819D01*
X108427875Y-54902224D01*
X108524974Y-54876913D01*
X108536662Y-54868855D01*
X108568713Y-54840781D01*
X108562746Y-54827071D01*
X108510065Y-54822380D01*
X108459975Y-54821721D01*
X108326123Y-54801869D01*
X108193317Y-54738341D01*
X108187403Y-54734621D01*
X108082244Y-54660320D01*
X107946045Y-54552882D01*
X107789871Y-54421982D01*
X107624788Y-54277292D01*
X107461862Y-54128488D01*
X107312160Y-53985243D01*
X107200610Y-53871955D01*
X107107967Y-53773203D01*
X106990607Y-53646595D01*
X106854691Y-53498919D01*
X106706380Y-53336963D01*
X106551834Y-53167513D01*
X106397213Y-52997356D01*
X106248678Y-52833280D01*
X106112390Y-52682072D01*
X105994509Y-52550518D01*
X105901195Y-52445407D01*
X105838609Y-52373525D01*
X105818078Y-52348800D01*
X105751904Y-52264673D01*
X105833109Y-51898925D01*
X105899815Y-51581245D01*
X105951683Y-51290507D01*
X105990675Y-51009740D01*
X106018754Y-50721968D01*
X106037883Y-50410219D01*
X106050024Y-50057518D01*
X106051050Y-50014067D01*
X106054813Y-49525971D01*
X106041729Y-49080416D01*
X106010242Y-48661878D01*
X105958797Y-48254829D01*
X105885836Y-47843744D01*
X105790795Y-47417182D01*
X105582967Y-46685332D01*
X105320230Y-45975184D01*
X105004700Y-45289623D01*
X104638491Y-44631533D01*
X104223717Y-44003800D01*
X103762493Y-43409307D01*
X103256933Y-42850939D01*
X102709152Y-42331582D01*
X102121264Y-41854119D01*
X101495384Y-41421435D01*
X101312819Y-41308217D01*
X100689742Y-40962324D01*
X100037962Y-40659751D01*
X99367466Y-40404259D01*
X98688240Y-40199612D01*
X98010273Y-40049572D01*
X97938317Y-40036925D01*
X97780490Y-40004800D01*
X97678655Y-39971666D01*
X97629537Y-39937325D01*
X97602301Y-39898487D01*
X97546193Y-39817590D01*
X97466345Y-39702066D01*
X97367891Y-39559346D01*
X97255963Y-39396863D01*
X97167651Y-39268520D01*
X96838166Y-38800752D01*
X96528214Y-38384728D01*
X96234415Y-38016688D01*
X95953387Y-37692875D01*
X95681750Y-37409527D01*
X95416124Y-37162887D01*
X95153127Y-36949194D01*
X94954645Y-36807662D01*
X94779714Y-36700854D01*
X94578332Y-36594997D01*
X94369602Y-36498934D01*
X94172626Y-36421505D01*
X94018698Y-36374449D01*
X93772482Y-36330735D01*
X93506053Y-36311295D01*
X93245582Y-36317028D01*
X93053675Y-36341356D01*
X92697882Y-36439288D01*
X92356889Y-36595304D01*
X92031154Y-36809179D01*
X91918399Y-36899715D01*
X91831367Y-36967490D01*
X91760522Y-37002670D01*
X91679977Y-37015502D01*
X91622731Y-37016747D01*
X91220378Y-37040328D01*
X90812119Y-37108428D01*
X90715025Y-37134780D01*
X92933850Y-37134780D01*
X92975415Y-37108709D01*
X93014440Y-37096522D01*
X93071385Y-37089971D01*
X93169881Y-37086760D01*
X93291499Y-37087367D01*
X93329688Y-37088363D01*
X93504825Y-37101008D01*
X93649340Y-37130099D01*
X93773401Y-37173491D01*
X93976348Y-37266155D01*
X94157971Y-37372270D01*
X94334463Y-37502960D01*
X94522015Y-37669347D01*
X94588506Y-37733409D01*
X94686629Y-37831158D01*
X94759561Y-37907222D01*
X94801899Y-37955665D01*
X94808240Y-37970554D01*
X94800846Y-37966669D01*
X94490525Y-37773934D01*
X94222390Y-37620237D01*
X93994156Y-37504271D01*
X93983233Y-37499200D01*
X93822111Y-37430140D01*
X93637580Y-37359567D01*
X93446331Y-37293092D01*
X93265057Y-37236329D01*
X93110449Y-37194892D01*
X93029078Y-37178335D01*
X92951847Y-37158604D01*
X92933850Y-37134780D01*
X90715025Y-37134780D01*
X90411783Y-37217082D01*
X90033204Y-37362323D01*
X89690213Y-37540189D01*
X89600826Y-37596354D01*
X89497439Y-37656509D01*
X89395815Y-37703264D01*
X89336544Y-37721975D01*
X89258368Y-37745200D01*
X89148493Y-37787152D01*
X89028769Y-37839392D01*
X89011307Y-37847595D01*
X88771131Y-37994357D01*
X88770741Y-37994723D01*
X91694525Y-37994723D01*
X91704484Y-37970920D01*
X91732548Y-37938736D01*
X91739171Y-37931685D01*
X91776732Y-37894646D01*
X91814060Y-37871747D01*
X91862766Y-37862637D01*
X91934460Y-37866966D01*
X92040752Y-37884384D01*
X92193254Y-37914540D01*
X92208002Y-37917534D01*
X92330694Y-37944891D01*
X92471255Y-37980083D01*
X92618819Y-38019897D01*
X92762519Y-38061118D01*
X92891488Y-38100533D01*
X92994861Y-38134928D01*
X93061770Y-38161089D01*
X93081350Y-38175802D01*
X93081327Y-38175825D01*
X93048854Y-38175949D01*
X92971671Y-38166835D01*
X92864090Y-38150298D01*
X92818268Y-38142455D01*
X92687286Y-38122527D01*
X92518430Y-38101276D01*
X92333748Y-38081279D01*
X92159804Y-38065477D01*
X91974882Y-38050385D01*
X91842850Y-38037976D01*
X91756751Y-38026038D01*
X91709628Y-38012358D01*
X91694525Y-37994723D01*
X88770741Y-37994723D01*
X88562879Y-38189779D01*
X88388563Y-38430457D01*
X88250191Y-38712985D01*
X88149774Y-39033961D01*
X88089320Y-39389977D01*
X88086877Y-39413691D01*
X88065752Y-39542796D01*
X88028650Y-39695886D01*
X87983232Y-39841747D01*
X87978805Y-39853981D01*
X87861286Y-40215691D01*
X87846165Y-40274312D01*
X88431228Y-40274312D01*
X88444325Y-40059562D01*
X88457595Y-39928788D01*
X88484619Y-39821570D01*
X88534036Y-39709390D01*
X88571670Y-39639231D01*
X88827150Y-39225996D01*
X89104533Y-38867022D01*
X89405729Y-38559952D01*
X89531697Y-38452427D01*
X89711839Y-38306492D01*
X89906993Y-38325101D01*
X90008648Y-38336334D01*
X90083651Y-38347512D01*
X90114656Y-38355760D01*
X90121089Y-38363844D01*
X90115358Y-38374504D01*
X90088026Y-38394423D01*
X90029654Y-38430284D01*
X89930803Y-38488772D01*
X89906993Y-38502802D01*
X89578854Y-38723906D01*
X89284212Y-38982450D01*
X89018268Y-39283785D01*
X88776228Y-39633258D01*
X88580462Y-39982387D01*
X88431228Y-40274312D01*
X87846165Y-40274312D01*
X87754480Y-40629754D01*
X87659832Y-41089199D01*
X87578786Y-41587052D01*
X87515544Y-42090742D01*
X87501749Y-42247943D01*
X87490175Y-42439209D01*
X87480885Y-42655433D01*
X87473943Y-42887505D01*
X87469413Y-43126317D01*
X87467358Y-43362761D01*
X87467842Y-43587728D01*
X87470929Y-43792110D01*
X87476683Y-43966798D01*
X87485167Y-44102684D01*
X87496446Y-44190659D01*
X87500722Y-44207409D01*
X87517271Y-44252828D01*
X87526465Y-44255128D01*
X87530890Y-44208245D01*
X87532715Y-44132350D01*
X87542463Y-43893813D01*
X87563472Y-43610545D01*
X87593966Y-43296431D01*
X87632172Y-42965356D01*
X87676312Y-42631204D01*
X87724613Y-42307860D01*
X87775297Y-42009207D01*
X87826590Y-41749132D01*
X87851425Y-41639916D01*
X87897298Y-41457062D01*
X87945919Y-41276721D01*
X87994511Y-41107817D01*
X88040297Y-40959276D01*
X88080500Y-40840022D01*
X88112342Y-40758982D01*
X88133048Y-40725079D01*
X88136102Y-40724978D01*
X88163680Y-40773580D01*
X88177466Y-40869054D01*
X88177479Y-40999835D01*
X88163744Y-41154359D01*
X88136282Y-41321060D01*
X88134948Y-41327580D01*
X88091457Y-41551354D01*
X88056118Y-41765536D01*
X88028092Y-41980321D01*
X88006545Y-42205901D01*
X87990640Y-42452471D01*
X87979542Y-42730223D01*
X87972413Y-43049350D01*
X87968922Y-43351735D01*
X87964243Y-43936441D01*
X88137067Y-43936441D01*
X88139951Y-43819778D01*
X88145907Y-43674517D01*
X88154412Y-43511081D01*
X88164946Y-43339894D01*
X88176984Y-43171377D01*
X88190006Y-43015955D01*
X88198274Y-42931404D01*
X88214953Y-42790479D01*
X88237113Y-42628883D01*
X88262783Y-42458404D01*
X88289993Y-42290830D01*
X88316771Y-42137949D01*
X88341145Y-42011549D01*
X88361144Y-41923418D01*
X88372702Y-41888328D01*
X88388913Y-41900521D01*
X88418648Y-41960658D01*
X88457844Y-42059265D01*
X88502438Y-42186872D01*
X88507924Y-42203576D01*
X88575469Y-42405004D01*
X88635873Y-42574151D01*
X88686850Y-42705266D01*
X88726114Y-42792597D01*
X88751382Y-42830392D01*
X88756963Y-42830449D01*
X88755954Y-42797941D01*
X88743994Y-42718420D01*
X88723067Y-42603511D01*
X88695154Y-42464839D01*
X88692340Y-42451465D01*
X88654005Y-42262174D01*
X88613176Y-42047983D01*
X88575790Y-41840582D01*
X88556556Y-41726924D01*
X88498107Y-41368655D01*
X88589341Y-41106708D01*
X88665683Y-40905839D01*
X88760085Y-40685571D01*
X88864595Y-40462447D01*
X88971264Y-40253012D01*
X89072141Y-40073809D01*
X89128457Y-39984893D01*
X89271629Y-39795276D01*
X89445371Y-39599940D01*
X89631480Y-39417788D01*
X89811753Y-39267722D01*
X89836729Y-39249459D01*
X89927598Y-39189708D01*
X90039498Y-39123875D01*
X90160438Y-39058025D01*
X90278428Y-38998221D01*
X90381477Y-38950527D01*
X90457595Y-38921007D01*
X90494791Y-38915724D01*
X90495520Y-38916307D01*
X90489993Y-38947520D01*
X90464031Y-39018783D01*
X90422917Y-39115884D01*
X90413783Y-39136181D01*
X90325142Y-39340169D01*
X90225428Y-39584343D01*
X90121170Y-39851477D01*
X90018894Y-40124349D01*
X89925129Y-40385734D01*
X89846402Y-40618407D01*
X89817466Y-40709655D01*
X89767432Y-40876899D01*
X89713448Y-41065921D01*
X89657943Y-41267283D01*
X89603348Y-41471549D01*
X89552091Y-41669283D01*
X89506601Y-41851046D01*
X89469310Y-42007403D01*
X89442645Y-42128916D01*
X89429036Y-42206150D01*
X89427800Y-42223264D01*
X89438747Y-42211761D01*
X89469282Y-42150391D01*
X89516825Y-42045095D01*
X89578795Y-41901811D01*
X89652610Y-41726477D01*
X89735689Y-41525033D01*
X89798576Y-41370175D01*
X89930424Y-41046141D01*
X90046349Y-40767940D01*
X90151246Y-40525084D01*
X90250013Y-40307085D01*
X90347547Y-40103453D01*
X90448744Y-39903701D01*
X90558501Y-39697339D01*
X90681716Y-39473879D01*
X90695029Y-39450078D01*
X90814779Y-39237763D01*
X90910296Y-39072787D01*
X90985550Y-38949479D01*
X91044511Y-38862164D01*
X91091149Y-38805171D01*
X91129435Y-38772827D01*
X91163339Y-38759460D01*
X91179339Y-38758118D01*
X91233753Y-38774111D01*
X91323414Y-38817276D01*
X91434346Y-38880391D01*
X91517728Y-38932943D01*
X91640112Y-39017148D01*
X91791678Y-39127217D01*
X91955496Y-39250552D01*
X92114633Y-39374557D01*
X92159016Y-39410074D01*
X92187797Y-39433650D01*
X93930161Y-39433650D01*
X93945172Y-39418638D01*
X93960184Y-39433650D01*
X93945172Y-39448662D01*
X93930161Y-39433650D01*
X92187797Y-39433650D01*
X92218784Y-39459033D01*
X93990208Y-39459033D01*
X94013159Y-39464720D01*
X94081761Y-39508709D01*
X94195642Y-39590735D01*
X94354427Y-39710535D01*
X94434951Y-39772465D01*
X94536062Y-39852780D01*
X94614726Y-39919512D01*
X94661708Y-39964549D01*
X94670488Y-39979335D01*
X94644043Y-39966614D01*
X94581163Y-39924180D01*
X94492201Y-39859955D01*
X94387515Y-39781859D01*
X94277459Y-39697812D01*
X94172390Y-39615734D01*
X94082663Y-39543546D01*
X94018634Y-39489169D01*
X93990658Y-39460522D01*
X93990208Y-39459033D01*
X92218784Y-39459033D01*
X92288243Y-39515930D01*
X92430126Y-39635007D01*
X92577789Y-39761216D01*
X92724359Y-39888470D01*
X92862961Y-40010681D01*
X92986719Y-40121762D01*
X93088760Y-40215624D01*
X93162209Y-40286179D01*
X93200191Y-40327340D01*
X93203625Y-40335124D01*
X93173592Y-40348285D01*
X93098325Y-40377698D01*
X92989015Y-40419076D01*
X92856853Y-40468130D01*
X92850100Y-40470614D01*
X92150814Y-40758383D01*
X91475776Y-41097602D01*
X90829041Y-41485272D01*
X90214663Y-41918398D01*
X89636697Y-42393984D01*
X89099198Y-42909031D01*
X88606219Y-43460545D01*
X88332081Y-43809596D01*
X88256266Y-43909098D01*
X88193738Y-43987362D01*
X88153022Y-44033919D01*
X88142605Y-44042279D01*
X88137778Y-44014082D01*
X88137067Y-43936441D01*
X87964243Y-43936441D01*
X87961112Y-44327504D01*
X87760369Y-44657764D01*
X87393959Y-45317884D01*
X87081122Y-46004571D01*
X86821748Y-46718158D01*
X86615726Y-47458980D01*
X86462944Y-48227369D01*
X86390511Y-48755991D01*
X86376514Y-48923193D01*
X86366135Y-49136613D01*
X86359374Y-49382530D01*
X86356231Y-49647224D01*
X86356707Y-49916974D01*
X86360801Y-50178060D01*
X86368513Y-50416761D01*
X86379844Y-50619357D01*
X86390511Y-50737551D01*
X86508324Y-51526028D01*
X86680164Y-52288321D01*
X86906088Y-53024566D01*
X87186150Y-53734899D01*
X87520408Y-54419457D01*
X87908917Y-55078377D01*
X88351734Y-55711794D01*
X88522879Y-55931641D01*
X88675727Y-56113735D01*
X88861911Y-56321430D01*
X89068805Y-56541685D01*
X89283783Y-56761461D01*
X89494218Y-56967715D01*
X89687485Y-57147409D01*
X89771886Y-57221634D01*
X90375723Y-57700954D01*
X91010617Y-58129337D01*
X91674291Y-58505790D01*
X92364466Y-58829321D01*
X93078866Y-59098937D01*
X93815212Y-59313646D01*
X94571227Y-59472456D01*
X95116094Y-59550432D01*
X95339529Y-59570649D01*
X95605860Y-59585582D01*
X95899505Y-59595109D01*
X96204877Y-59599112D01*
X96506392Y-59597469D01*
X96788466Y-59590059D01*
X97035513Y-59576764D01*
X97157702Y-59566196D01*
X97935227Y-59457325D01*
X98688583Y-59293559D01*
X99418410Y-59074633D01*
X100125349Y-58800283D01*
X100810039Y-58470244D01*
X101473120Y-58084253D01*
X102115232Y-57642044D01*
X102456875Y-57377043D01*
X102587927Y-57266056D01*
X102744242Y-57125405D01*
X102916709Y-56964075D01*
X103096217Y-56791056D01*
X103273656Y-56615336D01*
X103439915Y-56445902D01*
X103585884Y-56291742D01*
X103702452Y-56161845D01*
X103762903Y-56088591D01*
X103826422Y-56009463D01*
X103875266Y-55953432D01*
X103898009Y-55933178D01*
X103914615Y-55958771D01*
X103954793Y-56031795D01*
X104015268Y-56145970D01*
X104092767Y-56295015D01*
X104184014Y-56472651D01*
X104285737Y-56672596D01*
X104355226Y-56810165D01*
X104570684Y-57233484D01*
X104777895Y-57631929D01*
X104975065Y-58002394D01*
X105160398Y-58341770D01*
X105332098Y-58646952D01*
X105488372Y-58914832D01*
X105627422Y-59142304D01*
X105747454Y-59326261D01*
X105846673Y-59463595D01*
X105923283Y-59551201D01*
X105953434Y-59575970D01*
X106005570Y-59606902D01*
X106024269Y-59606685D01*
G36*
X103207466Y-52553981D02*
G01*
X103192454Y-52538969D01*
X103177442Y-52553981D01*
X103192454Y-52568993D01*
X103207466Y-52553981D01*
G37*
X103207466Y-52553981D02*
X103192454Y-52538969D01*
X103177442Y-52553981D01*
X103192454Y-52568993D01*
X103207466Y-52553981D01*
G36*
X115863925Y-66300288D02*
G01*
X116060447Y-66271944D01*
X116220454Y-66225427D01*
X116244860Y-66214859D01*
X116342808Y-66169469D01*
X116252737Y-66184706D01*
X115939257Y-66219863D01*
X115645633Y-66217522D01*
X115385203Y-66177828D01*
X115374450Y-66175159D01*
X115070969Y-66075357D01*
X114754722Y-65925808D01*
X114424630Y-65725633D01*
X114079613Y-65473955D01*
X113718593Y-65169895D01*
X113340492Y-64812576D01*
X112944230Y-64401119D01*
X112528730Y-63934646D01*
X112321685Y-63690396D01*
X112129869Y-63458732D01*
X111946616Y-63232824D01*
X111769057Y-63008522D01*
X111594317Y-62781675D01*
X111419527Y-62548131D01*
X111241813Y-62303739D01*
X111058305Y-62044349D01*
X110866131Y-61765808D01*
X110662419Y-61463966D01*
X110444297Y-61134671D01*
X110208894Y-60773772D01*
X109953338Y-60377119D01*
X109674758Y-59940559D01*
X109370280Y-59459943D01*
X109114407Y-59054099D01*
X108530914Y-58113174D01*
X107969699Y-57180384D01*
X107439785Y-56270786D01*
X107306420Y-56036724D01*
X107185894Y-55825252D01*
X107046260Y-55582030D01*
X106899014Y-55326971D01*
X106755650Y-55079987D01*
X106629861Y-54864732D01*
X106504572Y-54649960D01*
X106367137Y-54412113D01*
X106228163Y-54169696D01*
X106098257Y-53941213D01*
X105988027Y-53745171D01*
X105984500Y-53738845D01*
X105889434Y-53568575D01*
X105799248Y-53407585D01*
X105719941Y-53266543D01*
X105657516Y-53156122D01*
X105617970Y-53086990D01*
X105616725Y-53084850D01*
X105541200Y-52955198D01*
X105424642Y-53264992D01*
X105363509Y-53418205D01*
X105287504Y-53594169D01*
X105200441Y-53785403D01*
X105106133Y-53984427D01*
X105008393Y-54183761D01*
X104911034Y-54375923D01*
X104817868Y-54553435D01*
X104732710Y-54708814D01*
X104659372Y-54834582D01*
X104601666Y-54923257D01*
X104563406Y-54967359D01*
X104555094Y-54970884D01*
X104534921Y-54945783D01*
X104491616Y-54876177D01*
X104430174Y-54770615D01*
X104355592Y-54637644D01*
X104287524Y-54513024D01*
X104177614Y-54310285D01*
X104059757Y-54094271D01*
X103937541Y-53871435D01*
X103814557Y-53648228D01*
X103694394Y-53431103D01*
X103580641Y-53226511D01*
X103476887Y-53040904D01*
X103386721Y-52880735D01*
X103313734Y-52752456D01*
X103261514Y-52662517D01*
X103233651Y-52617373D01*
X103231087Y-52614029D01*
X103229005Y-52627208D01*
X103244964Y-52686402D01*
X103275931Y-52781399D01*
X103306901Y-52869229D01*
X103382116Y-53075894D01*
X103465723Y-53303875D01*
X103555333Y-53546807D01*
X103648557Y-53798325D01*
X103743004Y-54052065D01*
X103836285Y-54301661D01*
X103926011Y-54540749D01*
X104009791Y-54762962D01*
X104085236Y-54961937D01*
X104149956Y-55131308D01*
X104201562Y-55264710D01*
X104237663Y-55355778D01*
X104255869Y-55398147D01*
X104257157Y-55400222D01*
X104282481Y-55388481D01*
X104329978Y-55335925D01*
X104390554Y-55252999D01*
X104407434Y-55227586D01*
X104470058Y-55135029D01*
X104521101Y-55066132D01*
X104551427Y-55033053D01*
X104554550Y-55031790D01*
X104573559Y-55057349D01*
X104616295Y-55128470D01*
X104678483Y-55237596D01*
X104755851Y-55377170D01*
X104844126Y-55539633D01*
X104888789Y-55622913D01*
X104993970Y-55818749D01*
X105119899Y-56051443D01*
X105258082Y-56305405D01*
X105400024Y-56565048D01*
X105537229Y-56814783D01*
X105620512Y-56965613D01*
X105741405Y-57184399D01*
X105883415Y-57442018D01*
X106038910Y-57724584D01*
X106200255Y-58018211D01*
X106359819Y-58309016D01*
X106509967Y-58583113D01*
X106562313Y-58678804D01*
X106805594Y-59120200D01*
X107044553Y-59546884D01*
X107276601Y-59954514D01*
X107499150Y-60338746D01*
X107709611Y-60695240D01*
X107905396Y-61019651D01*
X108083916Y-61307638D01*
X108242583Y-61554857D01*
X108378809Y-61756967D01*
X108481703Y-61898829D01*
X108625832Y-62072618D01*
X108754376Y-62197571D01*
X108865204Y-62272497D01*
X108956185Y-62296207D01*
X109025191Y-62267512D01*
X109057256Y-62220181D01*
X109086979Y-62139980D01*
X109092094Y-62092829D01*
X109075179Y-62086533D01*
X109038810Y-62128896D01*
X109031136Y-62141075D01*
X108973200Y-62211445D01*
X108919373Y-62231113D01*
X108918660Y-62230985D01*
X108862235Y-62194970D01*
X108784089Y-62105037D01*
X108685170Y-61962870D01*
X108566429Y-61770155D01*
X108428814Y-61528577D01*
X108273275Y-61239820D01*
X108100761Y-60905570D01*
X107912223Y-60527511D01*
X107708609Y-60107328D01*
X107635944Y-59954809D01*
X107564381Y-59802319D01*
X107477035Y-59613433D01*
X107376103Y-59393092D01*
X107263784Y-59146236D01*
X107142275Y-58877808D01*
X107013774Y-58592748D01*
X106880479Y-58295998D01*
X106744587Y-57992499D01*
X106608297Y-57687191D01*
X106473805Y-57385017D01*
X106343311Y-57090917D01*
X106219011Y-56809833D01*
X106103103Y-56546705D01*
X105997785Y-56306475D01*
X105905255Y-56094085D01*
X105827711Y-55914475D01*
X105767351Y-55772586D01*
X105726371Y-55673361D01*
X105706971Y-55621739D01*
X105705834Y-55615383D01*
X105724215Y-55636866D01*
X105771285Y-55701605D01*
X105842388Y-55802915D01*
X105932868Y-55934114D01*
X106038068Y-56088518D01*
X106119759Y-56209483D01*
X106255938Y-56410597D01*
X106417162Y-56646578D01*
X106599315Y-56911547D01*
X106798283Y-57199626D01*
X107009949Y-57504934D01*
X107230199Y-57821593D01*
X107454917Y-58143722D01*
X107679988Y-58465442D01*
X107901297Y-58780874D01*
X108114728Y-59084138D01*
X108316168Y-59369355D01*
X108501499Y-59630645D01*
X108666607Y-59862129D01*
X108807377Y-60057927D01*
X108919694Y-60212161D01*
X108951380Y-60255045D01*
X109499447Y-60983816D01*
X110022115Y-61659902D01*
X110520516Y-62284483D01*
X110995785Y-62858743D01*
X111449054Y-63383861D01*
X111881456Y-63861020D01*
X112294125Y-64291402D01*
X112688194Y-64676189D01*
X113064796Y-65016561D01*
X113425064Y-65313700D01*
X113770133Y-65568789D01*
X114101134Y-65783009D01*
X114419202Y-65957541D01*
X114421295Y-65958581D01*
X114658388Y-66071734D01*
X114860180Y-66156677D01*
X115041453Y-66218328D01*
X115216986Y-66261607D01*
X115401563Y-66291431D01*
X115433273Y-66295325D01*
X115648873Y-66308676D01*
X115863925Y-66300288D01*
G37*
X115863925Y-66300288D02*
X116060447Y-66271944D01*
X116220454Y-66225427D01*
X116244860Y-66214859D01*
X116342808Y-66169469D01*
X116252737Y-66184706D01*
X115939257Y-66219863D01*
X115645633Y-66217522D01*
X115385203Y-66177828D01*
X115374450Y-66175159D01*
X115070969Y-66075357D01*
X114754722Y-65925808D01*
X114424630Y-65725633D01*
X114079613Y-65473955D01*
X113718593Y-65169895D01*
X113340492Y-64812576D01*
X112944230Y-64401119D01*
X112528730Y-63934646D01*
X112321685Y-63690396D01*
X112129869Y-63458732D01*
X111946616Y-63232824D01*
X111769057Y-63008522D01*
X111594317Y-62781675D01*
X111419527Y-62548131D01*
X111241813Y-62303739D01*
X111058305Y-62044349D01*
X110866131Y-61765808D01*
X110662419Y-61463966D01*
X110444297Y-61134671D01*
X110208894Y-60773772D01*
X109953338Y-60377119D01*
X109674758Y-59940559D01*
X109370280Y-59459943D01*
X109114407Y-59054099D01*
X108530914Y-58113174D01*
X107969699Y-57180384D01*
X107439785Y-56270786D01*
X107306420Y-56036724D01*
X107185894Y-55825252D01*
X107046260Y-55582030D01*
X106899014Y-55326971D01*
X106755650Y-55079987D01*
X106629861Y-54864732D01*
X106504572Y-54649960D01*
X106367137Y-54412113D01*
X106228163Y-54169696D01*
X106098257Y-53941213D01*
X105988027Y-53745171D01*
X105984500Y-53738845D01*
X105889434Y-53568575D01*
X105799248Y-53407585D01*
X105719941Y-53266543D01*
X105657516Y-53156122D01*
X105617970Y-53086990D01*
X105616725Y-53084850D01*
X105541200Y-52955198D01*
X105424642Y-53264992D01*
X105363509Y-53418205D01*
X105287504Y-53594169D01*
X105200441Y-53785403D01*
X105106133Y-53984427D01*
X105008393Y-54183761D01*
X104911034Y-54375923D01*
X104817868Y-54553435D01*
X104732710Y-54708814D01*
X104659372Y-54834582D01*
X104601666Y-54923257D01*
X104563406Y-54967359D01*
X104555094Y-54970884D01*
X104534921Y-54945783D01*
X104491616Y-54876177D01*
X104430174Y-54770615D01*
X104355592Y-54637644D01*
X104287524Y-54513024D01*
X104177614Y-54310285D01*
X104059757Y-54094271D01*
X103937541Y-53871435D01*
X103814557Y-53648228D01*
X103694394Y-53431103D01*
X103580641Y-53226511D01*
X103476887Y-53040904D01*
X103386721Y-52880735D01*
X103313734Y-52752456D01*
X103261514Y-52662517D01*
X103233651Y-52617373D01*
X103231087Y-52614029D01*
X103229005Y-52627208D01*
X103244964Y-52686402D01*
X103275931Y-52781399D01*
X103306901Y-52869229D01*
X103382116Y-53075894D01*
X103465723Y-53303875D01*
X103555333Y-53546807D01*
X103648557Y-53798325D01*
X103743004Y-54052065D01*
X103836285Y-54301661D01*
X103926011Y-54540749D01*
X104009791Y-54762962D01*
X104085236Y-54961937D01*
X104149956Y-55131308D01*
X104201562Y-55264710D01*
X104237663Y-55355778D01*
X104255869Y-55398147D01*
X104257157Y-55400222D01*
X104282481Y-55388481D01*
X104329978Y-55335925D01*
X104390554Y-55252999D01*
X104407434Y-55227586D01*
X104470058Y-55135029D01*
X104521101Y-55066132D01*
X104551427Y-55033053D01*
X104554550Y-55031790D01*
X104573559Y-55057349D01*
X104616295Y-55128470D01*
X104678483Y-55237596D01*
X104755851Y-55377170D01*
X104844126Y-55539633D01*
X104888789Y-55622913D01*
X104993970Y-55818749D01*
X105119899Y-56051443D01*
X105258082Y-56305405D01*
X105400024Y-56565048D01*
X105537229Y-56814783D01*
X105620512Y-56965613D01*
X105741405Y-57184399D01*
X105883415Y-57442018D01*
X106038910Y-57724584D01*
X106200255Y-58018211D01*
X106359819Y-58309016D01*
X106509967Y-58583113D01*
X106562313Y-58678804D01*
X106805594Y-59120200D01*
X107044553Y-59546884D01*
X107276601Y-59954514D01*
X107499150Y-60338746D01*
X107709611Y-60695240D01*
X107905396Y-61019651D01*
X108083916Y-61307638D01*
X108242583Y-61554857D01*
X108378809Y-61756967D01*
X108481703Y-61898829D01*
X108625832Y-62072618D01*
X108754376Y-62197571D01*
X108865204Y-62272497D01*
X108956185Y-62296207D01*
X109025191Y-62267512D01*
X109057256Y-62220181D01*
X109086979Y-62139980D01*
X109092094Y-62092829D01*
X109075179Y-62086533D01*
X109038810Y-62128896D01*
X109031136Y-62141075D01*
X108973200Y-62211445D01*
X108919373Y-62231113D01*
X108918660Y-62230985D01*
X108862235Y-62194970D01*
X108784089Y-62105037D01*
X108685170Y-61962870D01*
X108566429Y-61770155D01*
X108428814Y-61528577D01*
X108273275Y-61239820D01*
X108100761Y-60905570D01*
X107912223Y-60527511D01*
X107708609Y-60107328D01*
X107635944Y-59954809D01*
X107564381Y-59802319D01*
X107477035Y-59613433D01*
X107376103Y-59393092D01*
X107263784Y-59146236D01*
X107142275Y-58877808D01*
X107013774Y-58592748D01*
X106880479Y-58295998D01*
X106744587Y-57992499D01*
X106608297Y-57687191D01*
X106473805Y-57385017D01*
X106343311Y-57090917D01*
X106219011Y-56809833D01*
X106103103Y-56546705D01*
X105997785Y-56306475D01*
X105905255Y-56094085D01*
X105827711Y-55914475D01*
X105767351Y-55772586D01*
X105726371Y-55673361D01*
X105706971Y-55621739D01*
X105705834Y-55615383D01*
X105724215Y-55636866D01*
X105771285Y-55701605D01*
X105842388Y-55802915D01*
X105932868Y-55934114D01*
X106038068Y-56088518D01*
X106119759Y-56209483D01*
X106255938Y-56410597D01*
X106417162Y-56646578D01*
X106599315Y-56911547D01*
X106798283Y-57199626D01*
X107009949Y-57504934D01*
X107230199Y-57821593D01*
X107454917Y-58143722D01*
X107679988Y-58465442D01*
X107901297Y-58780874D01*
X108114728Y-59084138D01*
X108316168Y-59369355D01*
X108501499Y-59630645D01*
X108666607Y-59862129D01*
X108807377Y-60057927D01*
X108919694Y-60212161D01*
X108951380Y-60255045D01*
X109499447Y-60983816D01*
X110022115Y-61659902D01*
X110520516Y-62284483D01*
X110995785Y-62858743D01*
X111449054Y-63383861D01*
X111881456Y-63861020D01*
X112294125Y-64291402D01*
X112688194Y-64676189D01*
X113064796Y-65016561D01*
X113425064Y-65313700D01*
X113770133Y-65568789D01*
X114101134Y-65783009D01*
X114419202Y-65957541D01*
X114421295Y-65958581D01*
X114658388Y-66071734D01*
X114860180Y-66156677D01*
X115041453Y-66218328D01*
X115216986Y-66261607D01*
X115401563Y-66291431D01*
X115433273Y-66295325D01*
X115648873Y-66308676D01*
X115863925Y-66300288D01*
D11*
%TO.C,Conn1*%
X71247000Y-20955000D02*
X86995000Y-20955000D01*
X71247000Y-45593000D02*
X86995000Y-45593000D01*
X71247000Y-29870400D02*
X71247000Y-28651200D01*
X86995000Y-33324800D02*
X86995000Y-32131000D01*
X84683600Y-31013400D02*
X85852000Y-31013400D01*
X86995000Y-28702000D02*
X86995000Y-29870400D01*
X71247000Y-33274000D02*
X71247000Y-32181800D01*
X72390000Y-31013400D02*
X73558400Y-31013400D01*
X81407000Y-31013400D02*
X80264000Y-31013400D01*
X79095600Y-20980400D02*
X79095600Y-29870400D01*
X76835000Y-31013400D02*
X77978000Y-31013400D01*
X79121000Y-33299400D02*
X79121000Y-32156400D01*
X81407000Y-31013400D02*
X84709000Y-31013400D01*
X79121000Y-33299400D02*
X79121000Y-45593000D01*
X76835000Y-31013400D02*
X73558400Y-31013400D01*
X80264000Y-31013400D02*
G75*
G03*
X80264000Y-31013400I-1143000J0D01*
G01*
X86995000Y-33299400D02*
X86995000Y-45593000D01*
X86995000Y-28727400D02*
X86995000Y-20980400D01*
X71247000Y-20980400D02*
X71247000Y-28727400D01*
X71247000Y-33299400D02*
X71247000Y-45593000D01*
X71247000Y-29870400D02*
G75*
G02*
X72390000Y-31013400I0J-1143000D01*
G01*
X72390000Y-31013400D02*
G75*
G02*
X71247000Y-32156400I-1143000J0D01*
G01*
X85877400Y-31013400D02*
G75*
G02*
X86995000Y-29895800I1117600J0D01*
G01*
X86995000Y-32131000D02*
G75*
G02*
X85877400Y-31013400I0J1117600D01*
G01*
%TD*%
M02*
