%TF.GenerationSoftware,KiCad,Pcbnew,(5.1.10)-1*%
%TF.CreationDate,2021-12-04T17:03:40-06:00*%
%TF.ProjectId,blackbox_rev1,626c6163-6b62-46f7-985f-726576312e6b,rev?*%
%TF.SameCoordinates,Original*%
%TF.FileFunction,Soldermask,Bot*%
%TF.FilePolarity,Negative*%
%FSLAX46Y46*%
G04 Gerber Fmt 4.6, Leading zero omitted, Abs format (unit mm)*
G04 Created by KiCad (PCBNEW (5.1.10)-1) date 2021-12-04 17:03:40*
%MOMM*%
%LPD*%
G01*
G04 APERTURE LIST*
%ADD10C,1.308000*%
%ADD11C,1.258000*%
%ADD12C,1.208000*%
%ADD13C,2.946400*%
%ADD14O,1.350000X1.350000*%
%ADD15R,1.350000X1.350000*%
%ADD16C,1.524000*%
%ADD17C,2.500000*%
%ADD18C,1.100000*%
%ADD19C,4.000000*%
%ADD20C,1.400000*%
%ADD21C,2.000000*%
%ADD22C,5.080000*%
G04 APERTURE END LIST*
D10*
%TO.C,U1*%
X107061000Y-77597000D03*
X66421000Y-77597000D03*
X61341000Y-62357000D03*
X81661000Y-77597000D03*
X79121000Y-62357000D03*
X71501000Y-62357000D03*
X89281000Y-77597000D03*
X107061000Y-62357000D03*
X74041000Y-62357000D03*
X104521000Y-77597000D03*
X94361000Y-62357000D03*
X99441000Y-62357000D03*
X91821000Y-77597000D03*
X84201000Y-77597000D03*
D11*
X98171000Y-65407000D03*
D10*
X56261000Y-77597000D03*
X68961000Y-62357000D03*
X58801000Y-77597000D03*
X81661000Y-62357000D03*
X86741000Y-62357000D03*
X96901000Y-62357000D03*
D11*
X100711000Y-65407000D03*
D10*
X101981000Y-62357000D03*
X74041000Y-77597000D03*
X63881000Y-77597000D03*
D12*
X101711000Y-71147000D03*
D10*
X91821000Y-62357000D03*
X94361000Y-77597000D03*
X68961000Y-77597000D03*
X63881000Y-62357000D03*
X56261000Y-62357000D03*
X76581000Y-62357000D03*
X66421000Y-62357000D03*
X99441000Y-77597000D03*
X96901000Y-77597000D03*
D11*
X103251000Y-65407000D03*
D10*
X84201000Y-62357000D03*
X76581000Y-77597000D03*
D12*
X101711000Y-73147000D03*
D10*
X61341000Y-77597000D03*
X112141000Y-77597000D03*
X86741000Y-77597000D03*
D11*
X105791000Y-65407000D03*
D10*
X109601000Y-62357000D03*
D11*
X108331000Y-65407000D03*
D10*
X109601000Y-77597000D03*
X101981000Y-77597000D03*
X104521000Y-62357000D03*
X71501000Y-77597000D03*
X58801000Y-62357000D03*
X89281000Y-62357000D03*
X114681000Y-77597000D03*
X68961000Y-69977000D03*
D12*
X99711000Y-73147000D03*
D10*
X68961000Y-72517000D03*
X112141000Y-75057000D03*
X68961000Y-67437000D03*
X112141000Y-62357000D03*
D12*
X101711000Y-75147000D03*
D10*
X68961000Y-75057000D03*
D12*
X99711000Y-71147000D03*
X99711000Y-75147000D03*
D10*
X79121000Y-77597000D03*
X68961000Y-64897000D03*
X114681000Y-62357000D03*
%TD*%
D13*
%TO.C,REF\u002A\u002A*%
X55880000Y-26670000D03*
%TD*%
%TO.C,REF\u002A\u002A*%
X120142000Y-86360000D03*
%TD*%
%TO.C,REF\u002A\u002A*%
X55880000Y-86360000D03*
%TD*%
D14*
%TO.C,Conn2*%
X116160800Y-55295800D03*
X116160800Y-57295800D03*
X118160800Y-55295800D03*
X118160800Y-57295800D03*
X120160800Y-55295800D03*
D15*
X120160800Y-57295800D03*
%TD*%
D16*
%TO.C,U2*%
X99441000Y-35179000D03*
X96901000Y-35179000D03*
X94361000Y-35179000D03*
%TD*%
D17*
%TO.C,TP2*%
X65405000Y-57023000D03*
%TD*%
%TO.C,TP1*%
X73787000Y-57277000D03*
%TD*%
D18*
%TO.C,J1*%
X109929200Y-52243000D03*
X112469200Y-52243000D03*
X115009200Y-52243000D03*
X117549200Y-52243000D03*
X111199200Y-49703000D03*
X113739200Y-49703000D03*
X116279200Y-49703000D03*
X118819200Y-49703000D03*
D19*
X108659200Y-43353000D03*
X120089200Y-43353000D03*
D20*
X110589200Y-38273000D03*
X118159200Y-40063000D03*
X108049200Y-40063000D03*
X120699200Y-38273000D03*
D21*
X122249200Y-46403000D03*
X106499200Y-46403000D03*
%TD*%
D22*
%TO.C,Conn1*%
X75184000Y-49174400D03*
X83058000Y-49174400D03*
%TD*%
M02*
