%TF.GenerationSoftware,KiCad,Pcbnew,(5.1.10)-1*%
%TF.CreationDate,2021-12-04T17:03:40-06:00*%
%TF.ProjectId,blackbox_rev1,626c6163-6b62-46f7-985f-726576312e6b,rev?*%
%TF.SameCoordinates,Original*%
%TF.FileFunction,Paste,Top*%
%TF.FilePolarity,Positive*%
%FSLAX46Y46*%
G04 Gerber Fmt 4.6, Leading zero omitted, Abs format (unit mm)*
G04 Created by KiCad (PCBNEW (5.1.10)-1) date 2021-12-04 17:03:40*
%MOMM*%
%LPD*%
G01*
G04 APERTURE LIST*
%ADD10C,10.160000*%
%ADD11R,6.350000X2.540000*%
G04 APERTURE END LIST*
%TO.C,C3*%
G36*
G01*
X108543100Y-56088400D02*
X108068100Y-56088400D01*
G75*
G02*
X107830600Y-55850900I0J237500D01*
G01*
X107830600Y-55250900D01*
G75*
G02*
X108068100Y-55013400I237500J0D01*
G01*
X108543100Y-55013400D01*
G75*
G02*
X108780600Y-55250900I0J-237500D01*
G01*
X108780600Y-55850900D01*
G75*
G02*
X108543100Y-56088400I-237500J0D01*
G01*
G37*
G36*
G01*
X108543100Y-57813400D02*
X108068100Y-57813400D01*
G75*
G02*
X107830600Y-57575900I0J237500D01*
G01*
X107830600Y-56975900D01*
G75*
G02*
X108068100Y-56738400I237500J0D01*
G01*
X108543100Y-56738400D01*
G75*
G02*
X108780600Y-56975900I0J-237500D01*
G01*
X108780600Y-57575900D01*
G75*
G02*
X108543100Y-57813400I-237500J0D01*
G01*
G37*
%TD*%
%TO.C,C2*%
G36*
G01*
X100575100Y-55036600D02*
X101050100Y-55036600D01*
G75*
G02*
X101287600Y-55274100I0J-237500D01*
G01*
X101287600Y-55874100D01*
G75*
G02*
X101050100Y-56111600I-237500J0D01*
G01*
X100575100Y-56111600D01*
G75*
G02*
X100337600Y-55874100I0J237500D01*
G01*
X100337600Y-55274100D01*
G75*
G02*
X100575100Y-55036600I237500J0D01*
G01*
G37*
G36*
G01*
X100575100Y-53311600D02*
X101050100Y-53311600D01*
G75*
G02*
X101287600Y-53549100I0J-237500D01*
G01*
X101287600Y-54149100D01*
G75*
G02*
X101050100Y-54386600I-237500J0D01*
G01*
X100575100Y-54386600D01*
G75*
G02*
X100337600Y-54149100I0J237500D01*
G01*
X100337600Y-53549100D01*
G75*
G02*
X100575100Y-53311600I237500J0D01*
G01*
G37*
%TD*%
%TO.C,C1*%
G36*
G01*
X88336000Y-53323500D02*
X88336000Y-52848500D01*
G75*
G02*
X88573500Y-52611000I237500J0D01*
G01*
X89173500Y-52611000D01*
G75*
G02*
X89411000Y-52848500I0J-237500D01*
G01*
X89411000Y-53323500D01*
G75*
G02*
X89173500Y-53561000I-237500J0D01*
G01*
X88573500Y-53561000D01*
G75*
G02*
X88336000Y-53323500I0J237500D01*
G01*
G37*
G36*
G01*
X86611000Y-53323500D02*
X86611000Y-52848500D01*
G75*
G02*
X86848500Y-52611000I237500J0D01*
G01*
X87448500Y-52611000D01*
G75*
G02*
X87686000Y-52848500I0J-237500D01*
G01*
X87686000Y-53323500D01*
G75*
G02*
X87448500Y-53561000I-237500J0D01*
G01*
X86848500Y-53561000D01*
G75*
G02*
X86611000Y-53323500I0J237500D01*
G01*
G37*
%TD*%
D10*
%TO.C,BT1*%
X60960000Y-41021000D03*
D11*
X60960000Y-48641000D03*
X60960000Y-33401000D03*
%TD*%
M02*
