%TF.GenerationSoftware,KiCad,Pcbnew,(5.1.10)-1*%
%TF.CreationDate,2021-12-04T17:03:40-06:00*%
%TF.ProjectId,blackbox_rev1,626c6163-6b62-46f7-985f-726576312e6b,rev?*%
%TF.SameCoordinates,Original*%
%TF.FileFunction,Copper,L1,Top*%
%TF.FilePolarity,Positive*%
%FSLAX46Y46*%
G04 Gerber Fmt 4.6, Leading zero omitted, Abs format (unit mm)*
G04 Created by KiCad (PCBNEW (5.1.10)-1) date 2021-12-04 17:03:40*
%MOMM*%
%LPD*%
G01*
G04 APERTURE LIST*
%TA.AperFunction,ComponentPad*%
%ADD10C,1.308000*%
%TD*%
%TA.AperFunction,ComponentPad*%
%ADD11C,1.258000*%
%TD*%
%TA.AperFunction,ComponentPad*%
%ADD12C,1.208000*%
%TD*%
%TA.AperFunction,ComponentPad*%
%ADD13O,1.350000X1.350000*%
%TD*%
%TA.AperFunction,ComponentPad*%
%ADD14R,1.350000X1.350000*%
%TD*%
%TA.AperFunction,ComponentPad*%
%ADD15C,1.524000*%
%TD*%
%TA.AperFunction,ComponentPad*%
%ADD16C,1.100000*%
%TD*%
%TA.AperFunction,ComponentPad*%
%ADD17C,4.000000*%
%TD*%
%TA.AperFunction,ComponentPad*%
%ADD18C,1.400000*%
%TD*%
%TA.AperFunction,ComponentPad*%
%ADD19C,2.000000*%
%TD*%
%TA.AperFunction,ComponentPad*%
%ADD20C,5.080000*%
%TD*%
%TA.AperFunction,SMDPad,CuDef*%
%ADD21C,10.160000*%
%TD*%
%TA.AperFunction,SMDPad,CuDef*%
%ADD22R,6.350000X2.540000*%
%TD*%
%TA.AperFunction,ViaPad*%
%ADD23C,0.800000*%
%TD*%
%TA.AperFunction,Conductor*%
%ADD24C,0.254000*%
%TD*%
%TA.AperFunction,Conductor*%
%ADD25C,0.250000*%
%TD*%
%TA.AperFunction,Conductor*%
%ADD26C,0.100000*%
%TD*%
G04 APERTURE END LIST*
D10*
%TO.P,U1,23*%
%TO.N,Net-(U1-Pad23)*%
X107061000Y-77597000D03*
%TO.P,U1,37*%
%TO.N,Net-(U1-Pad37)*%
X66421000Y-77597000D03*
%TO.P,U1,30*%
%TO.N,Net-(U1-Pad30)*%
X61341000Y-62357000D03*
%TO.P,U1,13*%
%TO.N,Net-(U1-Pad13)*%
X81661000Y-77597000D03*
%TO.P,U1,3.3V_1*%
%TO.N,+3V3*%
X79121000Y-62357000D03*
%TO.P,U1,26*%
%TO.N,Net-(U1-Pad26)*%
X71501000Y-62357000D03*
%TO.P,U1,16*%
%TO.N,Net-(U1-Pad16)*%
X89281000Y-77597000D03*
%TO.P,U1,2*%
%TO.N,Net-(U1-Pad2)*%
X107061000Y-62357000D03*
%TO.P,U1,25*%
%TO.N,Net-(U1-Pad25)*%
X74041000Y-62357000D03*
%TO.P,U1,22*%
%TO.N,Net-(U1-Pad22)*%
X104521000Y-77597000D03*
%TO.P,U1,7*%
%TO.N,Net-(U1-Pad7)*%
X94361000Y-62357000D03*
%TO.P,U1,5*%
%TO.N,Net-(U1-Pad5)*%
X99441000Y-62357000D03*
%TO.P,U1,17*%
%TO.N,Net-(U1-Pad17)*%
X91821000Y-77597000D03*
%TO.P,U1,14*%
%TO.N,Net-(U1-Pad14)*%
X84201000Y-77597000D03*
D11*
%TO.P,U1,USB_GND2*%
%TO.N,GND*%
X98171000Y-65407000D03*
D10*
%TO.P,U1,33*%
%TO.N,Net-(U1-Pad33)*%
X56261000Y-77597000D03*
%TO.P,U1,27*%
%TO.N,Net-(U1-Pad27)*%
X68961000Y-62357000D03*
%TO.P,U1,34*%
%TO.N,Net-(U1-Pad34)*%
X58801000Y-77597000D03*
%TO.P,U1,12*%
%TO.N,Net-(U1-Pad12)*%
X81661000Y-62357000D03*
%TO.P,U1,10*%
%TO.N,Net-(U1-Pad10)*%
X86741000Y-62357000D03*
%TO.P,U1,6*%
%TO.N,Net-(U1-Pad6)*%
X96901000Y-62357000D03*
D11*
%TO.P,U1,USB_GND1*%
%TO.N,GND*%
X100711000Y-65407000D03*
D10*
%TO.P,U1,4*%
%TO.N,Net-(U1-Pad4)*%
X101981000Y-62357000D03*
%TO.P,U1,40*%
%TO.N,Net-(U1-Pad40)*%
X74041000Y-77597000D03*
%TO.P,U1,36*%
%TO.N,Net-(U1-Pad36)*%
X63881000Y-77597000D03*
D12*
%TO.P,U1,T-*%
%TO.N,N/C*%
X101711000Y-71147000D03*
D10*
%TO.P,U1,8*%
%TO.N,Net-(U1-Pad8)*%
X91821000Y-62357000D03*
%TO.P,U1,18*%
%TO.N,Net-(U1-Pad18)*%
X94361000Y-77597000D03*
%TO.P,U1,38*%
%TO.N,Net-(U1-Pad38)*%
X68961000Y-77597000D03*
%TO.P,U1,29*%
%TO.N,Net-(U1-Pad29)*%
X63881000Y-62357000D03*
%TO.P,U1,32*%
%TO.N,Net-(U1-Pad32)*%
X56261000Y-62357000D03*
%TO.P,U1,24*%
%TO.N,Net-(U1-Pad24)*%
X76581000Y-62357000D03*
%TO.P,U1,28*%
%TO.N,Net-(U1-Pad28)*%
X66421000Y-62357000D03*
%TO.P,U1,20*%
%TO.N,Net-(U1-Pad20)*%
X99441000Y-77597000D03*
%TO.P,U1,19*%
%TO.N,Net-(U1-Pad19)*%
X96901000Y-77597000D03*
D11*
%TO.P,U1,D+*%
%TO.N,Net-(U1-PadD+)*%
X103251000Y-65407000D03*
D10*
%TO.P,U1,11*%
%TO.N,Net-(U1-Pad11)*%
X84201000Y-62357000D03*
%TO.P,U1,41*%
%TO.N,Net-(U1-Pad41)*%
X76581000Y-77597000D03*
D12*
%TO.P,U1,LED*%
%TO.N,Net-(U1-PadLED)*%
X101711000Y-73147000D03*
D10*
%TO.P,U1,35*%
%TO.N,Net-(U1-Pad35)*%
X61341000Y-77597000D03*
%TO.P,U1,GND3*%
%TO.N,GND*%
X112141000Y-77597000D03*
%TO.P,U1,15*%
%TO.N,Net-(U1-Pad15)*%
X86741000Y-77597000D03*
D11*
%TO.P,U1,D-*%
%TO.N,N/C*%
X105791000Y-65407000D03*
D10*
%TO.P,U1,1*%
%TO.N,Net-(U1-Pad1)*%
X109601000Y-62357000D03*
D11*
%TO.P,U1,5V*%
%TO.N,Net-(U1-Pad5V)*%
X108331000Y-65407000D03*
D10*
%TO.P,U1,3.3V_2*%
%TO.N,+3V3*%
X109601000Y-77597000D03*
%TO.P,U1,21*%
%TO.N,Net-(U1-Pad21)*%
X101981000Y-77597000D03*
%TO.P,U1,3*%
%TO.N,Net-(U1-Pad3)*%
X104521000Y-62357000D03*
%TO.P,U1,39*%
%TO.N,Net-(U1-Pad39)*%
X71501000Y-77597000D03*
%TO.P,U1,31*%
%TO.N,Net-(U1-Pad31)*%
X58801000Y-62357000D03*
%TO.P,U1,9*%
%TO.N,Net-(U1-Pad9)*%
X89281000Y-62357000D03*
%TO.P,U1,VIN*%
%TO.N,Net-(U1-PadVIN)*%
X114681000Y-77597000D03*
%TO.P,U1,GND4*%
%TO.N,GND*%
X68961000Y-69977000D03*
D12*
%TO.P,U1,GND5*%
X99711000Y-73147000D03*
D10*
%TO.P,U1,PROGRAM*%
%TO.N,Net-(U1-PadPROGRAM)*%
X68961000Y-72517000D03*
%TO.P,U1,VUSB*%
%TO.N,Net-(U1-PadVUSB)*%
X112141000Y-75057000D03*
%TO.P,U1,3.3V_3*%
%TO.N,+3V3*%
X68961000Y-67437000D03*
%TO.P,U1,0*%
%TO.N,Net-(U1-Pad0)*%
X112141000Y-62357000D03*
D12*
%TO.P,U1,R+*%
%TO.N,Net-(U1-PadR+)*%
X101711000Y-75147000D03*
D10*
%TO.P,U1,ON/OFF*%
%TO.N,Net-(U1-PadON/OFF)*%
X68961000Y-75057000D03*
D12*
%TO.P,U1,T+*%
%TO.N,Net-(U1-PadT+)*%
X99711000Y-71147000D03*
%TO.P,U1,R-*%
%TO.N,N/C*%
X99711000Y-75147000D03*
D10*
%TO.P,U1,GND2*%
%TO.N,GND*%
X79121000Y-77597000D03*
%TO.P,U1,VBAT*%
%TO.N,+3.3VP*%
X68961000Y-64897000D03*
%TO.P,U1,GND1*%
%TO.N,GND*%
X114681000Y-62357000D03*
%TD*%
D13*
%TO.P,Conn2,6*%
%TO.N,Net-(Conn2-Pad6)*%
X116160800Y-55295800D03*
%TO.P,Conn2,5*%
%TO.N,Net-(Conn2-Pad5)*%
X116160800Y-57295800D03*
%TO.P,Conn2,4*%
%TO.N,Net-(Conn2-Pad4)*%
X118160800Y-55295800D03*
%TO.P,Conn2,3*%
%TO.N,Net-(C3-Pad2)*%
X118160800Y-57295800D03*
%TO.P,Conn2,2*%
%TO.N,Net-(Conn2-Pad2)*%
X120160800Y-55295800D03*
D14*
%TO.P,Conn2,1*%
%TO.N,Net-(Conn2-Pad1)*%
X120160800Y-57295800D03*
%TD*%
D15*
%TO.P,U2,3*%
%TO.N,+3V3*%
X99441000Y-35179000D03*
%TO.P,U2,2*%
%TO.N,GND*%
X96901000Y-35179000D03*
%TO.P,U2,1*%
%TO.N,+12V*%
X94361000Y-35179000D03*
%TD*%
D16*
%TO.P,J1,8*%
%TO.N,Net-(C3-Pad2)*%
X109929200Y-52243000D03*
%TO.P,J1,6*%
%TO.N,Net-(Conn2-Pad5)*%
X112469200Y-52243000D03*
%TO.P,J1,4*%
%TO.N,Net-(Conn2-Pad6)*%
X115009200Y-52243000D03*
%TO.P,J1,2*%
%TO.N,Net-(C3-Pad1)*%
X117549200Y-52243000D03*
%TO.P,J1,7*%
%TO.N,Net-(J1-Pad7)*%
X111199200Y-49703000D03*
%TO.P,J1,5*%
%TO.N,Net-(C3-Pad1)*%
X113739200Y-49703000D03*
%TO.P,J1,3*%
%TO.N,Net-(Conn2-Pad2)*%
X116279200Y-49703000D03*
%TO.P,J1,1*%
%TO.N,Net-(Conn2-Pad1)*%
X118819200Y-49703000D03*
D17*
%TO.P,J1,14*%
%TO.N,N/C*%
X108659200Y-43353000D03*
%TO.P,J1,13*%
X120089200Y-43353000D03*
D18*
%TO.P,J1,11*%
%TO.N,Net-(J1-Pad11)*%
X110589200Y-38273000D03*
%TO.P,J1,10*%
%TO.N,Net-(Conn2-Pad4)*%
X118159200Y-40063000D03*
%TO.P,J1,12*%
%TO.N,Net-(J1-Pad12)*%
X108049200Y-40063000D03*
%TO.P,J1,9*%
%TO.N,Net-(C3-Pad2)*%
X120699200Y-38273000D03*
D19*
%TO.P,J1,15*%
%TO.N,GND*%
X122249200Y-46403000D03*
%TO.P,J1,16*%
X106499200Y-46403000D03*
%TD*%
D20*
%TO.P,Conn1,1*%
%TO.N,GND*%
X75184000Y-49174400D03*
%TO.P,Conn1,2*%
%TO.N,+12V*%
X83058000Y-49174400D03*
%TD*%
%TO.P,C3,2*%
%TO.N,Net-(C3-Pad2)*%
%TA.AperFunction,SMDPad,CuDef*%
G36*
G01*
X108543100Y-56088400D02*
X108068100Y-56088400D01*
G75*
G02*
X107830600Y-55850900I0J237500D01*
G01*
X107830600Y-55250900D01*
G75*
G02*
X108068100Y-55013400I237500J0D01*
G01*
X108543100Y-55013400D01*
G75*
G02*
X108780600Y-55250900I0J-237500D01*
G01*
X108780600Y-55850900D01*
G75*
G02*
X108543100Y-56088400I-237500J0D01*
G01*
G37*
%TD.AperFunction*%
%TO.P,C3,1*%
%TO.N,Net-(C3-Pad1)*%
%TA.AperFunction,SMDPad,CuDef*%
G36*
G01*
X108543100Y-57813400D02*
X108068100Y-57813400D01*
G75*
G02*
X107830600Y-57575900I0J237500D01*
G01*
X107830600Y-56975900D01*
G75*
G02*
X108068100Y-56738400I237500J0D01*
G01*
X108543100Y-56738400D01*
G75*
G02*
X108780600Y-56975900I0J-237500D01*
G01*
X108780600Y-57575900D01*
G75*
G02*
X108543100Y-57813400I-237500J0D01*
G01*
G37*
%TD.AperFunction*%
%TD*%
%TO.P,C2,2*%
%TO.N,GND*%
%TA.AperFunction,SMDPad,CuDef*%
G36*
G01*
X100575100Y-55036600D02*
X101050100Y-55036600D01*
G75*
G02*
X101287600Y-55274100I0J-237500D01*
G01*
X101287600Y-55874100D01*
G75*
G02*
X101050100Y-56111600I-237500J0D01*
G01*
X100575100Y-56111600D01*
G75*
G02*
X100337600Y-55874100I0J237500D01*
G01*
X100337600Y-55274100D01*
G75*
G02*
X100575100Y-55036600I237500J0D01*
G01*
G37*
%TD.AperFunction*%
%TO.P,C2,1*%
%TO.N,+3V3*%
%TA.AperFunction,SMDPad,CuDef*%
G36*
G01*
X100575100Y-53311600D02*
X101050100Y-53311600D01*
G75*
G02*
X101287600Y-53549100I0J-237500D01*
G01*
X101287600Y-54149100D01*
G75*
G02*
X101050100Y-54386600I-237500J0D01*
G01*
X100575100Y-54386600D01*
G75*
G02*
X100337600Y-54149100I0J237500D01*
G01*
X100337600Y-53549100D01*
G75*
G02*
X100575100Y-53311600I237500J0D01*
G01*
G37*
%TD.AperFunction*%
%TD*%
%TO.P,C1,2*%
%TO.N,+12V*%
%TA.AperFunction,SMDPad,CuDef*%
G36*
G01*
X88336000Y-53323500D02*
X88336000Y-52848500D01*
G75*
G02*
X88573500Y-52611000I237500J0D01*
G01*
X89173500Y-52611000D01*
G75*
G02*
X89411000Y-52848500I0J-237500D01*
G01*
X89411000Y-53323500D01*
G75*
G02*
X89173500Y-53561000I-237500J0D01*
G01*
X88573500Y-53561000D01*
G75*
G02*
X88336000Y-53323500I0J237500D01*
G01*
G37*
%TD.AperFunction*%
%TO.P,C1,1*%
%TO.N,GND*%
%TA.AperFunction,SMDPad,CuDef*%
G36*
G01*
X86611000Y-53323500D02*
X86611000Y-52848500D01*
G75*
G02*
X86848500Y-52611000I237500J0D01*
G01*
X87448500Y-52611000D01*
G75*
G02*
X87686000Y-52848500I0J-237500D01*
G01*
X87686000Y-53323500D01*
G75*
G02*
X87448500Y-53561000I-237500J0D01*
G01*
X86848500Y-53561000D01*
G75*
G02*
X86611000Y-53323500I0J237500D01*
G01*
G37*
%TD.AperFunction*%
%TD*%
D21*
%TO.P,BT1,2*%
%TO.N,GND*%
X60960000Y-41021000D03*
D22*
%TO.P,BT1,1*%
%TO.N,+3.3VP*%
X60960000Y-48641000D03*
X60960000Y-33401000D03*
%TD*%
D23*
%TO.N,*%
X26670000Y-9194800D03*
%TO.N,GND*%
X72898000Y-65405000D03*
%TO.N,Net-(C3-Pad1)*%
X110363000Y-55499000D03*
%TD*%
D24*
%TO.N,+3.3VP*%
X67509118Y-64897000D02*
X68961000Y-64897000D01*
X65405000Y-62792882D02*
X67509118Y-64897000D01*
X65405000Y-57023000D02*
X65405000Y-62792882D01*
X65405000Y-53086000D02*
X60960000Y-48641000D01*
X65405000Y-57023000D02*
X65405000Y-53086000D01*
X55552999Y-35379001D02*
X57531000Y-33401000D01*
X55552999Y-46662999D02*
X55552999Y-35379001D01*
X57531000Y-48641000D02*
X55552999Y-46662999D01*
X57531000Y-33401000D02*
X60960000Y-33401000D01*
X60960000Y-48641000D02*
X57531000Y-48641000D01*
D25*
%TO.N,+12V*%
X88873500Y-51397798D02*
X88873500Y-53086000D01*
X86650102Y-49174400D02*
X88873500Y-51397798D01*
X83058000Y-49174400D02*
X86650102Y-49174400D01*
D24*
X94361000Y-37871400D02*
X94361000Y-35179000D01*
X83058000Y-49174400D02*
X94361000Y-37871400D01*
D25*
%TO.N,Net-(C3-Pad2)*%
X117160799Y-58295801D02*
X118160800Y-57295800D01*
X115204184Y-58295801D02*
X117160799Y-58295801D01*
X109929200Y-53020817D02*
X115204184Y-58295801D01*
X109929200Y-52243000D02*
X109929200Y-53020817D01*
X109929200Y-46775998D02*
X109929200Y-52243000D01*
X118432198Y-38273000D02*
X109929200Y-46775998D01*
X120699200Y-38273000D02*
X118432198Y-38273000D01*
X109929200Y-52243000D02*
X108204000Y-53968200D01*
X108204000Y-55449300D02*
X108305600Y-55550900D01*
X108204000Y-53968200D02*
X108204000Y-55449300D01*
%TO.N,Net-(C3-Pad1)*%
X108586100Y-57275900D02*
X108305600Y-57275900D01*
X110363000Y-55499000D02*
X108586100Y-57275900D01*
%TO.N,Net-(Conn2-Pad6)*%
X116160800Y-55295800D02*
X116160800Y-51263800D01*
X116160800Y-51263800D02*
X115824000Y-50927000D01*
X115824000Y-50927000D02*
X115189000Y-50927000D01*
X115009200Y-51106800D02*
X115009200Y-52243000D01*
X115189000Y-50927000D02*
X115009200Y-51106800D01*
%TO.N,Net-(Conn2-Pad2)*%
X116279200Y-49703000D02*
X116279200Y-48820800D01*
X116279200Y-48820800D02*
X116459000Y-48641000D01*
X116459000Y-48641000D02*
X117348000Y-48641000D01*
X117348000Y-48641000D02*
X117602000Y-48895000D01*
X120160800Y-53559598D02*
X120160800Y-55295800D01*
X117602000Y-51000798D02*
X120160800Y-53559598D01*
X117602000Y-48895000D02*
X117602000Y-51000798D01*
%TO.N,Net-(Conn2-Pad1)*%
X121160801Y-56295799D02*
X120160800Y-57295800D01*
X121160801Y-50548801D02*
X121160801Y-56295799D01*
X120315000Y-49703000D02*
X121160801Y-50548801D01*
X118819200Y-49703000D02*
X120315000Y-49703000D01*
%TO.N,Net-(Conn2-Pad5)*%
X112469200Y-53604200D02*
X112469200Y-52243000D01*
X116160800Y-57295800D02*
X112469200Y-53604200D01*
%TO.N,+3V3*%
X99441000Y-52477500D02*
X100812600Y-53849100D01*
X99441000Y-35179000D02*
X99441000Y-52477500D01*
X109601000Y-65265078D02*
X109601000Y-77597000D01*
X108621999Y-61183499D02*
X108621999Y-64286077D01*
X101287600Y-53849100D02*
X108621999Y-61183499D01*
X108621999Y-64286077D02*
X109601000Y-65265078D01*
X100812600Y-53849100D02*
X101287600Y-53849100D01*
D24*
X74041000Y-67437000D02*
X79121000Y-62357000D01*
X68961000Y-67437000D02*
X74041000Y-67437000D01*
X93285701Y-61375999D02*
X100812600Y-53849100D01*
X80102001Y-61375999D02*
X93285701Y-61375999D01*
X79121000Y-62357000D02*
X80102001Y-61375999D01*
%TD*%
%TO.N,GND*%
X120852128Y-23083575D02*
X121535215Y-23289811D01*
X122165230Y-23624796D01*
X122718180Y-24075772D01*
X123173008Y-24625564D01*
X123512380Y-25253220D01*
X123723379Y-25934847D01*
X123799975Y-26663609D01*
X123800001Y-26671129D01*
X123800000Y-84476854D01*
X123775550Y-84417827D01*
X123326833Y-83746275D01*
X122755725Y-83175167D01*
X122084173Y-82726450D01*
X121337984Y-82417368D01*
X120545834Y-82259800D01*
X119738166Y-82259800D01*
X118946016Y-82417368D01*
X118199827Y-82726450D01*
X117528275Y-83175167D01*
X116957167Y-83746275D01*
X116508450Y-84417827D01*
X116199368Y-85164016D01*
X116041800Y-85956166D01*
X116041800Y-86763834D01*
X116199368Y-87555984D01*
X116508450Y-88302173D01*
X116957167Y-88973725D01*
X117528275Y-89544833D01*
X118199827Y-89993550D01*
X118258854Y-90018000D01*
X57763146Y-90018000D01*
X57822173Y-89993550D01*
X58493725Y-89544833D01*
X59064833Y-88973725D01*
X59513550Y-88302173D01*
X59822632Y-87555984D01*
X59980200Y-86763834D01*
X59980200Y-85956166D01*
X59822632Y-85164016D01*
X59513550Y-84417827D01*
X59064833Y-83746275D01*
X58493725Y-83175167D01*
X57822173Y-82726450D01*
X57075984Y-82417368D01*
X56283834Y-82259800D01*
X55476166Y-82259800D01*
X54684016Y-82417368D01*
X53937827Y-82726450D01*
X53266275Y-83175167D01*
X52695167Y-83746275D01*
X52246450Y-84417827D01*
X52222000Y-84476854D01*
X52222000Y-77495061D01*
X55226000Y-77495061D01*
X55226000Y-77698939D01*
X55265774Y-77898898D01*
X55343795Y-78087256D01*
X55457063Y-78256774D01*
X55601226Y-78400937D01*
X55770744Y-78514205D01*
X55959102Y-78592226D01*
X56159061Y-78632000D01*
X56362939Y-78632000D01*
X56562898Y-78592226D01*
X56751256Y-78514205D01*
X56920774Y-78400937D01*
X57064937Y-78256774D01*
X57178205Y-78087256D01*
X57256226Y-77898898D01*
X57296000Y-77698939D01*
X57296000Y-77495061D01*
X57766000Y-77495061D01*
X57766000Y-77698939D01*
X57805774Y-77898898D01*
X57883795Y-78087256D01*
X57997063Y-78256774D01*
X58141226Y-78400937D01*
X58310744Y-78514205D01*
X58499102Y-78592226D01*
X58699061Y-78632000D01*
X58902939Y-78632000D01*
X59102898Y-78592226D01*
X59291256Y-78514205D01*
X59460774Y-78400937D01*
X59604937Y-78256774D01*
X59718205Y-78087256D01*
X59796226Y-77898898D01*
X59836000Y-77698939D01*
X59836000Y-77495061D01*
X60306000Y-77495061D01*
X60306000Y-77698939D01*
X60345774Y-77898898D01*
X60423795Y-78087256D01*
X60537063Y-78256774D01*
X60681226Y-78400937D01*
X60850744Y-78514205D01*
X61039102Y-78592226D01*
X61239061Y-78632000D01*
X61442939Y-78632000D01*
X61642898Y-78592226D01*
X61831256Y-78514205D01*
X62000774Y-78400937D01*
X62144937Y-78256774D01*
X62258205Y-78087256D01*
X62336226Y-77898898D01*
X62376000Y-77698939D01*
X62376000Y-77495061D01*
X62846000Y-77495061D01*
X62846000Y-77698939D01*
X62885774Y-77898898D01*
X62963795Y-78087256D01*
X63077063Y-78256774D01*
X63221226Y-78400937D01*
X63390744Y-78514205D01*
X63579102Y-78592226D01*
X63779061Y-78632000D01*
X63982939Y-78632000D01*
X64182898Y-78592226D01*
X64371256Y-78514205D01*
X64540774Y-78400937D01*
X64684937Y-78256774D01*
X64798205Y-78087256D01*
X64876226Y-77898898D01*
X64916000Y-77698939D01*
X64916000Y-77495061D01*
X65386000Y-77495061D01*
X65386000Y-77698939D01*
X65425774Y-77898898D01*
X65503795Y-78087256D01*
X65617063Y-78256774D01*
X65761226Y-78400937D01*
X65930744Y-78514205D01*
X66119102Y-78592226D01*
X66319061Y-78632000D01*
X66522939Y-78632000D01*
X66722898Y-78592226D01*
X66911256Y-78514205D01*
X67080774Y-78400937D01*
X67224937Y-78256774D01*
X67338205Y-78087256D01*
X67416226Y-77898898D01*
X67456000Y-77698939D01*
X67456000Y-77495061D01*
X67926000Y-77495061D01*
X67926000Y-77698939D01*
X67965774Y-77898898D01*
X68043795Y-78087256D01*
X68157063Y-78256774D01*
X68301226Y-78400937D01*
X68470744Y-78514205D01*
X68659102Y-78592226D01*
X68859061Y-78632000D01*
X69062939Y-78632000D01*
X69262898Y-78592226D01*
X69451256Y-78514205D01*
X69620774Y-78400937D01*
X69764937Y-78256774D01*
X69878205Y-78087256D01*
X69956226Y-77898898D01*
X69996000Y-77698939D01*
X69996000Y-77495061D01*
X70466000Y-77495061D01*
X70466000Y-77698939D01*
X70505774Y-77898898D01*
X70583795Y-78087256D01*
X70697063Y-78256774D01*
X70841226Y-78400937D01*
X71010744Y-78514205D01*
X71199102Y-78592226D01*
X71399061Y-78632000D01*
X71602939Y-78632000D01*
X71802898Y-78592226D01*
X71991256Y-78514205D01*
X72160774Y-78400937D01*
X72304937Y-78256774D01*
X72418205Y-78087256D01*
X72496226Y-77898898D01*
X72536000Y-77698939D01*
X72536000Y-77495061D01*
X73006000Y-77495061D01*
X73006000Y-77698939D01*
X73045774Y-77898898D01*
X73123795Y-78087256D01*
X73237063Y-78256774D01*
X73381226Y-78400937D01*
X73550744Y-78514205D01*
X73739102Y-78592226D01*
X73939061Y-78632000D01*
X74142939Y-78632000D01*
X74342898Y-78592226D01*
X74531256Y-78514205D01*
X74700774Y-78400937D01*
X74844937Y-78256774D01*
X74958205Y-78087256D01*
X75036226Y-77898898D01*
X75076000Y-77698939D01*
X75076000Y-77495061D01*
X75546000Y-77495061D01*
X75546000Y-77698939D01*
X75585774Y-77898898D01*
X75663795Y-78087256D01*
X75777063Y-78256774D01*
X75921226Y-78400937D01*
X76090744Y-78514205D01*
X76279102Y-78592226D01*
X76479061Y-78632000D01*
X76682939Y-78632000D01*
X76882898Y-78592226D01*
X77071256Y-78514205D01*
X77240774Y-78400937D01*
X77384937Y-78256774D01*
X77498205Y-78087256D01*
X77576226Y-77898898D01*
X77616000Y-77698939D01*
X77616000Y-77495061D01*
X80626000Y-77495061D01*
X80626000Y-77698939D01*
X80665774Y-77898898D01*
X80743795Y-78087256D01*
X80857063Y-78256774D01*
X81001226Y-78400937D01*
X81170744Y-78514205D01*
X81359102Y-78592226D01*
X81559061Y-78632000D01*
X81762939Y-78632000D01*
X81962898Y-78592226D01*
X82151256Y-78514205D01*
X82320774Y-78400937D01*
X82464937Y-78256774D01*
X82578205Y-78087256D01*
X82656226Y-77898898D01*
X82696000Y-77698939D01*
X82696000Y-77495061D01*
X83166000Y-77495061D01*
X83166000Y-77698939D01*
X83205774Y-77898898D01*
X83283795Y-78087256D01*
X83397063Y-78256774D01*
X83541226Y-78400937D01*
X83710744Y-78514205D01*
X83899102Y-78592226D01*
X84099061Y-78632000D01*
X84302939Y-78632000D01*
X84502898Y-78592226D01*
X84691256Y-78514205D01*
X84860774Y-78400937D01*
X85004937Y-78256774D01*
X85118205Y-78087256D01*
X85196226Y-77898898D01*
X85236000Y-77698939D01*
X85236000Y-77495061D01*
X85706000Y-77495061D01*
X85706000Y-77698939D01*
X85745774Y-77898898D01*
X85823795Y-78087256D01*
X85937063Y-78256774D01*
X86081226Y-78400937D01*
X86250744Y-78514205D01*
X86439102Y-78592226D01*
X86639061Y-78632000D01*
X86842939Y-78632000D01*
X87042898Y-78592226D01*
X87231256Y-78514205D01*
X87400774Y-78400937D01*
X87544937Y-78256774D01*
X87658205Y-78087256D01*
X87736226Y-77898898D01*
X87776000Y-77698939D01*
X87776000Y-77495061D01*
X88246000Y-77495061D01*
X88246000Y-77698939D01*
X88285774Y-77898898D01*
X88363795Y-78087256D01*
X88477063Y-78256774D01*
X88621226Y-78400937D01*
X88790744Y-78514205D01*
X88979102Y-78592226D01*
X89179061Y-78632000D01*
X89382939Y-78632000D01*
X89582898Y-78592226D01*
X89771256Y-78514205D01*
X89940774Y-78400937D01*
X90084937Y-78256774D01*
X90198205Y-78087256D01*
X90276226Y-77898898D01*
X90316000Y-77698939D01*
X90316000Y-77495061D01*
X90786000Y-77495061D01*
X90786000Y-77698939D01*
X90825774Y-77898898D01*
X90903795Y-78087256D01*
X91017063Y-78256774D01*
X91161226Y-78400937D01*
X91330744Y-78514205D01*
X91519102Y-78592226D01*
X91719061Y-78632000D01*
X91922939Y-78632000D01*
X92122898Y-78592226D01*
X92311256Y-78514205D01*
X92480774Y-78400937D01*
X92624937Y-78256774D01*
X92738205Y-78087256D01*
X92816226Y-77898898D01*
X92856000Y-77698939D01*
X92856000Y-77495061D01*
X93326000Y-77495061D01*
X93326000Y-77698939D01*
X93365774Y-77898898D01*
X93443795Y-78087256D01*
X93557063Y-78256774D01*
X93701226Y-78400937D01*
X93870744Y-78514205D01*
X94059102Y-78592226D01*
X94259061Y-78632000D01*
X94462939Y-78632000D01*
X94662898Y-78592226D01*
X94851256Y-78514205D01*
X95020774Y-78400937D01*
X95164937Y-78256774D01*
X95278205Y-78087256D01*
X95356226Y-77898898D01*
X95396000Y-77698939D01*
X95396000Y-77495061D01*
X95866000Y-77495061D01*
X95866000Y-77698939D01*
X95905774Y-77898898D01*
X95983795Y-78087256D01*
X96097063Y-78256774D01*
X96241226Y-78400937D01*
X96410744Y-78514205D01*
X96599102Y-78592226D01*
X96799061Y-78632000D01*
X97002939Y-78632000D01*
X97202898Y-78592226D01*
X97391256Y-78514205D01*
X97560774Y-78400937D01*
X97704937Y-78256774D01*
X97818205Y-78087256D01*
X97896226Y-77898898D01*
X97936000Y-77698939D01*
X97936000Y-77495061D01*
X98406000Y-77495061D01*
X98406000Y-77698939D01*
X98445774Y-77898898D01*
X98523795Y-78087256D01*
X98637063Y-78256774D01*
X98781226Y-78400937D01*
X98950744Y-78514205D01*
X99139102Y-78592226D01*
X99339061Y-78632000D01*
X99542939Y-78632000D01*
X99742898Y-78592226D01*
X99931256Y-78514205D01*
X100100774Y-78400937D01*
X100244937Y-78256774D01*
X100358205Y-78087256D01*
X100436226Y-77898898D01*
X100476000Y-77698939D01*
X100476000Y-77495061D01*
X100946000Y-77495061D01*
X100946000Y-77698939D01*
X100985774Y-77898898D01*
X101063795Y-78087256D01*
X101177063Y-78256774D01*
X101321226Y-78400937D01*
X101490744Y-78514205D01*
X101679102Y-78592226D01*
X101879061Y-78632000D01*
X102082939Y-78632000D01*
X102282898Y-78592226D01*
X102471256Y-78514205D01*
X102640774Y-78400937D01*
X102784937Y-78256774D01*
X102898205Y-78087256D01*
X102976226Y-77898898D01*
X103016000Y-77698939D01*
X103016000Y-77495061D01*
X103486000Y-77495061D01*
X103486000Y-77698939D01*
X103525774Y-77898898D01*
X103603795Y-78087256D01*
X103717063Y-78256774D01*
X103861226Y-78400937D01*
X104030744Y-78514205D01*
X104219102Y-78592226D01*
X104419061Y-78632000D01*
X104622939Y-78632000D01*
X104822898Y-78592226D01*
X105011256Y-78514205D01*
X105180774Y-78400937D01*
X105324937Y-78256774D01*
X105438205Y-78087256D01*
X105516226Y-77898898D01*
X105556000Y-77698939D01*
X105556000Y-77495061D01*
X106026000Y-77495061D01*
X106026000Y-77698939D01*
X106065774Y-77898898D01*
X106143795Y-78087256D01*
X106257063Y-78256774D01*
X106401226Y-78400937D01*
X106570744Y-78514205D01*
X106759102Y-78592226D01*
X106959061Y-78632000D01*
X107162939Y-78632000D01*
X107362898Y-78592226D01*
X107551256Y-78514205D01*
X107720774Y-78400937D01*
X107864937Y-78256774D01*
X107978205Y-78087256D01*
X108056226Y-77898898D01*
X108096000Y-77698939D01*
X108096000Y-77495061D01*
X108056226Y-77295102D01*
X107978205Y-77106744D01*
X107864937Y-76937226D01*
X107720774Y-76793063D01*
X107551256Y-76679795D01*
X107362898Y-76601774D01*
X107162939Y-76562000D01*
X106959061Y-76562000D01*
X106759102Y-76601774D01*
X106570744Y-76679795D01*
X106401226Y-76793063D01*
X106257063Y-76937226D01*
X106143795Y-77106744D01*
X106065774Y-77295102D01*
X106026000Y-77495061D01*
X105556000Y-77495061D01*
X105516226Y-77295102D01*
X105438205Y-77106744D01*
X105324937Y-76937226D01*
X105180774Y-76793063D01*
X105011256Y-76679795D01*
X104822898Y-76601774D01*
X104622939Y-76562000D01*
X104419061Y-76562000D01*
X104219102Y-76601774D01*
X104030744Y-76679795D01*
X103861226Y-76793063D01*
X103717063Y-76937226D01*
X103603795Y-77106744D01*
X103525774Y-77295102D01*
X103486000Y-77495061D01*
X103016000Y-77495061D01*
X102976226Y-77295102D01*
X102898205Y-77106744D01*
X102784937Y-76937226D01*
X102640774Y-76793063D01*
X102471256Y-76679795D01*
X102282898Y-76601774D01*
X102082939Y-76562000D01*
X101879061Y-76562000D01*
X101679102Y-76601774D01*
X101490744Y-76679795D01*
X101321226Y-76793063D01*
X101177063Y-76937226D01*
X101063795Y-77106744D01*
X100985774Y-77295102D01*
X100946000Y-77495061D01*
X100476000Y-77495061D01*
X100436226Y-77295102D01*
X100358205Y-77106744D01*
X100244937Y-76937226D01*
X100100774Y-76793063D01*
X99931256Y-76679795D01*
X99742898Y-76601774D01*
X99542939Y-76562000D01*
X99339061Y-76562000D01*
X99139102Y-76601774D01*
X98950744Y-76679795D01*
X98781226Y-76793063D01*
X98637063Y-76937226D01*
X98523795Y-77106744D01*
X98445774Y-77295102D01*
X98406000Y-77495061D01*
X97936000Y-77495061D01*
X97896226Y-77295102D01*
X97818205Y-77106744D01*
X97704937Y-76937226D01*
X97560774Y-76793063D01*
X97391256Y-76679795D01*
X97202898Y-76601774D01*
X97002939Y-76562000D01*
X96799061Y-76562000D01*
X96599102Y-76601774D01*
X96410744Y-76679795D01*
X96241226Y-76793063D01*
X96097063Y-76937226D01*
X95983795Y-77106744D01*
X95905774Y-77295102D01*
X95866000Y-77495061D01*
X95396000Y-77495061D01*
X95356226Y-77295102D01*
X95278205Y-77106744D01*
X95164937Y-76937226D01*
X95020774Y-76793063D01*
X94851256Y-76679795D01*
X94662898Y-76601774D01*
X94462939Y-76562000D01*
X94259061Y-76562000D01*
X94059102Y-76601774D01*
X93870744Y-76679795D01*
X93701226Y-76793063D01*
X93557063Y-76937226D01*
X93443795Y-77106744D01*
X93365774Y-77295102D01*
X93326000Y-77495061D01*
X92856000Y-77495061D01*
X92816226Y-77295102D01*
X92738205Y-77106744D01*
X92624937Y-76937226D01*
X92480774Y-76793063D01*
X92311256Y-76679795D01*
X92122898Y-76601774D01*
X91922939Y-76562000D01*
X91719061Y-76562000D01*
X91519102Y-76601774D01*
X91330744Y-76679795D01*
X91161226Y-76793063D01*
X91017063Y-76937226D01*
X90903795Y-77106744D01*
X90825774Y-77295102D01*
X90786000Y-77495061D01*
X90316000Y-77495061D01*
X90276226Y-77295102D01*
X90198205Y-77106744D01*
X90084937Y-76937226D01*
X89940774Y-76793063D01*
X89771256Y-76679795D01*
X89582898Y-76601774D01*
X89382939Y-76562000D01*
X89179061Y-76562000D01*
X88979102Y-76601774D01*
X88790744Y-76679795D01*
X88621226Y-76793063D01*
X88477063Y-76937226D01*
X88363795Y-77106744D01*
X88285774Y-77295102D01*
X88246000Y-77495061D01*
X87776000Y-77495061D01*
X87736226Y-77295102D01*
X87658205Y-77106744D01*
X87544937Y-76937226D01*
X87400774Y-76793063D01*
X87231256Y-76679795D01*
X87042898Y-76601774D01*
X86842939Y-76562000D01*
X86639061Y-76562000D01*
X86439102Y-76601774D01*
X86250744Y-76679795D01*
X86081226Y-76793063D01*
X85937063Y-76937226D01*
X85823795Y-77106744D01*
X85745774Y-77295102D01*
X85706000Y-77495061D01*
X85236000Y-77495061D01*
X85196226Y-77295102D01*
X85118205Y-77106744D01*
X85004937Y-76937226D01*
X84860774Y-76793063D01*
X84691256Y-76679795D01*
X84502898Y-76601774D01*
X84302939Y-76562000D01*
X84099061Y-76562000D01*
X83899102Y-76601774D01*
X83710744Y-76679795D01*
X83541226Y-76793063D01*
X83397063Y-76937226D01*
X83283795Y-77106744D01*
X83205774Y-77295102D01*
X83166000Y-77495061D01*
X82696000Y-77495061D01*
X82656226Y-77295102D01*
X82578205Y-77106744D01*
X82464937Y-76937226D01*
X82320774Y-76793063D01*
X82151256Y-76679795D01*
X81962898Y-76601774D01*
X81762939Y-76562000D01*
X81559061Y-76562000D01*
X81359102Y-76601774D01*
X81170744Y-76679795D01*
X81001226Y-76793063D01*
X80857063Y-76937226D01*
X80743795Y-77106744D01*
X80665774Y-77295102D01*
X80626000Y-77495061D01*
X77616000Y-77495061D01*
X77576226Y-77295102D01*
X77498205Y-77106744D01*
X77384937Y-76937226D01*
X77240774Y-76793063D01*
X77071256Y-76679795D01*
X76882898Y-76601774D01*
X76682939Y-76562000D01*
X76479061Y-76562000D01*
X76279102Y-76601774D01*
X76090744Y-76679795D01*
X75921226Y-76793063D01*
X75777063Y-76937226D01*
X75663795Y-77106744D01*
X75585774Y-77295102D01*
X75546000Y-77495061D01*
X75076000Y-77495061D01*
X75036226Y-77295102D01*
X74958205Y-77106744D01*
X74844937Y-76937226D01*
X74700774Y-76793063D01*
X74531256Y-76679795D01*
X74342898Y-76601774D01*
X74142939Y-76562000D01*
X73939061Y-76562000D01*
X73739102Y-76601774D01*
X73550744Y-76679795D01*
X73381226Y-76793063D01*
X73237063Y-76937226D01*
X73123795Y-77106744D01*
X73045774Y-77295102D01*
X73006000Y-77495061D01*
X72536000Y-77495061D01*
X72496226Y-77295102D01*
X72418205Y-77106744D01*
X72304937Y-76937226D01*
X72160774Y-76793063D01*
X71991256Y-76679795D01*
X71802898Y-76601774D01*
X71602939Y-76562000D01*
X71399061Y-76562000D01*
X71199102Y-76601774D01*
X71010744Y-76679795D01*
X70841226Y-76793063D01*
X70697063Y-76937226D01*
X70583795Y-77106744D01*
X70505774Y-77295102D01*
X70466000Y-77495061D01*
X69996000Y-77495061D01*
X69956226Y-77295102D01*
X69878205Y-77106744D01*
X69764937Y-76937226D01*
X69620774Y-76793063D01*
X69451256Y-76679795D01*
X69262898Y-76601774D01*
X69062939Y-76562000D01*
X68859061Y-76562000D01*
X68659102Y-76601774D01*
X68470744Y-76679795D01*
X68301226Y-76793063D01*
X68157063Y-76937226D01*
X68043795Y-77106744D01*
X67965774Y-77295102D01*
X67926000Y-77495061D01*
X67456000Y-77495061D01*
X67416226Y-77295102D01*
X67338205Y-77106744D01*
X67224937Y-76937226D01*
X67080774Y-76793063D01*
X66911256Y-76679795D01*
X66722898Y-76601774D01*
X66522939Y-76562000D01*
X66319061Y-76562000D01*
X66119102Y-76601774D01*
X65930744Y-76679795D01*
X65761226Y-76793063D01*
X65617063Y-76937226D01*
X65503795Y-77106744D01*
X65425774Y-77295102D01*
X65386000Y-77495061D01*
X64916000Y-77495061D01*
X64876226Y-77295102D01*
X64798205Y-77106744D01*
X64684937Y-76937226D01*
X64540774Y-76793063D01*
X64371256Y-76679795D01*
X64182898Y-76601774D01*
X63982939Y-76562000D01*
X63779061Y-76562000D01*
X63579102Y-76601774D01*
X63390744Y-76679795D01*
X63221226Y-76793063D01*
X63077063Y-76937226D01*
X62963795Y-77106744D01*
X62885774Y-77295102D01*
X62846000Y-77495061D01*
X62376000Y-77495061D01*
X62336226Y-77295102D01*
X62258205Y-77106744D01*
X62144937Y-76937226D01*
X62000774Y-76793063D01*
X61831256Y-76679795D01*
X61642898Y-76601774D01*
X61442939Y-76562000D01*
X61239061Y-76562000D01*
X61039102Y-76601774D01*
X60850744Y-76679795D01*
X60681226Y-76793063D01*
X60537063Y-76937226D01*
X60423795Y-77106744D01*
X60345774Y-77295102D01*
X60306000Y-77495061D01*
X59836000Y-77495061D01*
X59796226Y-77295102D01*
X59718205Y-77106744D01*
X59604937Y-76937226D01*
X59460774Y-76793063D01*
X59291256Y-76679795D01*
X59102898Y-76601774D01*
X58902939Y-76562000D01*
X58699061Y-76562000D01*
X58499102Y-76601774D01*
X58310744Y-76679795D01*
X58141226Y-76793063D01*
X57997063Y-76937226D01*
X57883795Y-77106744D01*
X57805774Y-77295102D01*
X57766000Y-77495061D01*
X57296000Y-77495061D01*
X57256226Y-77295102D01*
X57178205Y-77106744D01*
X57064937Y-76937226D01*
X56920774Y-76793063D01*
X56751256Y-76679795D01*
X56562898Y-76601774D01*
X56362939Y-76562000D01*
X56159061Y-76562000D01*
X55959102Y-76601774D01*
X55770744Y-76679795D01*
X55601226Y-76793063D01*
X55457063Y-76937226D01*
X55343795Y-77106744D01*
X55265774Y-77295102D01*
X55226000Y-77495061D01*
X52222000Y-77495061D01*
X52222000Y-74955061D01*
X67926000Y-74955061D01*
X67926000Y-75158939D01*
X67965774Y-75358898D01*
X68043795Y-75547256D01*
X68157063Y-75716774D01*
X68301226Y-75860937D01*
X68470744Y-75974205D01*
X68659102Y-76052226D01*
X68859061Y-76092000D01*
X69062939Y-76092000D01*
X69262898Y-76052226D01*
X69451256Y-75974205D01*
X69620774Y-75860937D01*
X69764937Y-75716774D01*
X69878205Y-75547256D01*
X69956226Y-75358898D01*
X69996000Y-75158939D01*
X69996000Y-75049986D01*
X98726000Y-75049986D01*
X98726000Y-75244014D01*
X98763853Y-75434314D01*
X98838104Y-75613572D01*
X98945901Y-75774901D01*
X99083099Y-75912099D01*
X99244428Y-76019896D01*
X99423686Y-76094147D01*
X99613986Y-76132000D01*
X99808014Y-76132000D01*
X99998314Y-76094147D01*
X100177572Y-76019896D01*
X100338901Y-75912099D01*
X100476099Y-75774901D01*
X100583896Y-75613572D01*
X100658147Y-75434314D01*
X100696000Y-75244014D01*
X100696000Y-75049986D01*
X100726000Y-75049986D01*
X100726000Y-75244014D01*
X100763853Y-75434314D01*
X100838104Y-75613572D01*
X100945901Y-75774901D01*
X101083099Y-75912099D01*
X101244428Y-76019896D01*
X101423686Y-76094147D01*
X101613986Y-76132000D01*
X101808014Y-76132000D01*
X101998314Y-76094147D01*
X102177572Y-76019896D01*
X102338901Y-75912099D01*
X102476099Y-75774901D01*
X102583896Y-75613572D01*
X102658147Y-75434314D01*
X102696000Y-75244014D01*
X102696000Y-75049986D01*
X102658147Y-74859686D01*
X102583896Y-74680428D01*
X102476099Y-74519099D01*
X102338901Y-74381901D01*
X102177572Y-74274104D01*
X101998314Y-74199853D01*
X101808014Y-74162000D01*
X101613986Y-74162000D01*
X101423686Y-74199853D01*
X101244428Y-74274104D01*
X101083099Y-74381901D01*
X100945901Y-74519099D01*
X100838104Y-74680428D01*
X100763853Y-74859686D01*
X100726000Y-75049986D01*
X100696000Y-75049986D01*
X100658147Y-74859686D01*
X100583896Y-74680428D01*
X100476099Y-74519099D01*
X100338901Y-74381901D01*
X100177572Y-74274104D01*
X99998314Y-74199853D01*
X99808014Y-74162000D01*
X99613986Y-74162000D01*
X99423686Y-74199853D01*
X99244428Y-74274104D01*
X99083099Y-74381901D01*
X98945901Y-74519099D01*
X98838104Y-74680428D01*
X98763853Y-74859686D01*
X98726000Y-75049986D01*
X69996000Y-75049986D01*
X69996000Y-74955061D01*
X69956226Y-74755102D01*
X69878205Y-74566744D01*
X69764937Y-74397226D01*
X69620774Y-74253063D01*
X69451256Y-74139795D01*
X69262898Y-74061774D01*
X69062939Y-74022000D01*
X68859061Y-74022000D01*
X68659102Y-74061774D01*
X68470744Y-74139795D01*
X68301226Y-74253063D01*
X68157063Y-74397226D01*
X68043795Y-74566744D01*
X67965774Y-74755102D01*
X67926000Y-74955061D01*
X52222000Y-74955061D01*
X52222000Y-72415061D01*
X67926000Y-72415061D01*
X67926000Y-72618939D01*
X67965774Y-72818898D01*
X68043795Y-73007256D01*
X68157063Y-73176774D01*
X68301226Y-73320937D01*
X68470744Y-73434205D01*
X68659102Y-73512226D01*
X68859061Y-73552000D01*
X69062939Y-73552000D01*
X69262898Y-73512226D01*
X69451256Y-73434205D01*
X69620774Y-73320937D01*
X69764937Y-73176774D01*
X69849653Y-73049986D01*
X100726000Y-73049986D01*
X100726000Y-73244014D01*
X100763853Y-73434314D01*
X100838104Y-73613572D01*
X100945901Y-73774901D01*
X101083099Y-73912099D01*
X101244428Y-74019896D01*
X101423686Y-74094147D01*
X101613986Y-74132000D01*
X101808014Y-74132000D01*
X101998314Y-74094147D01*
X102177572Y-74019896D01*
X102338901Y-73912099D01*
X102476099Y-73774901D01*
X102583896Y-73613572D01*
X102658147Y-73434314D01*
X102696000Y-73244014D01*
X102696000Y-73049986D01*
X102658147Y-72859686D01*
X102583896Y-72680428D01*
X102476099Y-72519099D01*
X102338901Y-72381901D01*
X102177572Y-72274104D01*
X101998314Y-72199853D01*
X101808014Y-72162000D01*
X101613986Y-72162000D01*
X101423686Y-72199853D01*
X101244428Y-72274104D01*
X101083099Y-72381901D01*
X100945901Y-72519099D01*
X100838104Y-72680428D01*
X100763853Y-72859686D01*
X100726000Y-73049986D01*
X69849653Y-73049986D01*
X69878205Y-73007256D01*
X69956226Y-72818898D01*
X69996000Y-72618939D01*
X69996000Y-72415061D01*
X69956226Y-72215102D01*
X69878205Y-72026744D01*
X69764937Y-71857226D01*
X69620774Y-71713063D01*
X69451256Y-71599795D01*
X69262898Y-71521774D01*
X69062939Y-71482000D01*
X68859061Y-71482000D01*
X68659102Y-71521774D01*
X68470744Y-71599795D01*
X68301226Y-71713063D01*
X68157063Y-71857226D01*
X68043795Y-72026744D01*
X67965774Y-72215102D01*
X67926000Y-72415061D01*
X52222000Y-72415061D01*
X52222000Y-71049986D01*
X98726000Y-71049986D01*
X98726000Y-71244014D01*
X98763853Y-71434314D01*
X98838104Y-71613572D01*
X98945901Y-71774901D01*
X99083099Y-71912099D01*
X99244428Y-72019896D01*
X99423686Y-72094147D01*
X99613986Y-72132000D01*
X99808014Y-72132000D01*
X99998314Y-72094147D01*
X100177572Y-72019896D01*
X100338901Y-71912099D01*
X100476099Y-71774901D01*
X100583896Y-71613572D01*
X100658147Y-71434314D01*
X100696000Y-71244014D01*
X100696000Y-71049986D01*
X100726000Y-71049986D01*
X100726000Y-71244014D01*
X100763853Y-71434314D01*
X100838104Y-71613572D01*
X100945901Y-71774901D01*
X101083099Y-71912099D01*
X101244428Y-72019896D01*
X101423686Y-72094147D01*
X101613986Y-72132000D01*
X101808014Y-72132000D01*
X101998314Y-72094147D01*
X102177572Y-72019896D01*
X102338901Y-71912099D01*
X102476099Y-71774901D01*
X102583896Y-71613572D01*
X102658147Y-71434314D01*
X102696000Y-71244014D01*
X102696000Y-71049986D01*
X102658147Y-70859686D01*
X102583896Y-70680428D01*
X102476099Y-70519099D01*
X102338901Y-70381901D01*
X102177572Y-70274104D01*
X101998314Y-70199853D01*
X101808014Y-70162000D01*
X101613986Y-70162000D01*
X101423686Y-70199853D01*
X101244428Y-70274104D01*
X101083099Y-70381901D01*
X100945901Y-70519099D01*
X100838104Y-70680428D01*
X100763853Y-70859686D01*
X100726000Y-71049986D01*
X100696000Y-71049986D01*
X100658147Y-70859686D01*
X100583896Y-70680428D01*
X100476099Y-70519099D01*
X100338901Y-70381901D01*
X100177572Y-70274104D01*
X99998314Y-70199853D01*
X99808014Y-70162000D01*
X99613986Y-70162000D01*
X99423686Y-70199853D01*
X99244428Y-70274104D01*
X99083099Y-70381901D01*
X98945901Y-70519099D01*
X98838104Y-70680428D01*
X98763853Y-70859686D01*
X98726000Y-71049986D01*
X52222000Y-71049986D01*
X52222000Y-67335061D01*
X67926000Y-67335061D01*
X67926000Y-67538939D01*
X67965774Y-67738898D01*
X68043795Y-67927256D01*
X68157063Y-68096774D01*
X68301226Y-68240937D01*
X68470744Y-68354205D01*
X68659102Y-68432226D01*
X68859061Y-68472000D01*
X69062939Y-68472000D01*
X69262898Y-68432226D01*
X69451256Y-68354205D01*
X69620774Y-68240937D01*
X69764937Y-68096774D01*
X69866349Y-67945000D01*
X74016056Y-67945000D01*
X74041000Y-67947457D01*
X74065944Y-67945000D01*
X74065947Y-67945000D01*
X74140585Y-67937649D01*
X74236343Y-67908601D01*
X74324595Y-67861429D01*
X74401948Y-67797948D01*
X74417855Y-67778565D01*
X76888896Y-65307524D01*
X102241000Y-65307524D01*
X102241000Y-65506476D01*
X102279814Y-65701606D01*
X102355950Y-65885414D01*
X102466482Y-66050837D01*
X102607163Y-66191518D01*
X102772586Y-66302050D01*
X102956394Y-66378186D01*
X103151524Y-66417000D01*
X103350476Y-66417000D01*
X103545606Y-66378186D01*
X103729414Y-66302050D01*
X103894837Y-66191518D01*
X104035518Y-66050837D01*
X104146050Y-65885414D01*
X104222186Y-65701606D01*
X104261000Y-65506476D01*
X104261000Y-65307524D01*
X104781000Y-65307524D01*
X104781000Y-65506476D01*
X104819814Y-65701606D01*
X104895950Y-65885414D01*
X105006482Y-66050837D01*
X105147163Y-66191518D01*
X105312586Y-66302050D01*
X105496394Y-66378186D01*
X105691524Y-66417000D01*
X105890476Y-66417000D01*
X106085606Y-66378186D01*
X106269414Y-66302050D01*
X106434837Y-66191518D01*
X106575518Y-66050837D01*
X106686050Y-65885414D01*
X106762186Y-65701606D01*
X106801000Y-65506476D01*
X106801000Y-65307524D01*
X106762186Y-65112394D01*
X106686050Y-64928586D01*
X106575518Y-64763163D01*
X106434837Y-64622482D01*
X106269414Y-64511950D01*
X106085606Y-64435814D01*
X105890476Y-64397000D01*
X105691524Y-64397000D01*
X105496394Y-64435814D01*
X105312586Y-64511950D01*
X105147163Y-64622482D01*
X105006482Y-64763163D01*
X104895950Y-64928586D01*
X104819814Y-65112394D01*
X104781000Y-65307524D01*
X104261000Y-65307524D01*
X104222186Y-65112394D01*
X104146050Y-64928586D01*
X104035518Y-64763163D01*
X103894837Y-64622482D01*
X103729414Y-64511950D01*
X103545606Y-64435814D01*
X103350476Y-64397000D01*
X103151524Y-64397000D01*
X102956394Y-64435814D01*
X102772586Y-64511950D01*
X102607163Y-64622482D01*
X102466482Y-64763163D01*
X102355950Y-64928586D01*
X102279814Y-65112394D01*
X102241000Y-65307524D01*
X76888896Y-65307524D01*
X78840031Y-63356389D01*
X79019061Y-63392000D01*
X79222939Y-63392000D01*
X79422898Y-63352226D01*
X79611256Y-63274205D01*
X79780774Y-63160937D01*
X79924937Y-63016774D01*
X80038205Y-62847256D01*
X80116226Y-62658898D01*
X80156000Y-62458939D01*
X80156000Y-62255061D01*
X80120389Y-62076031D01*
X80312421Y-61883999D01*
X80736648Y-61883999D01*
X80665774Y-62055102D01*
X80626000Y-62255061D01*
X80626000Y-62458939D01*
X80665774Y-62658898D01*
X80743795Y-62847256D01*
X80857063Y-63016774D01*
X81001226Y-63160937D01*
X81170744Y-63274205D01*
X81359102Y-63352226D01*
X81559061Y-63392000D01*
X81762939Y-63392000D01*
X81962898Y-63352226D01*
X82151256Y-63274205D01*
X82320774Y-63160937D01*
X82464937Y-63016774D01*
X82578205Y-62847256D01*
X82656226Y-62658898D01*
X82696000Y-62458939D01*
X82696000Y-62255061D01*
X82656226Y-62055102D01*
X82585352Y-61883999D01*
X83276648Y-61883999D01*
X83205774Y-62055102D01*
X83166000Y-62255061D01*
X83166000Y-62458939D01*
X83205774Y-62658898D01*
X83283795Y-62847256D01*
X83397063Y-63016774D01*
X83541226Y-63160937D01*
X83710744Y-63274205D01*
X83899102Y-63352226D01*
X84099061Y-63392000D01*
X84302939Y-63392000D01*
X84502898Y-63352226D01*
X84691256Y-63274205D01*
X84860774Y-63160937D01*
X85004937Y-63016774D01*
X85118205Y-62847256D01*
X85196226Y-62658898D01*
X85236000Y-62458939D01*
X85236000Y-62255061D01*
X85196226Y-62055102D01*
X85125352Y-61883999D01*
X85816648Y-61883999D01*
X85745774Y-62055102D01*
X85706000Y-62255061D01*
X85706000Y-62458939D01*
X85745774Y-62658898D01*
X85823795Y-62847256D01*
X85937063Y-63016774D01*
X86081226Y-63160937D01*
X86250744Y-63274205D01*
X86439102Y-63352226D01*
X86639061Y-63392000D01*
X86842939Y-63392000D01*
X87042898Y-63352226D01*
X87231256Y-63274205D01*
X87400774Y-63160937D01*
X87544937Y-63016774D01*
X87658205Y-62847256D01*
X87736226Y-62658898D01*
X87776000Y-62458939D01*
X87776000Y-62255061D01*
X87736226Y-62055102D01*
X87665352Y-61883999D01*
X88356648Y-61883999D01*
X88285774Y-62055102D01*
X88246000Y-62255061D01*
X88246000Y-62458939D01*
X88285774Y-62658898D01*
X88363795Y-62847256D01*
X88477063Y-63016774D01*
X88621226Y-63160937D01*
X88790744Y-63274205D01*
X88979102Y-63352226D01*
X89179061Y-63392000D01*
X89382939Y-63392000D01*
X89582898Y-63352226D01*
X89771256Y-63274205D01*
X89940774Y-63160937D01*
X90084937Y-63016774D01*
X90198205Y-62847256D01*
X90276226Y-62658898D01*
X90316000Y-62458939D01*
X90316000Y-62255061D01*
X90276226Y-62055102D01*
X90205352Y-61883999D01*
X90896648Y-61883999D01*
X90825774Y-62055102D01*
X90786000Y-62255061D01*
X90786000Y-62458939D01*
X90825774Y-62658898D01*
X90903795Y-62847256D01*
X91017063Y-63016774D01*
X91161226Y-63160937D01*
X91330744Y-63274205D01*
X91519102Y-63352226D01*
X91719061Y-63392000D01*
X91922939Y-63392000D01*
X92122898Y-63352226D01*
X92311256Y-63274205D01*
X92480774Y-63160937D01*
X92624937Y-63016774D01*
X92738205Y-62847256D01*
X92816226Y-62658898D01*
X92856000Y-62458939D01*
X92856000Y-62255061D01*
X92816226Y-62055102D01*
X92745352Y-61883999D01*
X93260757Y-61883999D01*
X93285701Y-61886456D01*
X93310645Y-61883999D01*
X93310648Y-61883999D01*
X93385286Y-61876648D01*
X93450369Y-61856905D01*
X93443795Y-61866744D01*
X93365774Y-62055102D01*
X93326000Y-62255061D01*
X93326000Y-62458939D01*
X93365774Y-62658898D01*
X93443795Y-62847256D01*
X93557063Y-63016774D01*
X93701226Y-63160937D01*
X93870744Y-63274205D01*
X94059102Y-63352226D01*
X94259061Y-63392000D01*
X94462939Y-63392000D01*
X94662898Y-63352226D01*
X94851256Y-63274205D01*
X95020774Y-63160937D01*
X95164937Y-63016774D01*
X95278205Y-62847256D01*
X95356226Y-62658898D01*
X95396000Y-62458939D01*
X95396000Y-62255061D01*
X95866000Y-62255061D01*
X95866000Y-62458939D01*
X95905774Y-62658898D01*
X95983795Y-62847256D01*
X96097063Y-63016774D01*
X96241226Y-63160937D01*
X96410744Y-63274205D01*
X96599102Y-63352226D01*
X96799061Y-63392000D01*
X97002939Y-63392000D01*
X97202898Y-63352226D01*
X97391256Y-63274205D01*
X97560774Y-63160937D01*
X97704937Y-63016774D01*
X97818205Y-62847256D01*
X97896226Y-62658898D01*
X97936000Y-62458939D01*
X97936000Y-62255061D01*
X98406000Y-62255061D01*
X98406000Y-62458939D01*
X98445774Y-62658898D01*
X98523795Y-62847256D01*
X98637063Y-63016774D01*
X98781226Y-63160937D01*
X98950744Y-63274205D01*
X99139102Y-63352226D01*
X99339061Y-63392000D01*
X99542939Y-63392000D01*
X99742898Y-63352226D01*
X99931256Y-63274205D01*
X100100774Y-63160937D01*
X100244937Y-63016774D01*
X100358205Y-62847256D01*
X100436226Y-62658898D01*
X100476000Y-62458939D01*
X100476000Y-62255061D01*
X100946000Y-62255061D01*
X100946000Y-62458939D01*
X100985774Y-62658898D01*
X101063795Y-62847256D01*
X101177063Y-63016774D01*
X101321226Y-63160937D01*
X101490744Y-63274205D01*
X101679102Y-63352226D01*
X101879061Y-63392000D01*
X102082939Y-63392000D01*
X102282898Y-63352226D01*
X102471256Y-63274205D01*
X102640774Y-63160937D01*
X102784937Y-63016774D01*
X102898205Y-62847256D01*
X102976226Y-62658898D01*
X103016000Y-62458939D01*
X103016000Y-62255061D01*
X103486000Y-62255061D01*
X103486000Y-62458939D01*
X103525774Y-62658898D01*
X103603795Y-62847256D01*
X103717063Y-63016774D01*
X103861226Y-63160937D01*
X104030744Y-63274205D01*
X104219102Y-63352226D01*
X104419061Y-63392000D01*
X104622939Y-63392000D01*
X104822898Y-63352226D01*
X105011256Y-63274205D01*
X105180774Y-63160937D01*
X105324937Y-63016774D01*
X105438205Y-62847256D01*
X105516226Y-62658898D01*
X105556000Y-62458939D01*
X105556000Y-62255061D01*
X106026000Y-62255061D01*
X106026000Y-62458939D01*
X106065774Y-62658898D01*
X106143795Y-62847256D01*
X106257063Y-63016774D01*
X106401226Y-63160937D01*
X106570744Y-63274205D01*
X106759102Y-63352226D01*
X106959061Y-63392000D01*
X107162939Y-63392000D01*
X107362898Y-63352226D01*
X107551256Y-63274205D01*
X107720774Y-63160937D01*
X107864937Y-63016774D01*
X107978205Y-62847256D01*
X108056226Y-62658898D01*
X108096000Y-62458939D01*
X108096000Y-62255061D01*
X108056226Y-62055102D01*
X107978205Y-61866744D01*
X107864937Y-61697226D01*
X107720774Y-61553063D01*
X107551256Y-61439795D01*
X107362898Y-61361774D01*
X107162939Y-61322000D01*
X106959061Y-61322000D01*
X106759102Y-61361774D01*
X106570744Y-61439795D01*
X106401226Y-61553063D01*
X106257063Y-61697226D01*
X106143795Y-61866744D01*
X106065774Y-62055102D01*
X106026000Y-62255061D01*
X105556000Y-62255061D01*
X105516226Y-62055102D01*
X105438205Y-61866744D01*
X105324937Y-61697226D01*
X105180774Y-61553063D01*
X105011256Y-61439795D01*
X104822898Y-61361774D01*
X104622939Y-61322000D01*
X104419061Y-61322000D01*
X104219102Y-61361774D01*
X104030744Y-61439795D01*
X103861226Y-61553063D01*
X103717063Y-61697226D01*
X103603795Y-61866744D01*
X103525774Y-62055102D01*
X103486000Y-62255061D01*
X103016000Y-62255061D01*
X102976226Y-62055102D01*
X102898205Y-61866744D01*
X102784937Y-61697226D01*
X102640774Y-61553063D01*
X102471256Y-61439795D01*
X102282898Y-61361774D01*
X102082939Y-61322000D01*
X101879061Y-61322000D01*
X101679102Y-61361774D01*
X101490744Y-61439795D01*
X101321226Y-61553063D01*
X101177063Y-61697226D01*
X101063795Y-61866744D01*
X100985774Y-62055102D01*
X100946000Y-62255061D01*
X100476000Y-62255061D01*
X100436226Y-62055102D01*
X100358205Y-61866744D01*
X100244937Y-61697226D01*
X100100774Y-61553063D01*
X99931256Y-61439795D01*
X99742898Y-61361774D01*
X99542939Y-61322000D01*
X99339061Y-61322000D01*
X99139102Y-61361774D01*
X98950744Y-61439795D01*
X98781226Y-61553063D01*
X98637063Y-61697226D01*
X98523795Y-61866744D01*
X98445774Y-62055102D01*
X98406000Y-62255061D01*
X97936000Y-62255061D01*
X97896226Y-62055102D01*
X97818205Y-61866744D01*
X97704937Y-61697226D01*
X97560774Y-61553063D01*
X97391256Y-61439795D01*
X97202898Y-61361774D01*
X97002939Y-61322000D01*
X96799061Y-61322000D01*
X96599102Y-61361774D01*
X96410744Y-61439795D01*
X96241226Y-61553063D01*
X96097063Y-61697226D01*
X95983795Y-61866744D01*
X95905774Y-62055102D01*
X95866000Y-62255061D01*
X95396000Y-62255061D01*
X95356226Y-62055102D01*
X95278205Y-61866744D01*
X95164937Y-61697226D01*
X95020774Y-61553063D01*
X94851256Y-61439795D01*
X94662898Y-61361774D01*
X94462939Y-61322000D01*
X94259061Y-61322000D01*
X94059102Y-61361774D01*
X93989527Y-61390593D01*
X100610677Y-54769443D01*
X101050100Y-54769443D01*
X101171123Y-54757523D01*
X101287495Y-54722222D01*
X101390222Y-54667313D01*
X108115999Y-61393091D01*
X108116000Y-64261221D01*
X108113552Y-64286077D01*
X108123321Y-64385269D01*
X108132834Y-64416631D01*
X108036394Y-64435814D01*
X107852586Y-64511950D01*
X107687163Y-64622482D01*
X107546482Y-64763163D01*
X107435950Y-64928586D01*
X107359814Y-65112394D01*
X107321000Y-65307524D01*
X107321000Y-65506476D01*
X107359814Y-65701606D01*
X107435950Y-65885414D01*
X107546482Y-66050837D01*
X107687163Y-66191518D01*
X107852586Y-66302050D01*
X108036394Y-66378186D01*
X108231524Y-66417000D01*
X108430476Y-66417000D01*
X108625606Y-66378186D01*
X108809414Y-66302050D01*
X108974837Y-66191518D01*
X109095000Y-66071355D01*
X109095001Y-76690314D01*
X108941226Y-76793063D01*
X108797063Y-76937226D01*
X108683795Y-77106744D01*
X108605774Y-77295102D01*
X108566000Y-77495061D01*
X108566000Y-77698939D01*
X108605774Y-77898898D01*
X108683795Y-78087256D01*
X108797063Y-78256774D01*
X108941226Y-78400937D01*
X109110744Y-78514205D01*
X109299102Y-78592226D01*
X109499061Y-78632000D01*
X109702939Y-78632000D01*
X109902898Y-78592226D01*
X110091256Y-78514205D01*
X110260774Y-78400937D01*
X110404937Y-78256774D01*
X110518205Y-78087256D01*
X110596226Y-77898898D01*
X110636000Y-77698939D01*
X110636000Y-77495061D01*
X113646000Y-77495061D01*
X113646000Y-77698939D01*
X113685774Y-77898898D01*
X113763795Y-78087256D01*
X113877063Y-78256774D01*
X114021226Y-78400937D01*
X114190744Y-78514205D01*
X114379102Y-78592226D01*
X114579061Y-78632000D01*
X114782939Y-78632000D01*
X114982898Y-78592226D01*
X115171256Y-78514205D01*
X115340774Y-78400937D01*
X115484937Y-78256774D01*
X115598205Y-78087256D01*
X115676226Y-77898898D01*
X115716000Y-77698939D01*
X115716000Y-77495061D01*
X115676226Y-77295102D01*
X115598205Y-77106744D01*
X115484937Y-76937226D01*
X115340774Y-76793063D01*
X115171256Y-76679795D01*
X114982898Y-76601774D01*
X114782939Y-76562000D01*
X114579061Y-76562000D01*
X114379102Y-76601774D01*
X114190744Y-76679795D01*
X114021226Y-76793063D01*
X113877063Y-76937226D01*
X113763795Y-77106744D01*
X113685774Y-77295102D01*
X113646000Y-77495061D01*
X110636000Y-77495061D01*
X110596226Y-77295102D01*
X110518205Y-77106744D01*
X110404937Y-76937226D01*
X110260774Y-76793063D01*
X110107000Y-76690315D01*
X110107000Y-74955061D01*
X111106000Y-74955061D01*
X111106000Y-75158939D01*
X111145774Y-75358898D01*
X111223795Y-75547256D01*
X111337063Y-75716774D01*
X111481226Y-75860937D01*
X111650744Y-75974205D01*
X111839102Y-76052226D01*
X112039061Y-76092000D01*
X112242939Y-76092000D01*
X112442898Y-76052226D01*
X112631256Y-75974205D01*
X112800774Y-75860937D01*
X112944937Y-75716774D01*
X113058205Y-75547256D01*
X113136226Y-75358898D01*
X113176000Y-75158939D01*
X113176000Y-74955061D01*
X113136226Y-74755102D01*
X113058205Y-74566744D01*
X112944937Y-74397226D01*
X112800774Y-74253063D01*
X112631256Y-74139795D01*
X112442898Y-74061774D01*
X112242939Y-74022000D01*
X112039061Y-74022000D01*
X111839102Y-74061774D01*
X111650744Y-74139795D01*
X111481226Y-74253063D01*
X111337063Y-74397226D01*
X111223795Y-74566744D01*
X111145774Y-74755102D01*
X111106000Y-74955061D01*
X110107000Y-74955061D01*
X110107000Y-65289923D01*
X110109447Y-65265077D01*
X110107000Y-65240231D01*
X110107000Y-65240224D01*
X110099678Y-65165885D01*
X110070745Y-65070503D01*
X110023759Y-64982599D01*
X109960527Y-64905551D01*
X109941220Y-64889706D01*
X109127999Y-64076486D01*
X109127999Y-63281352D01*
X109299102Y-63352226D01*
X109499061Y-63392000D01*
X109702939Y-63392000D01*
X109902898Y-63352226D01*
X110091256Y-63274205D01*
X110260774Y-63160937D01*
X110404937Y-63016774D01*
X110518205Y-62847256D01*
X110596226Y-62658898D01*
X110636000Y-62458939D01*
X110636000Y-62255061D01*
X111106000Y-62255061D01*
X111106000Y-62458939D01*
X111145774Y-62658898D01*
X111223795Y-62847256D01*
X111337063Y-63016774D01*
X111481226Y-63160937D01*
X111650744Y-63274205D01*
X111839102Y-63352226D01*
X112039061Y-63392000D01*
X112242939Y-63392000D01*
X112442898Y-63352226D01*
X112631256Y-63274205D01*
X112800774Y-63160937D01*
X112944937Y-63016774D01*
X113058205Y-62847256D01*
X113136226Y-62658898D01*
X113176000Y-62458939D01*
X113176000Y-62255061D01*
X113136226Y-62055102D01*
X113058205Y-61866744D01*
X112944937Y-61697226D01*
X112800774Y-61553063D01*
X112631256Y-61439795D01*
X112442898Y-61361774D01*
X112242939Y-61322000D01*
X112039061Y-61322000D01*
X111839102Y-61361774D01*
X111650744Y-61439795D01*
X111481226Y-61553063D01*
X111337063Y-61697226D01*
X111223795Y-61866744D01*
X111145774Y-62055102D01*
X111106000Y-62255061D01*
X110636000Y-62255061D01*
X110596226Y-62055102D01*
X110518205Y-61866744D01*
X110404937Y-61697226D01*
X110260774Y-61553063D01*
X110091256Y-61439795D01*
X109902898Y-61361774D01*
X109702939Y-61322000D01*
X109499061Y-61322000D01*
X109299102Y-61361774D01*
X109127999Y-61432648D01*
X109127999Y-61208353D01*
X109130447Y-61183499D01*
X109120677Y-61084306D01*
X109091744Y-60988924D01*
X109044758Y-60901020D01*
X108981526Y-60823972D01*
X108962219Y-60808127D01*
X103404992Y-55250900D01*
X107447757Y-55250900D01*
X107447757Y-55850900D01*
X107459677Y-55971923D01*
X107494978Y-56088295D01*
X107552304Y-56195544D01*
X107629451Y-56289549D01*
X107723456Y-56366696D01*
X107810833Y-56413400D01*
X107723456Y-56460104D01*
X107629451Y-56537251D01*
X107552304Y-56631256D01*
X107494978Y-56738505D01*
X107459677Y-56854877D01*
X107447757Y-56975900D01*
X107447757Y-57575900D01*
X107459677Y-57696923D01*
X107494978Y-57813295D01*
X107552304Y-57920544D01*
X107629451Y-58014549D01*
X107723456Y-58091696D01*
X107830705Y-58149022D01*
X107947077Y-58184323D01*
X108068100Y-58196243D01*
X108543100Y-58196243D01*
X108664123Y-58184323D01*
X108780495Y-58149022D01*
X108887744Y-58091696D01*
X108981749Y-58014549D01*
X109058896Y-57920544D01*
X109116222Y-57813295D01*
X109151523Y-57696923D01*
X109163443Y-57575900D01*
X109163443Y-57414148D01*
X110297592Y-56280000D01*
X110439922Y-56280000D01*
X110590809Y-56249987D01*
X110732942Y-56191113D01*
X110860859Y-56105642D01*
X110969642Y-55996859D01*
X111055113Y-55868942D01*
X111113987Y-55726809D01*
X111144000Y-55575922D01*
X111144000Y-55422078D01*
X111113987Y-55271191D01*
X111055113Y-55129058D01*
X110969642Y-55001141D01*
X110860859Y-54892358D01*
X110732942Y-54806887D01*
X110590809Y-54748013D01*
X110439922Y-54718000D01*
X110286078Y-54718000D01*
X110135191Y-54748013D01*
X109993058Y-54806887D01*
X109865141Y-54892358D01*
X109756358Y-55001141D01*
X109670887Y-55129058D01*
X109612013Y-55271191D01*
X109582000Y-55422078D01*
X109582000Y-55564408D01*
X109141524Y-56004884D01*
X109151523Y-55971923D01*
X109163443Y-55850900D01*
X109163443Y-55250900D01*
X109151523Y-55129877D01*
X109116222Y-55013505D01*
X109058896Y-54906256D01*
X108981749Y-54812251D01*
X108887744Y-54735104D01*
X108780495Y-54677778D01*
X108710000Y-54656394D01*
X108710000Y-54177791D01*
X109541625Y-53346166D01*
X109569674Y-53380344D01*
X109588981Y-53396189D01*
X114828812Y-58636021D01*
X114844657Y-58655328D01*
X114921705Y-58718560D01*
X115009609Y-58765546D01*
X115104991Y-58794479D01*
X115204184Y-58804249D01*
X115229038Y-58801801D01*
X117135953Y-58801801D01*
X117160799Y-58804248D01*
X117185645Y-58801801D01*
X117185653Y-58801801D01*
X117259992Y-58794479D01*
X117355374Y-58765546D01*
X117443278Y-58718560D01*
X117520326Y-58655328D01*
X117536175Y-58636016D01*
X117859612Y-58312579D01*
X118056793Y-58351800D01*
X118264807Y-58351800D01*
X118468824Y-58311219D01*
X118661004Y-58231615D01*
X118833961Y-58116049D01*
X118981049Y-57968961D01*
X119096615Y-57796004D01*
X119102957Y-57780693D01*
X119102957Y-57970800D01*
X119110313Y-58045489D01*
X119132099Y-58117308D01*
X119167478Y-58183496D01*
X119215089Y-58241511D01*
X119273104Y-58289122D01*
X119339292Y-58324501D01*
X119411111Y-58346287D01*
X119485800Y-58353643D01*
X120835800Y-58353643D01*
X120910489Y-58346287D01*
X120982308Y-58324501D01*
X121048496Y-58289122D01*
X121106511Y-58241511D01*
X121154122Y-58183496D01*
X121189501Y-58117308D01*
X121211287Y-58045489D01*
X121218643Y-57970800D01*
X121218643Y-56953549D01*
X121501021Y-56671171D01*
X121520328Y-56655326D01*
X121583560Y-56578278D01*
X121630546Y-56490374D01*
X121659479Y-56394992D01*
X121666801Y-56320653D01*
X121666801Y-56320645D01*
X121669248Y-56295799D01*
X121666801Y-56270953D01*
X121666801Y-50573646D01*
X121669248Y-50548800D01*
X121666801Y-50523954D01*
X121666801Y-50523947D01*
X121659479Y-50449608D01*
X121630546Y-50354226D01*
X121583560Y-50266322D01*
X121520328Y-50189274D01*
X121501021Y-50173429D01*
X120690376Y-49362785D01*
X120674527Y-49343473D01*
X120597479Y-49280241D01*
X120509575Y-49233255D01*
X120414193Y-49204322D01*
X120339854Y-49197000D01*
X120339846Y-49197000D01*
X120315000Y-49194553D01*
X120290154Y-49197000D01*
X119600806Y-49197000D01*
X119542355Y-49109522D01*
X119412678Y-48979845D01*
X119260194Y-48877958D01*
X119090763Y-48807778D01*
X118910896Y-48772000D01*
X118727504Y-48772000D01*
X118547637Y-48807778D01*
X118378206Y-48877958D01*
X118225722Y-48979845D01*
X118108000Y-49097567D01*
X118108000Y-48919845D01*
X118110447Y-48894999D01*
X118108000Y-48870153D01*
X118108000Y-48870146D01*
X118101652Y-48805694D01*
X118100678Y-48795806D01*
X118071745Y-48700425D01*
X118024759Y-48612521D01*
X117961527Y-48535473D01*
X117942215Y-48519624D01*
X117723376Y-48300785D01*
X117707527Y-48281473D01*
X117630479Y-48218241D01*
X117542575Y-48171255D01*
X117447193Y-48142322D01*
X117372854Y-48135000D01*
X117372846Y-48135000D01*
X117348000Y-48132553D01*
X117323154Y-48135000D01*
X116483854Y-48135000D01*
X116459000Y-48132552D01*
X116434146Y-48135000D01*
X116359807Y-48142322D01*
X116264425Y-48171255D01*
X116176521Y-48218241D01*
X116099473Y-48281473D01*
X116083624Y-48300785D01*
X115938981Y-48445428D01*
X115919674Y-48461273D01*
X115856442Y-48538321D01*
X115847645Y-48554779D01*
X115809455Y-48626226D01*
X115780522Y-48721608D01*
X115770753Y-48820800D01*
X115773201Y-48845656D01*
X115773201Y-48921393D01*
X115685722Y-48979845D01*
X115556045Y-49109522D01*
X115454158Y-49262006D01*
X115383978Y-49431437D01*
X115348200Y-49611304D01*
X115348200Y-49794696D01*
X115383978Y-49974563D01*
X115454158Y-50143994D01*
X115556045Y-50296478D01*
X115680567Y-50421000D01*
X115213854Y-50421000D01*
X115189000Y-50418552D01*
X115164146Y-50421000D01*
X115089807Y-50428322D01*
X114994425Y-50457255D01*
X114906521Y-50504241D01*
X114829473Y-50567473D01*
X114813624Y-50586785D01*
X114668985Y-50731424D01*
X114649673Y-50747273D01*
X114586441Y-50824321D01*
X114539455Y-50912226D01*
X114510522Y-51007608D01*
X114503200Y-51081947D01*
X114503200Y-51081954D01*
X114500753Y-51106800D01*
X114503200Y-51131647D01*
X114503200Y-51461394D01*
X114415722Y-51519845D01*
X114286045Y-51649522D01*
X114184158Y-51802006D01*
X114113978Y-51971437D01*
X114078200Y-52151304D01*
X114078200Y-52334696D01*
X114113978Y-52514563D01*
X114184158Y-52683994D01*
X114286045Y-52836478D01*
X114415722Y-52966155D01*
X114568206Y-53068042D01*
X114737637Y-53138222D01*
X114917504Y-53174000D01*
X115100896Y-53174000D01*
X115280763Y-53138222D01*
X115450194Y-53068042D01*
X115602678Y-52966155D01*
X115654801Y-52914032D01*
X115654800Y-54363858D01*
X115487639Y-54475551D01*
X115340551Y-54622639D01*
X115224985Y-54795596D01*
X115145381Y-54987776D01*
X115104800Y-55191793D01*
X115104800Y-55399807D01*
X115135689Y-55555097D01*
X112975200Y-53394609D01*
X112975200Y-53024606D01*
X113062678Y-52966155D01*
X113192355Y-52836478D01*
X113294242Y-52683994D01*
X113364422Y-52514563D01*
X113400200Y-52334696D01*
X113400200Y-52151304D01*
X113364422Y-51971437D01*
X113294242Y-51802006D01*
X113192355Y-51649522D01*
X113062678Y-51519845D01*
X112910194Y-51417958D01*
X112740763Y-51347778D01*
X112560896Y-51312000D01*
X112377504Y-51312000D01*
X112197637Y-51347778D01*
X112028206Y-51417958D01*
X111875722Y-51519845D01*
X111746045Y-51649522D01*
X111644158Y-51802006D01*
X111573978Y-51971437D01*
X111538200Y-52151304D01*
X111538200Y-52334696D01*
X111573978Y-52514563D01*
X111644158Y-52683994D01*
X111746045Y-52836478D01*
X111875722Y-52966155D01*
X111963200Y-53024606D01*
X111963200Y-53579353D01*
X111960753Y-53604200D01*
X111963200Y-53629046D01*
X111963200Y-53629053D01*
X111970522Y-53703392D01*
X111999455Y-53798774D01*
X112046441Y-53886679D01*
X112109673Y-53963727D01*
X112128985Y-53979576D01*
X115144021Y-56994613D01*
X115104800Y-57191793D01*
X115104800Y-57399807D01*
X115124917Y-57500942D01*
X110556404Y-52932429D01*
X110652355Y-52836478D01*
X110754242Y-52683994D01*
X110824422Y-52514563D01*
X110860200Y-52334696D01*
X110860200Y-52151304D01*
X110824422Y-51971437D01*
X110754242Y-51802006D01*
X110652355Y-51649522D01*
X110522678Y-51519845D01*
X110435200Y-51461394D01*
X110435200Y-50235349D01*
X110476045Y-50296478D01*
X110605722Y-50426155D01*
X110758206Y-50528042D01*
X110927637Y-50598222D01*
X111107504Y-50634000D01*
X111290896Y-50634000D01*
X111470763Y-50598222D01*
X111640194Y-50528042D01*
X111792678Y-50426155D01*
X111922355Y-50296478D01*
X112024242Y-50143994D01*
X112094422Y-49974563D01*
X112130200Y-49794696D01*
X112130200Y-49611304D01*
X112808200Y-49611304D01*
X112808200Y-49794696D01*
X112843978Y-49974563D01*
X112914158Y-50143994D01*
X113016045Y-50296478D01*
X113145722Y-50426155D01*
X113298206Y-50528042D01*
X113467637Y-50598222D01*
X113647504Y-50634000D01*
X113830896Y-50634000D01*
X114010763Y-50598222D01*
X114180194Y-50528042D01*
X114332678Y-50426155D01*
X114462355Y-50296478D01*
X114564242Y-50143994D01*
X114634422Y-49974563D01*
X114670200Y-49794696D01*
X114670200Y-49611304D01*
X114634422Y-49431437D01*
X114564242Y-49262006D01*
X114462355Y-49109522D01*
X114332678Y-48979845D01*
X114180194Y-48877958D01*
X114010763Y-48807778D01*
X113830896Y-48772000D01*
X113647504Y-48772000D01*
X113467637Y-48807778D01*
X113298206Y-48877958D01*
X113145722Y-48979845D01*
X113016045Y-49109522D01*
X112914158Y-49262006D01*
X112843978Y-49431437D01*
X112808200Y-49611304D01*
X112130200Y-49611304D01*
X112094422Y-49431437D01*
X112024242Y-49262006D01*
X111922355Y-49109522D01*
X111792678Y-48979845D01*
X111640194Y-48877958D01*
X111470763Y-48807778D01*
X111290896Y-48772000D01*
X111107504Y-48772000D01*
X110927637Y-48807778D01*
X110758206Y-48877958D01*
X110605722Y-48979845D01*
X110476045Y-49109522D01*
X110435200Y-49170651D01*
X110435200Y-46985589D01*
X114302297Y-43118492D01*
X117708200Y-43118492D01*
X117708200Y-43587508D01*
X117799700Y-44047512D01*
X117979185Y-44480827D01*
X118239756Y-44870799D01*
X118571401Y-45202444D01*
X118961373Y-45463015D01*
X119394688Y-45642500D01*
X119854692Y-45734000D01*
X120323708Y-45734000D01*
X120783712Y-45642500D01*
X121217027Y-45463015D01*
X121606999Y-45202444D01*
X121938644Y-44870799D01*
X122199215Y-44480827D01*
X122378700Y-44047512D01*
X122470200Y-43587508D01*
X122470200Y-43118492D01*
X122378700Y-42658488D01*
X122199215Y-42225173D01*
X121938644Y-41835201D01*
X121606999Y-41503556D01*
X121217027Y-41242985D01*
X120783712Y-41063500D01*
X120323708Y-40972000D01*
X119854692Y-40972000D01*
X119394688Y-41063500D01*
X118961373Y-41242985D01*
X118571401Y-41503556D01*
X118239756Y-41835201D01*
X117979185Y-42225173D01*
X117799700Y-42658488D01*
X117708200Y-43118492D01*
X114302297Y-43118492D01*
X117106923Y-40313867D01*
X117119743Y-40378316D01*
X117201231Y-40575045D01*
X117319533Y-40752097D01*
X117470103Y-40902667D01*
X117647155Y-41020969D01*
X117843884Y-41102457D01*
X118052731Y-41144000D01*
X118265669Y-41144000D01*
X118474516Y-41102457D01*
X118671245Y-41020969D01*
X118848297Y-40902667D01*
X118998867Y-40752097D01*
X119117169Y-40575045D01*
X119198657Y-40378316D01*
X119240200Y-40169469D01*
X119240200Y-39956531D01*
X119198657Y-39747684D01*
X119117169Y-39550955D01*
X118998867Y-39373903D01*
X118848297Y-39223333D01*
X118671245Y-39105031D01*
X118474516Y-39023543D01*
X118410067Y-39010723D01*
X118641790Y-38779000D01*
X119738727Y-38779000D01*
X119741231Y-38785045D01*
X119859533Y-38962097D01*
X120010103Y-39112667D01*
X120187155Y-39230969D01*
X120383884Y-39312457D01*
X120592731Y-39354000D01*
X120805669Y-39354000D01*
X121014516Y-39312457D01*
X121211245Y-39230969D01*
X121388297Y-39112667D01*
X121538867Y-38962097D01*
X121657169Y-38785045D01*
X121738657Y-38588316D01*
X121780200Y-38379469D01*
X121780200Y-38166531D01*
X121738657Y-37957684D01*
X121657169Y-37760955D01*
X121538867Y-37583903D01*
X121388297Y-37433333D01*
X121211245Y-37315031D01*
X121014516Y-37233543D01*
X120805669Y-37192000D01*
X120592731Y-37192000D01*
X120383884Y-37233543D01*
X120187155Y-37315031D01*
X120010103Y-37433333D01*
X119859533Y-37583903D01*
X119741231Y-37760955D01*
X119738727Y-37767000D01*
X118457043Y-37767000D01*
X118432197Y-37764553D01*
X118407351Y-37767000D01*
X118407344Y-37767000D01*
X118342892Y-37773348D01*
X118333004Y-37774322D01*
X118237623Y-37803255D01*
X118149719Y-37850241D01*
X118072671Y-37913473D01*
X118056826Y-37932780D01*
X109588985Y-46400622D01*
X109569673Y-46416471D01*
X109506441Y-46493519D01*
X109459455Y-46581424D01*
X109430522Y-46676806D01*
X109423200Y-46751145D01*
X109423200Y-46751152D01*
X109420753Y-46775998D01*
X109423200Y-46800844D01*
X109423201Y-51461393D01*
X109335722Y-51519845D01*
X109206045Y-51649522D01*
X109104158Y-51802006D01*
X109033978Y-51971437D01*
X108998200Y-52151304D01*
X108998200Y-52334696D01*
X109018725Y-52437883D01*
X107863785Y-53592824D01*
X107844473Y-53608673D01*
X107781241Y-53685721D01*
X107734255Y-53773626D01*
X107705322Y-53869008D01*
X107698000Y-53943347D01*
X107698000Y-53943354D01*
X107695553Y-53968200D01*
X107698000Y-53993047D01*
X107698001Y-54755995D01*
X107629451Y-54812251D01*
X107552304Y-54906256D01*
X107494978Y-55013505D01*
X107459677Y-55129877D01*
X107447757Y-55250900D01*
X103404992Y-55250900D01*
X101666865Y-53512774D01*
X101658523Y-53428077D01*
X101623222Y-53311705D01*
X101565896Y-53204456D01*
X101488749Y-53110451D01*
X101394744Y-53033304D01*
X101287495Y-52975978D01*
X101171123Y-52940677D01*
X101050100Y-52928757D01*
X100607849Y-52928757D01*
X99947000Y-52267909D01*
X99947000Y-43118492D01*
X106278200Y-43118492D01*
X106278200Y-43587508D01*
X106369700Y-44047512D01*
X106549185Y-44480827D01*
X106809756Y-44870799D01*
X107141401Y-45202444D01*
X107531373Y-45463015D01*
X107964688Y-45642500D01*
X108424692Y-45734000D01*
X108893708Y-45734000D01*
X109353712Y-45642500D01*
X109787027Y-45463015D01*
X110176999Y-45202444D01*
X110508644Y-44870799D01*
X110769215Y-44480827D01*
X110948700Y-44047512D01*
X111040200Y-43587508D01*
X111040200Y-43118492D01*
X110948700Y-42658488D01*
X110769215Y-42225173D01*
X110508644Y-41835201D01*
X110176999Y-41503556D01*
X109787027Y-41242985D01*
X109353712Y-41063500D01*
X108893708Y-40972000D01*
X108634533Y-40972000D01*
X108738297Y-40902667D01*
X108888867Y-40752097D01*
X109007169Y-40575045D01*
X109088657Y-40378316D01*
X109130200Y-40169469D01*
X109130200Y-39956531D01*
X109088657Y-39747684D01*
X109007169Y-39550955D01*
X108888867Y-39373903D01*
X108738297Y-39223333D01*
X108561245Y-39105031D01*
X108364516Y-39023543D01*
X108155669Y-38982000D01*
X107942731Y-38982000D01*
X107733884Y-39023543D01*
X107537155Y-39105031D01*
X107360103Y-39223333D01*
X107209533Y-39373903D01*
X107091231Y-39550955D01*
X107009743Y-39747684D01*
X106968200Y-39956531D01*
X106968200Y-40169469D01*
X107009743Y-40378316D01*
X107091231Y-40575045D01*
X107209533Y-40752097D01*
X107360103Y-40902667D01*
X107537155Y-41020969D01*
X107733884Y-41102457D01*
X107826271Y-41120834D01*
X107531373Y-41242985D01*
X107141401Y-41503556D01*
X106809756Y-41835201D01*
X106549185Y-42225173D01*
X106369700Y-42658488D01*
X106278200Y-43118492D01*
X99947000Y-43118492D01*
X99947000Y-38166531D01*
X109508200Y-38166531D01*
X109508200Y-38379469D01*
X109549743Y-38588316D01*
X109631231Y-38785045D01*
X109749533Y-38962097D01*
X109900103Y-39112667D01*
X110077155Y-39230969D01*
X110273884Y-39312457D01*
X110482731Y-39354000D01*
X110695669Y-39354000D01*
X110904516Y-39312457D01*
X111101245Y-39230969D01*
X111278297Y-39112667D01*
X111428867Y-38962097D01*
X111547169Y-38785045D01*
X111628657Y-38588316D01*
X111670200Y-38379469D01*
X111670200Y-38166531D01*
X111628657Y-37957684D01*
X111547169Y-37760955D01*
X111428867Y-37583903D01*
X111278297Y-37433333D01*
X111101245Y-37315031D01*
X110904516Y-37233543D01*
X110695669Y-37192000D01*
X110482731Y-37192000D01*
X110273884Y-37233543D01*
X110077155Y-37315031D01*
X109900103Y-37433333D01*
X109749533Y-37583903D01*
X109631231Y-37760955D01*
X109549743Y-37957684D01*
X109508200Y-38166531D01*
X99947000Y-38166531D01*
X99947000Y-36206582D01*
X99982413Y-36191913D01*
X100169620Y-36066826D01*
X100328826Y-35907620D01*
X100453913Y-35720413D01*
X100540075Y-35512401D01*
X100584000Y-35291576D01*
X100584000Y-35066424D01*
X100540075Y-34845599D01*
X100453913Y-34637587D01*
X100328826Y-34450380D01*
X100169620Y-34291174D01*
X99982413Y-34166087D01*
X99774401Y-34079925D01*
X99553576Y-34036000D01*
X99328424Y-34036000D01*
X99107599Y-34079925D01*
X98899587Y-34166087D01*
X98712380Y-34291174D01*
X98553174Y-34450380D01*
X98428087Y-34637587D01*
X98341925Y-34845599D01*
X98298000Y-35066424D01*
X98298000Y-35291576D01*
X98341925Y-35512401D01*
X98428087Y-35720413D01*
X98553174Y-35907620D01*
X98712380Y-36066826D01*
X98899587Y-36191913D01*
X98935000Y-36206582D01*
X98935001Y-52452644D01*
X98932553Y-52477500D01*
X98942322Y-52576692D01*
X98971255Y-52672074D01*
X98971256Y-52672075D01*
X99018242Y-52759979D01*
X99081474Y-52837027D01*
X99100780Y-52852871D01*
X99954757Y-53706849D01*
X99954757Y-53988523D01*
X93075281Y-60867999D01*
X80126945Y-60867999D01*
X80102001Y-60865542D01*
X80077057Y-60867999D01*
X80077054Y-60867999D01*
X80002416Y-60875350D01*
X79906658Y-60904398D01*
X79865577Y-60926356D01*
X79818405Y-60951570D01*
X79790289Y-60974645D01*
X79741053Y-61015051D01*
X79725146Y-61034434D01*
X79401969Y-61357611D01*
X79222939Y-61322000D01*
X79019061Y-61322000D01*
X78819102Y-61361774D01*
X78630744Y-61439795D01*
X78461226Y-61553063D01*
X78317063Y-61697226D01*
X78203795Y-61866744D01*
X78125774Y-62055102D01*
X78086000Y-62255061D01*
X78086000Y-62458939D01*
X78121611Y-62637969D01*
X73830580Y-66929000D01*
X69866349Y-66929000D01*
X69764937Y-66777226D01*
X69620774Y-66633063D01*
X69451256Y-66519795D01*
X69262898Y-66441774D01*
X69062939Y-66402000D01*
X68859061Y-66402000D01*
X68659102Y-66441774D01*
X68470744Y-66519795D01*
X68301226Y-66633063D01*
X68157063Y-66777226D01*
X68043795Y-66946744D01*
X67965774Y-67135102D01*
X67926000Y-67335061D01*
X52222000Y-67335061D01*
X52222000Y-62255061D01*
X55226000Y-62255061D01*
X55226000Y-62458939D01*
X55265774Y-62658898D01*
X55343795Y-62847256D01*
X55457063Y-63016774D01*
X55601226Y-63160937D01*
X55770744Y-63274205D01*
X55959102Y-63352226D01*
X56159061Y-63392000D01*
X56362939Y-63392000D01*
X56562898Y-63352226D01*
X56751256Y-63274205D01*
X56920774Y-63160937D01*
X57064937Y-63016774D01*
X57178205Y-62847256D01*
X57256226Y-62658898D01*
X57296000Y-62458939D01*
X57296000Y-62255061D01*
X57766000Y-62255061D01*
X57766000Y-62458939D01*
X57805774Y-62658898D01*
X57883795Y-62847256D01*
X57997063Y-63016774D01*
X58141226Y-63160937D01*
X58310744Y-63274205D01*
X58499102Y-63352226D01*
X58699061Y-63392000D01*
X58902939Y-63392000D01*
X59102898Y-63352226D01*
X59291256Y-63274205D01*
X59460774Y-63160937D01*
X59604937Y-63016774D01*
X59718205Y-62847256D01*
X59796226Y-62658898D01*
X59836000Y-62458939D01*
X59836000Y-62255061D01*
X60306000Y-62255061D01*
X60306000Y-62458939D01*
X60345774Y-62658898D01*
X60423795Y-62847256D01*
X60537063Y-63016774D01*
X60681226Y-63160937D01*
X60850744Y-63274205D01*
X61039102Y-63352226D01*
X61239061Y-63392000D01*
X61442939Y-63392000D01*
X61642898Y-63352226D01*
X61831256Y-63274205D01*
X62000774Y-63160937D01*
X62144937Y-63016774D01*
X62258205Y-62847256D01*
X62336226Y-62658898D01*
X62376000Y-62458939D01*
X62376000Y-62255061D01*
X62336226Y-62055102D01*
X62258205Y-61866744D01*
X62144937Y-61697226D01*
X62000774Y-61553063D01*
X61831256Y-61439795D01*
X61642898Y-61361774D01*
X61442939Y-61322000D01*
X61239061Y-61322000D01*
X61039102Y-61361774D01*
X60850744Y-61439795D01*
X60681226Y-61553063D01*
X60537063Y-61697226D01*
X60423795Y-61866744D01*
X60345774Y-62055102D01*
X60306000Y-62255061D01*
X59836000Y-62255061D01*
X59796226Y-62055102D01*
X59718205Y-61866744D01*
X59604937Y-61697226D01*
X59460774Y-61553063D01*
X59291256Y-61439795D01*
X59102898Y-61361774D01*
X58902939Y-61322000D01*
X58699061Y-61322000D01*
X58499102Y-61361774D01*
X58310744Y-61439795D01*
X58141226Y-61553063D01*
X57997063Y-61697226D01*
X57883795Y-61866744D01*
X57805774Y-62055102D01*
X57766000Y-62255061D01*
X57296000Y-62255061D01*
X57256226Y-62055102D01*
X57178205Y-61866744D01*
X57064937Y-61697226D01*
X56920774Y-61553063D01*
X56751256Y-61439795D01*
X56562898Y-61361774D01*
X56362939Y-61322000D01*
X56159061Y-61322000D01*
X55959102Y-61361774D01*
X55770744Y-61439795D01*
X55601226Y-61553063D01*
X55457063Y-61697226D01*
X55343795Y-61866744D01*
X55265774Y-62055102D01*
X55226000Y-62255061D01*
X52222000Y-62255061D01*
X52222000Y-35379001D01*
X55042542Y-35379001D01*
X55045000Y-35403955D01*
X55044999Y-46638055D01*
X55042542Y-46662999D01*
X55044999Y-46687943D01*
X55044999Y-46687945D01*
X55052350Y-46762583D01*
X55081398Y-46858341D01*
X55128570Y-46946594D01*
X55192051Y-47023947D01*
X55211434Y-47039854D01*
X57154145Y-48982565D01*
X57170052Y-49001948D01*
X57247405Y-49065429D01*
X57335657Y-49112601D01*
X57402157Y-49132774D01*
X57402157Y-49911000D01*
X57409513Y-49985689D01*
X57431299Y-50057508D01*
X57466678Y-50123696D01*
X57514289Y-50181711D01*
X57572304Y-50229322D01*
X57638492Y-50264701D01*
X57710311Y-50286487D01*
X57785000Y-50293843D01*
X61894423Y-50293843D01*
X64897001Y-53296422D01*
X64897000Y-55468038D01*
X64632432Y-55577626D01*
X64365298Y-55756119D01*
X64138119Y-55983298D01*
X63959626Y-56250432D01*
X63836678Y-56547255D01*
X63774000Y-56862360D01*
X63774000Y-57183640D01*
X63836678Y-57498745D01*
X63959626Y-57795568D01*
X64138119Y-58062702D01*
X64365298Y-58289881D01*
X64632432Y-58468374D01*
X64897000Y-58577962D01*
X64897001Y-62159545D01*
X64876226Y-62055102D01*
X64798205Y-61866744D01*
X64684937Y-61697226D01*
X64540774Y-61553063D01*
X64371256Y-61439795D01*
X64182898Y-61361774D01*
X63982939Y-61322000D01*
X63779061Y-61322000D01*
X63579102Y-61361774D01*
X63390744Y-61439795D01*
X63221226Y-61553063D01*
X63077063Y-61697226D01*
X62963795Y-61866744D01*
X62885774Y-62055102D01*
X62846000Y-62255061D01*
X62846000Y-62458939D01*
X62885774Y-62658898D01*
X62963795Y-62847256D01*
X63077063Y-63016774D01*
X63221226Y-63160937D01*
X63390744Y-63274205D01*
X63579102Y-63352226D01*
X63779061Y-63392000D01*
X63982939Y-63392000D01*
X64182898Y-63352226D01*
X64371256Y-63274205D01*
X64540774Y-63160937D01*
X64684937Y-63016774D01*
X64798205Y-62847256D01*
X64876226Y-62658898D01*
X64897001Y-62554454D01*
X64897001Y-62767928D01*
X64894543Y-62792882D01*
X64904352Y-62892466D01*
X64933400Y-62988225D01*
X64980571Y-63076477D01*
X65028150Y-63134452D01*
X65044053Y-63153830D01*
X65063430Y-63169732D01*
X67132268Y-65238571D01*
X67148170Y-65257948D01*
X67167547Y-65273850D01*
X67225522Y-65321429D01*
X67305672Y-65364270D01*
X67313775Y-65368601D01*
X67409533Y-65397649D01*
X67484171Y-65405000D01*
X67484173Y-65405000D01*
X67509117Y-65407457D01*
X67534061Y-65405000D01*
X68055651Y-65405000D01*
X68157063Y-65556774D01*
X68301226Y-65700937D01*
X68470744Y-65814205D01*
X68659102Y-65892226D01*
X68859061Y-65932000D01*
X69062939Y-65932000D01*
X69262898Y-65892226D01*
X69451256Y-65814205D01*
X69620774Y-65700937D01*
X69764937Y-65556774D01*
X69878205Y-65387256D01*
X69956226Y-65198898D01*
X69996000Y-64998939D01*
X69996000Y-64795061D01*
X69956226Y-64595102D01*
X69878205Y-64406744D01*
X69764937Y-64237226D01*
X69620774Y-64093063D01*
X69451256Y-63979795D01*
X69262898Y-63901774D01*
X69062939Y-63862000D01*
X68859061Y-63862000D01*
X68659102Y-63901774D01*
X68470744Y-63979795D01*
X68301226Y-64093063D01*
X68157063Y-64237226D01*
X68055651Y-64389000D01*
X67719539Y-64389000D01*
X66689423Y-63358885D01*
X66722898Y-63352226D01*
X66911256Y-63274205D01*
X67080774Y-63160937D01*
X67224937Y-63016774D01*
X67338205Y-62847256D01*
X67416226Y-62658898D01*
X67456000Y-62458939D01*
X67456000Y-62255061D01*
X67926000Y-62255061D01*
X67926000Y-62458939D01*
X67965774Y-62658898D01*
X68043795Y-62847256D01*
X68157063Y-63016774D01*
X68301226Y-63160937D01*
X68470744Y-63274205D01*
X68659102Y-63352226D01*
X68859061Y-63392000D01*
X69062939Y-63392000D01*
X69262898Y-63352226D01*
X69451256Y-63274205D01*
X69620774Y-63160937D01*
X69764937Y-63016774D01*
X69878205Y-62847256D01*
X69956226Y-62658898D01*
X69996000Y-62458939D01*
X69996000Y-62255061D01*
X70466000Y-62255061D01*
X70466000Y-62458939D01*
X70505774Y-62658898D01*
X70583795Y-62847256D01*
X70697063Y-63016774D01*
X70841226Y-63160937D01*
X71010744Y-63274205D01*
X71199102Y-63352226D01*
X71399061Y-63392000D01*
X71602939Y-63392000D01*
X71802898Y-63352226D01*
X71991256Y-63274205D01*
X72160774Y-63160937D01*
X72304937Y-63016774D01*
X72418205Y-62847256D01*
X72496226Y-62658898D01*
X72536000Y-62458939D01*
X72536000Y-62255061D01*
X73006000Y-62255061D01*
X73006000Y-62458939D01*
X73045774Y-62658898D01*
X73123795Y-62847256D01*
X73237063Y-63016774D01*
X73381226Y-63160937D01*
X73550744Y-63274205D01*
X73739102Y-63352226D01*
X73939061Y-63392000D01*
X74142939Y-63392000D01*
X74342898Y-63352226D01*
X74531256Y-63274205D01*
X74700774Y-63160937D01*
X74844937Y-63016774D01*
X74958205Y-62847256D01*
X75036226Y-62658898D01*
X75076000Y-62458939D01*
X75076000Y-62255061D01*
X75546000Y-62255061D01*
X75546000Y-62458939D01*
X75585774Y-62658898D01*
X75663795Y-62847256D01*
X75777063Y-63016774D01*
X75921226Y-63160937D01*
X76090744Y-63274205D01*
X76279102Y-63352226D01*
X76479061Y-63392000D01*
X76682939Y-63392000D01*
X76882898Y-63352226D01*
X77071256Y-63274205D01*
X77240774Y-63160937D01*
X77384937Y-63016774D01*
X77498205Y-62847256D01*
X77576226Y-62658898D01*
X77616000Y-62458939D01*
X77616000Y-62255061D01*
X77576226Y-62055102D01*
X77498205Y-61866744D01*
X77384937Y-61697226D01*
X77240774Y-61553063D01*
X77071256Y-61439795D01*
X76882898Y-61361774D01*
X76682939Y-61322000D01*
X76479061Y-61322000D01*
X76279102Y-61361774D01*
X76090744Y-61439795D01*
X75921226Y-61553063D01*
X75777063Y-61697226D01*
X75663795Y-61866744D01*
X75585774Y-62055102D01*
X75546000Y-62255061D01*
X75076000Y-62255061D01*
X75036226Y-62055102D01*
X74958205Y-61866744D01*
X74844937Y-61697226D01*
X74700774Y-61553063D01*
X74531256Y-61439795D01*
X74342898Y-61361774D01*
X74142939Y-61322000D01*
X73939061Y-61322000D01*
X73739102Y-61361774D01*
X73550744Y-61439795D01*
X73381226Y-61553063D01*
X73237063Y-61697226D01*
X73123795Y-61866744D01*
X73045774Y-62055102D01*
X73006000Y-62255061D01*
X72536000Y-62255061D01*
X72496226Y-62055102D01*
X72418205Y-61866744D01*
X72304937Y-61697226D01*
X72160774Y-61553063D01*
X71991256Y-61439795D01*
X71802898Y-61361774D01*
X71602939Y-61322000D01*
X71399061Y-61322000D01*
X71199102Y-61361774D01*
X71010744Y-61439795D01*
X70841226Y-61553063D01*
X70697063Y-61697226D01*
X70583795Y-61866744D01*
X70505774Y-62055102D01*
X70466000Y-62255061D01*
X69996000Y-62255061D01*
X69956226Y-62055102D01*
X69878205Y-61866744D01*
X69764937Y-61697226D01*
X69620774Y-61553063D01*
X69451256Y-61439795D01*
X69262898Y-61361774D01*
X69062939Y-61322000D01*
X68859061Y-61322000D01*
X68659102Y-61361774D01*
X68470744Y-61439795D01*
X68301226Y-61553063D01*
X68157063Y-61697226D01*
X68043795Y-61866744D01*
X67965774Y-62055102D01*
X67926000Y-62255061D01*
X67456000Y-62255061D01*
X67416226Y-62055102D01*
X67338205Y-61866744D01*
X67224937Y-61697226D01*
X67080774Y-61553063D01*
X66911256Y-61439795D01*
X66722898Y-61361774D01*
X66522939Y-61322000D01*
X66319061Y-61322000D01*
X66119102Y-61361774D01*
X65930744Y-61439795D01*
X65913000Y-61451651D01*
X65913000Y-58577962D01*
X66177568Y-58468374D01*
X66444702Y-58289881D01*
X66671881Y-58062702D01*
X66850374Y-57795568D01*
X66973322Y-57498745D01*
X67036000Y-57183640D01*
X67036000Y-56862360D01*
X66973322Y-56547255D01*
X66850374Y-56250432D01*
X66671881Y-55983298D01*
X66444702Y-55756119D01*
X66177568Y-55577626D01*
X65913000Y-55468038D01*
X65913000Y-53110943D01*
X65915457Y-53085999D01*
X65912987Y-53060920D01*
X65905649Y-52986415D01*
X65876601Y-52890657D01*
X65876600Y-52890655D01*
X65829429Y-52802404D01*
X65781850Y-52744429D01*
X65765948Y-52725052D01*
X65746571Y-52709150D01*
X63331263Y-50293843D01*
X64135000Y-50293843D01*
X64209689Y-50286487D01*
X64281508Y-50264701D01*
X64347696Y-50229322D01*
X64405711Y-50181711D01*
X64453322Y-50123696D01*
X64488701Y-50057508D01*
X64510487Y-49985689D01*
X64517843Y-49911000D01*
X64517843Y-48886707D01*
X80137000Y-48886707D01*
X80137000Y-49462093D01*
X80249253Y-50026424D01*
X80469444Y-50558012D01*
X80789112Y-51036429D01*
X81195971Y-51443288D01*
X81674388Y-51762956D01*
X82205976Y-51983147D01*
X82770307Y-52095400D01*
X83345693Y-52095400D01*
X83910024Y-51983147D01*
X84441612Y-51762956D01*
X84920029Y-51443288D01*
X85326888Y-51036429D01*
X85646556Y-50558012D01*
X85866747Y-50026424D01*
X85935576Y-49680400D01*
X86440511Y-49680400D01*
X88367500Y-51607390D01*
X88367501Y-52265854D01*
X88336105Y-52275378D01*
X88228856Y-52332704D01*
X88134851Y-52409851D01*
X88057704Y-52503856D01*
X88000378Y-52611105D01*
X87965077Y-52727477D01*
X87953157Y-52848500D01*
X87953157Y-53323500D01*
X87965077Y-53444523D01*
X88000378Y-53560895D01*
X88057704Y-53668144D01*
X88134851Y-53762149D01*
X88228856Y-53839296D01*
X88336105Y-53896622D01*
X88452477Y-53931923D01*
X88573500Y-53943843D01*
X89173500Y-53943843D01*
X89294523Y-53931923D01*
X89410895Y-53896622D01*
X89518144Y-53839296D01*
X89612149Y-53762149D01*
X89689296Y-53668144D01*
X89746622Y-53560895D01*
X89781923Y-53444523D01*
X89793843Y-53323500D01*
X89793843Y-52848500D01*
X89781923Y-52727477D01*
X89746622Y-52611105D01*
X89689296Y-52503856D01*
X89612149Y-52409851D01*
X89518144Y-52332704D01*
X89410895Y-52275378D01*
X89379500Y-52265854D01*
X89379500Y-51422652D01*
X89381948Y-51397798D01*
X89372178Y-51298605D01*
X89343245Y-51203223D01*
X89339049Y-51195373D01*
X89296259Y-51115319D01*
X89233027Y-51038271D01*
X89213720Y-51022426D01*
X87025478Y-48834185D01*
X87009629Y-48814873D01*
X86932581Y-48751641D01*
X86844677Y-48704655D01*
X86749295Y-48675722D01*
X86674956Y-48668400D01*
X86674948Y-48668400D01*
X86650102Y-48665953D01*
X86625256Y-48668400D01*
X85935576Y-48668400D01*
X85866747Y-48322376D01*
X85646556Y-47790788D01*
X85451682Y-47499138D01*
X94702565Y-38248255D01*
X94721948Y-38232348D01*
X94775962Y-38166531D01*
X94785429Y-38154996D01*
X94826356Y-38078426D01*
X94832601Y-38066743D01*
X94861649Y-37970985D01*
X94869000Y-37896347D01*
X94869000Y-37896344D01*
X94871457Y-37871400D01*
X94869000Y-37846456D01*
X94869000Y-36205753D01*
X94902413Y-36191913D01*
X95089620Y-36066826D01*
X95248826Y-35907620D01*
X95373913Y-35720413D01*
X95460075Y-35512401D01*
X95504000Y-35291576D01*
X95504000Y-35066424D01*
X95460075Y-34845599D01*
X95373913Y-34637587D01*
X95248826Y-34450380D01*
X95089620Y-34291174D01*
X94902413Y-34166087D01*
X94694401Y-34079925D01*
X94473576Y-34036000D01*
X94248424Y-34036000D01*
X94027599Y-34079925D01*
X93819587Y-34166087D01*
X93632380Y-34291174D01*
X93473174Y-34450380D01*
X93348087Y-34637587D01*
X93261925Y-34845599D01*
X93218000Y-35066424D01*
X93218000Y-35291576D01*
X93261925Y-35512401D01*
X93348087Y-35720413D01*
X93473174Y-35907620D01*
X93632380Y-36066826D01*
X93819587Y-36191913D01*
X93853001Y-36205753D01*
X93853000Y-37660980D01*
X84733262Y-46780718D01*
X84441612Y-46585844D01*
X83910024Y-46365653D01*
X83345693Y-46253400D01*
X82770307Y-46253400D01*
X82205976Y-46365653D01*
X81674388Y-46585844D01*
X81195971Y-46905512D01*
X80789112Y-47312371D01*
X80469444Y-47790788D01*
X80249253Y-48322376D01*
X80137000Y-48886707D01*
X64517843Y-48886707D01*
X64517843Y-47371000D01*
X64510487Y-47296311D01*
X64488701Y-47224492D01*
X64453322Y-47158304D01*
X64405711Y-47100289D01*
X64347696Y-47052678D01*
X64281508Y-47017299D01*
X64209689Y-46995513D01*
X64135000Y-46988157D01*
X57785000Y-46988157D01*
X57710311Y-46995513D01*
X57638492Y-47017299D01*
X57572304Y-47052678D01*
X57514289Y-47100289D01*
X57466678Y-47158304D01*
X57431299Y-47224492D01*
X57409513Y-47296311D01*
X57402157Y-47371000D01*
X57402157Y-47793737D01*
X56060999Y-46452579D01*
X56060999Y-35589421D01*
X57402157Y-34248263D01*
X57402157Y-34671000D01*
X57409513Y-34745689D01*
X57431299Y-34817508D01*
X57466678Y-34883696D01*
X57514289Y-34941711D01*
X57572304Y-34989322D01*
X57638492Y-35024701D01*
X57710311Y-35046487D01*
X57785000Y-35053843D01*
X64135000Y-35053843D01*
X64209689Y-35046487D01*
X64281508Y-35024701D01*
X64347696Y-34989322D01*
X64405711Y-34941711D01*
X64453322Y-34883696D01*
X64488701Y-34817508D01*
X64510487Y-34745689D01*
X64517843Y-34671000D01*
X64517843Y-32131000D01*
X64510487Y-32056311D01*
X64488701Y-31984492D01*
X64453322Y-31918304D01*
X64405711Y-31860289D01*
X64347696Y-31812678D01*
X64281508Y-31777299D01*
X64209689Y-31755513D01*
X64135000Y-31748157D01*
X57785000Y-31748157D01*
X57710311Y-31755513D01*
X57638492Y-31777299D01*
X57572304Y-31812678D01*
X57514289Y-31860289D01*
X57466678Y-31918304D01*
X57431299Y-31984492D01*
X57409513Y-32056311D01*
X57402157Y-32131000D01*
X57402157Y-32909226D01*
X57335657Y-32929399D01*
X57247405Y-32976571D01*
X57170052Y-33040052D01*
X57154145Y-33059435D01*
X55211429Y-35002151D01*
X55192052Y-35018053D01*
X55176150Y-35037430D01*
X55176149Y-35037431D01*
X55128570Y-35095406D01*
X55081399Y-35183658D01*
X55052351Y-35279417D01*
X55042542Y-35379001D01*
X52222000Y-35379001D01*
X52222000Y-28553146D01*
X52246450Y-28612173D01*
X52695167Y-29283725D01*
X53266275Y-29854833D01*
X53937827Y-30303550D01*
X54684016Y-30612632D01*
X55476166Y-30770200D01*
X56283834Y-30770200D01*
X57075984Y-30612632D01*
X57822173Y-30303550D01*
X58493725Y-29854833D01*
X59064833Y-29283725D01*
X59513550Y-28612173D01*
X59822632Y-27865984D01*
X59980200Y-27073834D01*
X59980200Y-26266166D01*
X59822632Y-25474016D01*
X59513550Y-24727827D01*
X59064833Y-24056275D01*
X58493725Y-23485167D01*
X57822173Y-23036450D01*
X57763146Y-23012000D01*
X120122146Y-23012000D01*
X120852128Y-23083575D01*
%TA.AperFunction,Conductor*%
D26*
G36*
X120852128Y-23083575D02*
G01*
X121535215Y-23289811D01*
X122165230Y-23624796D01*
X122718180Y-24075772D01*
X123173008Y-24625564D01*
X123512380Y-25253220D01*
X123723379Y-25934847D01*
X123799975Y-26663609D01*
X123800001Y-26671129D01*
X123800000Y-84476854D01*
X123775550Y-84417827D01*
X123326833Y-83746275D01*
X122755725Y-83175167D01*
X122084173Y-82726450D01*
X121337984Y-82417368D01*
X120545834Y-82259800D01*
X119738166Y-82259800D01*
X118946016Y-82417368D01*
X118199827Y-82726450D01*
X117528275Y-83175167D01*
X116957167Y-83746275D01*
X116508450Y-84417827D01*
X116199368Y-85164016D01*
X116041800Y-85956166D01*
X116041800Y-86763834D01*
X116199368Y-87555984D01*
X116508450Y-88302173D01*
X116957167Y-88973725D01*
X117528275Y-89544833D01*
X118199827Y-89993550D01*
X118258854Y-90018000D01*
X57763146Y-90018000D01*
X57822173Y-89993550D01*
X58493725Y-89544833D01*
X59064833Y-88973725D01*
X59513550Y-88302173D01*
X59822632Y-87555984D01*
X59980200Y-86763834D01*
X59980200Y-85956166D01*
X59822632Y-85164016D01*
X59513550Y-84417827D01*
X59064833Y-83746275D01*
X58493725Y-83175167D01*
X57822173Y-82726450D01*
X57075984Y-82417368D01*
X56283834Y-82259800D01*
X55476166Y-82259800D01*
X54684016Y-82417368D01*
X53937827Y-82726450D01*
X53266275Y-83175167D01*
X52695167Y-83746275D01*
X52246450Y-84417827D01*
X52222000Y-84476854D01*
X52222000Y-77495061D01*
X55226000Y-77495061D01*
X55226000Y-77698939D01*
X55265774Y-77898898D01*
X55343795Y-78087256D01*
X55457063Y-78256774D01*
X55601226Y-78400937D01*
X55770744Y-78514205D01*
X55959102Y-78592226D01*
X56159061Y-78632000D01*
X56362939Y-78632000D01*
X56562898Y-78592226D01*
X56751256Y-78514205D01*
X56920774Y-78400937D01*
X57064937Y-78256774D01*
X57178205Y-78087256D01*
X57256226Y-77898898D01*
X57296000Y-77698939D01*
X57296000Y-77495061D01*
X57766000Y-77495061D01*
X57766000Y-77698939D01*
X57805774Y-77898898D01*
X57883795Y-78087256D01*
X57997063Y-78256774D01*
X58141226Y-78400937D01*
X58310744Y-78514205D01*
X58499102Y-78592226D01*
X58699061Y-78632000D01*
X58902939Y-78632000D01*
X59102898Y-78592226D01*
X59291256Y-78514205D01*
X59460774Y-78400937D01*
X59604937Y-78256774D01*
X59718205Y-78087256D01*
X59796226Y-77898898D01*
X59836000Y-77698939D01*
X59836000Y-77495061D01*
X60306000Y-77495061D01*
X60306000Y-77698939D01*
X60345774Y-77898898D01*
X60423795Y-78087256D01*
X60537063Y-78256774D01*
X60681226Y-78400937D01*
X60850744Y-78514205D01*
X61039102Y-78592226D01*
X61239061Y-78632000D01*
X61442939Y-78632000D01*
X61642898Y-78592226D01*
X61831256Y-78514205D01*
X62000774Y-78400937D01*
X62144937Y-78256774D01*
X62258205Y-78087256D01*
X62336226Y-77898898D01*
X62376000Y-77698939D01*
X62376000Y-77495061D01*
X62846000Y-77495061D01*
X62846000Y-77698939D01*
X62885774Y-77898898D01*
X62963795Y-78087256D01*
X63077063Y-78256774D01*
X63221226Y-78400937D01*
X63390744Y-78514205D01*
X63579102Y-78592226D01*
X63779061Y-78632000D01*
X63982939Y-78632000D01*
X64182898Y-78592226D01*
X64371256Y-78514205D01*
X64540774Y-78400937D01*
X64684937Y-78256774D01*
X64798205Y-78087256D01*
X64876226Y-77898898D01*
X64916000Y-77698939D01*
X64916000Y-77495061D01*
X65386000Y-77495061D01*
X65386000Y-77698939D01*
X65425774Y-77898898D01*
X65503795Y-78087256D01*
X65617063Y-78256774D01*
X65761226Y-78400937D01*
X65930744Y-78514205D01*
X66119102Y-78592226D01*
X66319061Y-78632000D01*
X66522939Y-78632000D01*
X66722898Y-78592226D01*
X66911256Y-78514205D01*
X67080774Y-78400937D01*
X67224937Y-78256774D01*
X67338205Y-78087256D01*
X67416226Y-77898898D01*
X67456000Y-77698939D01*
X67456000Y-77495061D01*
X67926000Y-77495061D01*
X67926000Y-77698939D01*
X67965774Y-77898898D01*
X68043795Y-78087256D01*
X68157063Y-78256774D01*
X68301226Y-78400937D01*
X68470744Y-78514205D01*
X68659102Y-78592226D01*
X68859061Y-78632000D01*
X69062939Y-78632000D01*
X69262898Y-78592226D01*
X69451256Y-78514205D01*
X69620774Y-78400937D01*
X69764937Y-78256774D01*
X69878205Y-78087256D01*
X69956226Y-77898898D01*
X69996000Y-77698939D01*
X69996000Y-77495061D01*
X70466000Y-77495061D01*
X70466000Y-77698939D01*
X70505774Y-77898898D01*
X70583795Y-78087256D01*
X70697063Y-78256774D01*
X70841226Y-78400937D01*
X71010744Y-78514205D01*
X71199102Y-78592226D01*
X71399061Y-78632000D01*
X71602939Y-78632000D01*
X71802898Y-78592226D01*
X71991256Y-78514205D01*
X72160774Y-78400937D01*
X72304937Y-78256774D01*
X72418205Y-78087256D01*
X72496226Y-77898898D01*
X72536000Y-77698939D01*
X72536000Y-77495061D01*
X73006000Y-77495061D01*
X73006000Y-77698939D01*
X73045774Y-77898898D01*
X73123795Y-78087256D01*
X73237063Y-78256774D01*
X73381226Y-78400937D01*
X73550744Y-78514205D01*
X73739102Y-78592226D01*
X73939061Y-78632000D01*
X74142939Y-78632000D01*
X74342898Y-78592226D01*
X74531256Y-78514205D01*
X74700774Y-78400937D01*
X74844937Y-78256774D01*
X74958205Y-78087256D01*
X75036226Y-77898898D01*
X75076000Y-77698939D01*
X75076000Y-77495061D01*
X75546000Y-77495061D01*
X75546000Y-77698939D01*
X75585774Y-77898898D01*
X75663795Y-78087256D01*
X75777063Y-78256774D01*
X75921226Y-78400937D01*
X76090744Y-78514205D01*
X76279102Y-78592226D01*
X76479061Y-78632000D01*
X76682939Y-78632000D01*
X76882898Y-78592226D01*
X77071256Y-78514205D01*
X77240774Y-78400937D01*
X77384937Y-78256774D01*
X77498205Y-78087256D01*
X77576226Y-77898898D01*
X77616000Y-77698939D01*
X77616000Y-77495061D01*
X80626000Y-77495061D01*
X80626000Y-77698939D01*
X80665774Y-77898898D01*
X80743795Y-78087256D01*
X80857063Y-78256774D01*
X81001226Y-78400937D01*
X81170744Y-78514205D01*
X81359102Y-78592226D01*
X81559061Y-78632000D01*
X81762939Y-78632000D01*
X81962898Y-78592226D01*
X82151256Y-78514205D01*
X82320774Y-78400937D01*
X82464937Y-78256774D01*
X82578205Y-78087256D01*
X82656226Y-77898898D01*
X82696000Y-77698939D01*
X82696000Y-77495061D01*
X83166000Y-77495061D01*
X83166000Y-77698939D01*
X83205774Y-77898898D01*
X83283795Y-78087256D01*
X83397063Y-78256774D01*
X83541226Y-78400937D01*
X83710744Y-78514205D01*
X83899102Y-78592226D01*
X84099061Y-78632000D01*
X84302939Y-78632000D01*
X84502898Y-78592226D01*
X84691256Y-78514205D01*
X84860774Y-78400937D01*
X85004937Y-78256774D01*
X85118205Y-78087256D01*
X85196226Y-77898898D01*
X85236000Y-77698939D01*
X85236000Y-77495061D01*
X85706000Y-77495061D01*
X85706000Y-77698939D01*
X85745774Y-77898898D01*
X85823795Y-78087256D01*
X85937063Y-78256774D01*
X86081226Y-78400937D01*
X86250744Y-78514205D01*
X86439102Y-78592226D01*
X86639061Y-78632000D01*
X86842939Y-78632000D01*
X87042898Y-78592226D01*
X87231256Y-78514205D01*
X87400774Y-78400937D01*
X87544937Y-78256774D01*
X87658205Y-78087256D01*
X87736226Y-77898898D01*
X87776000Y-77698939D01*
X87776000Y-77495061D01*
X88246000Y-77495061D01*
X88246000Y-77698939D01*
X88285774Y-77898898D01*
X88363795Y-78087256D01*
X88477063Y-78256774D01*
X88621226Y-78400937D01*
X88790744Y-78514205D01*
X88979102Y-78592226D01*
X89179061Y-78632000D01*
X89382939Y-78632000D01*
X89582898Y-78592226D01*
X89771256Y-78514205D01*
X89940774Y-78400937D01*
X90084937Y-78256774D01*
X90198205Y-78087256D01*
X90276226Y-77898898D01*
X90316000Y-77698939D01*
X90316000Y-77495061D01*
X90786000Y-77495061D01*
X90786000Y-77698939D01*
X90825774Y-77898898D01*
X90903795Y-78087256D01*
X91017063Y-78256774D01*
X91161226Y-78400937D01*
X91330744Y-78514205D01*
X91519102Y-78592226D01*
X91719061Y-78632000D01*
X91922939Y-78632000D01*
X92122898Y-78592226D01*
X92311256Y-78514205D01*
X92480774Y-78400937D01*
X92624937Y-78256774D01*
X92738205Y-78087256D01*
X92816226Y-77898898D01*
X92856000Y-77698939D01*
X92856000Y-77495061D01*
X93326000Y-77495061D01*
X93326000Y-77698939D01*
X93365774Y-77898898D01*
X93443795Y-78087256D01*
X93557063Y-78256774D01*
X93701226Y-78400937D01*
X93870744Y-78514205D01*
X94059102Y-78592226D01*
X94259061Y-78632000D01*
X94462939Y-78632000D01*
X94662898Y-78592226D01*
X94851256Y-78514205D01*
X95020774Y-78400937D01*
X95164937Y-78256774D01*
X95278205Y-78087256D01*
X95356226Y-77898898D01*
X95396000Y-77698939D01*
X95396000Y-77495061D01*
X95866000Y-77495061D01*
X95866000Y-77698939D01*
X95905774Y-77898898D01*
X95983795Y-78087256D01*
X96097063Y-78256774D01*
X96241226Y-78400937D01*
X96410744Y-78514205D01*
X96599102Y-78592226D01*
X96799061Y-78632000D01*
X97002939Y-78632000D01*
X97202898Y-78592226D01*
X97391256Y-78514205D01*
X97560774Y-78400937D01*
X97704937Y-78256774D01*
X97818205Y-78087256D01*
X97896226Y-77898898D01*
X97936000Y-77698939D01*
X97936000Y-77495061D01*
X98406000Y-77495061D01*
X98406000Y-77698939D01*
X98445774Y-77898898D01*
X98523795Y-78087256D01*
X98637063Y-78256774D01*
X98781226Y-78400937D01*
X98950744Y-78514205D01*
X99139102Y-78592226D01*
X99339061Y-78632000D01*
X99542939Y-78632000D01*
X99742898Y-78592226D01*
X99931256Y-78514205D01*
X100100774Y-78400937D01*
X100244937Y-78256774D01*
X100358205Y-78087256D01*
X100436226Y-77898898D01*
X100476000Y-77698939D01*
X100476000Y-77495061D01*
X100946000Y-77495061D01*
X100946000Y-77698939D01*
X100985774Y-77898898D01*
X101063795Y-78087256D01*
X101177063Y-78256774D01*
X101321226Y-78400937D01*
X101490744Y-78514205D01*
X101679102Y-78592226D01*
X101879061Y-78632000D01*
X102082939Y-78632000D01*
X102282898Y-78592226D01*
X102471256Y-78514205D01*
X102640774Y-78400937D01*
X102784937Y-78256774D01*
X102898205Y-78087256D01*
X102976226Y-77898898D01*
X103016000Y-77698939D01*
X103016000Y-77495061D01*
X103486000Y-77495061D01*
X103486000Y-77698939D01*
X103525774Y-77898898D01*
X103603795Y-78087256D01*
X103717063Y-78256774D01*
X103861226Y-78400937D01*
X104030744Y-78514205D01*
X104219102Y-78592226D01*
X104419061Y-78632000D01*
X104622939Y-78632000D01*
X104822898Y-78592226D01*
X105011256Y-78514205D01*
X105180774Y-78400937D01*
X105324937Y-78256774D01*
X105438205Y-78087256D01*
X105516226Y-77898898D01*
X105556000Y-77698939D01*
X105556000Y-77495061D01*
X106026000Y-77495061D01*
X106026000Y-77698939D01*
X106065774Y-77898898D01*
X106143795Y-78087256D01*
X106257063Y-78256774D01*
X106401226Y-78400937D01*
X106570744Y-78514205D01*
X106759102Y-78592226D01*
X106959061Y-78632000D01*
X107162939Y-78632000D01*
X107362898Y-78592226D01*
X107551256Y-78514205D01*
X107720774Y-78400937D01*
X107864937Y-78256774D01*
X107978205Y-78087256D01*
X108056226Y-77898898D01*
X108096000Y-77698939D01*
X108096000Y-77495061D01*
X108056226Y-77295102D01*
X107978205Y-77106744D01*
X107864937Y-76937226D01*
X107720774Y-76793063D01*
X107551256Y-76679795D01*
X107362898Y-76601774D01*
X107162939Y-76562000D01*
X106959061Y-76562000D01*
X106759102Y-76601774D01*
X106570744Y-76679795D01*
X106401226Y-76793063D01*
X106257063Y-76937226D01*
X106143795Y-77106744D01*
X106065774Y-77295102D01*
X106026000Y-77495061D01*
X105556000Y-77495061D01*
X105516226Y-77295102D01*
X105438205Y-77106744D01*
X105324937Y-76937226D01*
X105180774Y-76793063D01*
X105011256Y-76679795D01*
X104822898Y-76601774D01*
X104622939Y-76562000D01*
X104419061Y-76562000D01*
X104219102Y-76601774D01*
X104030744Y-76679795D01*
X103861226Y-76793063D01*
X103717063Y-76937226D01*
X103603795Y-77106744D01*
X103525774Y-77295102D01*
X103486000Y-77495061D01*
X103016000Y-77495061D01*
X102976226Y-77295102D01*
X102898205Y-77106744D01*
X102784937Y-76937226D01*
X102640774Y-76793063D01*
X102471256Y-76679795D01*
X102282898Y-76601774D01*
X102082939Y-76562000D01*
X101879061Y-76562000D01*
X101679102Y-76601774D01*
X101490744Y-76679795D01*
X101321226Y-76793063D01*
X101177063Y-76937226D01*
X101063795Y-77106744D01*
X100985774Y-77295102D01*
X100946000Y-77495061D01*
X100476000Y-77495061D01*
X100436226Y-77295102D01*
X100358205Y-77106744D01*
X100244937Y-76937226D01*
X100100774Y-76793063D01*
X99931256Y-76679795D01*
X99742898Y-76601774D01*
X99542939Y-76562000D01*
X99339061Y-76562000D01*
X99139102Y-76601774D01*
X98950744Y-76679795D01*
X98781226Y-76793063D01*
X98637063Y-76937226D01*
X98523795Y-77106744D01*
X98445774Y-77295102D01*
X98406000Y-77495061D01*
X97936000Y-77495061D01*
X97896226Y-77295102D01*
X97818205Y-77106744D01*
X97704937Y-76937226D01*
X97560774Y-76793063D01*
X97391256Y-76679795D01*
X97202898Y-76601774D01*
X97002939Y-76562000D01*
X96799061Y-76562000D01*
X96599102Y-76601774D01*
X96410744Y-76679795D01*
X96241226Y-76793063D01*
X96097063Y-76937226D01*
X95983795Y-77106744D01*
X95905774Y-77295102D01*
X95866000Y-77495061D01*
X95396000Y-77495061D01*
X95356226Y-77295102D01*
X95278205Y-77106744D01*
X95164937Y-76937226D01*
X95020774Y-76793063D01*
X94851256Y-76679795D01*
X94662898Y-76601774D01*
X94462939Y-76562000D01*
X94259061Y-76562000D01*
X94059102Y-76601774D01*
X93870744Y-76679795D01*
X93701226Y-76793063D01*
X93557063Y-76937226D01*
X93443795Y-77106744D01*
X93365774Y-77295102D01*
X93326000Y-77495061D01*
X92856000Y-77495061D01*
X92816226Y-77295102D01*
X92738205Y-77106744D01*
X92624937Y-76937226D01*
X92480774Y-76793063D01*
X92311256Y-76679795D01*
X92122898Y-76601774D01*
X91922939Y-76562000D01*
X91719061Y-76562000D01*
X91519102Y-76601774D01*
X91330744Y-76679795D01*
X91161226Y-76793063D01*
X91017063Y-76937226D01*
X90903795Y-77106744D01*
X90825774Y-77295102D01*
X90786000Y-77495061D01*
X90316000Y-77495061D01*
X90276226Y-77295102D01*
X90198205Y-77106744D01*
X90084937Y-76937226D01*
X89940774Y-76793063D01*
X89771256Y-76679795D01*
X89582898Y-76601774D01*
X89382939Y-76562000D01*
X89179061Y-76562000D01*
X88979102Y-76601774D01*
X88790744Y-76679795D01*
X88621226Y-76793063D01*
X88477063Y-76937226D01*
X88363795Y-77106744D01*
X88285774Y-77295102D01*
X88246000Y-77495061D01*
X87776000Y-77495061D01*
X87736226Y-77295102D01*
X87658205Y-77106744D01*
X87544937Y-76937226D01*
X87400774Y-76793063D01*
X87231256Y-76679795D01*
X87042898Y-76601774D01*
X86842939Y-76562000D01*
X86639061Y-76562000D01*
X86439102Y-76601774D01*
X86250744Y-76679795D01*
X86081226Y-76793063D01*
X85937063Y-76937226D01*
X85823795Y-77106744D01*
X85745774Y-77295102D01*
X85706000Y-77495061D01*
X85236000Y-77495061D01*
X85196226Y-77295102D01*
X85118205Y-77106744D01*
X85004937Y-76937226D01*
X84860774Y-76793063D01*
X84691256Y-76679795D01*
X84502898Y-76601774D01*
X84302939Y-76562000D01*
X84099061Y-76562000D01*
X83899102Y-76601774D01*
X83710744Y-76679795D01*
X83541226Y-76793063D01*
X83397063Y-76937226D01*
X83283795Y-77106744D01*
X83205774Y-77295102D01*
X83166000Y-77495061D01*
X82696000Y-77495061D01*
X82656226Y-77295102D01*
X82578205Y-77106744D01*
X82464937Y-76937226D01*
X82320774Y-76793063D01*
X82151256Y-76679795D01*
X81962898Y-76601774D01*
X81762939Y-76562000D01*
X81559061Y-76562000D01*
X81359102Y-76601774D01*
X81170744Y-76679795D01*
X81001226Y-76793063D01*
X80857063Y-76937226D01*
X80743795Y-77106744D01*
X80665774Y-77295102D01*
X80626000Y-77495061D01*
X77616000Y-77495061D01*
X77576226Y-77295102D01*
X77498205Y-77106744D01*
X77384937Y-76937226D01*
X77240774Y-76793063D01*
X77071256Y-76679795D01*
X76882898Y-76601774D01*
X76682939Y-76562000D01*
X76479061Y-76562000D01*
X76279102Y-76601774D01*
X76090744Y-76679795D01*
X75921226Y-76793063D01*
X75777063Y-76937226D01*
X75663795Y-77106744D01*
X75585774Y-77295102D01*
X75546000Y-77495061D01*
X75076000Y-77495061D01*
X75036226Y-77295102D01*
X74958205Y-77106744D01*
X74844937Y-76937226D01*
X74700774Y-76793063D01*
X74531256Y-76679795D01*
X74342898Y-76601774D01*
X74142939Y-76562000D01*
X73939061Y-76562000D01*
X73739102Y-76601774D01*
X73550744Y-76679795D01*
X73381226Y-76793063D01*
X73237063Y-76937226D01*
X73123795Y-77106744D01*
X73045774Y-77295102D01*
X73006000Y-77495061D01*
X72536000Y-77495061D01*
X72496226Y-77295102D01*
X72418205Y-77106744D01*
X72304937Y-76937226D01*
X72160774Y-76793063D01*
X71991256Y-76679795D01*
X71802898Y-76601774D01*
X71602939Y-76562000D01*
X71399061Y-76562000D01*
X71199102Y-76601774D01*
X71010744Y-76679795D01*
X70841226Y-76793063D01*
X70697063Y-76937226D01*
X70583795Y-77106744D01*
X70505774Y-77295102D01*
X70466000Y-77495061D01*
X69996000Y-77495061D01*
X69956226Y-77295102D01*
X69878205Y-77106744D01*
X69764937Y-76937226D01*
X69620774Y-76793063D01*
X69451256Y-76679795D01*
X69262898Y-76601774D01*
X69062939Y-76562000D01*
X68859061Y-76562000D01*
X68659102Y-76601774D01*
X68470744Y-76679795D01*
X68301226Y-76793063D01*
X68157063Y-76937226D01*
X68043795Y-77106744D01*
X67965774Y-77295102D01*
X67926000Y-77495061D01*
X67456000Y-77495061D01*
X67416226Y-77295102D01*
X67338205Y-77106744D01*
X67224937Y-76937226D01*
X67080774Y-76793063D01*
X66911256Y-76679795D01*
X66722898Y-76601774D01*
X66522939Y-76562000D01*
X66319061Y-76562000D01*
X66119102Y-76601774D01*
X65930744Y-76679795D01*
X65761226Y-76793063D01*
X65617063Y-76937226D01*
X65503795Y-77106744D01*
X65425774Y-77295102D01*
X65386000Y-77495061D01*
X64916000Y-77495061D01*
X64876226Y-77295102D01*
X64798205Y-77106744D01*
X64684937Y-76937226D01*
X64540774Y-76793063D01*
X64371256Y-76679795D01*
X64182898Y-76601774D01*
X63982939Y-76562000D01*
X63779061Y-76562000D01*
X63579102Y-76601774D01*
X63390744Y-76679795D01*
X63221226Y-76793063D01*
X63077063Y-76937226D01*
X62963795Y-77106744D01*
X62885774Y-77295102D01*
X62846000Y-77495061D01*
X62376000Y-77495061D01*
X62336226Y-77295102D01*
X62258205Y-77106744D01*
X62144937Y-76937226D01*
X62000774Y-76793063D01*
X61831256Y-76679795D01*
X61642898Y-76601774D01*
X61442939Y-76562000D01*
X61239061Y-76562000D01*
X61039102Y-76601774D01*
X60850744Y-76679795D01*
X60681226Y-76793063D01*
X60537063Y-76937226D01*
X60423795Y-77106744D01*
X60345774Y-77295102D01*
X60306000Y-77495061D01*
X59836000Y-77495061D01*
X59796226Y-77295102D01*
X59718205Y-77106744D01*
X59604937Y-76937226D01*
X59460774Y-76793063D01*
X59291256Y-76679795D01*
X59102898Y-76601774D01*
X58902939Y-76562000D01*
X58699061Y-76562000D01*
X58499102Y-76601774D01*
X58310744Y-76679795D01*
X58141226Y-76793063D01*
X57997063Y-76937226D01*
X57883795Y-77106744D01*
X57805774Y-77295102D01*
X57766000Y-77495061D01*
X57296000Y-77495061D01*
X57256226Y-77295102D01*
X57178205Y-77106744D01*
X57064937Y-76937226D01*
X56920774Y-76793063D01*
X56751256Y-76679795D01*
X56562898Y-76601774D01*
X56362939Y-76562000D01*
X56159061Y-76562000D01*
X55959102Y-76601774D01*
X55770744Y-76679795D01*
X55601226Y-76793063D01*
X55457063Y-76937226D01*
X55343795Y-77106744D01*
X55265774Y-77295102D01*
X55226000Y-77495061D01*
X52222000Y-77495061D01*
X52222000Y-74955061D01*
X67926000Y-74955061D01*
X67926000Y-75158939D01*
X67965774Y-75358898D01*
X68043795Y-75547256D01*
X68157063Y-75716774D01*
X68301226Y-75860937D01*
X68470744Y-75974205D01*
X68659102Y-76052226D01*
X68859061Y-76092000D01*
X69062939Y-76092000D01*
X69262898Y-76052226D01*
X69451256Y-75974205D01*
X69620774Y-75860937D01*
X69764937Y-75716774D01*
X69878205Y-75547256D01*
X69956226Y-75358898D01*
X69996000Y-75158939D01*
X69996000Y-75049986D01*
X98726000Y-75049986D01*
X98726000Y-75244014D01*
X98763853Y-75434314D01*
X98838104Y-75613572D01*
X98945901Y-75774901D01*
X99083099Y-75912099D01*
X99244428Y-76019896D01*
X99423686Y-76094147D01*
X99613986Y-76132000D01*
X99808014Y-76132000D01*
X99998314Y-76094147D01*
X100177572Y-76019896D01*
X100338901Y-75912099D01*
X100476099Y-75774901D01*
X100583896Y-75613572D01*
X100658147Y-75434314D01*
X100696000Y-75244014D01*
X100696000Y-75049986D01*
X100726000Y-75049986D01*
X100726000Y-75244014D01*
X100763853Y-75434314D01*
X100838104Y-75613572D01*
X100945901Y-75774901D01*
X101083099Y-75912099D01*
X101244428Y-76019896D01*
X101423686Y-76094147D01*
X101613986Y-76132000D01*
X101808014Y-76132000D01*
X101998314Y-76094147D01*
X102177572Y-76019896D01*
X102338901Y-75912099D01*
X102476099Y-75774901D01*
X102583896Y-75613572D01*
X102658147Y-75434314D01*
X102696000Y-75244014D01*
X102696000Y-75049986D01*
X102658147Y-74859686D01*
X102583896Y-74680428D01*
X102476099Y-74519099D01*
X102338901Y-74381901D01*
X102177572Y-74274104D01*
X101998314Y-74199853D01*
X101808014Y-74162000D01*
X101613986Y-74162000D01*
X101423686Y-74199853D01*
X101244428Y-74274104D01*
X101083099Y-74381901D01*
X100945901Y-74519099D01*
X100838104Y-74680428D01*
X100763853Y-74859686D01*
X100726000Y-75049986D01*
X100696000Y-75049986D01*
X100658147Y-74859686D01*
X100583896Y-74680428D01*
X100476099Y-74519099D01*
X100338901Y-74381901D01*
X100177572Y-74274104D01*
X99998314Y-74199853D01*
X99808014Y-74162000D01*
X99613986Y-74162000D01*
X99423686Y-74199853D01*
X99244428Y-74274104D01*
X99083099Y-74381901D01*
X98945901Y-74519099D01*
X98838104Y-74680428D01*
X98763853Y-74859686D01*
X98726000Y-75049986D01*
X69996000Y-75049986D01*
X69996000Y-74955061D01*
X69956226Y-74755102D01*
X69878205Y-74566744D01*
X69764937Y-74397226D01*
X69620774Y-74253063D01*
X69451256Y-74139795D01*
X69262898Y-74061774D01*
X69062939Y-74022000D01*
X68859061Y-74022000D01*
X68659102Y-74061774D01*
X68470744Y-74139795D01*
X68301226Y-74253063D01*
X68157063Y-74397226D01*
X68043795Y-74566744D01*
X67965774Y-74755102D01*
X67926000Y-74955061D01*
X52222000Y-74955061D01*
X52222000Y-72415061D01*
X67926000Y-72415061D01*
X67926000Y-72618939D01*
X67965774Y-72818898D01*
X68043795Y-73007256D01*
X68157063Y-73176774D01*
X68301226Y-73320937D01*
X68470744Y-73434205D01*
X68659102Y-73512226D01*
X68859061Y-73552000D01*
X69062939Y-73552000D01*
X69262898Y-73512226D01*
X69451256Y-73434205D01*
X69620774Y-73320937D01*
X69764937Y-73176774D01*
X69849653Y-73049986D01*
X100726000Y-73049986D01*
X100726000Y-73244014D01*
X100763853Y-73434314D01*
X100838104Y-73613572D01*
X100945901Y-73774901D01*
X101083099Y-73912099D01*
X101244428Y-74019896D01*
X101423686Y-74094147D01*
X101613986Y-74132000D01*
X101808014Y-74132000D01*
X101998314Y-74094147D01*
X102177572Y-74019896D01*
X102338901Y-73912099D01*
X102476099Y-73774901D01*
X102583896Y-73613572D01*
X102658147Y-73434314D01*
X102696000Y-73244014D01*
X102696000Y-73049986D01*
X102658147Y-72859686D01*
X102583896Y-72680428D01*
X102476099Y-72519099D01*
X102338901Y-72381901D01*
X102177572Y-72274104D01*
X101998314Y-72199853D01*
X101808014Y-72162000D01*
X101613986Y-72162000D01*
X101423686Y-72199853D01*
X101244428Y-72274104D01*
X101083099Y-72381901D01*
X100945901Y-72519099D01*
X100838104Y-72680428D01*
X100763853Y-72859686D01*
X100726000Y-73049986D01*
X69849653Y-73049986D01*
X69878205Y-73007256D01*
X69956226Y-72818898D01*
X69996000Y-72618939D01*
X69996000Y-72415061D01*
X69956226Y-72215102D01*
X69878205Y-72026744D01*
X69764937Y-71857226D01*
X69620774Y-71713063D01*
X69451256Y-71599795D01*
X69262898Y-71521774D01*
X69062939Y-71482000D01*
X68859061Y-71482000D01*
X68659102Y-71521774D01*
X68470744Y-71599795D01*
X68301226Y-71713063D01*
X68157063Y-71857226D01*
X68043795Y-72026744D01*
X67965774Y-72215102D01*
X67926000Y-72415061D01*
X52222000Y-72415061D01*
X52222000Y-71049986D01*
X98726000Y-71049986D01*
X98726000Y-71244014D01*
X98763853Y-71434314D01*
X98838104Y-71613572D01*
X98945901Y-71774901D01*
X99083099Y-71912099D01*
X99244428Y-72019896D01*
X99423686Y-72094147D01*
X99613986Y-72132000D01*
X99808014Y-72132000D01*
X99998314Y-72094147D01*
X100177572Y-72019896D01*
X100338901Y-71912099D01*
X100476099Y-71774901D01*
X100583896Y-71613572D01*
X100658147Y-71434314D01*
X100696000Y-71244014D01*
X100696000Y-71049986D01*
X100726000Y-71049986D01*
X100726000Y-71244014D01*
X100763853Y-71434314D01*
X100838104Y-71613572D01*
X100945901Y-71774901D01*
X101083099Y-71912099D01*
X101244428Y-72019896D01*
X101423686Y-72094147D01*
X101613986Y-72132000D01*
X101808014Y-72132000D01*
X101998314Y-72094147D01*
X102177572Y-72019896D01*
X102338901Y-71912099D01*
X102476099Y-71774901D01*
X102583896Y-71613572D01*
X102658147Y-71434314D01*
X102696000Y-71244014D01*
X102696000Y-71049986D01*
X102658147Y-70859686D01*
X102583896Y-70680428D01*
X102476099Y-70519099D01*
X102338901Y-70381901D01*
X102177572Y-70274104D01*
X101998314Y-70199853D01*
X101808014Y-70162000D01*
X101613986Y-70162000D01*
X101423686Y-70199853D01*
X101244428Y-70274104D01*
X101083099Y-70381901D01*
X100945901Y-70519099D01*
X100838104Y-70680428D01*
X100763853Y-70859686D01*
X100726000Y-71049986D01*
X100696000Y-71049986D01*
X100658147Y-70859686D01*
X100583896Y-70680428D01*
X100476099Y-70519099D01*
X100338901Y-70381901D01*
X100177572Y-70274104D01*
X99998314Y-70199853D01*
X99808014Y-70162000D01*
X99613986Y-70162000D01*
X99423686Y-70199853D01*
X99244428Y-70274104D01*
X99083099Y-70381901D01*
X98945901Y-70519099D01*
X98838104Y-70680428D01*
X98763853Y-70859686D01*
X98726000Y-71049986D01*
X52222000Y-71049986D01*
X52222000Y-67335061D01*
X67926000Y-67335061D01*
X67926000Y-67538939D01*
X67965774Y-67738898D01*
X68043795Y-67927256D01*
X68157063Y-68096774D01*
X68301226Y-68240937D01*
X68470744Y-68354205D01*
X68659102Y-68432226D01*
X68859061Y-68472000D01*
X69062939Y-68472000D01*
X69262898Y-68432226D01*
X69451256Y-68354205D01*
X69620774Y-68240937D01*
X69764937Y-68096774D01*
X69866349Y-67945000D01*
X74016056Y-67945000D01*
X74041000Y-67947457D01*
X74065944Y-67945000D01*
X74065947Y-67945000D01*
X74140585Y-67937649D01*
X74236343Y-67908601D01*
X74324595Y-67861429D01*
X74401948Y-67797948D01*
X74417855Y-67778565D01*
X76888896Y-65307524D01*
X102241000Y-65307524D01*
X102241000Y-65506476D01*
X102279814Y-65701606D01*
X102355950Y-65885414D01*
X102466482Y-66050837D01*
X102607163Y-66191518D01*
X102772586Y-66302050D01*
X102956394Y-66378186D01*
X103151524Y-66417000D01*
X103350476Y-66417000D01*
X103545606Y-66378186D01*
X103729414Y-66302050D01*
X103894837Y-66191518D01*
X104035518Y-66050837D01*
X104146050Y-65885414D01*
X104222186Y-65701606D01*
X104261000Y-65506476D01*
X104261000Y-65307524D01*
X104781000Y-65307524D01*
X104781000Y-65506476D01*
X104819814Y-65701606D01*
X104895950Y-65885414D01*
X105006482Y-66050837D01*
X105147163Y-66191518D01*
X105312586Y-66302050D01*
X105496394Y-66378186D01*
X105691524Y-66417000D01*
X105890476Y-66417000D01*
X106085606Y-66378186D01*
X106269414Y-66302050D01*
X106434837Y-66191518D01*
X106575518Y-66050837D01*
X106686050Y-65885414D01*
X106762186Y-65701606D01*
X106801000Y-65506476D01*
X106801000Y-65307524D01*
X106762186Y-65112394D01*
X106686050Y-64928586D01*
X106575518Y-64763163D01*
X106434837Y-64622482D01*
X106269414Y-64511950D01*
X106085606Y-64435814D01*
X105890476Y-64397000D01*
X105691524Y-64397000D01*
X105496394Y-64435814D01*
X105312586Y-64511950D01*
X105147163Y-64622482D01*
X105006482Y-64763163D01*
X104895950Y-64928586D01*
X104819814Y-65112394D01*
X104781000Y-65307524D01*
X104261000Y-65307524D01*
X104222186Y-65112394D01*
X104146050Y-64928586D01*
X104035518Y-64763163D01*
X103894837Y-64622482D01*
X103729414Y-64511950D01*
X103545606Y-64435814D01*
X103350476Y-64397000D01*
X103151524Y-64397000D01*
X102956394Y-64435814D01*
X102772586Y-64511950D01*
X102607163Y-64622482D01*
X102466482Y-64763163D01*
X102355950Y-64928586D01*
X102279814Y-65112394D01*
X102241000Y-65307524D01*
X76888896Y-65307524D01*
X78840031Y-63356389D01*
X79019061Y-63392000D01*
X79222939Y-63392000D01*
X79422898Y-63352226D01*
X79611256Y-63274205D01*
X79780774Y-63160937D01*
X79924937Y-63016774D01*
X80038205Y-62847256D01*
X80116226Y-62658898D01*
X80156000Y-62458939D01*
X80156000Y-62255061D01*
X80120389Y-62076031D01*
X80312421Y-61883999D01*
X80736648Y-61883999D01*
X80665774Y-62055102D01*
X80626000Y-62255061D01*
X80626000Y-62458939D01*
X80665774Y-62658898D01*
X80743795Y-62847256D01*
X80857063Y-63016774D01*
X81001226Y-63160937D01*
X81170744Y-63274205D01*
X81359102Y-63352226D01*
X81559061Y-63392000D01*
X81762939Y-63392000D01*
X81962898Y-63352226D01*
X82151256Y-63274205D01*
X82320774Y-63160937D01*
X82464937Y-63016774D01*
X82578205Y-62847256D01*
X82656226Y-62658898D01*
X82696000Y-62458939D01*
X82696000Y-62255061D01*
X82656226Y-62055102D01*
X82585352Y-61883999D01*
X83276648Y-61883999D01*
X83205774Y-62055102D01*
X83166000Y-62255061D01*
X83166000Y-62458939D01*
X83205774Y-62658898D01*
X83283795Y-62847256D01*
X83397063Y-63016774D01*
X83541226Y-63160937D01*
X83710744Y-63274205D01*
X83899102Y-63352226D01*
X84099061Y-63392000D01*
X84302939Y-63392000D01*
X84502898Y-63352226D01*
X84691256Y-63274205D01*
X84860774Y-63160937D01*
X85004937Y-63016774D01*
X85118205Y-62847256D01*
X85196226Y-62658898D01*
X85236000Y-62458939D01*
X85236000Y-62255061D01*
X85196226Y-62055102D01*
X85125352Y-61883999D01*
X85816648Y-61883999D01*
X85745774Y-62055102D01*
X85706000Y-62255061D01*
X85706000Y-62458939D01*
X85745774Y-62658898D01*
X85823795Y-62847256D01*
X85937063Y-63016774D01*
X86081226Y-63160937D01*
X86250744Y-63274205D01*
X86439102Y-63352226D01*
X86639061Y-63392000D01*
X86842939Y-63392000D01*
X87042898Y-63352226D01*
X87231256Y-63274205D01*
X87400774Y-63160937D01*
X87544937Y-63016774D01*
X87658205Y-62847256D01*
X87736226Y-62658898D01*
X87776000Y-62458939D01*
X87776000Y-62255061D01*
X87736226Y-62055102D01*
X87665352Y-61883999D01*
X88356648Y-61883999D01*
X88285774Y-62055102D01*
X88246000Y-62255061D01*
X88246000Y-62458939D01*
X88285774Y-62658898D01*
X88363795Y-62847256D01*
X88477063Y-63016774D01*
X88621226Y-63160937D01*
X88790744Y-63274205D01*
X88979102Y-63352226D01*
X89179061Y-63392000D01*
X89382939Y-63392000D01*
X89582898Y-63352226D01*
X89771256Y-63274205D01*
X89940774Y-63160937D01*
X90084937Y-63016774D01*
X90198205Y-62847256D01*
X90276226Y-62658898D01*
X90316000Y-62458939D01*
X90316000Y-62255061D01*
X90276226Y-62055102D01*
X90205352Y-61883999D01*
X90896648Y-61883999D01*
X90825774Y-62055102D01*
X90786000Y-62255061D01*
X90786000Y-62458939D01*
X90825774Y-62658898D01*
X90903795Y-62847256D01*
X91017063Y-63016774D01*
X91161226Y-63160937D01*
X91330744Y-63274205D01*
X91519102Y-63352226D01*
X91719061Y-63392000D01*
X91922939Y-63392000D01*
X92122898Y-63352226D01*
X92311256Y-63274205D01*
X92480774Y-63160937D01*
X92624937Y-63016774D01*
X92738205Y-62847256D01*
X92816226Y-62658898D01*
X92856000Y-62458939D01*
X92856000Y-62255061D01*
X92816226Y-62055102D01*
X92745352Y-61883999D01*
X93260757Y-61883999D01*
X93285701Y-61886456D01*
X93310645Y-61883999D01*
X93310648Y-61883999D01*
X93385286Y-61876648D01*
X93450369Y-61856905D01*
X93443795Y-61866744D01*
X93365774Y-62055102D01*
X93326000Y-62255061D01*
X93326000Y-62458939D01*
X93365774Y-62658898D01*
X93443795Y-62847256D01*
X93557063Y-63016774D01*
X93701226Y-63160937D01*
X93870744Y-63274205D01*
X94059102Y-63352226D01*
X94259061Y-63392000D01*
X94462939Y-63392000D01*
X94662898Y-63352226D01*
X94851256Y-63274205D01*
X95020774Y-63160937D01*
X95164937Y-63016774D01*
X95278205Y-62847256D01*
X95356226Y-62658898D01*
X95396000Y-62458939D01*
X95396000Y-62255061D01*
X95866000Y-62255061D01*
X95866000Y-62458939D01*
X95905774Y-62658898D01*
X95983795Y-62847256D01*
X96097063Y-63016774D01*
X96241226Y-63160937D01*
X96410744Y-63274205D01*
X96599102Y-63352226D01*
X96799061Y-63392000D01*
X97002939Y-63392000D01*
X97202898Y-63352226D01*
X97391256Y-63274205D01*
X97560774Y-63160937D01*
X97704937Y-63016774D01*
X97818205Y-62847256D01*
X97896226Y-62658898D01*
X97936000Y-62458939D01*
X97936000Y-62255061D01*
X98406000Y-62255061D01*
X98406000Y-62458939D01*
X98445774Y-62658898D01*
X98523795Y-62847256D01*
X98637063Y-63016774D01*
X98781226Y-63160937D01*
X98950744Y-63274205D01*
X99139102Y-63352226D01*
X99339061Y-63392000D01*
X99542939Y-63392000D01*
X99742898Y-63352226D01*
X99931256Y-63274205D01*
X100100774Y-63160937D01*
X100244937Y-63016774D01*
X100358205Y-62847256D01*
X100436226Y-62658898D01*
X100476000Y-62458939D01*
X100476000Y-62255061D01*
X100946000Y-62255061D01*
X100946000Y-62458939D01*
X100985774Y-62658898D01*
X101063795Y-62847256D01*
X101177063Y-63016774D01*
X101321226Y-63160937D01*
X101490744Y-63274205D01*
X101679102Y-63352226D01*
X101879061Y-63392000D01*
X102082939Y-63392000D01*
X102282898Y-63352226D01*
X102471256Y-63274205D01*
X102640774Y-63160937D01*
X102784937Y-63016774D01*
X102898205Y-62847256D01*
X102976226Y-62658898D01*
X103016000Y-62458939D01*
X103016000Y-62255061D01*
X103486000Y-62255061D01*
X103486000Y-62458939D01*
X103525774Y-62658898D01*
X103603795Y-62847256D01*
X103717063Y-63016774D01*
X103861226Y-63160937D01*
X104030744Y-63274205D01*
X104219102Y-63352226D01*
X104419061Y-63392000D01*
X104622939Y-63392000D01*
X104822898Y-63352226D01*
X105011256Y-63274205D01*
X105180774Y-63160937D01*
X105324937Y-63016774D01*
X105438205Y-62847256D01*
X105516226Y-62658898D01*
X105556000Y-62458939D01*
X105556000Y-62255061D01*
X106026000Y-62255061D01*
X106026000Y-62458939D01*
X106065774Y-62658898D01*
X106143795Y-62847256D01*
X106257063Y-63016774D01*
X106401226Y-63160937D01*
X106570744Y-63274205D01*
X106759102Y-63352226D01*
X106959061Y-63392000D01*
X107162939Y-63392000D01*
X107362898Y-63352226D01*
X107551256Y-63274205D01*
X107720774Y-63160937D01*
X107864937Y-63016774D01*
X107978205Y-62847256D01*
X108056226Y-62658898D01*
X108096000Y-62458939D01*
X108096000Y-62255061D01*
X108056226Y-62055102D01*
X107978205Y-61866744D01*
X107864937Y-61697226D01*
X107720774Y-61553063D01*
X107551256Y-61439795D01*
X107362898Y-61361774D01*
X107162939Y-61322000D01*
X106959061Y-61322000D01*
X106759102Y-61361774D01*
X106570744Y-61439795D01*
X106401226Y-61553063D01*
X106257063Y-61697226D01*
X106143795Y-61866744D01*
X106065774Y-62055102D01*
X106026000Y-62255061D01*
X105556000Y-62255061D01*
X105516226Y-62055102D01*
X105438205Y-61866744D01*
X105324937Y-61697226D01*
X105180774Y-61553063D01*
X105011256Y-61439795D01*
X104822898Y-61361774D01*
X104622939Y-61322000D01*
X104419061Y-61322000D01*
X104219102Y-61361774D01*
X104030744Y-61439795D01*
X103861226Y-61553063D01*
X103717063Y-61697226D01*
X103603795Y-61866744D01*
X103525774Y-62055102D01*
X103486000Y-62255061D01*
X103016000Y-62255061D01*
X102976226Y-62055102D01*
X102898205Y-61866744D01*
X102784937Y-61697226D01*
X102640774Y-61553063D01*
X102471256Y-61439795D01*
X102282898Y-61361774D01*
X102082939Y-61322000D01*
X101879061Y-61322000D01*
X101679102Y-61361774D01*
X101490744Y-61439795D01*
X101321226Y-61553063D01*
X101177063Y-61697226D01*
X101063795Y-61866744D01*
X100985774Y-62055102D01*
X100946000Y-62255061D01*
X100476000Y-62255061D01*
X100436226Y-62055102D01*
X100358205Y-61866744D01*
X100244937Y-61697226D01*
X100100774Y-61553063D01*
X99931256Y-61439795D01*
X99742898Y-61361774D01*
X99542939Y-61322000D01*
X99339061Y-61322000D01*
X99139102Y-61361774D01*
X98950744Y-61439795D01*
X98781226Y-61553063D01*
X98637063Y-61697226D01*
X98523795Y-61866744D01*
X98445774Y-62055102D01*
X98406000Y-62255061D01*
X97936000Y-62255061D01*
X97896226Y-62055102D01*
X97818205Y-61866744D01*
X97704937Y-61697226D01*
X97560774Y-61553063D01*
X97391256Y-61439795D01*
X97202898Y-61361774D01*
X97002939Y-61322000D01*
X96799061Y-61322000D01*
X96599102Y-61361774D01*
X96410744Y-61439795D01*
X96241226Y-61553063D01*
X96097063Y-61697226D01*
X95983795Y-61866744D01*
X95905774Y-62055102D01*
X95866000Y-62255061D01*
X95396000Y-62255061D01*
X95356226Y-62055102D01*
X95278205Y-61866744D01*
X95164937Y-61697226D01*
X95020774Y-61553063D01*
X94851256Y-61439795D01*
X94662898Y-61361774D01*
X94462939Y-61322000D01*
X94259061Y-61322000D01*
X94059102Y-61361774D01*
X93989527Y-61390593D01*
X100610677Y-54769443D01*
X101050100Y-54769443D01*
X101171123Y-54757523D01*
X101287495Y-54722222D01*
X101390222Y-54667313D01*
X108115999Y-61393091D01*
X108116000Y-64261221D01*
X108113552Y-64286077D01*
X108123321Y-64385269D01*
X108132834Y-64416631D01*
X108036394Y-64435814D01*
X107852586Y-64511950D01*
X107687163Y-64622482D01*
X107546482Y-64763163D01*
X107435950Y-64928586D01*
X107359814Y-65112394D01*
X107321000Y-65307524D01*
X107321000Y-65506476D01*
X107359814Y-65701606D01*
X107435950Y-65885414D01*
X107546482Y-66050837D01*
X107687163Y-66191518D01*
X107852586Y-66302050D01*
X108036394Y-66378186D01*
X108231524Y-66417000D01*
X108430476Y-66417000D01*
X108625606Y-66378186D01*
X108809414Y-66302050D01*
X108974837Y-66191518D01*
X109095000Y-66071355D01*
X109095001Y-76690314D01*
X108941226Y-76793063D01*
X108797063Y-76937226D01*
X108683795Y-77106744D01*
X108605774Y-77295102D01*
X108566000Y-77495061D01*
X108566000Y-77698939D01*
X108605774Y-77898898D01*
X108683795Y-78087256D01*
X108797063Y-78256774D01*
X108941226Y-78400937D01*
X109110744Y-78514205D01*
X109299102Y-78592226D01*
X109499061Y-78632000D01*
X109702939Y-78632000D01*
X109902898Y-78592226D01*
X110091256Y-78514205D01*
X110260774Y-78400937D01*
X110404937Y-78256774D01*
X110518205Y-78087256D01*
X110596226Y-77898898D01*
X110636000Y-77698939D01*
X110636000Y-77495061D01*
X113646000Y-77495061D01*
X113646000Y-77698939D01*
X113685774Y-77898898D01*
X113763795Y-78087256D01*
X113877063Y-78256774D01*
X114021226Y-78400937D01*
X114190744Y-78514205D01*
X114379102Y-78592226D01*
X114579061Y-78632000D01*
X114782939Y-78632000D01*
X114982898Y-78592226D01*
X115171256Y-78514205D01*
X115340774Y-78400937D01*
X115484937Y-78256774D01*
X115598205Y-78087256D01*
X115676226Y-77898898D01*
X115716000Y-77698939D01*
X115716000Y-77495061D01*
X115676226Y-77295102D01*
X115598205Y-77106744D01*
X115484937Y-76937226D01*
X115340774Y-76793063D01*
X115171256Y-76679795D01*
X114982898Y-76601774D01*
X114782939Y-76562000D01*
X114579061Y-76562000D01*
X114379102Y-76601774D01*
X114190744Y-76679795D01*
X114021226Y-76793063D01*
X113877063Y-76937226D01*
X113763795Y-77106744D01*
X113685774Y-77295102D01*
X113646000Y-77495061D01*
X110636000Y-77495061D01*
X110596226Y-77295102D01*
X110518205Y-77106744D01*
X110404937Y-76937226D01*
X110260774Y-76793063D01*
X110107000Y-76690315D01*
X110107000Y-74955061D01*
X111106000Y-74955061D01*
X111106000Y-75158939D01*
X111145774Y-75358898D01*
X111223795Y-75547256D01*
X111337063Y-75716774D01*
X111481226Y-75860937D01*
X111650744Y-75974205D01*
X111839102Y-76052226D01*
X112039061Y-76092000D01*
X112242939Y-76092000D01*
X112442898Y-76052226D01*
X112631256Y-75974205D01*
X112800774Y-75860937D01*
X112944937Y-75716774D01*
X113058205Y-75547256D01*
X113136226Y-75358898D01*
X113176000Y-75158939D01*
X113176000Y-74955061D01*
X113136226Y-74755102D01*
X113058205Y-74566744D01*
X112944937Y-74397226D01*
X112800774Y-74253063D01*
X112631256Y-74139795D01*
X112442898Y-74061774D01*
X112242939Y-74022000D01*
X112039061Y-74022000D01*
X111839102Y-74061774D01*
X111650744Y-74139795D01*
X111481226Y-74253063D01*
X111337063Y-74397226D01*
X111223795Y-74566744D01*
X111145774Y-74755102D01*
X111106000Y-74955061D01*
X110107000Y-74955061D01*
X110107000Y-65289923D01*
X110109447Y-65265077D01*
X110107000Y-65240231D01*
X110107000Y-65240224D01*
X110099678Y-65165885D01*
X110070745Y-65070503D01*
X110023759Y-64982599D01*
X109960527Y-64905551D01*
X109941220Y-64889706D01*
X109127999Y-64076486D01*
X109127999Y-63281352D01*
X109299102Y-63352226D01*
X109499061Y-63392000D01*
X109702939Y-63392000D01*
X109902898Y-63352226D01*
X110091256Y-63274205D01*
X110260774Y-63160937D01*
X110404937Y-63016774D01*
X110518205Y-62847256D01*
X110596226Y-62658898D01*
X110636000Y-62458939D01*
X110636000Y-62255061D01*
X111106000Y-62255061D01*
X111106000Y-62458939D01*
X111145774Y-62658898D01*
X111223795Y-62847256D01*
X111337063Y-63016774D01*
X111481226Y-63160937D01*
X111650744Y-63274205D01*
X111839102Y-63352226D01*
X112039061Y-63392000D01*
X112242939Y-63392000D01*
X112442898Y-63352226D01*
X112631256Y-63274205D01*
X112800774Y-63160937D01*
X112944937Y-63016774D01*
X113058205Y-62847256D01*
X113136226Y-62658898D01*
X113176000Y-62458939D01*
X113176000Y-62255061D01*
X113136226Y-62055102D01*
X113058205Y-61866744D01*
X112944937Y-61697226D01*
X112800774Y-61553063D01*
X112631256Y-61439795D01*
X112442898Y-61361774D01*
X112242939Y-61322000D01*
X112039061Y-61322000D01*
X111839102Y-61361774D01*
X111650744Y-61439795D01*
X111481226Y-61553063D01*
X111337063Y-61697226D01*
X111223795Y-61866744D01*
X111145774Y-62055102D01*
X111106000Y-62255061D01*
X110636000Y-62255061D01*
X110596226Y-62055102D01*
X110518205Y-61866744D01*
X110404937Y-61697226D01*
X110260774Y-61553063D01*
X110091256Y-61439795D01*
X109902898Y-61361774D01*
X109702939Y-61322000D01*
X109499061Y-61322000D01*
X109299102Y-61361774D01*
X109127999Y-61432648D01*
X109127999Y-61208353D01*
X109130447Y-61183499D01*
X109120677Y-61084306D01*
X109091744Y-60988924D01*
X109044758Y-60901020D01*
X108981526Y-60823972D01*
X108962219Y-60808127D01*
X103404992Y-55250900D01*
X107447757Y-55250900D01*
X107447757Y-55850900D01*
X107459677Y-55971923D01*
X107494978Y-56088295D01*
X107552304Y-56195544D01*
X107629451Y-56289549D01*
X107723456Y-56366696D01*
X107810833Y-56413400D01*
X107723456Y-56460104D01*
X107629451Y-56537251D01*
X107552304Y-56631256D01*
X107494978Y-56738505D01*
X107459677Y-56854877D01*
X107447757Y-56975900D01*
X107447757Y-57575900D01*
X107459677Y-57696923D01*
X107494978Y-57813295D01*
X107552304Y-57920544D01*
X107629451Y-58014549D01*
X107723456Y-58091696D01*
X107830705Y-58149022D01*
X107947077Y-58184323D01*
X108068100Y-58196243D01*
X108543100Y-58196243D01*
X108664123Y-58184323D01*
X108780495Y-58149022D01*
X108887744Y-58091696D01*
X108981749Y-58014549D01*
X109058896Y-57920544D01*
X109116222Y-57813295D01*
X109151523Y-57696923D01*
X109163443Y-57575900D01*
X109163443Y-57414148D01*
X110297592Y-56280000D01*
X110439922Y-56280000D01*
X110590809Y-56249987D01*
X110732942Y-56191113D01*
X110860859Y-56105642D01*
X110969642Y-55996859D01*
X111055113Y-55868942D01*
X111113987Y-55726809D01*
X111144000Y-55575922D01*
X111144000Y-55422078D01*
X111113987Y-55271191D01*
X111055113Y-55129058D01*
X110969642Y-55001141D01*
X110860859Y-54892358D01*
X110732942Y-54806887D01*
X110590809Y-54748013D01*
X110439922Y-54718000D01*
X110286078Y-54718000D01*
X110135191Y-54748013D01*
X109993058Y-54806887D01*
X109865141Y-54892358D01*
X109756358Y-55001141D01*
X109670887Y-55129058D01*
X109612013Y-55271191D01*
X109582000Y-55422078D01*
X109582000Y-55564408D01*
X109141524Y-56004884D01*
X109151523Y-55971923D01*
X109163443Y-55850900D01*
X109163443Y-55250900D01*
X109151523Y-55129877D01*
X109116222Y-55013505D01*
X109058896Y-54906256D01*
X108981749Y-54812251D01*
X108887744Y-54735104D01*
X108780495Y-54677778D01*
X108710000Y-54656394D01*
X108710000Y-54177791D01*
X109541625Y-53346166D01*
X109569674Y-53380344D01*
X109588981Y-53396189D01*
X114828812Y-58636021D01*
X114844657Y-58655328D01*
X114921705Y-58718560D01*
X115009609Y-58765546D01*
X115104991Y-58794479D01*
X115204184Y-58804249D01*
X115229038Y-58801801D01*
X117135953Y-58801801D01*
X117160799Y-58804248D01*
X117185645Y-58801801D01*
X117185653Y-58801801D01*
X117259992Y-58794479D01*
X117355374Y-58765546D01*
X117443278Y-58718560D01*
X117520326Y-58655328D01*
X117536175Y-58636016D01*
X117859612Y-58312579D01*
X118056793Y-58351800D01*
X118264807Y-58351800D01*
X118468824Y-58311219D01*
X118661004Y-58231615D01*
X118833961Y-58116049D01*
X118981049Y-57968961D01*
X119096615Y-57796004D01*
X119102957Y-57780693D01*
X119102957Y-57970800D01*
X119110313Y-58045489D01*
X119132099Y-58117308D01*
X119167478Y-58183496D01*
X119215089Y-58241511D01*
X119273104Y-58289122D01*
X119339292Y-58324501D01*
X119411111Y-58346287D01*
X119485800Y-58353643D01*
X120835800Y-58353643D01*
X120910489Y-58346287D01*
X120982308Y-58324501D01*
X121048496Y-58289122D01*
X121106511Y-58241511D01*
X121154122Y-58183496D01*
X121189501Y-58117308D01*
X121211287Y-58045489D01*
X121218643Y-57970800D01*
X121218643Y-56953549D01*
X121501021Y-56671171D01*
X121520328Y-56655326D01*
X121583560Y-56578278D01*
X121630546Y-56490374D01*
X121659479Y-56394992D01*
X121666801Y-56320653D01*
X121666801Y-56320645D01*
X121669248Y-56295799D01*
X121666801Y-56270953D01*
X121666801Y-50573646D01*
X121669248Y-50548800D01*
X121666801Y-50523954D01*
X121666801Y-50523947D01*
X121659479Y-50449608D01*
X121630546Y-50354226D01*
X121583560Y-50266322D01*
X121520328Y-50189274D01*
X121501021Y-50173429D01*
X120690376Y-49362785D01*
X120674527Y-49343473D01*
X120597479Y-49280241D01*
X120509575Y-49233255D01*
X120414193Y-49204322D01*
X120339854Y-49197000D01*
X120339846Y-49197000D01*
X120315000Y-49194553D01*
X120290154Y-49197000D01*
X119600806Y-49197000D01*
X119542355Y-49109522D01*
X119412678Y-48979845D01*
X119260194Y-48877958D01*
X119090763Y-48807778D01*
X118910896Y-48772000D01*
X118727504Y-48772000D01*
X118547637Y-48807778D01*
X118378206Y-48877958D01*
X118225722Y-48979845D01*
X118108000Y-49097567D01*
X118108000Y-48919845D01*
X118110447Y-48894999D01*
X118108000Y-48870153D01*
X118108000Y-48870146D01*
X118101652Y-48805694D01*
X118100678Y-48795806D01*
X118071745Y-48700425D01*
X118024759Y-48612521D01*
X117961527Y-48535473D01*
X117942215Y-48519624D01*
X117723376Y-48300785D01*
X117707527Y-48281473D01*
X117630479Y-48218241D01*
X117542575Y-48171255D01*
X117447193Y-48142322D01*
X117372854Y-48135000D01*
X117372846Y-48135000D01*
X117348000Y-48132553D01*
X117323154Y-48135000D01*
X116483854Y-48135000D01*
X116459000Y-48132552D01*
X116434146Y-48135000D01*
X116359807Y-48142322D01*
X116264425Y-48171255D01*
X116176521Y-48218241D01*
X116099473Y-48281473D01*
X116083624Y-48300785D01*
X115938981Y-48445428D01*
X115919674Y-48461273D01*
X115856442Y-48538321D01*
X115847645Y-48554779D01*
X115809455Y-48626226D01*
X115780522Y-48721608D01*
X115770753Y-48820800D01*
X115773201Y-48845656D01*
X115773201Y-48921393D01*
X115685722Y-48979845D01*
X115556045Y-49109522D01*
X115454158Y-49262006D01*
X115383978Y-49431437D01*
X115348200Y-49611304D01*
X115348200Y-49794696D01*
X115383978Y-49974563D01*
X115454158Y-50143994D01*
X115556045Y-50296478D01*
X115680567Y-50421000D01*
X115213854Y-50421000D01*
X115189000Y-50418552D01*
X115164146Y-50421000D01*
X115089807Y-50428322D01*
X114994425Y-50457255D01*
X114906521Y-50504241D01*
X114829473Y-50567473D01*
X114813624Y-50586785D01*
X114668985Y-50731424D01*
X114649673Y-50747273D01*
X114586441Y-50824321D01*
X114539455Y-50912226D01*
X114510522Y-51007608D01*
X114503200Y-51081947D01*
X114503200Y-51081954D01*
X114500753Y-51106800D01*
X114503200Y-51131647D01*
X114503200Y-51461394D01*
X114415722Y-51519845D01*
X114286045Y-51649522D01*
X114184158Y-51802006D01*
X114113978Y-51971437D01*
X114078200Y-52151304D01*
X114078200Y-52334696D01*
X114113978Y-52514563D01*
X114184158Y-52683994D01*
X114286045Y-52836478D01*
X114415722Y-52966155D01*
X114568206Y-53068042D01*
X114737637Y-53138222D01*
X114917504Y-53174000D01*
X115100896Y-53174000D01*
X115280763Y-53138222D01*
X115450194Y-53068042D01*
X115602678Y-52966155D01*
X115654801Y-52914032D01*
X115654800Y-54363858D01*
X115487639Y-54475551D01*
X115340551Y-54622639D01*
X115224985Y-54795596D01*
X115145381Y-54987776D01*
X115104800Y-55191793D01*
X115104800Y-55399807D01*
X115135689Y-55555097D01*
X112975200Y-53394609D01*
X112975200Y-53024606D01*
X113062678Y-52966155D01*
X113192355Y-52836478D01*
X113294242Y-52683994D01*
X113364422Y-52514563D01*
X113400200Y-52334696D01*
X113400200Y-52151304D01*
X113364422Y-51971437D01*
X113294242Y-51802006D01*
X113192355Y-51649522D01*
X113062678Y-51519845D01*
X112910194Y-51417958D01*
X112740763Y-51347778D01*
X112560896Y-51312000D01*
X112377504Y-51312000D01*
X112197637Y-51347778D01*
X112028206Y-51417958D01*
X111875722Y-51519845D01*
X111746045Y-51649522D01*
X111644158Y-51802006D01*
X111573978Y-51971437D01*
X111538200Y-52151304D01*
X111538200Y-52334696D01*
X111573978Y-52514563D01*
X111644158Y-52683994D01*
X111746045Y-52836478D01*
X111875722Y-52966155D01*
X111963200Y-53024606D01*
X111963200Y-53579353D01*
X111960753Y-53604200D01*
X111963200Y-53629046D01*
X111963200Y-53629053D01*
X111970522Y-53703392D01*
X111999455Y-53798774D01*
X112046441Y-53886679D01*
X112109673Y-53963727D01*
X112128985Y-53979576D01*
X115144021Y-56994613D01*
X115104800Y-57191793D01*
X115104800Y-57399807D01*
X115124917Y-57500942D01*
X110556404Y-52932429D01*
X110652355Y-52836478D01*
X110754242Y-52683994D01*
X110824422Y-52514563D01*
X110860200Y-52334696D01*
X110860200Y-52151304D01*
X110824422Y-51971437D01*
X110754242Y-51802006D01*
X110652355Y-51649522D01*
X110522678Y-51519845D01*
X110435200Y-51461394D01*
X110435200Y-50235349D01*
X110476045Y-50296478D01*
X110605722Y-50426155D01*
X110758206Y-50528042D01*
X110927637Y-50598222D01*
X111107504Y-50634000D01*
X111290896Y-50634000D01*
X111470763Y-50598222D01*
X111640194Y-50528042D01*
X111792678Y-50426155D01*
X111922355Y-50296478D01*
X112024242Y-50143994D01*
X112094422Y-49974563D01*
X112130200Y-49794696D01*
X112130200Y-49611304D01*
X112808200Y-49611304D01*
X112808200Y-49794696D01*
X112843978Y-49974563D01*
X112914158Y-50143994D01*
X113016045Y-50296478D01*
X113145722Y-50426155D01*
X113298206Y-50528042D01*
X113467637Y-50598222D01*
X113647504Y-50634000D01*
X113830896Y-50634000D01*
X114010763Y-50598222D01*
X114180194Y-50528042D01*
X114332678Y-50426155D01*
X114462355Y-50296478D01*
X114564242Y-50143994D01*
X114634422Y-49974563D01*
X114670200Y-49794696D01*
X114670200Y-49611304D01*
X114634422Y-49431437D01*
X114564242Y-49262006D01*
X114462355Y-49109522D01*
X114332678Y-48979845D01*
X114180194Y-48877958D01*
X114010763Y-48807778D01*
X113830896Y-48772000D01*
X113647504Y-48772000D01*
X113467637Y-48807778D01*
X113298206Y-48877958D01*
X113145722Y-48979845D01*
X113016045Y-49109522D01*
X112914158Y-49262006D01*
X112843978Y-49431437D01*
X112808200Y-49611304D01*
X112130200Y-49611304D01*
X112094422Y-49431437D01*
X112024242Y-49262006D01*
X111922355Y-49109522D01*
X111792678Y-48979845D01*
X111640194Y-48877958D01*
X111470763Y-48807778D01*
X111290896Y-48772000D01*
X111107504Y-48772000D01*
X110927637Y-48807778D01*
X110758206Y-48877958D01*
X110605722Y-48979845D01*
X110476045Y-49109522D01*
X110435200Y-49170651D01*
X110435200Y-46985589D01*
X114302297Y-43118492D01*
X117708200Y-43118492D01*
X117708200Y-43587508D01*
X117799700Y-44047512D01*
X117979185Y-44480827D01*
X118239756Y-44870799D01*
X118571401Y-45202444D01*
X118961373Y-45463015D01*
X119394688Y-45642500D01*
X119854692Y-45734000D01*
X120323708Y-45734000D01*
X120783712Y-45642500D01*
X121217027Y-45463015D01*
X121606999Y-45202444D01*
X121938644Y-44870799D01*
X122199215Y-44480827D01*
X122378700Y-44047512D01*
X122470200Y-43587508D01*
X122470200Y-43118492D01*
X122378700Y-42658488D01*
X122199215Y-42225173D01*
X121938644Y-41835201D01*
X121606999Y-41503556D01*
X121217027Y-41242985D01*
X120783712Y-41063500D01*
X120323708Y-40972000D01*
X119854692Y-40972000D01*
X119394688Y-41063500D01*
X118961373Y-41242985D01*
X118571401Y-41503556D01*
X118239756Y-41835201D01*
X117979185Y-42225173D01*
X117799700Y-42658488D01*
X117708200Y-43118492D01*
X114302297Y-43118492D01*
X117106923Y-40313867D01*
X117119743Y-40378316D01*
X117201231Y-40575045D01*
X117319533Y-40752097D01*
X117470103Y-40902667D01*
X117647155Y-41020969D01*
X117843884Y-41102457D01*
X118052731Y-41144000D01*
X118265669Y-41144000D01*
X118474516Y-41102457D01*
X118671245Y-41020969D01*
X118848297Y-40902667D01*
X118998867Y-40752097D01*
X119117169Y-40575045D01*
X119198657Y-40378316D01*
X119240200Y-40169469D01*
X119240200Y-39956531D01*
X119198657Y-39747684D01*
X119117169Y-39550955D01*
X118998867Y-39373903D01*
X118848297Y-39223333D01*
X118671245Y-39105031D01*
X118474516Y-39023543D01*
X118410067Y-39010723D01*
X118641790Y-38779000D01*
X119738727Y-38779000D01*
X119741231Y-38785045D01*
X119859533Y-38962097D01*
X120010103Y-39112667D01*
X120187155Y-39230969D01*
X120383884Y-39312457D01*
X120592731Y-39354000D01*
X120805669Y-39354000D01*
X121014516Y-39312457D01*
X121211245Y-39230969D01*
X121388297Y-39112667D01*
X121538867Y-38962097D01*
X121657169Y-38785045D01*
X121738657Y-38588316D01*
X121780200Y-38379469D01*
X121780200Y-38166531D01*
X121738657Y-37957684D01*
X121657169Y-37760955D01*
X121538867Y-37583903D01*
X121388297Y-37433333D01*
X121211245Y-37315031D01*
X121014516Y-37233543D01*
X120805669Y-37192000D01*
X120592731Y-37192000D01*
X120383884Y-37233543D01*
X120187155Y-37315031D01*
X120010103Y-37433333D01*
X119859533Y-37583903D01*
X119741231Y-37760955D01*
X119738727Y-37767000D01*
X118457043Y-37767000D01*
X118432197Y-37764553D01*
X118407351Y-37767000D01*
X118407344Y-37767000D01*
X118342892Y-37773348D01*
X118333004Y-37774322D01*
X118237623Y-37803255D01*
X118149719Y-37850241D01*
X118072671Y-37913473D01*
X118056826Y-37932780D01*
X109588985Y-46400622D01*
X109569673Y-46416471D01*
X109506441Y-46493519D01*
X109459455Y-46581424D01*
X109430522Y-46676806D01*
X109423200Y-46751145D01*
X109423200Y-46751152D01*
X109420753Y-46775998D01*
X109423200Y-46800844D01*
X109423201Y-51461393D01*
X109335722Y-51519845D01*
X109206045Y-51649522D01*
X109104158Y-51802006D01*
X109033978Y-51971437D01*
X108998200Y-52151304D01*
X108998200Y-52334696D01*
X109018725Y-52437883D01*
X107863785Y-53592824D01*
X107844473Y-53608673D01*
X107781241Y-53685721D01*
X107734255Y-53773626D01*
X107705322Y-53869008D01*
X107698000Y-53943347D01*
X107698000Y-53943354D01*
X107695553Y-53968200D01*
X107698000Y-53993047D01*
X107698001Y-54755995D01*
X107629451Y-54812251D01*
X107552304Y-54906256D01*
X107494978Y-55013505D01*
X107459677Y-55129877D01*
X107447757Y-55250900D01*
X103404992Y-55250900D01*
X101666865Y-53512774D01*
X101658523Y-53428077D01*
X101623222Y-53311705D01*
X101565896Y-53204456D01*
X101488749Y-53110451D01*
X101394744Y-53033304D01*
X101287495Y-52975978D01*
X101171123Y-52940677D01*
X101050100Y-52928757D01*
X100607849Y-52928757D01*
X99947000Y-52267909D01*
X99947000Y-43118492D01*
X106278200Y-43118492D01*
X106278200Y-43587508D01*
X106369700Y-44047512D01*
X106549185Y-44480827D01*
X106809756Y-44870799D01*
X107141401Y-45202444D01*
X107531373Y-45463015D01*
X107964688Y-45642500D01*
X108424692Y-45734000D01*
X108893708Y-45734000D01*
X109353712Y-45642500D01*
X109787027Y-45463015D01*
X110176999Y-45202444D01*
X110508644Y-44870799D01*
X110769215Y-44480827D01*
X110948700Y-44047512D01*
X111040200Y-43587508D01*
X111040200Y-43118492D01*
X110948700Y-42658488D01*
X110769215Y-42225173D01*
X110508644Y-41835201D01*
X110176999Y-41503556D01*
X109787027Y-41242985D01*
X109353712Y-41063500D01*
X108893708Y-40972000D01*
X108634533Y-40972000D01*
X108738297Y-40902667D01*
X108888867Y-40752097D01*
X109007169Y-40575045D01*
X109088657Y-40378316D01*
X109130200Y-40169469D01*
X109130200Y-39956531D01*
X109088657Y-39747684D01*
X109007169Y-39550955D01*
X108888867Y-39373903D01*
X108738297Y-39223333D01*
X108561245Y-39105031D01*
X108364516Y-39023543D01*
X108155669Y-38982000D01*
X107942731Y-38982000D01*
X107733884Y-39023543D01*
X107537155Y-39105031D01*
X107360103Y-39223333D01*
X107209533Y-39373903D01*
X107091231Y-39550955D01*
X107009743Y-39747684D01*
X106968200Y-39956531D01*
X106968200Y-40169469D01*
X107009743Y-40378316D01*
X107091231Y-40575045D01*
X107209533Y-40752097D01*
X107360103Y-40902667D01*
X107537155Y-41020969D01*
X107733884Y-41102457D01*
X107826271Y-41120834D01*
X107531373Y-41242985D01*
X107141401Y-41503556D01*
X106809756Y-41835201D01*
X106549185Y-42225173D01*
X106369700Y-42658488D01*
X106278200Y-43118492D01*
X99947000Y-43118492D01*
X99947000Y-38166531D01*
X109508200Y-38166531D01*
X109508200Y-38379469D01*
X109549743Y-38588316D01*
X109631231Y-38785045D01*
X109749533Y-38962097D01*
X109900103Y-39112667D01*
X110077155Y-39230969D01*
X110273884Y-39312457D01*
X110482731Y-39354000D01*
X110695669Y-39354000D01*
X110904516Y-39312457D01*
X111101245Y-39230969D01*
X111278297Y-39112667D01*
X111428867Y-38962097D01*
X111547169Y-38785045D01*
X111628657Y-38588316D01*
X111670200Y-38379469D01*
X111670200Y-38166531D01*
X111628657Y-37957684D01*
X111547169Y-37760955D01*
X111428867Y-37583903D01*
X111278297Y-37433333D01*
X111101245Y-37315031D01*
X110904516Y-37233543D01*
X110695669Y-37192000D01*
X110482731Y-37192000D01*
X110273884Y-37233543D01*
X110077155Y-37315031D01*
X109900103Y-37433333D01*
X109749533Y-37583903D01*
X109631231Y-37760955D01*
X109549743Y-37957684D01*
X109508200Y-38166531D01*
X99947000Y-38166531D01*
X99947000Y-36206582D01*
X99982413Y-36191913D01*
X100169620Y-36066826D01*
X100328826Y-35907620D01*
X100453913Y-35720413D01*
X100540075Y-35512401D01*
X100584000Y-35291576D01*
X100584000Y-35066424D01*
X100540075Y-34845599D01*
X100453913Y-34637587D01*
X100328826Y-34450380D01*
X100169620Y-34291174D01*
X99982413Y-34166087D01*
X99774401Y-34079925D01*
X99553576Y-34036000D01*
X99328424Y-34036000D01*
X99107599Y-34079925D01*
X98899587Y-34166087D01*
X98712380Y-34291174D01*
X98553174Y-34450380D01*
X98428087Y-34637587D01*
X98341925Y-34845599D01*
X98298000Y-35066424D01*
X98298000Y-35291576D01*
X98341925Y-35512401D01*
X98428087Y-35720413D01*
X98553174Y-35907620D01*
X98712380Y-36066826D01*
X98899587Y-36191913D01*
X98935000Y-36206582D01*
X98935001Y-52452644D01*
X98932553Y-52477500D01*
X98942322Y-52576692D01*
X98971255Y-52672074D01*
X98971256Y-52672075D01*
X99018242Y-52759979D01*
X99081474Y-52837027D01*
X99100780Y-52852871D01*
X99954757Y-53706849D01*
X99954757Y-53988523D01*
X93075281Y-60867999D01*
X80126945Y-60867999D01*
X80102001Y-60865542D01*
X80077057Y-60867999D01*
X80077054Y-60867999D01*
X80002416Y-60875350D01*
X79906658Y-60904398D01*
X79865577Y-60926356D01*
X79818405Y-60951570D01*
X79790289Y-60974645D01*
X79741053Y-61015051D01*
X79725146Y-61034434D01*
X79401969Y-61357611D01*
X79222939Y-61322000D01*
X79019061Y-61322000D01*
X78819102Y-61361774D01*
X78630744Y-61439795D01*
X78461226Y-61553063D01*
X78317063Y-61697226D01*
X78203795Y-61866744D01*
X78125774Y-62055102D01*
X78086000Y-62255061D01*
X78086000Y-62458939D01*
X78121611Y-62637969D01*
X73830580Y-66929000D01*
X69866349Y-66929000D01*
X69764937Y-66777226D01*
X69620774Y-66633063D01*
X69451256Y-66519795D01*
X69262898Y-66441774D01*
X69062939Y-66402000D01*
X68859061Y-66402000D01*
X68659102Y-66441774D01*
X68470744Y-66519795D01*
X68301226Y-66633063D01*
X68157063Y-66777226D01*
X68043795Y-66946744D01*
X67965774Y-67135102D01*
X67926000Y-67335061D01*
X52222000Y-67335061D01*
X52222000Y-62255061D01*
X55226000Y-62255061D01*
X55226000Y-62458939D01*
X55265774Y-62658898D01*
X55343795Y-62847256D01*
X55457063Y-63016774D01*
X55601226Y-63160937D01*
X55770744Y-63274205D01*
X55959102Y-63352226D01*
X56159061Y-63392000D01*
X56362939Y-63392000D01*
X56562898Y-63352226D01*
X56751256Y-63274205D01*
X56920774Y-63160937D01*
X57064937Y-63016774D01*
X57178205Y-62847256D01*
X57256226Y-62658898D01*
X57296000Y-62458939D01*
X57296000Y-62255061D01*
X57766000Y-62255061D01*
X57766000Y-62458939D01*
X57805774Y-62658898D01*
X57883795Y-62847256D01*
X57997063Y-63016774D01*
X58141226Y-63160937D01*
X58310744Y-63274205D01*
X58499102Y-63352226D01*
X58699061Y-63392000D01*
X58902939Y-63392000D01*
X59102898Y-63352226D01*
X59291256Y-63274205D01*
X59460774Y-63160937D01*
X59604937Y-63016774D01*
X59718205Y-62847256D01*
X59796226Y-62658898D01*
X59836000Y-62458939D01*
X59836000Y-62255061D01*
X60306000Y-62255061D01*
X60306000Y-62458939D01*
X60345774Y-62658898D01*
X60423795Y-62847256D01*
X60537063Y-63016774D01*
X60681226Y-63160937D01*
X60850744Y-63274205D01*
X61039102Y-63352226D01*
X61239061Y-63392000D01*
X61442939Y-63392000D01*
X61642898Y-63352226D01*
X61831256Y-63274205D01*
X62000774Y-63160937D01*
X62144937Y-63016774D01*
X62258205Y-62847256D01*
X62336226Y-62658898D01*
X62376000Y-62458939D01*
X62376000Y-62255061D01*
X62336226Y-62055102D01*
X62258205Y-61866744D01*
X62144937Y-61697226D01*
X62000774Y-61553063D01*
X61831256Y-61439795D01*
X61642898Y-61361774D01*
X61442939Y-61322000D01*
X61239061Y-61322000D01*
X61039102Y-61361774D01*
X60850744Y-61439795D01*
X60681226Y-61553063D01*
X60537063Y-61697226D01*
X60423795Y-61866744D01*
X60345774Y-62055102D01*
X60306000Y-62255061D01*
X59836000Y-62255061D01*
X59796226Y-62055102D01*
X59718205Y-61866744D01*
X59604937Y-61697226D01*
X59460774Y-61553063D01*
X59291256Y-61439795D01*
X59102898Y-61361774D01*
X58902939Y-61322000D01*
X58699061Y-61322000D01*
X58499102Y-61361774D01*
X58310744Y-61439795D01*
X58141226Y-61553063D01*
X57997063Y-61697226D01*
X57883795Y-61866744D01*
X57805774Y-62055102D01*
X57766000Y-62255061D01*
X57296000Y-62255061D01*
X57256226Y-62055102D01*
X57178205Y-61866744D01*
X57064937Y-61697226D01*
X56920774Y-61553063D01*
X56751256Y-61439795D01*
X56562898Y-61361774D01*
X56362939Y-61322000D01*
X56159061Y-61322000D01*
X55959102Y-61361774D01*
X55770744Y-61439795D01*
X55601226Y-61553063D01*
X55457063Y-61697226D01*
X55343795Y-61866744D01*
X55265774Y-62055102D01*
X55226000Y-62255061D01*
X52222000Y-62255061D01*
X52222000Y-35379001D01*
X55042542Y-35379001D01*
X55045000Y-35403955D01*
X55044999Y-46638055D01*
X55042542Y-46662999D01*
X55044999Y-46687943D01*
X55044999Y-46687945D01*
X55052350Y-46762583D01*
X55081398Y-46858341D01*
X55128570Y-46946594D01*
X55192051Y-47023947D01*
X55211434Y-47039854D01*
X57154145Y-48982565D01*
X57170052Y-49001948D01*
X57247405Y-49065429D01*
X57335657Y-49112601D01*
X57402157Y-49132774D01*
X57402157Y-49911000D01*
X57409513Y-49985689D01*
X57431299Y-50057508D01*
X57466678Y-50123696D01*
X57514289Y-50181711D01*
X57572304Y-50229322D01*
X57638492Y-50264701D01*
X57710311Y-50286487D01*
X57785000Y-50293843D01*
X61894423Y-50293843D01*
X64897001Y-53296422D01*
X64897000Y-55468038D01*
X64632432Y-55577626D01*
X64365298Y-55756119D01*
X64138119Y-55983298D01*
X63959626Y-56250432D01*
X63836678Y-56547255D01*
X63774000Y-56862360D01*
X63774000Y-57183640D01*
X63836678Y-57498745D01*
X63959626Y-57795568D01*
X64138119Y-58062702D01*
X64365298Y-58289881D01*
X64632432Y-58468374D01*
X64897000Y-58577962D01*
X64897001Y-62159545D01*
X64876226Y-62055102D01*
X64798205Y-61866744D01*
X64684937Y-61697226D01*
X64540774Y-61553063D01*
X64371256Y-61439795D01*
X64182898Y-61361774D01*
X63982939Y-61322000D01*
X63779061Y-61322000D01*
X63579102Y-61361774D01*
X63390744Y-61439795D01*
X63221226Y-61553063D01*
X63077063Y-61697226D01*
X62963795Y-61866744D01*
X62885774Y-62055102D01*
X62846000Y-62255061D01*
X62846000Y-62458939D01*
X62885774Y-62658898D01*
X62963795Y-62847256D01*
X63077063Y-63016774D01*
X63221226Y-63160937D01*
X63390744Y-63274205D01*
X63579102Y-63352226D01*
X63779061Y-63392000D01*
X63982939Y-63392000D01*
X64182898Y-63352226D01*
X64371256Y-63274205D01*
X64540774Y-63160937D01*
X64684937Y-63016774D01*
X64798205Y-62847256D01*
X64876226Y-62658898D01*
X64897001Y-62554454D01*
X64897001Y-62767928D01*
X64894543Y-62792882D01*
X64904352Y-62892466D01*
X64933400Y-62988225D01*
X64980571Y-63076477D01*
X65028150Y-63134452D01*
X65044053Y-63153830D01*
X65063430Y-63169732D01*
X67132268Y-65238571D01*
X67148170Y-65257948D01*
X67167547Y-65273850D01*
X67225522Y-65321429D01*
X67305672Y-65364270D01*
X67313775Y-65368601D01*
X67409533Y-65397649D01*
X67484171Y-65405000D01*
X67484173Y-65405000D01*
X67509117Y-65407457D01*
X67534061Y-65405000D01*
X68055651Y-65405000D01*
X68157063Y-65556774D01*
X68301226Y-65700937D01*
X68470744Y-65814205D01*
X68659102Y-65892226D01*
X68859061Y-65932000D01*
X69062939Y-65932000D01*
X69262898Y-65892226D01*
X69451256Y-65814205D01*
X69620774Y-65700937D01*
X69764937Y-65556774D01*
X69878205Y-65387256D01*
X69956226Y-65198898D01*
X69996000Y-64998939D01*
X69996000Y-64795061D01*
X69956226Y-64595102D01*
X69878205Y-64406744D01*
X69764937Y-64237226D01*
X69620774Y-64093063D01*
X69451256Y-63979795D01*
X69262898Y-63901774D01*
X69062939Y-63862000D01*
X68859061Y-63862000D01*
X68659102Y-63901774D01*
X68470744Y-63979795D01*
X68301226Y-64093063D01*
X68157063Y-64237226D01*
X68055651Y-64389000D01*
X67719539Y-64389000D01*
X66689423Y-63358885D01*
X66722898Y-63352226D01*
X66911256Y-63274205D01*
X67080774Y-63160937D01*
X67224937Y-63016774D01*
X67338205Y-62847256D01*
X67416226Y-62658898D01*
X67456000Y-62458939D01*
X67456000Y-62255061D01*
X67926000Y-62255061D01*
X67926000Y-62458939D01*
X67965774Y-62658898D01*
X68043795Y-62847256D01*
X68157063Y-63016774D01*
X68301226Y-63160937D01*
X68470744Y-63274205D01*
X68659102Y-63352226D01*
X68859061Y-63392000D01*
X69062939Y-63392000D01*
X69262898Y-63352226D01*
X69451256Y-63274205D01*
X69620774Y-63160937D01*
X69764937Y-63016774D01*
X69878205Y-62847256D01*
X69956226Y-62658898D01*
X69996000Y-62458939D01*
X69996000Y-62255061D01*
X70466000Y-62255061D01*
X70466000Y-62458939D01*
X70505774Y-62658898D01*
X70583795Y-62847256D01*
X70697063Y-63016774D01*
X70841226Y-63160937D01*
X71010744Y-63274205D01*
X71199102Y-63352226D01*
X71399061Y-63392000D01*
X71602939Y-63392000D01*
X71802898Y-63352226D01*
X71991256Y-63274205D01*
X72160774Y-63160937D01*
X72304937Y-63016774D01*
X72418205Y-62847256D01*
X72496226Y-62658898D01*
X72536000Y-62458939D01*
X72536000Y-62255061D01*
X73006000Y-62255061D01*
X73006000Y-62458939D01*
X73045774Y-62658898D01*
X73123795Y-62847256D01*
X73237063Y-63016774D01*
X73381226Y-63160937D01*
X73550744Y-63274205D01*
X73739102Y-63352226D01*
X73939061Y-63392000D01*
X74142939Y-63392000D01*
X74342898Y-63352226D01*
X74531256Y-63274205D01*
X74700774Y-63160937D01*
X74844937Y-63016774D01*
X74958205Y-62847256D01*
X75036226Y-62658898D01*
X75076000Y-62458939D01*
X75076000Y-62255061D01*
X75546000Y-62255061D01*
X75546000Y-62458939D01*
X75585774Y-62658898D01*
X75663795Y-62847256D01*
X75777063Y-63016774D01*
X75921226Y-63160937D01*
X76090744Y-63274205D01*
X76279102Y-63352226D01*
X76479061Y-63392000D01*
X76682939Y-63392000D01*
X76882898Y-63352226D01*
X77071256Y-63274205D01*
X77240774Y-63160937D01*
X77384937Y-63016774D01*
X77498205Y-62847256D01*
X77576226Y-62658898D01*
X77616000Y-62458939D01*
X77616000Y-62255061D01*
X77576226Y-62055102D01*
X77498205Y-61866744D01*
X77384937Y-61697226D01*
X77240774Y-61553063D01*
X77071256Y-61439795D01*
X76882898Y-61361774D01*
X76682939Y-61322000D01*
X76479061Y-61322000D01*
X76279102Y-61361774D01*
X76090744Y-61439795D01*
X75921226Y-61553063D01*
X75777063Y-61697226D01*
X75663795Y-61866744D01*
X75585774Y-62055102D01*
X75546000Y-62255061D01*
X75076000Y-62255061D01*
X75036226Y-62055102D01*
X74958205Y-61866744D01*
X74844937Y-61697226D01*
X74700774Y-61553063D01*
X74531256Y-61439795D01*
X74342898Y-61361774D01*
X74142939Y-61322000D01*
X73939061Y-61322000D01*
X73739102Y-61361774D01*
X73550744Y-61439795D01*
X73381226Y-61553063D01*
X73237063Y-61697226D01*
X73123795Y-61866744D01*
X73045774Y-62055102D01*
X73006000Y-62255061D01*
X72536000Y-62255061D01*
X72496226Y-62055102D01*
X72418205Y-61866744D01*
X72304937Y-61697226D01*
X72160774Y-61553063D01*
X71991256Y-61439795D01*
X71802898Y-61361774D01*
X71602939Y-61322000D01*
X71399061Y-61322000D01*
X71199102Y-61361774D01*
X71010744Y-61439795D01*
X70841226Y-61553063D01*
X70697063Y-61697226D01*
X70583795Y-61866744D01*
X70505774Y-62055102D01*
X70466000Y-62255061D01*
X69996000Y-62255061D01*
X69956226Y-62055102D01*
X69878205Y-61866744D01*
X69764937Y-61697226D01*
X69620774Y-61553063D01*
X69451256Y-61439795D01*
X69262898Y-61361774D01*
X69062939Y-61322000D01*
X68859061Y-61322000D01*
X68659102Y-61361774D01*
X68470744Y-61439795D01*
X68301226Y-61553063D01*
X68157063Y-61697226D01*
X68043795Y-61866744D01*
X67965774Y-62055102D01*
X67926000Y-62255061D01*
X67456000Y-62255061D01*
X67416226Y-62055102D01*
X67338205Y-61866744D01*
X67224937Y-61697226D01*
X67080774Y-61553063D01*
X66911256Y-61439795D01*
X66722898Y-61361774D01*
X66522939Y-61322000D01*
X66319061Y-61322000D01*
X66119102Y-61361774D01*
X65930744Y-61439795D01*
X65913000Y-61451651D01*
X65913000Y-58577962D01*
X66177568Y-58468374D01*
X66444702Y-58289881D01*
X66671881Y-58062702D01*
X66850374Y-57795568D01*
X66973322Y-57498745D01*
X67036000Y-57183640D01*
X67036000Y-56862360D01*
X66973322Y-56547255D01*
X66850374Y-56250432D01*
X66671881Y-55983298D01*
X66444702Y-55756119D01*
X66177568Y-55577626D01*
X65913000Y-55468038D01*
X65913000Y-53110943D01*
X65915457Y-53085999D01*
X65912987Y-53060920D01*
X65905649Y-52986415D01*
X65876601Y-52890657D01*
X65876600Y-52890655D01*
X65829429Y-52802404D01*
X65781850Y-52744429D01*
X65765948Y-52725052D01*
X65746571Y-52709150D01*
X63331263Y-50293843D01*
X64135000Y-50293843D01*
X64209689Y-50286487D01*
X64281508Y-50264701D01*
X64347696Y-50229322D01*
X64405711Y-50181711D01*
X64453322Y-50123696D01*
X64488701Y-50057508D01*
X64510487Y-49985689D01*
X64517843Y-49911000D01*
X64517843Y-48886707D01*
X80137000Y-48886707D01*
X80137000Y-49462093D01*
X80249253Y-50026424D01*
X80469444Y-50558012D01*
X80789112Y-51036429D01*
X81195971Y-51443288D01*
X81674388Y-51762956D01*
X82205976Y-51983147D01*
X82770307Y-52095400D01*
X83345693Y-52095400D01*
X83910024Y-51983147D01*
X84441612Y-51762956D01*
X84920029Y-51443288D01*
X85326888Y-51036429D01*
X85646556Y-50558012D01*
X85866747Y-50026424D01*
X85935576Y-49680400D01*
X86440511Y-49680400D01*
X88367500Y-51607390D01*
X88367501Y-52265854D01*
X88336105Y-52275378D01*
X88228856Y-52332704D01*
X88134851Y-52409851D01*
X88057704Y-52503856D01*
X88000378Y-52611105D01*
X87965077Y-52727477D01*
X87953157Y-52848500D01*
X87953157Y-53323500D01*
X87965077Y-53444523D01*
X88000378Y-53560895D01*
X88057704Y-53668144D01*
X88134851Y-53762149D01*
X88228856Y-53839296D01*
X88336105Y-53896622D01*
X88452477Y-53931923D01*
X88573500Y-53943843D01*
X89173500Y-53943843D01*
X89294523Y-53931923D01*
X89410895Y-53896622D01*
X89518144Y-53839296D01*
X89612149Y-53762149D01*
X89689296Y-53668144D01*
X89746622Y-53560895D01*
X89781923Y-53444523D01*
X89793843Y-53323500D01*
X89793843Y-52848500D01*
X89781923Y-52727477D01*
X89746622Y-52611105D01*
X89689296Y-52503856D01*
X89612149Y-52409851D01*
X89518144Y-52332704D01*
X89410895Y-52275378D01*
X89379500Y-52265854D01*
X89379500Y-51422652D01*
X89381948Y-51397798D01*
X89372178Y-51298605D01*
X89343245Y-51203223D01*
X89339049Y-51195373D01*
X89296259Y-51115319D01*
X89233027Y-51038271D01*
X89213720Y-51022426D01*
X87025478Y-48834185D01*
X87009629Y-48814873D01*
X86932581Y-48751641D01*
X86844677Y-48704655D01*
X86749295Y-48675722D01*
X86674956Y-48668400D01*
X86674948Y-48668400D01*
X86650102Y-48665953D01*
X86625256Y-48668400D01*
X85935576Y-48668400D01*
X85866747Y-48322376D01*
X85646556Y-47790788D01*
X85451682Y-47499138D01*
X94702565Y-38248255D01*
X94721948Y-38232348D01*
X94775962Y-38166531D01*
X94785429Y-38154996D01*
X94826356Y-38078426D01*
X94832601Y-38066743D01*
X94861649Y-37970985D01*
X94869000Y-37896347D01*
X94869000Y-37896344D01*
X94871457Y-37871400D01*
X94869000Y-37846456D01*
X94869000Y-36205753D01*
X94902413Y-36191913D01*
X95089620Y-36066826D01*
X95248826Y-35907620D01*
X95373913Y-35720413D01*
X95460075Y-35512401D01*
X95504000Y-35291576D01*
X95504000Y-35066424D01*
X95460075Y-34845599D01*
X95373913Y-34637587D01*
X95248826Y-34450380D01*
X95089620Y-34291174D01*
X94902413Y-34166087D01*
X94694401Y-34079925D01*
X94473576Y-34036000D01*
X94248424Y-34036000D01*
X94027599Y-34079925D01*
X93819587Y-34166087D01*
X93632380Y-34291174D01*
X93473174Y-34450380D01*
X93348087Y-34637587D01*
X93261925Y-34845599D01*
X93218000Y-35066424D01*
X93218000Y-35291576D01*
X93261925Y-35512401D01*
X93348087Y-35720413D01*
X93473174Y-35907620D01*
X93632380Y-36066826D01*
X93819587Y-36191913D01*
X93853001Y-36205753D01*
X93853000Y-37660980D01*
X84733262Y-46780718D01*
X84441612Y-46585844D01*
X83910024Y-46365653D01*
X83345693Y-46253400D01*
X82770307Y-46253400D01*
X82205976Y-46365653D01*
X81674388Y-46585844D01*
X81195971Y-46905512D01*
X80789112Y-47312371D01*
X80469444Y-47790788D01*
X80249253Y-48322376D01*
X80137000Y-48886707D01*
X64517843Y-48886707D01*
X64517843Y-47371000D01*
X64510487Y-47296311D01*
X64488701Y-47224492D01*
X64453322Y-47158304D01*
X64405711Y-47100289D01*
X64347696Y-47052678D01*
X64281508Y-47017299D01*
X64209689Y-46995513D01*
X64135000Y-46988157D01*
X57785000Y-46988157D01*
X57710311Y-46995513D01*
X57638492Y-47017299D01*
X57572304Y-47052678D01*
X57514289Y-47100289D01*
X57466678Y-47158304D01*
X57431299Y-47224492D01*
X57409513Y-47296311D01*
X57402157Y-47371000D01*
X57402157Y-47793737D01*
X56060999Y-46452579D01*
X56060999Y-35589421D01*
X57402157Y-34248263D01*
X57402157Y-34671000D01*
X57409513Y-34745689D01*
X57431299Y-34817508D01*
X57466678Y-34883696D01*
X57514289Y-34941711D01*
X57572304Y-34989322D01*
X57638492Y-35024701D01*
X57710311Y-35046487D01*
X57785000Y-35053843D01*
X64135000Y-35053843D01*
X64209689Y-35046487D01*
X64281508Y-35024701D01*
X64347696Y-34989322D01*
X64405711Y-34941711D01*
X64453322Y-34883696D01*
X64488701Y-34817508D01*
X64510487Y-34745689D01*
X64517843Y-34671000D01*
X64517843Y-32131000D01*
X64510487Y-32056311D01*
X64488701Y-31984492D01*
X64453322Y-31918304D01*
X64405711Y-31860289D01*
X64347696Y-31812678D01*
X64281508Y-31777299D01*
X64209689Y-31755513D01*
X64135000Y-31748157D01*
X57785000Y-31748157D01*
X57710311Y-31755513D01*
X57638492Y-31777299D01*
X57572304Y-31812678D01*
X57514289Y-31860289D01*
X57466678Y-31918304D01*
X57431299Y-31984492D01*
X57409513Y-32056311D01*
X57402157Y-32131000D01*
X57402157Y-32909226D01*
X57335657Y-32929399D01*
X57247405Y-32976571D01*
X57170052Y-33040052D01*
X57154145Y-33059435D01*
X55211429Y-35002151D01*
X55192052Y-35018053D01*
X55176150Y-35037430D01*
X55176149Y-35037431D01*
X55128570Y-35095406D01*
X55081399Y-35183658D01*
X55052351Y-35279417D01*
X55042542Y-35379001D01*
X52222000Y-35379001D01*
X52222000Y-28553146D01*
X52246450Y-28612173D01*
X52695167Y-29283725D01*
X53266275Y-29854833D01*
X53937827Y-30303550D01*
X54684016Y-30612632D01*
X55476166Y-30770200D01*
X56283834Y-30770200D01*
X57075984Y-30612632D01*
X57822173Y-30303550D01*
X58493725Y-29854833D01*
X59064833Y-29283725D01*
X59513550Y-28612173D01*
X59822632Y-27865984D01*
X59980200Y-27073834D01*
X59980200Y-26266166D01*
X59822632Y-25474016D01*
X59513550Y-24727827D01*
X59064833Y-24056275D01*
X58493725Y-23485167D01*
X57822173Y-23036450D01*
X57763146Y-23012000D01*
X120122146Y-23012000D01*
X120852128Y-23083575D01*
G37*
%TD.AperFunction*%
%TD*%
M02*
